<svg width="2850" height="1801" viewBox="0 0 2850 1801" fill="none" xmlns="http://www.w3.org/2000/svg">
<g clip-path="url(#clip0_748_2162)">
<g clip-path="url(#clip1_748_2162)">
<path d="M891.75 1035.58L1136.55 835.978L1399.95 756.178H1439.85L1825.55 367.778C1825.55 367.778 1854.85 357.178 1916.05 367.778C2006.55 378.378 2126.25 363.078 2126.25 363.078C2126.25 363.078 2305.75 200.478 2362.95 237.478C2445.45 258.678 2849.75 506.078 2849.75 506.078L2846.35 1786.38H-3.6499C-3.6499 1786.38 -3.6499 1293.38 891.75 1035.58Z" fill="url(#paint0_linear_748_2162)"/>
<path opacity="0.04" d="M-1.24976 1128.68V1173.88C766.15 1187.38 1149.95 1202.78 1149.95 1219.98C1149.95 1232.78 937.15 1246.68 511.25 1261.58C620.85 1268.98 731.85 1274.58 844.45 1278.18C1557.35 1300.98 2224.35 1240.48 2837.45 1129.28V959.778C2399.85 1046.78 1906.45 1115.98 1365.25 1145.18C869.05 1171.98 411.05 1160.98 -1.24976 1128.68Z" fill="#FCAA51"/>
<path opacity="0.15" d="M2575.15 444.978C2605.85 502.478 2561.15 608.578 2567.15 622.578C2573.15 636.578 2670.95 578.678 2680.85 554.778C2690.85 530.878 2692.85 538.778 2706.75 552.778C2720.65 566.778 2760.65 510.878 2788.55 510.878C2816.45 510.878 2849.75 506.178 2849.75 506.178C2849.75 506.178 2536.95 303.578 2403.75 249.878C2386.95 243.178 2346.65 232.378 2336.35 233.578C2262.85 241.778 2126.25 363.078 2126.25 363.078C2126.25 363.078 2006.55 378.478 1916.05 367.778C1854.85 357.178 1825.55 367.778 1825.55 367.778L1439.85 756.178H1399.95L1136.55 835.978L982.25 966.978C982.25 966.978 1134.55 851.978 1162.55 853.978C1190.55 855.978 1370.05 798.078 1370.05 798.078L1124.65 1008.48C1124.65 1008.48 1044.85 1101.38 1184.55 1019.58L1595.55 643.178C1595.55 643.178 1553.65 724.278 1559.65 740.178C1567.65 752.178 1685.35 578.578 1699.35 580.578C1713.35 582.578 1707.35 570.578 1711.35 594.578C1715.35 618.578 1697.35 648.478 1741.25 588.578C1785.15 528.678 1821.05 476.878 1821.05 476.878C1821.05 476.878 1819.05 522.778 1839.05 496.878C1859.05 470.978 1918.85 405.078 1918.85 417.078C1918.85 429.078 1924.85 446.978 1938.85 444.978C1952.85 442.978 1990.75 419.078 1990.75 424.978C1990.75 430.978 1936.85 562.678 1956.85 570.678C1972.85 564.678 2060.65 424.978 2070.55 430.978C2080.55 436.978 1823.15 832.578 1805.15 966.978C1799.15 1047.48 2016.65 786.078 2018.65 780.178C2020.65 774.278 2181.05 496.478 2205.95 510.778C2219.95 492.778 2118.15 804.078 2118.15 804.078C2118.15 804.078 2319.65 550.678 2327.65 365.078C2335.65 386.978 2335.65 506.778 2363.55 484.778C2391.45 462.878 2399.45 359.078 2417.45 367.078C2435.45 375.078 2519.25 460.878 2531.15 452.878C2543.05 444.878 2494.25 399.978 2507.25 384.078C2520.25 368.078 2575.15 444.978 2575.15 444.978Z" fill="#FF0000"/>
<path opacity="0.15" d="M2126.15 363.078C2126.15 363.078 2006.45 378.478 1915.95 367.778C1854.75 357.178 1825.45 367.778 1825.45 367.778L1439.75 756.178H1399.85L1136.45 835.978L982.15 966.978C982.15 966.978 1134.45 851.978 1162.45 853.978C1190.45 855.978 1369.95 798.078 1369.95 798.078L1124.55 1008.48C1124.55 1008.48 1044.75 1101.38 1184.45 1019.58L1623.45 604.578C1623.45 604.578 1578.55 682.378 1584.55 698.378C1592.55 710.378 1708.25 507.878 1722.25 509.778C1736.25 511.778 1733.25 517.778 1730.55 539.478C1727.55 563.578 1716.55 593.378 1760.45 533.478C1804.35 473.578 1825.65 444.978 1825.65 444.978C1825.65 444.978 1823.65 490.878 1843.65 464.978C1863.65 439.078 1932.15 379.878 1932.15 391.778C1932.15 403.778 1936.85 417.678 1950.75 415.678C1964.75 413.678 2001.65 405.678 2006.65 402.378C2049.25 374.478 1936.85 562.678 1956.75 570.678C1972.75 564.678 2060.55 424.978 2070.45 430.978" fill="#FF0000"/>
<path opacity="0.15" d="M1439.85 756.178L1825.55 367.778C1825.55 367.778 1854.85 357.178 1916.05 367.778C1924.55 368.778 1933.25 369.578 1942.15 370.078C2027.95 375.678 2111.25 364.678 2111.25 364.678C2111.25 364.678 2125.35 366.478 2138.25 354.078C2150.95 341.678 2307.45 209.478 2362.95 237.478C2383.15 247.578 2457.45 273.778 2538.15 318.378C2679.55 396.478 2849.75 506.078 2849.75 506.078" stroke="#FF0000" stroke-miterlimit="10"/>
<path opacity="0.15" d="M2070.35 430.978C2080.35 436.978 1918.75 714.278 1860.85 895.878C1854.85 976.378 2161.75 428.078 2076.35 643.378C2074.05 649.278 2186.05 507.478 2206.05 510.778C2220.05 492.778 2118.25 804.078 2118.25 804.078C2118.25 804.078 2319.75 550.678 2327.75 365.078C2327.75 365.078 2343.35 252.778 2324.55 233.078C2323.75 229.378 2208.05 287.278 2126.15 362.978C2110.45 375.678 2104.25 397.078 2070.35 430.978Z" fill="#FF0000"/>
<path opacity="0.15" d="M2327.65 365.078C2327.65 365.078 2355.05 253.178 2336.25 233.578C2335.45 229.878 2207.95 287.278 2126.15 363.078C2110.45 375.678 2104.25 397.078 2070.25 430.978C2080.25 436.978 2093.05 493.078 1918.65 802.078C1918.65 802.078 2124.55 495.778 2138.15 472.878C2157.15 440.978 2112.25 584.578 2112.25 584.578C2112.25 584.578 2211.95 446.978 2221.95 462.878C2231.95 478.878 2182.05 672.378 2182.05 672.378L2272.45 436.378C2305.75 329.178 2320.75 384.978 2322.75 404.578C2322.95 406.078 2322.85 407.478 2322.65 408.778C2319.75 423.278 2327.65 365.078 2327.65 365.078Z" fill="#FF0000"/>
<path opacity="0.15" d="M2849.75 506.078L2622.95 365.978C2622.95 365.978 2471.65 279.878 2437.65 264.878C2403.65 249.878 2336.35 233.578 2336.35 233.578C2336.35 233.578 2555.15 351.278 2601.05 428.078C2646.95 504.878 2567.15 622.578 2567.15 622.578C2567.15 622.578 2606.45 607.578 2637.95 577.678C2656.85 559.778 2659.65 528.678 2686.55 514.278C2702.15 505.878 2703.25 542.078 2715.75 528.878C2758.65 482.878 2809.85 486.978 2849.75 506.078Z" fill="#FF0000"/>
<path d="M-3.65015 1786.38C-3.65015 1786.38 589.85 1434.58 657.65 1376.68C725.45 1318.78 889.05 1358.78 936.95 1354.78C984.85 1350.78 1220.25 1239.08 1276.15 1207.18C1332.05 1175.28 1563.45 1135.38 1595.35 1127.38C1627.25 1119.38 1723.05 1003.68 1742.95 991.678C1762.95 979.678 1804.85 966.978 1822.35 904.078C1839.95 841.078 1862.55 827.778 1884.15 769.078C1915.85 682.478 2126.05 363.178 2126.05 363.178" stroke="url(#paint1_linear_748_2162)" stroke-miterlimit="10"/>
<path d="M2336.35 233.578C2336.35 233.578 2096.45 412.978 2064.75 499.578C2043.25 558.278 1840.15 840.978 1822.55 903.978C1804.95 966.978 1763.05 979.678 1743.15 991.578C1723.15 1003.58 1627.45 1119.28 1595.55 1127.28C1563.65 1135.28 1332.15 1175.18 1276.35 1207.08C1220.45 1238.98 985.05 1350.78 937.15 1354.68C889.25 1358.68 725.65 1318.68 657.85 1376.58C590.05 1434.48 -3.44995 1786.28 -3.44995 1786.28" stroke="url(#paint2_linear_748_2162)" stroke-miterlimit="10"/>
<path d="M2336.35 233.578C2336.35 233.578 2136.75 373.178 2126.25 511.678C2121.15 578.878 1935.35 942.678 1814.05 982.378C1791.05 989.878 1763.05 979.678 1743.15 991.678C1723.15 1003.68 1627.45 1119.38 1595.55 1127.38C1563.65 1135.38 1332.15 1175.28 1276.35 1207.18C1220.45 1239.08 985.05 1350.88 937.15 1354.78C889.25 1358.78 725.65 1318.78 657.85 1376.68C590.05 1434.58 -3.44995 1786.38 -3.44995 1786.38" stroke="url(#paint3_linear_748_2162)" stroke-miterlimit="10"/>
<path d="M2258.75 266.478C2258.75 266.478 2107.85 373.178 2097.25 511.678C2092.15 578.878 1918.65 894.978 1813.95 982.378C1795.35 997.878 1762.95 979.678 1743.05 991.678C1723.05 1003.68 1627.35 1119.38 1595.45 1127.38C1563.55 1135.38 1332.05 1175.28 1276.25 1207.18C1220.35 1239.08 984.95 1350.88 937.05 1354.78C889.15 1358.78 725.55 1318.78 657.75 1376.68C589.95 1434.58 -3.55005 1786.38 -3.55005 1786.38" stroke="url(#paint4_linear_748_2162)" stroke-miterlimit="10"/>
<path d="M2127.25 414.378C2097.25 455.578 2043.05 597.078 1940.75 745.278C1879.35 834.178 1798.35 967.278 1743.05 991.678" stroke="url(#paint5_linear_748_2162)" stroke-miterlimit="10"/>
<path d="M563.75 1268.98C563.75 1268.98 887.75 1199.28 982.25 1121.38C1076.75 1043.48 1124.55 1008.48 1124.55 1008.48L1439.75 756.178L1779.25 414.378C1779.25 414.378 1821.55 379.678 1860.75 379.878C1947.95 380.178 2063.65 394.578 2101.15 394.578" stroke="url(#paint6_linear_748_2162)" stroke-miterlimit="10"/>
<path d="M563.75 1268.98C563.75 1268.98 887.75 1199.28 982.25 1121.38C1076.75 1043.48 1124.55 1008.48 1124.55 1008.48L1439.75 756.178L1785.55 440.578C1785.55 440.578 1873.75 379.878 1912.85 379.878C1990.35 379.878 2063.55 394.578 2100.95 394.578" stroke="url(#paint7_linear_748_2162)" stroke-miterlimit="10"/>
<path d="M1529.75 1378.98C1529.75 1378.98 1529.75 1379.18 1529.85 1379.48C1530.25 1384.88 1534.15 1432.78 1534.45 1435.08C1534.45 1433.48 1418.05 1413.68 1418.05 1413.68L1332.35 1436.08L1306.75 1469.18L-3.75 1786.38H2846.35L2833.55 1051.28L2812.45 1031.28L2798.95 1022.78L2772.95 1017.08C2772.95 1017.08 2772.85 1016.68 2772.75 1015.98L2772.65 1015.48C2769.35 999.578 2742.85 872.578 2742.85 869.878C2742.85 867.378 2736.85 857.278 2735.05 854.378C2734.75 853.878 2734.55 853.578 2734.55 853.578L2639.95 773.178L2618.05 628.878L2525.55 607.478L2508.55 611.378L2506.75 611.778L2423.65 793.178L2386.15 806.678C2354.55 821.578 2323.15 836.478 2291.55 851.478C2270.05 910.978 2248.55 970.478 2227.05 1029.98L2217.75 1022.18L2183.35 898.378L2047.25 878.478L1975.55 1059.88L1895.45 1102.48L1791.75 1157.68L1749.35 1228.28L1749.25 1228.48L1749.15 1228.58L1670.55 1359.48L1669.25 1361.58H1589.75L1529.75 1378.98Z" fill="url(#paint8_linear_748_2162)"/>
<path d="M2562.95 1444.68L2529.65 1290.98L2460.75 1263.78L2451.45 1342.78L2438.15 1204.08H2421.75L2355.55 1264.38V1376.38L2343.05 1249.38L2419.45 1158.18L2296.25 1097.38L2284.55 1103.28L2273.65 1210.48L2258.85 1076.58L2205.85 1060.58L1497.65 1786.38H2846.35L2842.05 1538.38L2639.85 1448.58L2562.95 1444.68Z" fill="url(#paint9_linear_748_2162)"/>
<path d="M2122.35 912.278L2139.65 1133.58L1497.65 1786.38L1791.75 1157.68L1975.55 1059.88L2042.85 879.778L2084.15 896.778L2076.35 926.678L2094.35 899.978L2122.35 912.278Z" fill="url(#paint10_linear_748_2162)"/>
<path opacity="0.15" d="M2618.05 628.878L2573.05 641.278C2572.65 705.378 2572.35 769.578 2571.95 833.678C2575.65 818.278 2579.45 802.878 2583.15 787.478C2591.95 785.378 2600.65 783.178 2609.35 781.078C2609.75 772.278 2610.25 763.578 2610.65 754.778C2620.35 760.978 2630.05 767.078 2639.75 773.278C2632.55 725.078 2625.35 676.978 2618.05 628.878Z" fill="url(#paint11_linear_748_2162)"/>
<path d="M2642.85 929.378L2611.65 951.478L2604.65 1002.18L2615.95 961.078L2643.25 947.478V1099.48L2682.25 1174.18L2673.65 1211.98L2693.15 1194.98L2732.15 1272.38C2741.65 1307.48 2762.35 1401.08 2771.95 1436.08C2773.35 1418.98 2757.65 1331.58 2758.95 1314.48C2764.35 1327.68 2769.65 1340.78 2775.05 1353.98C2778.15 1348.08 2781.25 1342.08 2784.45 1336.18C2800.85 1351.48 2817.25 1366.78 2833.65 1382.08C2834.35 1354.38 2836.35 1325.98 2833.65 1297.08C2826.85 1224.68 2820.15 1152.18 2813.35 1079.78L2796.95 1052.88L2755.65 1047.28L2698.35 1045.08L2755.25 1029.88L2772.75 1015.98L2772.65 1015.48C2769.35 999.578 2742.85 872.578 2742.85 869.878C2742.85 867.378 2736.85 857.278 2735.05 854.378L2642.15 851.078L2610.85 891.178L2642.85 929.378Z" fill="url(#paint12_linear_748_2162)"/>
<path d="M2294.65 1053.48C2305.05 1053.68 2315.45 1053.88 2325.85 1054.18C2322.25 1057.88 2318.55 1061.58 2314.95 1065.18C2345.95 1075.88 2376.85 1086.58 2407.85 1097.38C2413.55 1078.78 2419.25 1059.98 2424.95 1041.38L2428.85 1103.28L2587.15 1150.68L2664.65 1286.98L2695.85 1301.08L2669.35 1295.78L2842.05 1538.38L2692.85 1312.18L2766.45 1333.08L2671.55 1268.98L2693.15 1194.98L2673.65 1212.08L2682.25 1174.28L2643.25 1099.58V947.578L2615.95 961.178L2604.65 1002.28L2611.65 951.578L2642.85 929.478L2610.75 891.378L2642.05 851.178L2594.15 813.378L2573.15 889.978V641.278L2508.55 611.378L2506.75 611.778L2423.65 793.178C2404.25 837.978 2384.85 882.778 2365.35 927.578C2372.25 887.278 2379.25 846.978 2386.15 806.678C2354.55 821.578 2323.15 836.478 2291.55 851.478C2270.05 910.978 2248.55 970.478 2227.05 1029.98C2249.65 1037.78 2272.25 1045.58 2294.65 1053.48Z" fill="url(#paint13_linear_748_2162)"/>
<path opacity="0.39" d="M2460.75 1263.78L2640.15 1243.98L2664.65 1286.98L2529.65 1290.98L2460.75 1263.78Z" fill="url(#paint14_linear_748_2162)"/>
<path opacity="0.39" d="M2296.25 1097.38L2428.85 1103.28L2587.15 1150.68H2508.35L2479.45 1140.58L2493.55 1150.68L2419.45 1158.18L2296.25 1097.38Z" fill="url(#paint15_linear_748_2162)"/>
<path opacity="0.39" d="M2438.15 1204.08L2520.45 1196.38C2520.45 1196.38 2530.95 1199.58 2532.15 1200.28C2533.35 1200.98 2546.15 1193.78 2546.15 1193.78L2565.65 1190.58L2587.15 1191.68L2606.45 1184.78L2627.65 1221.98L2518.85 1235.78L2466.25 1252.08L2442.95 1254.28L2438.15 1204.08Z" fill="url(#paint16_linear_748_2162)"/>
<path opacity="0.15" d="M2294.65 1053.48L2258.85 1076.58L2205.85 1060.58L2227.05 1029.98L2294.65 1053.48Z" fill="url(#paint17_linear_748_2162)"/>
<path opacity="0.68" d="M2183.45 898.378L2155.55 905.578L2128.65 898.378L2141.05 905.578L2125.85 901.978L2135.25 909.578L2122.35 912.278L2134.55 1068.28L2157.05 1053.28L2152.85 1006.48L2159.45 1032.58L2187.05 1028.28L2190.55 1049.88L2192.15 1023.78L2215.85 1015.48L2183.45 898.378Z" fill="url(#paint18_linear_748_2162)"/>
</g>
</g>
<defs>
<linearGradient id="paint0_linear_748_2162" x1="1421.7" y1="1726.41" x2="1432.33" y2="-0.391789" gradientUnits="userSpaceOnUse">
<stop offset="0.2817"/>
<stop offset="0.3601" stop-color="#060101"/>
<stop offset="0.4598" stop-color="#150405"/>
<stop offset="0.5711" stop-color="#2F0A0B"/>
<stop offset="0.6907" stop-color="#541114"/>
<stop offset="0.8172" stop-color="#831B1F"/>
<stop offset="0.9474" stop-color="#BB262C"/>
<stop offset="0.9586" stop-color="#C0272D"/>
</linearGradient>
<linearGradient id="paint1_linear_748_2162" x1="2126.59" y1="1074.81" x2="-3.92133" y2="1074.81" gradientUnits="userSpaceOnUse">
<stop offset="0.00111693" stop-color="#FF0000"/>
<stop offset="0.0789528" stop-color="#FF3131" stop-opacity="0.922"/>
<stop offset="0.1678" stop-color="#FF6060" stop-opacity="0.833"/>
<stop offset="0.2619" stop-color="#FF8B8B" stop-opacity="0.7387"/>
<stop offset="0.3596" stop-color="#FFAFAF" stop-opacity="0.6409"/>
<stop offset="0.4618" stop-color="#FFCCCC" stop-opacity="0.5385"/>
<stop offset="0.5701" stop-color="#FFE3E3" stop-opacity="0.4301"/>
<stop offset="0.6872" stop-color="#FFF3F3" stop-opacity="0.3128"/>
<stop offset="0.8195" stop-color="#FFFCFC" stop-opacity="0.1803"/>
<stop offset="0.9995" stop-color="white" stop-opacity="0"/>
</linearGradient>
<linearGradient id="paint2_linear_748_2162" x1="2336.61" y1="1010.02" x2="-3.9211" y2="1010.02" gradientUnits="userSpaceOnUse">
<stop offset="0.00111693" stop-color="#FF0000"/>
<stop offset="0.0789528" stop-color="#FF3131" stop-opacity="0.922"/>
<stop offset="0.1678" stop-color="#FF6060" stop-opacity="0.833"/>
<stop offset="0.2619" stop-color="#FF8B8B" stop-opacity="0.7387"/>
<stop offset="0.3596" stop-color="#FFAFAF" stop-opacity="0.6409"/>
<stop offset="0.4618" stop-color="#FFCCCC" stop-opacity="0.5385"/>
<stop offset="0.5701" stop-color="#FFE3E3" stop-opacity="0.4301"/>
<stop offset="0.6872" stop-color="#FFF3F3" stop-opacity="0.3128"/>
<stop offset="0.8195" stop-color="#FFFCFC" stop-opacity="0.1803"/>
<stop offset="0.9995" stop-color="white" stop-opacity="0"/>
</linearGradient>
<linearGradient id="paint3_linear_748_2162" x1="2336.59" y1="1010.01" x2="-3.92116" y2="1010.01" gradientUnits="userSpaceOnUse">
<stop offset="0.00111693" stop-color="#FF0000"/>
<stop offset="0.0789528" stop-color="#FF3131" stop-opacity="0.922"/>
<stop offset="0.1678" stop-color="#FF6060" stop-opacity="0.833"/>
<stop offset="0.2619" stop-color="#FF8B8B" stop-opacity="0.7387"/>
<stop offset="0.3596" stop-color="#FFAFAF" stop-opacity="0.6409"/>
<stop offset="0.4618" stop-color="#FFCCCC" stop-opacity="0.5385"/>
<stop offset="0.5701" stop-color="#FFE3E3" stop-opacity="0.4301"/>
<stop offset="0.6872" stop-color="#FFF3F3" stop-opacity="0.3128"/>
<stop offset="0.8195" stop-color="#FFFCFC" stop-opacity="0.1803"/>
<stop offset="0.9995" stop-color="white" stop-opacity="0"/>
</linearGradient>
<linearGradient id="paint4_linear_748_2162" x1="2259.01" y1="1026.47" x2="-3.92128" y2="1026.47" gradientUnits="userSpaceOnUse">
<stop offset="0.00111693" stop-color="#FF0000"/>
<stop offset="0.0789528" stop-color="#FF3131" stop-opacity="0.922"/>
<stop offset="0.1678" stop-color="#FF6060" stop-opacity="0.833"/>
<stop offset="0.2619" stop-color="#FF8B8B" stop-opacity="0.7387"/>
<stop offset="0.3596" stop-color="#FFAFAF" stop-opacity="0.6409"/>
<stop offset="0.4618" stop-color="#FFCCCC" stop-opacity="0.5385"/>
<stop offset="0.5701" stop-color="#FFE3E3" stop-opacity="0.4301"/>
<stop offset="0.6872" stop-color="#FFF3F3" stop-opacity="0.3128"/>
<stop offset="0.8195" stop-color="#FFFCFC" stop-opacity="0.1803"/>
<stop offset="0.9995" stop-color="white" stop-opacity="0"/>
</linearGradient>
<linearGradient id="paint5_linear_748_2162" x1="2127.64" y1="703.102" x2="1742.88" y2="703.102" gradientUnits="userSpaceOnUse">
<stop offset="0.00111693" stop-color="#FF0000"/>
<stop offset="0.0789528" stop-color="#FF3131" stop-opacity="0.922"/>
<stop offset="0.1678" stop-color="#FF6060" stop-opacity="0.833"/>
<stop offset="0.2619" stop-color="#FF8B8B" stop-opacity="0.7387"/>
<stop offset="0.3596" stop-color="#FFAFAF" stop-opacity="0.6409"/>
<stop offset="0.4618" stop-color="#FFCCCC" stop-opacity="0.5385"/>
<stop offset="0.5701" stop-color="#FFE3E3" stop-opacity="0.4301"/>
<stop offset="0.6872" stop-color="#FFF3F3" stop-opacity="0.3128"/>
<stop offset="0.8195" stop-color="#FFFCFC" stop-opacity="0.1803"/>
<stop offset="0.9995" stop-color="white" stop-opacity="0"/>
</linearGradient>
<linearGradient id="paint6_linear_748_2162" x1="2101.11" y1="824.43" x2="563.633" y2="824.43" gradientUnits="userSpaceOnUse">
<stop offset="0.00111693" stop-color="#FF0000"/>
<stop offset="0.0789528" stop-color="#FF3131" stop-opacity="0.922"/>
<stop offset="0.1678" stop-color="#FF6060" stop-opacity="0.833"/>
<stop offset="0.2619" stop-color="#FF8B8B" stop-opacity="0.7387"/>
<stop offset="0.3596" stop-color="#FFAFAF" stop-opacity="0.6409"/>
<stop offset="0.4618" stop-color="#FFCCCC" stop-opacity="0.5385"/>
<stop offset="0.5701" stop-color="#FFE3E3" stop-opacity="0.4301"/>
<stop offset="0.6872" stop-color="#FFF3F3" stop-opacity="0.3128"/>
<stop offset="0.8195" stop-color="#FFFCFC" stop-opacity="0.1803"/>
<stop offset="0.9995" stop-color="white" stop-opacity="0"/>
</linearGradient>
<linearGradient id="paint7_linear_748_2162" x1="2101.11" y1="824.43" x2="563.633" y2="824.43" gradientUnits="userSpaceOnUse">
<stop offset="0.00111693" stop-color="#FF0000"/>
<stop offset="0.0789528" stop-color="#FF3131" stop-opacity="0.922"/>
<stop offset="0.1678" stop-color="#FF6060" stop-opacity="0.833"/>
<stop offset="0.2619" stop-color="#FF8B8B" stop-opacity="0.7387"/>
<stop offset="0.3596" stop-color="#FFAFAF" stop-opacity="0.6409"/>
<stop offset="0.4618" stop-color="#FFCCCC" stop-opacity="0.5385"/>
<stop offset="0.5701" stop-color="#FFE3E3" stop-opacity="0.4301"/>
<stop offset="0.6872" stop-color="#FFF3F3" stop-opacity="0.3128"/>
<stop offset="0.8195" stop-color="#FFFCFC" stop-opacity="0.1803"/>
<stop offset="0.9995" stop-color="white" stop-opacity="0"/>
</linearGradient>
<linearGradient id="paint8_linear_748_2162" x1="1440.89" y1="2051.94" x2="1381.83" y2="611.009" gradientUnits="userSpaceOnUse">
<stop offset="0.363"/>
<stop offset="0.5213" stop-color="#030101"/>
<stop offset="0.5723" stop-color="#110404"/>
<stop offset="0.6681" stop-color="#350B0D"/>
<stop offset="0.7985" stop-color="#6F171A"/>
<stop offset="0.957" stop-color="#BF272D"/>
<stop offset="0.9586" stop-color="#C0272D"/>
</linearGradient>
<linearGradient id="paint9_linear_748_2162" x1="2172.52" y1="1958.33" x2="2169.89" y2="1094.16" gradientUnits="userSpaceOnUse">
<stop offset="0.1215"/>
<stop offset="0.4095" stop-color="#030101"/>
<stop offset="0.5837" stop-color="#050101"/>
<stop offset="0.6649" stop-color="#0D0202"/>
<stop offset="0.7269" stop-color="#190304"/>
<stop offset="0.7792" stop-color="#2C0607"/>
<stop offset="0.8253" stop-color="#44080A"/>
<stop offset="0.867" stop-color="#610B0E"/>
<stop offset="0.9055" stop-color="#840F13"/>
<stop offset="0.9415" stop-color="#AC1419"/>
<stop offset="0.9741" stop-color="#D91920"/>
<stop offset="0.9983" stop-color="#FF1D25"/>
</linearGradient>
<linearGradient id="paint10_linear_748_2162" x1="1796" y1="1805.96" x2="1858.06" y2="859.51" gradientUnits="userSpaceOnUse">
<stop offset="0.1215"/>
<stop offset="0.4095" stop-color="#030101"/>
<stop offset="0.5837" stop-color="#050101"/>
<stop offset="0.6649" stop-color="#0D0202"/>
<stop offset="0.7269" stop-color="#190304"/>
<stop offset="0.7792" stop-color="#2C0607"/>
<stop offset="0.8253" stop-color="#44080A"/>
<stop offset="0.867" stop-color="#610B0E"/>
<stop offset="0.9055" stop-color="#840F13"/>
<stop offset="0.9415" stop-color="#AC1419"/>
<stop offset="0.9741" stop-color="#D91920"/>
<stop offset="0.9983" stop-color="#FF1D25"/>
</linearGradient>
<linearGradient id="paint11_linear_748_2162" x1="2639.87" y1="731.275" x2="2572" y2="731.275" gradientUnits="userSpaceOnUse">
<stop offset="0.363"/>
<stop offset="0.5213" stop-color="#030101"/>
<stop offset="0.5723" stop-color="#110404"/>
<stop offset="0.6681" stop-color="#350B0D"/>
<stop offset="0.7985" stop-color="#6F171A"/>
<stop offset="0.957" stop-color="#BF272D"/>
<stop offset="0.9586" stop-color="#C0272D"/>
</linearGradient>
<linearGradient id="paint12_linear_748_2162" x1="2750.67" y1="1421.36" x2="2689.7" y2="865.673" gradientUnits="userSpaceOnUse">
<stop offset="0.363"/>
<stop offset="0.5213" stop-color="#030101"/>
<stop offset="0.5723" stop-color="#110404"/>
<stop offset="0.6681" stop-color="#350B0D"/>
<stop offset="0.7985" stop-color="#6F171A"/>
<stop offset="0.957" stop-color="#BF272D"/>
<stop offset="0.9586" stop-color="#C0272D"/>
</linearGradient>
<linearGradient id="paint13_linear_748_2162" x1="2668.61" y1="1464.29" x2="2329.42" y2="670.185" gradientUnits="userSpaceOnUse">
<stop offset="0.1215"/>
<stop offset="0.4095" stop-color="#030101"/>
<stop offset="0.5837" stop-color="#050101"/>
<stop offset="0.6649" stop-color="#0D0202"/>
<stop offset="0.7269" stop-color="#190304"/>
<stop offset="0.7792" stop-color="#2C0607"/>
<stop offset="0.8253" stop-color="#44080A"/>
<stop offset="0.867" stop-color="#610B0E"/>
<stop offset="0.9055" stop-color="#840F13"/>
<stop offset="0.9415" stop-color="#AC1419"/>
<stop offset="0.9741" stop-color="#D91920"/>
<stop offset="0.9983" stop-color="#FF1D25"/>
</linearGradient>
<linearGradient id="paint14_linear_748_2162" x1="2664.66" y1="1267.49" x2="2460.76" y2="1267.49" gradientUnits="userSpaceOnUse">
<stop offset="0.363"/>
<stop offset="0.5213" stop-color="#030101"/>
<stop offset="0.5723" stop-color="#110404"/>
<stop offset="0.6681" stop-color="#350B0D"/>
<stop offset="0.7985" stop-color="#6F171A"/>
<stop offset="0.957" stop-color="#BF272D"/>
<stop offset="0.9586" stop-color="#C0272D"/>
</linearGradient>
<linearGradient id="paint15_linear_748_2162" x1="2587.11" y1="1127.79" x2="2296.25" y2="1127.79" gradientUnits="userSpaceOnUse">
<stop offset="0.363"/>
<stop offset="0.5213" stop-color="#030101"/>
<stop offset="0.5723" stop-color="#110404"/>
<stop offset="0.6681" stop-color="#350B0D"/>
<stop offset="0.7985" stop-color="#6F171A"/>
<stop offset="0.957" stop-color="#BF272D"/>
<stop offset="0.9586" stop-color="#C0272D"/>
</linearGradient>
<linearGradient id="paint16_linear_748_2162" x1="2627.66" y1="1219.47" x2="2438.15" y2="1219.47" gradientUnits="userSpaceOnUse">
<stop offset="0.363"/>
<stop offset="0.5213" stop-color="#030101"/>
<stop offset="0.5723" stop-color="#110404"/>
<stop offset="0.6681" stop-color="#350B0D"/>
<stop offset="0.7985" stop-color="#6F171A"/>
<stop offset="0.957" stop-color="#BF272D"/>
<stop offset="0.9586" stop-color="#C0272D"/>
</linearGradient>
<linearGradient id="paint17_linear_748_2162" x1="2294.68" y1="1053.28" x2="2205.8" y2="1053.28" gradientUnits="userSpaceOnUse">
<stop offset="0.363"/>
<stop offset="0.5213" stop-color="#030101"/>
<stop offset="0.5723" stop-color="#110404"/>
<stop offset="0.6681" stop-color="#350B0D"/>
<stop offset="0.7985" stop-color="#6F171A"/>
<stop offset="0.957" stop-color="#BF272D"/>
<stop offset="0.9586" stop-color="#C0272D"/>
</linearGradient>
<linearGradient id="paint18_linear_748_2162" x1="2176.58" y1="1068.97" x2="2164.48" y2="898.139" gradientUnits="userSpaceOnUse">
<stop offset="0.363"/>
<stop offset="0.5213" stop-color="#030101"/>
<stop offset="0.5723" stop-color="#110404"/>
<stop offset="0.6681" stop-color="#350B0D"/>
<stop offset="0.7985" stop-color="#6F171A"/>
<stop offset="0.957" stop-color="#BF272D"/>
<stop offset="0.9586" stop-color="#C0272D"/>
</linearGradient>
<clipPath id="clip0_748_2162">
<rect width="2850" height="1800" fill="white" transform="translate(0 0.078125)"/>
</clipPath>
<clipPath id="clip1_748_2162">
<rect width="2854" height="1907.9" fill="white" transform="matrix(-1 0 0 1 2850.05 231.978)"/>
</clipPath>
</defs>
</svg>
