<svg width="2850" height="1801" viewBox="0 0 2850 1801" fill="none" xmlns="http://www.w3.org/2000/svg">
<g clip-path="url(#clip0_738_575)">
<path d="M2850 0.078125H0V1800.08H2850V0.078125Z" fill="black"/>
<g opacity="0.35">
<path d="M2850 0.078125H0V1800.08H2850V0.078125Z" fill="url(#paint0_linear_738_575)"/>
</g>
<path opacity="0.07" d="M11.2998 413.578V446.278C778.7 456.078 1162.5 467.178 1162.5 479.678C1162.5 488.978 949.7 498.978 523.8 509.778C633.4 515.178 744.4 519.178 857 521.778C1569.9 538.378 2236.9 494.578 2850 414.078V291.278C2412.4 354.278 1919 404.378 1377.8 425.578C881.6 444.978 423.6 436.978 11.2998 413.578Z" fill="#FCAA51"/>
<path opacity="0.04" d="M11.2998 513.278V1020.58C172.2 1028.08 386.6 1036.68 638.4 1042.88C918.8 1049.78 1171.7 1057.68 1478.4 1046.38C1801 1034.48 2101.7 1008.18 2377.4 973.578C2032.6 1003.28 1628.7 1013.18 1179.8 977.078C865.2 951.678 578.1 907.678 322.4 855.678C700.5 887.978 1078.9 907.578 1457.5 914.678C1921.3 923.078 2385.5 912.778 2850 883.578V592.278C2469.7 668.778 2129.4 701.578 1846.4 713.278C1367.1 733.078 1000.4 694.278 867.5 678.578C545.4 640.578 258.2 579.978 11.2998 513.278Z" fill="#FCAA51"/>
<path opacity="0.07" d="M2850 0.078125V253.678C2689.1 257.478 2474.7 261.778 2222.9 264.778C1942.5 268.178 1689.6 272.178 1382.9 266.478C1060.3 260.578 759.6 247.378 483.9 230.078C828.7 244.978 1232.6 249.878 1681.5 231.778C1996.1 219.078 2283.2 197.078 2538.9 171.078C2160.8 187.178 1782.4 197.078 1403.8 200.578C940 204.878 475.9 199.778 11.3999 185.078V39.5781C391.6 77.8781 731.9 94.2781 1014.9 100.078C1494.2 109.978 1860.9 90.5781 1993.8 82.7781C2315.9 63.6781 2603.1 33.3781 2850 0.078125Z" fill="#FCAA51"/>
<path d="M236.7 45.4779C228.1 48.1779 219.6 51.3779 211.3 54.9779C200.6 59.7779 190.1 65.3779 180.1 71.7779C175.5 74.7779 170.9 77.8779 166.5 81.2779C148.2 94.9779 131.6 111.578 117.5 131.078C68 199.378 61.0999 285.578 91.6999 357.978C107.7 395.778 133.8 429.778 169.5 455.578C255.7 517.978 370.4 512.678 450 449.778C450.6 449.278 451.3 448.778 451.9 448.278C452.8 447.578 453.6 446.878 454.5 446.178C455 445.778 455.4 445.378 455.9 444.978C470 433.078 482.9 419.278 494.2 403.678C497.5 399.178 500.5 394.578 503.4 389.978C507.4 383.678 511 377.178 514.2 370.578C519.8 359.278 524.4 347.778 528 335.978C529.5 330.978 530.9 325.978 532.1 320.978C535.3 307.378 537.3 293.678 538 279.878C538.1 277.778 538.2 275.578 538.2 273.478C538.5 261.778 537.9 250.178 536.5 238.578C536.2 236.178 535.9 233.778 535.5 231.378C530.3 198.378 518.1 166.578 499.2 138.278C484.3 115.978 465.2 95.8779 442.2 79.1779C434.4 73.5779 426.4 68.4779 418.2 63.8779C415.8 62.5779 413.4 61.2779 411 60.0779C391.6 50.1779 371.3 43.3779 350.6 39.2779C339.8 37.1779 328.9 35.8779 317.9 35.2779C290.4 33.8779 262.9 37.3779 236.7 45.4779Z" fill="url(#paint1_linear_738_575)"/>
<g opacity="0.06">
<path d="M316.9 34.5781C317.2 34.7781 317.6 35.0781 317.9 35.2781C336.5 47.8781 368.2 67.1781 393.5 97.4781C407.2 113.978 402 113.378 423.4 150.678C424.9 153.278 426.5 156.078 428.3 159.178C456.9 207.778 474.3 236.578 507.6 261.078C518.2 268.878 528.9 275.178 538 279.678C538.2 279.778 538.5 279.878 538.7 280.078C538.8 277.978 538.9 275.878 539 273.778C538.8 273.578 538.5 273.478 538.3 273.278C522.7 263.578 501.9 249.278 483.1 229.778C454 199.678 449.5 177.878 435.6 148.078C430.6 137.378 424.4 125.578 415.4 111.878C403.2 93.3781 383.5 68.0781 350.7 39.1781C350.3 38.8781 350 38.5781 349.6 38.1781C338.7 36.2781 327.8 35.0781 316.9 34.5781Z" fill="#F29A2E"/>
<path d="M443.3 131.778C442.6 131.978 449 151.278 461.3 171.078C466.3 179.178 483.5 205.178 515.8 226.678C523.2 231.578 530.4 235.678 537.3 238.978C537 236.578 536.7 234.178 536.3 231.778C509.9 218.978 494.8 204.278 488.1 197.178C478.6 186.978 464.8 168.878 453 148.678C447.8 139.478 443.8 131.578 443.3 131.778Z" fill="#F29A2E"/>
<path d="M410.6 58.978C410.7 59.378 410.8 59.778 410.9 60.178C413.7 69.578 417.7 80.078 423.6 90.978C438.3 118.378 457.3 135.378 466.2 142.578C467.3 143.478 468.3 144.278 469.1 144.878C485.9 157.678 502.8 164.978 503.1 164.378C503.3 163.978 496.4 159.778 488.7 154.178C483 150.078 477.5 145.878 472.5 141.678C462.2 133.178 453.6 124.778 447.9 118.478C441.4 111.178 427.5 93.778 418.1 64.078C418 63.678 417.8 63.278 417.7 62.878L410.6 58.978Z" fill="#F29A2E"/>
<path d="M102.3 155.778C108 191.378 121.7 220.978 135.6 243.478C129.3 234.578 122.8 224.578 116.7 213.578C108 197.878 101.2 182.678 95.8999 168.378C81.1999 199.778 74 233.278 74 266.678C115.6 371.078 188.9 444.778 248.8 491.978C273.5 498.278 299 500.378 324 498.478C301.2 483.178 273.8 461.278 247.3 430.778C220.7 400.178 203.1 370.378 191.5 346.778C204.6 367.478 221.8 390.678 244.1 414.178C280.1 452.078 317.4 477.878 348.2 495.378C371.6 491.178 394.3 483.378 415.5 472.078C398.8 462.578 367.3 449.678 327 424.478C306.9 411.878 278.3 394.078 250.1 366.778C198.5 316.978 175.5 262.378 168.8 245.178C145.5 185.278 144.3 131.478 146.6 98.0781C139.6 104.778 132.9 111.878 126.6 119.578C124.4 140.578 128 158.978 131.7 171.778C128.8 163.978 126.9 157.278 125.6 152.178C124.3 146.878 122.4 137.878 121.3 126.278C120.2 127.678 119.2 129.178 118.1 130.578C112.3 138.678 107 147.078 102.3 155.778Z" fill="#F29A2E"/>
<path d="M236.1 45.2783C227.5 47.9783 219.1 51.1783 210.9 54.8783C211 54.8783 211.1 54.9783 211.3 54.9783C273.9 75.0783 309.9 104.878 331.6 129.678C343.7 143.478 350 154.278 359.8 169.178C368.4 182.178 379.5 198.378 399.4 222.278C417.8 244.478 436.2 266.478 464.5 290.678C487.4 310.278 509.5 324.978 528.1 335.878C528.3 335.978 528.4 336.078 528.6 336.178C530.2 331.178 531.5 326.178 532.8 321.178C532.6 321.078 532.4 320.978 532.2 320.878C516.9 313.978 505.5 305.978 497 298.978C481.9 286.378 481.2 280.678 451.6 246.878C425.7 217.278 420 214.478 398.4 190.178C389.4 179.978 382.3 171.378 376.3 163.678C361.7 144.878 354.2 132.178 343.4 118.978C324.1 95.1783 292.2 66.9783 236.7 45.4783C236.5 45.4783 236.3 45.3783 236.1 45.2783Z" fill="#F29A2E"/>
<path d="M288.1 163.178C301.4 178.378 321.8 202.078 345.6 232.178C389.8 287.778 399.6 306.678 425.2 332.278C442 349.078 467 370.378 503.6 389.978C507.6 383.678 511.2 377.178 514.5 370.578C478.3 355.678 453.8 337.478 437.8 323.178C407.9 296.278 399.2 275.378 364.3 235.578C334.6 201.678 306.5 177.678 288.1 163.178Z" fill="#F29A2E"/>
<path d="M180 71.7781C175.4 74.7781 170.8 77.9781 166.4 81.2781C182.1 98.6781 202 123.678 219.9 156.378C233.7 181.678 241.6 202.778 248.4 221.678C258.4 249.478 266.1 272.478 287.2 297.378C302.5 315.378 328.6 338.878 374.8 355.678C322.6 323.578 295.9 288.478 281 262.478C271.1 245.178 265.6 230.178 260.3 214.678C253.2 193.878 246.6 172.178 230.6 142.978C213.8 112.078 195.1 88.3781 180 71.7781C180.1 71.8781 180 71.7781 180 71.7781Z" fill="#F29A2E"/>
<path d="M297 332.878C309.5 352.278 328.6 377.378 356.8 401.478C388.1 428.378 419.6 444.578 443.9 454.378C448 451.378 451.9 448.278 455.8 445.078C415.9 429.378 368.2 403.978 324 361.478C314 351.978 305.1 342.278 297 332.878Z" fill="#F29A2E"/>
<path d="M78.2 310.478C88.8999 366.578 120.3 418.778 170.2 454.978C179.6 461.778 189.2 467.678 199.2 472.878C183.9 457.778 168 440.778 152.2 421.678C119.9 382.478 96 344.178 78.2 310.478Z" fill="#F29A2E"/>
</g>
<path opacity="0.04" d="M236.7 45.4782C236.5 45.3782 236.3 45.3782 236.2 45.2782C227.6 47.9782 219.2 51.1782 211 54.8782C211.1 54.8782 211.2 54.9782 211.4 54.9782C200.7 59.7782 190.2 65.3782 180.2 71.7782C180.2 71.7782 180.2 71.6782 180.1 71.6782C175.5 74.6782 170.9 77.8782 166.5 81.1782C148.2 94.8782 131.6 111.478 117.5 130.978C68 199.278 61.0999 285.478 91.7 357.878C91.9 357.578 92.1999 357.378 92.3999 357.078C94.7999 354.178 97.2999 351.178 99.8999 348.178C103 344.578 106.2 340.878 109.5 337.278C129.2 315.278 152.5 292.278 179.9 269.978C200.5 253.278 223.3 236.878 248.5 221.578C252.4 219.178 256.4 216.878 260.4 214.578C273.5 207.078 287.2 199.878 301.5 193.078C304.5 191.678 307.4 190.278 310.4 188.978C312.3 188.078 314.1 187.278 316 186.478C330.9 179.878 345.5 174.178 359.8 169.178C365.3 167.178 370.8 165.378 376.3 163.678C392.5 158.478 408.3 154.278 423.5 150.778C427.6 149.778 431.6 148.978 435.6 148.078C439.9 147.178 444.1 146.378 448.2 145.578C449.2 145.378 450.2 145.178 451.1 145.078C456.3 144.078 461.4 143.278 466.4 142.478C468.5 142.178 470.5 141.878 472.6 141.578C481.8 140.178 490.7 139.178 499.3 138.278C484.4 115.978 465.3 95.8782 442.3 79.1782C434.5 73.5782 426.5 68.4782 418.3 63.8782C418.2 63.4782 418 63.0782 417.9 62.6782L410.8 58.9782C410.9 59.3782 411 59.7782 411.1 60.1782C391.7 50.2782 371.4 43.4782 350.7 39.3782C350.3 39.0782 350 38.7782 349.6 38.3782C338.8 36.3782 327.9 35.0782 317 34.6782C317.3 34.8782 317.7 35.1782 318 35.3782C290.4 33.8782 262.9 37.3782 236.7 45.4782Z" fill="#C0272D"/>
<path d="M472.2 52.0781C468.4 53.2781 464.8 54.5781 461.2 56.1781C456.5 58.2781 452 60.6781 447.6 63.4781C445.6 64.7781 443.6 66.1781 441.7 67.5781C433.7 73.5781 426.5 80.7781 420.4 89.2781C398.9 118.978 395.9 156.478 409.2 187.978C416.1 204.378 427.5 219.178 443 230.478C480.5 257.678 530.4 255.278 565 227.978C565.3 227.778 565.5 227.578 565.8 227.278C566.2 226.978 566.6 226.678 566.9 226.378C567.1 226.178 567.3 226.078 567.5 225.878C573.6 220.678 579.3 214.678 584.2 207.878C585.6 205.878 587 203.878 588.2 201.878C589.9 199.078 591.5 196.278 592.9 193.478C595.3 188.578 597.3 183.578 598.9 178.478C599.6 176.278 600.2 174.178 600.7 171.978C602.1 166.078 602.9 160.078 603.3 154.078C603.3 153.178 603.4 152.178 603.4 151.278C603.5 146.178 603.3 141.178 602.6 136.078C602.5 134.978 602.3 133.978 602.2 132.978C599.9 118.678 594.6 104.778 586.4 92.4781C579.9 82.7781 571.6 73.9781 561.6 66.7781C558.2 64.2781 554.7 62.0781 551.1 60.1781C550.1 59.5781 549 59.0781 548 58.4781C539.6 54.1781 530.7 51.1781 521.7 49.4781C517 48.5781 512.2 47.9781 507.5 47.7781C495.6 46.9781 483.6 48.4781 472.2 52.0781Z" fill="url(#paint2_linear_738_575)"/>
<g opacity="0.06">
<path d="M507.1 47.2783C507.2 47.3783 507.4 47.4783 507.5 47.5783C515.6 53.0783 529.4 61.4783 540.4 74.6783C546.4 81.8783 544.1 81.5783 553.4 97.8783C554.1 98.9783 554.8 100.278 555.5 101.578C568 122.678 575.5 135.278 590 145.978C594.6 149.378 599.3 152.078 603.2 154.078C603.3 154.178 603.4 154.178 603.5 154.278C603.6 153.378 603.6 152.478 603.6 151.478C603.5 151.378 603.4 151.378 603.3 151.278C596.5 147.078 587.5 140.878 579.3 132.378C566.6 119.278 564.7 109.778 558.6 96.7783C556.4 92.0783 553.7 86.9783 549.8 81.0783C544.5 73.0783 535.9 61.9783 521.6 49.4783C521.4 49.3783 521.3 49.1783 521.1 49.0783C516.6 48.0783 511.9 47.4783 507.1 47.2783Z" fill="#F29A2E"/>
<path d="M562.2 89.5783C561.9 89.6783 564.7 98.0783 570 106.678C572.2 110.178 579.7 121.478 593.7 130.878C596.9 132.978 600.1 134.778 603.1 136.278C603 135.278 602.8 134.178 602.7 133.178C591.2 127.578 584.6 121.278 581.7 118.078C577.6 113.678 571.5 105.778 566.4 96.9783C564.1 92.9783 562.4 89.4783 562.2 89.5783Z" fill="#F29A2E"/>
<path d="M547.9 57.8784C547.9 58.0784 548 58.1784 548 58.3784C549.2 62.4784 551 66.9784 553.5 71.7784C559.9 83.6784 568.2 91.0784 572.1 94.1784C572.6 94.5784 573 94.8784 573.4 95.1784C580.7 100.678 588.1 103.978 588.2 103.678C588.3 103.478 585.3 101.678 581.9 99.2784C579.4 97.4784 577 95.6784 574.8 93.8784C570.3 90.1784 566.6 86.4784 564.1 83.7784C561.3 80.5784 555.2 73.0784 551.1 60.0784C551 59.8784 551 59.6784 550.9 59.5784L547.9 57.8784Z" fill="#F29A2E"/>
<path d="M413.8 99.9784C416.3 115.478 422.2 128.378 428.3 138.178C425.5 134.278 422.7 129.978 420.1 125.178C416.3 118.378 413.3 111.678 411.1 105.478C404.7 119.178 401.6 133.778 401.6 148.278C419.7 193.678 451.6 225.778 477.7 246.278C488.5 249.078 499.5 249.978 510.4 249.078C500.5 242.378 488.6 232.878 477 219.578C465.4 206.278 457.8 193.278 452.7 183.078C458.4 192.078 465.9 202.178 475.6 212.378C491.2 228.878 507.5 240.078 520.9 247.678C531.1 245.878 540.9 242.478 550.2 237.578C542.9 233.478 529.2 227.778 511.7 216.878C502.9 211.378 490.5 203.678 478.2 191.778C455.7 170.078 445.8 146.378 442.8 138.878C432.6 112.778 432.1 89.3784 433.1 74.8784C430 77.7784 427.1 80.8784 424.4 84.2784C423.5 93.3784 425 101.378 426.6 106.978C425.3 103.578 424.5 100.678 424 98.4784C423.4 96.1784 422.6 92.2784 422.1 87.1784C421.6 87.7784 421.2 88.3784 420.7 89.0784C418.1 92.5784 415.8 96.2784 413.8 99.9784Z" fill="#F29A2E"/>
<path d="M472 51.9785C468.3 53.1785 464.6 54.5785 461 56.1785C461.1 56.1785 461.1 56.1785 461.2 56.2785C488.5 65.0785 504.1 77.9785 513.5 88.7785C518.7 94.7785 521.5 99.4785 525.8 105.979C529.5 111.679 534.4 118.679 543 129.079C551 138.779 559 148.279 571.3 158.879C581.3 167.379 590.9 173.779 599 178.579C599.1 178.579 599.1 178.679 599.2 178.679C599.9 176.479 600.5 174.379 601 172.179C600.9 172.179 600.8 172.079 600.8 172.079C594.1 169.079 589.2 165.579 585.5 162.579C578.9 157.079 578.6 154.579 565.7 139.879C554.4 126.979 551.9 125.779 542.5 115.179C538.6 110.779 535.5 106.979 532.9 103.679C526.5 95.4785 523.3 89.9785 518.6 84.2785C510.2 73.9785 496.3 61.6785 472.2 52.2785C472.2 51.9785 472.1 51.9785 472 51.9785Z" fill="#F29A2E"/>
<path d="M494.6 103.178C500.4 109.778 509.2 120.078 519.6 133.178C538.8 157.378 543.1 165.578 554.2 176.778C561.5 184.078 572.4 193.378 588.3 201.878C590 199.078 591.6 196.278 593.1 193.478C577.3 186.978 566.7 179.078 559.7 172.878C546.7 161.178 542.9 152.078 527.7 134.778C514.9 119.978 502.6 109.578 494.6 103.178Z" fill="#F29A2E"/>
<path d="M447.6 63.4783C445.6 64.7783 443.6 66.1783 441.7 67.5783C448.5 75.1783 457.2 86.0783 465 100.278C471 111.278 474.4 120.478 477.4 128.678C481.8 140.778 485.1 150.778 494.3 161.578C500.9 169.378 512.3 179.578 532.4 186.978C509.7 172.978 498 157.778 491.6 146.478C487.3 138.978 484.9 132.378 482.6 125.678C479.5 116.578 476.6 107.178 469.7 94.4783C462.3 80.9783 454.2 70.6783 447.6 63.4783Z" fill="#F29A2E"/>
<path d="M498.5 177.078C503.9 185.478 512.3 196.478 524.5 206.978C538.1 218.678 551.8 225.678 562.4 229.978C564.2 228.678 565.9 227.378 567.6 225.878C550.3 219.078 529.5 207.978 510.2 189.478C505.9 185.378 502 181.178 498.5 177.078Z" fill="#F29A2E"/>
<path d="M403.3 167.378C408 191.778 421.6 214.478 443.3 230.278C447.4 233.178 451.6 235.778 455.9 238.078C449.2 231.478 442.3 224.078 435.4 215.778C421.4 198.678 411 181.978 403.3 167.378Z" fill="#F29A2E"/>
</g>
<path opacity="0.07" d="M472.2 52.0781C472.1 52.0781 472 51.9781 472 51.9781C468.3 53.1781 464.6 54.5781 461 56.1781C461.1 56.1781 461.1 56.1781 461.2 56.2781C456.5 58.3781 452 60.7781 447.6 63.5781C445.6 64.8781 443.6 66.2781 441.7 67.6781C433.7 73.6781 426.5 80.8781 420.4 89.3781C398.9 119.078 395.9 156.578 409.2 188.078C409.3 187.978 409.4 187.878 409.5 187.678C410.6 186.378 411.6 185.078 412.7 183.778C414 182.178 415.4 180.578 416.9 178.978C425.5 169.378 435.6 159.378 447.6 149.678C456.5 142.378 466.5 135.278 477.5 128.678C479.2 127.678 480.9 126.578 482.7 125.578C488.4 122.278 494.3 119.178 500.6 116.278C501.9 115.678 503.2 115.078 504.5 114.478C505.3 114.078 506.1 113.778 506.9 113.378C513.4 110.478 519.7 107.978 526 105.878C528.4 105.078 530.8 104.278 533.2 103.478C540.3 101.278 547.1 99.3781 553.7 97.8781C555.5 97.4781 557.2 97.0781 559 96.6781C560.9 96.2781 562.7 95.8781 564.5 95.5781C564.9 95.4781 565.3 95.3781 565.8 95.3781C568.1 94.9781 570.3 94.5781 572.4 94.2781C573.3 94.1781 574.2 93.9781 575.1 93.8781C579.1 93.2781 583 92.7781 586.7 92.4781C580.2 82.7781 571.9 73.9781 561.9 66.7781C558.5 64.2781 555 62.0781 551.4 60.1781C551.3 59.9781 551.3 59.7781 551.2 59.6781L548.1 58.0781C548.1 58.2781 548.2 58.3781 548.2 58.5781C539.8 54.2781 530.9 51.2781 521.9 49.5781C521.7 49.4781 521.6 49.2781 521.4 49.1781C516.7 48.2781 512 47.7781 507.2 47.5781C507.3 47.6781 507.5 47.7781 507.6 47.8781C495.6 46.9781 483.6 48.4781 472.2 52.0781Z" fill="#C0272D"/>
<path d="M1395 348.878L1394 351.978H1390.7L1393.4 353.978L1392.4 357.078L1395 355.178L1397.7 357.078L1396.7 353.978L1399.4 351.978H1396.1L1395 348.878Z" fill="white"/>
<path d="M835.9 365.578L834.8 368.778H831.5L834.2 370.678L833.2 373.878L835.9 371.878L838.5 373.878L837.5 370.678L840.2 368.778H836.9L835.9 365.578Z" fill="white"/>
<path d="M632.3 635.878L631.3 639.078H628L630.7 640.978L629.6 644.178L632.3 642.178L635 644.178L634 640.978L636.7 639.078H633.4L632.3 635.878Z" fill="white"/>
<path d="M667.9 920.478L667.4 921.878H665.8L667.1 922.878L666.6 924.278L667.9 923.378L669.1 924.278L668.6 922.878L669.9 921.878H668.4L667.9 920.478Z" fill="white"/>
<path d="M194.6 657.678L194.1 659.178H192.5L193.8 660.078L193.3 661.578L194.6 660.678L195.9 661.578L195.4 660.078L196.6 659.178H195.1L194.6 657.678Z" fill="white"/>
<path d="M1229.5 188.478L1229 189.978H1227.5L1228.7 190.878L1228.3 192.378L1229.5 191.478L1230.8 192.378L1230.3 190.878L1231.6 189.978H1230L1229.5 188.478Z" fill="white"/>
<path d="M2209.6 172.378L2208.6 175.478H2205.3L2207.9 177.478L2206.9 180.578L2209.6 178.678L2212.3 180.578L2211.3 177.478L2213.9 175.478H2210.6L2209.6 172.378Z" fill="white"/>
<path d="M2746.9 248.078L2745.9 251.278H2742.6L2745.3 253.178L2744.3 256.378L2746.9 254.378L2749.6 256.378L2748.6 253.178L2751.3 251.278H2748L2746.9 248.078Z" fill="white"/>
<path d="M831.5 142.278L830.5 145.478H827.2L829.9 147.378L828.8 150.578L831.5 148.578L834.2 150.578L833.2 147.378L835.9 145.478H832.5L831.5 142.278Z" fill="white"/>
<path d="M2579.4 93.0781L2578.4 96.2781H2575.1L2577.8 98.1781L2576.7 101.378L2579.4 99.3781L2582.1 101.378L2581.1 98.1781L2583.7 96.2781H2580.4L2579.4 93.0781Z" fill="white"/>
<path d="M986.4 590.978L984.8 595.878H979.7L983.8 598.878L982.3 603.778L986.4 600.778L990.6 603.778L989 598.878L993.1 595.878H988L986.4 590.978Z" fill="white"/>
<path d="M78.2002 83.1782L76.6001 88.0782H71.5002L75.7002 91.0782L74.1001 95.8782L78.2002 92.8782L82.4001 95.8782L80.8 91.0782L84.9001 88.0782H79.8L78.2002 83.1782Z" fill="white"/>
<path d="M1895.1 158.178L1893.5 162.978H1888.4L1892.5 166.078L1890.9 170.878L1895.1 167.878L1899.2 170.878L1897.6 166.078L1901.8 162.978H1896.6L1895.1 158.178Z" fill="white"/>
<mask id="mask0_738_575" style="mask-type:alpha" maskUnits="userSpaceOnUse" x="1869" y="138" width="52" height="53">
<path d="M1895.1 190.378C1880.8 190.378 1869.2 178.782 1869.2 164.478C1869.2 150.174 1880.8 138.578 1895.1 138.578C1909.4 138.578 1921 150.174 1921 164.478C1921 178.782 1909.4 190.378 1895.1 190.378Z" fill="url(#paint3_radial_738_575)"/>
</mask>
<g mask="url(#mask0_738_575)">
</g>
<path d="M284 878.478L282.5 883.378H277.3L281.5 886.378L279.9 891.278L284 888.278L288.2 891.278L286.6 886.378L290.8 883.378H285.6L284 878.478Z" fill="white"/>
</g>
<defs>
<linearGradient id="paint0_linear_738_575" x1="1426.7" y1="1807.21" x2="1421.38" y2="-1026.04" gradientUnits="userSpaceOnUse">
<stop offset="0.1963"/>
<stop offset="0.2772" stop-color="#060201"/>
<stop offset="0.3801" stop-color="#150803"/>
<stop offset="0.495" stop-color="#2F1207"/>
<stop offset="0.6186" stop-color="#541F0D"/>
<stop offset="0.7492" stop-color="#833114"/>
<stop offset="0.8835" stop-color="#BB461C"/>
<stop offset="0.9963" stop-color="#F05A24"/>
</linearGradient>
<linearGradient id="paint1_linear_738_575" x1="167.867" y1="-51.4024" x2="390.303" y2="462.716" gradientUnits="userSpaceOnUse">
<stop offset="0.1951" stop-color="#FF1D25"/>
<stop offset="0.2155" stop-color="#EF1B23"/>
<stop offset="0.3536" stop-color="#8A1014"/>
<stop offset="0.4649" stop-color="#400709"/>
<stop offset="0.5439" stop-color="#120203"/>
<stop offset="0.5834"/>
</linearGradient>
<linearGradient id="paint2_linear_738_575" x1="442.3" y1="9.85543" x2="539.091" y2="233.569" gradientUnits="userSpaceOnUse">
<stop stop-color="#F29A2E"/>
<stop offset="0.1981" stop-color="#A6460F"/>
<stop offset="0.2564" stop-color="#893A0C"/>
<stop offset="0.4139" stop-color="#401B06"/>
<stop offset="0.5268" stop-color="#120702"/>
<stop offset="0.5834"/>
</linearGradient>
<radialGradient id="paint3_radial_738_575" cx="0" cy="0" r="1" gradientUnits="userSpaceOnUse" gradientTransform="translate(1895.06 164.525) rotate(180) scale(25.9149 25.8994)">
<stop stop-color="#666666"/>
<stop offset="1"/>
</radialGradient>
<clipPath id="clip0_738_575">
<rect width="2850" height="1800" fill="white" transform="translate(0 0.078125)"/>
</clipPath>
</defs>
</svg>
