<svg width="62" height="62" viewBox="0 0 62 62" fill="none" xmlns="http://www.w3.org/2000/svg">
<g clip-path="url(#clip0_916_2152)">
<path d="M23.4716 54.0747L23.4713 54.0768C23.0578 58.1987 19.482 61.2704 15.345 61.0579C11.2079 60.8453 7.96583 57.4233 7.97685 53.2808L7.97685 53.2778C7.97346 52.2165 8.19146 51.1662 8.61691 50.1939L8.65885 50.098V50.0885C10.1498 46.7682 13.7524 44.9242 17.3248 45.667C20.9306 46.4169 23.5139 49.596 23.5102 53.2789L24.0102 53.2794L23.5102 53.2829C23.512 53.5473 23.4991 53.8117 23.4716 54.0747Z" fill="#FF9801" stroke="#DB3500"/>
<path fill-rule="evenodd" clip-rule="evenodd" d="M15.7434 45.0129C15.2337 45.0176 14.7255 45.0695 14.2254 45.1679C18.1071 45.9248 20.909 49.3248 20.91 53.2796C20.912 53.5626 20.8982 53.8455 20.8687 54.1269C20.494 57.7577 17.7796 60.7116 14.1934 61.3913C14.704 61.4913 15.223 61.5432 15.7434 61.5463C19.9802 61.5436 23.5306 58.3411 23.9687 54.1269C23.9982 53.8455 24.012 53.5626 24.01 53.2796C24.01 48.7141 20.3089 45.0129 15.7434 45.0129Z" fill="#F57C00" fill-opacity="0.3"/>
<path d="M20.9103 12.9333L20.9097 12.9333C20.7164 12.9335 20.5232 12.9241 20.3308 12.9049C18.7287 12.7367 17.2718 11.9004 16.3186 10.6017C15.3677 9.30617 15.006 7.67043 15.3217 6.09508L15.47 5.52163C16.2218 3.15007 18.4218 1.53667 20.9106 1.53333C21.4426 1.53329 21.9721 1.6064 22.4842 1.75061L22.6113 1.78974C24.9886 2.53827 26.6067 4.74096 26.6103 7.23333C26.6103 10.3813 24.0583 12.9333 20.9103 12.9333Z" fill="#FF9801" stroke="#DB3500"/>
<path fill-rule="evenodd" clip-rule="evenodd" d="M22.7599 1.31233L22.6255 1.27099C22.0674 1.11323 21.4902 1.03325 20.9102 1.03333C20.3968 1.03802 19.8861 1.10746 19.3902 1.23999C19.4346 1.25136 19.4811 1.25549 19.5255 1.26789L19.6599 1.30923C22.3011 2.13305 24.0768 4.60716 24.012 7.3731C23.9473 10.139 22.0577 12.5273 19.3809 13.2267C19.8778 13.3698 20.3931 13.4394 20.9102 13.4333C23.9773 13.4386 26.5873 11.2006 27.05 8.16863C27.5127 5.13665 25.6889 2.22202 22.7599 1.31233V1.31233Z" fill="#F57C00" fill-opacity="0.3"/>
<path d="M52.4745 31.6141C50.7768 31.3024 49.3411 29.4299 49.3411 26.9613V24.3621V24.3619C49.3408 23.4856 49.0343 22.6301 48.469 22.0315C47.8977 21.4266 47.1093 21.1413 46.3171 21.3132L46.3083 21.3151L46.2995 21.3173C44.9879 21.652 44.1772 23.0605 44.2078 24.5234V26.9613C44.2078 29.4299 42.7721 31.3024 41.0745 31.6141V24.3621C41.0745 20.2186 43.7273 17.0643 46.7745 17.0643C49.8216 17.0643 52.4745 20.2186 52.4745 24.3621V31.6141Z" fill="#BBBBBB" stroke="#86817B"/>
<path d="M46.8531 17.065C49.8672 17.1187 52.4746 20.2543 52.4746 24.3621V31.6126C51.6931 31.467 50.9476 30.9873 50.3746 30.2083L50.3746 24.3621L50.3746 24.3615C50.3708 21.3069 49.0118 18.4998 46.8531 17.065Z" fill="#BBBBBB" stroke="#86817B"/>
<path d="M50.4077 12.4308V12.4309C50.4077 13.3946 50.0249 14.3187 49.3436 15.0001C48.6622 15.6815 47.738 16.0643 46.7744 16.0643C46.6729 16.0643 46.5973 16.0639 46.5265 16.0576C46.4824 16.0511 46.4423 16.0478 46.4174 16.0457L46.4129 16.0453C46.3787 16.0425 46.368 16.0413 46.3606 16.0401L46.3501 16.0383L46.3395 16.037C44.4352 15.8025 43.0415 14.1277 43.1568 12.2125C43.2722 10.2973 44.8568 8.80188 46.7755 8.79762L46.7784 8.7976C47.0515 8.79541 47.3239 8.82486 47.5901 8.88536L47.8608 8.96269C49.3764 9.43758 50.4082 10.8421 50.4077 12.4308Z" fill="#FF9801" stroke="#DB3500"/>
<path fill-rule="evenodd" clip-rule="evenodd" d="M48.0042 8.48361L47.7149 8.40095C47.4066 8.32976 47.091 8.29508 46.7746 8.29761C46.2385 8.2982 45.7078 8.4035 45.2122 8.60761C46.7757 9.22852 47.8048 10.7375 47.8121 12.4198C47.8194 14.1021 46.8033 15.6199 45.2452 16.2543C45.5758 16.3932 45.9232 16.4881 46.2786 16.5364C46.3406 16.5467 46.4026 16.5467 46.4646 16.557C46.5679 16.5674 46.6712 16.5674 46.7746 16.5674C48.8186 16.5692 50.557 15.0767 50.8645 13.0559C51.1721 11.0351 49.9563 9.09299 48.0042 8.48671V8.48361Z" fill="#F57C00" fill-opacity="0.3"/>
<path d="M21.1926 13.0393C21.2042 13.0404 21.2142 13.0416 21.2213 13.0425L21.2405 13.0452L21.2522 13.0469C21.2526 13.0469 21.2529 13.047 21.2532 13.047H21.2697L21.2982 13.0503L21.5669 13.0813L21.5803 13.0829L21.5803 13.0831C21.7151 13.1023 21.8702 13.1218 22.0553 13.1414C22.1562 13.147 22.2567 13.1591 22.3561 13.1776L22.4544 13.1917H22.4586L22.4877 13.1951L22.6633 13.2158L22.6669 13.2162L22.6669 13.2162L22.8014 13.233H22.8116H22.8431L22.8743 13.237C23.2574 13.2854 23.6935 13.3377 24.1903 13.3972C24.2737 13.4071 24.3588 13.4173 24.4457 13.4278C25.0492 13.5001 25.7351 13.583 26.5117 13.6813L26.9763 13.7402L21.1926 13.0393ZM21.1926 13.0393C21.1541 13.0338 21.1207 13.0307 21.0986 13.0287L21.095 13.0284C21.0649 13.0257 21.0541 13.0245 21.0441 13.0228L21.0033 13.016H20.9973M21.1926 13.0393L20.9973 13.016M20.9973 13.016C20.9621 13.0106 20.9266 13.0072 20.8911 13.0059C20.8565 13.0001 20.8215 12.9966 20.7865 12.9954L20.7799 12.9943V12.952L20.332 12.9051C18.7294 12.7372 17.272 11.9008 16.3186 10.6018C15.4807 9.46022 15.1003 8.05456 15.2377 6.65882L15.3286 6.05784L14.3442 5.88367C14.3004 6.09971 14.2675 6.31674 14.2452 6.534L20.9973 13.016ZM20.4659 13.5366L20.4553 13.5552L20.2802 13.8612C20.2803 13.8837 20.2803 13.8992 20.2804 13.9098L20.4659 13.5366ZM20.4659 13.5366V13.8975V13.5366ZM26.4489 14.1774L24.2109 51.1114L22.8116 13.733C23.1965 13.7817 23.6345 13.8342 24.1312 13.8936C24.7945 13.9731 25.5626 14.0651 26.4489 14.1774ZM24.3266 14.4206C24.8058 14.4781 25.3358 14.542 25.9215 14.615L23.784 49.8907C22.6757 47.3445 20.3867 45.3979 17.5285 44.8035C14.3 44.1321 11.0497 45.3326 9.01828 47.7614L14.7528 9.86349C14.9527 10.3303 15.2066 10.7769 15.5124 11.1935C16.5979 12.6723 18.2392 13.6409 20.0531 13.879C20.0728 13.8891 20.0877 13.8951 20.0941 13.8976C20.1279 13.9112 20.1558 13.9178 20.1615 13.9192C20.1721 13.9218 20.1807 13.9235 20.1852 13.9244C20.19 13.9253 20.1942 13.9261 20.1977 13.9267C20.2011 13.9272 20.2037 13.9276 20.2053 13.9279C20.2173 13.9297 20.2304 13.9313 20.2409 13.9325C20.2661 13.9355 20.3152 13.9409 20.4136 13.9513L20.4471 13.9548L20.4659 13.9543V13.9644C20.4566 13.9644 20.4527 13.9638 20.4572 13.9642C20.4613 13.9646 20.4687 13.9654 20.4814 13.967L20.5274 13.973C20.5456 13.9754 20.5668 13.9783 20.5899 13.9812L20.6208 13.985H20.6415L20.6627 13.9886L20.7169 13.9976L20.7363 13.9965L20.7797 14.0088L20.8498 14.0057L20.8949 14.016H20.926C20.9563 14.0199 20.9825 14.0223 21.0008 14.024L21.0045 14.0243C21.0346 14.0271 21.0453 14.0282 21.0554 14.0299L21.0962 14.0367H21.1098L21.1108 14.0368C21.1277 14.0393 21.1623 14.0442 21.2045 14.0462L21.4456 14.074C21.5953 14.0953 21.7647 14.1164 21.9636 14.1373L21.9775 14.1387L21.9914 14.1394C22.0547 14.1425 22.1177 14.1501 22.1799 14.1621L22.1917 14.1643L22.2035 14.166L22.3482 14.1867L22.3834 14.1917H22.3999L22.5429 14.2085L22.5465 14.2089L22.7082 14.2292L22.7391 14.233H22.7702H22.7801C23.1592 14.2808 23.5887 14.3322 24.0718 14.3901C24.1552 14.4001 24.2401 14.4103 24.3266 14.4206Z" fill="#FF5722" stroke="#DB3500"/>
<path fill-rule="evenodd" clip-rule="evenodd" d="M20.8378 13.5036C20.1277 13.429 19.4283 13.2751 18.7525 13.0448C18.6492 13.0056 18.5458 12.9642 18.4425 12.9198C15.7546 11.7475 14.2509 8.85685 14.8341 5.98303L13.3947 11.563C13.3812 11.6126 13.7264 11.873 13.7718 11.9185C13.9082 12.0373 14.0498 12.1489 14.1955 12.2554C14.4886 12.4694 14.7997 12.6575 15.1255 12.8175C15.8911 13.1285 16.6962 13.3316 17.5177 13.421C18.4146 13.578 19.3188 13.7 20.224 13.795C20.6073 13.8353 20.9917 13.8922 21.3751 13.9387C22.0333 14.0193 22.6916 14.0978 23.3498 14.1815L21.6593 29.3715C23.1666 30.9106 24.0105 32.9791 24.0101 35.1334C24.0121 35.4164 23.9983 35.6992 23.9688 35.9807L24.0204 35.991L26.4488 14.1774C25.5653 14.0658 24.6807 13.9604 23.7962 13.8539C22.9499 13.7506 22.084 13.6648 21.2325 13.5553L20.8378 13.5036Z" fill="#D84315" fill-opacity="0.3"/>
<mask id="path-11-inside-1_916_2152" fill="white">
<path fill-rule="evenodd" clip-rule="evenodd" d="M20.4668 13.4645C20.4463 13.4587 20.4251 13.4552 20.4038 13.454C20.4251 13.4552 20.4463 13.4587 20.4668 13.4645Z"/>
</mask>
<path fill-rule="evenodd" clip-rule="evenodd" d="M20.4668 13.4645C20.4463 13.4587 20.4251 13.4552 20.4038 13.454C20.4251 13.4552 20.4463 13.4587 20.4668 13.4645Z" fill="#9E9E9E"/>
<path d="M20.7374 12.5018C20.6469 12.4763 20.5539 12.4609 20.4601 12.4556L20.3475 14.4524C20.2964 14.4495 20.2456 14.4411 20.1962 14.4272L20.7374 12.5018ZM20.3475 14.4524C20.2964 14.4495 20.2456 14.4411 20.1962 14.4272L20.7374 12.5018C20.6469 12.4763 20.5539 12.4609 20.4601 12.4556L20.3475 14.4524Z" fill="#DB3500" mask="url(#path-11-inside-1_916_2152)"/>
<mask id="path-13-inside-2_916_2152" fill="white">
<path fill-rule="evenodd" clip-rule="evenodd" d="M20.4668 13.4645C20.4463 13.4587 20.4251 13.4552 20.4038 13.454Z"/>
</mask>
<path fill-rule="evenodd" clip-rule="evenodd" d="M20.4668 13.4645C20.4463 13.4587 20.4251 13.4552 20.4038 13.454Z" fill="#9E9E9E"/>
<path d="M20.7374 12.5018C20.6469 12.4763 20.5539 12.4609 20.4601 12.4556L20.3475 14.4524C20.2964 14.4495 20.2456 14.4411 20.1962 14.4272L20.7374 12.5018Z" fill="#DB3500" mask="url(#path-13-inside-2_916_2152)"/>
<path d="M24.1903 13.3972C24.015 13.3762 23.8472 13.3561 23.6867 13.3367C25.6958 12.4251 27.1929 10.5464 27.5443 8.24411C27.8591 6.18121 27.1944 4.16857 25.8689 2.7153L45.0001 8.14966C43.3217 8.84608 42.1412 10.5007 42.1412 12.431H42.6395L42.1412 12.4312C42.1416 13.6977 42.653 14.8563 43.4902 15.6981C42.5414 15.5852 41.6295 15.4767 40.7531 15.3724C34.2011 14.5926 29.6361 14.0494 26.5095 13.6811C25.7337 13.5828 25.0486 13.5001 24.4456 13.4278C24.3588 13.4174 24.2737 13.4072 24.1903 13.3972Z" fill="#FF5722" stroke="#DB3500"/>
<path fill-rule="evenodd" clip-rule="evenodd" d="M46.7744 8.29771C47.0908 8.29518 47.4065 8.32986 47.7148 8.40104L22.7598 1.31238C23.7462 1.62603 24.6381 2.18246 25.3534 2.93058L44.6148 8.40104C44.3065 8.32986 43.9908 8.29518 43.6744 8.29771C41.8131 8.29361 40.1799 9.53749 39.6892 11.333C39.1985 13.1286 39.972 15.0302 41.5768 15.9733L46.2784 16.5334C44.1121 16.2666 42.5265 14.3613 42.6578 12.1826C42.789 10.0038 44.5917 8.30257 46.7744 8.29771V8.29771Z" fill="#D84315" fill-opacity="0.3"/>
<path d="M42.1587 12.1525C42.0763 13.5203 42.5975 14.792 43.4987 15.6987L41.7433 15.4896C40.3923 14.6442 39.7493 13.0098 40.1715 11.4648C40.6027 9.8871 42.0377 8.79411 43.6733 8.79774L43.6784 8.7977C43.7529 8.7971 43.8274 8.79886 43.9017 8.80296C42.9054 9.59505 42.2407 10.7905 42.1587 12.1525ZM44.649 8.31793L44.7133 8.06822L45.0058 8.15133C44.8842 8.20191 44.7652 8.25753 44.649 8.31793Z" stroke="#DB3500" stroke-opacity="0.3"/>
<mask id="path-18-inside-3_916_2152" fill="white">
<path fill-rule="evenodd" clip-rule="evenodd" d="M48.0042 8.48367L47.7148 8.401Z"/>
</mask>
<path fill-rule="evenodd" clip-rule="evenodd" d="M48.0042 8.48367L47.7148 8.401Z" fill="#9E9E9E"/>
<path d="M48.2789 7.52214L47.9896 7.43948L47.4401 9.36253L47.7295 9.44519L48.2789 7.52214Z" fill="#DB3500" mask="url(#path-18-inside-3_916_2152)"/>
<path d="M50.4669 60.8273C50.5575 60.8425 50.6527 60.8376 50.8197 60.8468C52.392 58.5126 53.8576 56.0599 55.7636 53.9348C56.5925 53.0093 57.4164 52.0776 58.2174 51.1284C59.0334 50.1617 59.8193 49.171 60.689 48.1038C59.9835 47.9049 59.6798 47.5309 59.463 46.8859C58.9284 45.2995 58.664 43.676 58.4712 42.0283C58.4162 41.5572 58.2209 41.255 57.8702 40.9191C56.6339 39.7319 55.461 38.4751 54.2829 37.228C53.2774 36.1662 52.2845 35.0921 51.3076 34.0043C50.0102 32.5615 48.7238 31.1099 47.4564 29.6391C47.2515 29.4006 47.1819 29.0426 46.9825 28.5853C46.8146 28.5476 46.5426 28.4834 46.2035 28.4053C46.0135 29.3695 45.1936 29.814 44.5885 30.4247C42.6555 32.3762 40.6674 34.2683 38.7326 36.2179C37.3844 37.5769 36.0639 38.9683 34.7759 40.389C33.9835 41.263 33.2876 42.2245 32.526 43.128C32.197 43.5183 31.8158 43.8619 31.4551 44.2242C31.128 44.552 31.0248 44.8655 31.2857 45.3267C31.8774 46.38 32.4071 47.4702 32.9638 48.5452C33.5361 49.6471 34.1351 50.7358 34.6754 51.8532C35.2426 53.0209 35.7713 54.2088 36.2851 55.4022C36.5713 56.0676 36.6733 56.8469 37.0735 57.421C37.6041 58.1847 38.2982 58.855 39.0155 59.4533C39.3202 59.7072 39.8555 59.7605 40.2874 59.7601C43.719 59.7632 47.0939 60.2716 50.4659 60.8261L50.4669 60.8273ZM51.1133 59.3037C51.0271 59.3023 50.9417 59.2994 50.8557 59.2974C50.589 58.6239 50.2914 57.9629 50.0642 57.2771C49.7343 56.2843 49.455 55.2731 49.1526 54.2695C48.7997 53.1019 48.8204 53.059 49.9526 52.638C50.0414 52.6059 50.1263 52.5596 50.2129 52.5207C52.0581 51.7005 53.901 50.8854 55.878 50.4188C56.6098 50.2457 57.3028 49.907 58.0154 49.6498C58.1627 49.5977 58.3212 49.5723 58.6639 49.4898C55.9052 52.7436 53.1043 55.7045 51.1138 59.3038L51.1133 59.3037ZM50.326 59.961C50.257 60.032 50.188 60.1029 50.1177 60.1753C49.0944 60.0324 48.0708 59.8912 47.0472 59.7504C46.5766 59.6857 46.1088 59.6099 45.6372 59.5603C43.8156 59.3685 41.9904 59.2052 40.1706 58.9896C39.3823 58.8979 39.3635 58.8515 39.3326 58.0059C39.2849 56.7308 39.2761 55.4519 39.241 54.1759C39.2061 52.9321 39.1483 51.6899 39.126 50.4452C39.1166 49.9424 39.1731 49.4392 39.2038 48.8521C41.2887 49.1728 42.9279 50.426 44.8163 51.014C45.9206 51.3597 46.9639 51.9058 47.9477 52.3243C48.7624 54.939 49.5461 57.4503 50.3271 59.9612L50.326 59.961ZM53.6953 50.1933C53.7229 50.2492 53.7493 50.3059 53.7764 50.3617C52.9397 50.6973 52.1056 51.0376 51.2665 51.3641C50.8243 51.5345 50.3824 51.7224 49.925 51.8289C49.3058 51.9734 49.2528 51.8915 49.2959 51.1428C50.7647 50.8252 52.2301 50.5082 53.6948 50.1927L53.6953 50.1933ZM58.5296 48.2727C57.0997 49.0613 51.764 50.1868 49.0987 50.2821C49.057 50.2002 48.9938 50.1212 48.9722 50.0307C48.4033 47.7124 47.8388 45.3926 47.2744 43.0722C46.9738 41.8373 46.6699 40.603 46.3809 39.3659C46.3316 39.1524 46.3282 38.9241 46.3349 38.7044C46.4071 36.7549 46.4736 34.8041 46.5672 32.8561C46.6068 32.019 46.7074 31.1851 46.7962 30.1672C47.1299 30.5608 47.3161 30.7754 47.4967 30.9957C49.0308 32.8766 50.1959 35.0084 51.4955 37.0491C51.9888 37.825 52.3869 38.6626 52.8892 39.4316C53.4438 40.284 54.1132 41.0621 54.6529 41.9244C55.97 44.0239 57.2401 46.1543 58.53 48.2739L58.5296 48.2727ZM57.9472 42.9609C58.2213 44.2603 58.4393 45.5713 58.6989 46.9752C56.0062 42.74 53.0757 38.7444 50.7094 34.3708C51.5308 35.09 52.3028 35.8452 53.0313 36.6406C54.3192 38.0482 55.5323 39.5325 56.8759 40.8825C57.4844 41.4946 57.7838 42.181 57.9472 42.9615L57.9472 42.9609ZM48.2288 49.3774C48.3933 50.0969 48.6472 50.8411 48.37 51.7617C45.3963 50.6389 42.5822 49.3249 39.4954 48.0494C40.8654 46.516 42.1121 45.2063 43.2528 43.811C43.9227 42.9899 44.6272 42.9811 45.5535 43.18C46.3904 43.3579 46.8088 43.7866 47.0053 44.5729C47.4075 46.1763 47.8651 47.7653 48.2288 49.3774V49.3774ZM38.7545 58.1607C38.0307 57.6226 37.7692 57.0897 37.856 56.3861C37.8905 56.1005 37.9223 55.815 37.9653 55.5295C38.1248 54.4927 38.104 53.4213 38.6302 52.4317C38.6703 54.283 38.7095 56.1327 38.7544 58.1612L38.7545 58.1607ZM37.3147 55.6935C37.2414 55.7075 37.1686 55.7222 37.0947 55.7373C36.3205 54.086 35.6153 52.3976 34.7546 50.7967C33.8025 49.0238 32.5645 46.4211 32.5273 45.6566C34.3458 46.4799 36.1264 47.2737 37.8888 48.1086C38.0928 48.2061 38.25 48.5215 38.3131 48.767C38.3735 48.9963 38.2943 49.2706 38.2551 49.5212C38.0135 51.0258 37.7596 52.5297 37.5223 54.0344C37.4358 54.5851 37.3831 55.1407 37.3152 55.6935L37.3147 55.6935ZM46.5223 42.4002L46.3454 42.6102C46.0552 42.4927 45.7635 42.3739 45.4263 42.2376C45.6035 41.8746 45.7309 41.6182 45.9358 41.1985C46.1841 41.7061 46.3524 42.0535 46.5223 42.4002V42.4002ZM40.6648 45.6636C40.0219 46.3683 39.388 47.082 38.7145 47.8304C36.4059 46.8118 34.2234 45.8959 31.9616 44.7949C32.5961 44.1638 33.1247 43.6584 33.6292 43.1321C34.4668 42.2586 35.4521 41.4964 35.9782 40.3757C36.4431 39.3876 37.2128 38.6759 37.9241 37.9083C38.5951 37.1846 39.3085 36.4998 40.0318 35.8295C41.8564 34.1406 43.6965 32.4675 45.5343 30.7919C45.687 30.6532 45.8695 30.5505 46.1757 30.3311C46.1232 31.4275 46.08 32.369 46.0338 33.3089C45.9663 34.6495 45.8789 35.9894 45.8355 37.3312C45.7894 38.7895 45.994 40.3182 44.5495 41.3166C44.4752 41.3682 44.4405 41.4747 44.3776 41.5481C43.7901 42.2204 43.2092 42.8991 42.6092 43.5608C41.9696 44.2688 41.3077 44.9588 40.6649 45.663L40.6648 45.6636Z" fill="black"/>
<path d="M50.8555 59.2971C50.9416 59.299 51.027 59.3015 51.1131 59.3034C53.1036 55.7041 55.9045 52.7432 58.6632 49.4894C58.3205 49.5719 58.162 49.5973 58.0147 49.6494C57.3021 49.9066 56.6091 50.2453 55.8773 50.4184C53.8998 50.8849 52.0574 51.7001 50.2122 52.5203C50.1256 52.5592 50.0407 52.6055 49.9519 52.6376C48.8197 53.0586 48.799 53.1015 49.1519 54.2691C49.4549 55.2728 49.734 56.2845 50.0635 57.2767C50.2913 57.9621 50.5883 58.6235 50.855 59.297L50.8555 59.2971Z" fill="url(#paint0_linear_916_2152)"/>
<path d="M50.1175 60.1749C50.1877 60.103 50.2568 60.0315 50.3258 59.9606C49.5448 57.4497 48.7611 54.9384 47.9464 52.3237C46.9626 51.9052 45.9193 51.3591 44.8149 51.0134C42.9265 50.4254 41.2873 49.1722 39.2025 48.8515C39.1717 49.4386 39.1152 49.9423 39.1247 50.4446C39.147 51.6893 39.2053 52.9316 39.2397 54.1753C39.2752 55.452 39.2836 56.7302 39.3312 58.0053C39.3622 58.8509 39.3804 58.8972 40.1693 58.989C41.9896 59.2047 43.8147 59.368 45.6358 59.5597C46.1074 59.6093 46.5753 59.6851 47.0458 59.7498C48.0695 59.8906 49.0931 60.0313 50.1164 60.1747L50.1175 60.1749Z" fill="url(#paint1_linear_916_2152)"/>
<path d="M53.7765 50.3612C53.7489 50.3053 53.7225 50.2486 53.6954 50.1928C52.2312 50.5084 50.7653 50.8248 49.2965 51.1429C49.2528 51.8915 49.3059 51.9734 49.9257 51.829C50.383 51.722 50.8244 51.5346 51.2671 51.3642C52.1057 51.0377 52.9403 50.6974 53.777 50.3618L53.7765 50.3612Z" fill="#00F545"/>
<path d="M49.0987 50.2815C51.764 50.1862 57.1001 49.0613 58.5296 48.2721C57.2398 46.152 55.9691 44.022 54.6526 41.9226C54.1128 41.0604 53.4434 40.2822 52.8888 39.4298C52.3865 38.6608 51.9884 37.8232 51.4952 37.0473C50.1955 35.0066 49.0303 32.8754 47.4963 30.9939C47.3158 30.7736 47.1296 30.559 46.7958 30.1654C46.707 31.1834 46.6068 32.0178 46.5668 32.8543C46.4732 34.8023 46.4067 36.7532 46.3345 38.7026C46.3277 38.9229 46.3313 39.1506 46.3805 39.3641C46.67 40.6013 46.9734 41.8355 47.2741 43.0704C47.8384 45.3908 48.4028 47.7112 48.9719 50.029C48.9933 50.12 49.0566 50.1984 49.0983 50.2803L49.0987 50.2815Z" fill="url(#paint2_linear_916_2152)"/>
<path d="M58.6979 46.9743C58.4382 45.5705 58.2202 44.26 57.9462 42.96C57.7823 42.1795 57.4834 41.4937 56.8749 40.8811C55.5314 39.531 54.3187 38.0468 53.0303 36.6392C52.3013 35.8437 51.5298 35.0886 50.7084 34.3694C53.0747 38.743 56.0052 42.7391 58.698 46.9738L58.6979 46.9743Z" fill="url(#paint3_linear_916_2152)"/>
<path d="M48.369 51.7611C48.6462 50.8406 48.3924 50.0958 48.2278 49.3769C47.8636 47.7647 47.4065 46.1758 47.0043 44.5723C46.8083 43.7861 46.3893 43.3579 45.5524 43.1795C44.6257 42.9805 43.9217 42.9888 43.2518 43.8104C42.111 45.2058 40.8643 46.5155 39.4944 48.0489C42.5811 49.3244 45.3953 50.6384 48.369 51.7611V51.7611Z" fill="url(#paint4_linear_916_2152)"/>
<path d="M37.8554 56.3862C37.7686 57.0898 38.0301 57.6227 38.7539 58.1607C38.709 56.1322 38.6691 54.283 38.6297 52.4312C38.104 53.4215 38.1248 54.4923 37.9648 55.529C37.9217 55.8145 37.8894 56.1005 37.8555 56.3856L37.8554 56.3862Z" fill="#00F545"/>
<path d="M37.0936 55.7373C37.1677 55.7217 37.2409 55.7076 37.3136 55.6934C37.3822 55.1401 37.4348 54.585 37.5207 54.0342C37.758 52.5296 38.012 51.0257 38.2536 49.5211C38.2933 49.2706 38.3719 48.9967 38.3115 48.7669C38.249 48.5214 38.0918 48.2061 37.8872 48.1085C36.1248 47.2741 34.3442 46.4803 32.5258 45.6564C32.563 46.421 33.8008 49.0242 34.753 50.7966C35.6138 52.3975 36.3195 54.086 37.0931 55.7372L37.0936 55.7373Z" fill="url(#paint5_linear_916_2152)"/>
<path d="M46.3439 42.6097L46.5206 42.3999C46.3504 42.053 46.1827 41.7065 45.9346 41.1995C45.73 41.6187 45.6027 41.8749 45.4256 42.2375C45.7625 42.3736 46.0539 42.4923 46.3439 42.6097V42.6097Z" fill="#00F545"/>
<path d="M38.7143 47.8305C39.3877 47.082 40.0217 46.3684 40.6646 45.6636C41.3075 44.9589 41.9693 44.2694 42.6089 43.5614C43.2089 42.8997 43.7898 42.221 44.3773 41.5487C44.4397 41.4752 44.4743 41.3693 44.5492 41.3172C45.9937 40.3188 45.7891 38.7901 45.8352 37.3318C45.8791 35.99 45.9665 34.6501 46.0335 33.3095C46.0797 32.3695 46.1229 31.4281 46.1754 30.3317C45.8693 30.5505 45.6867 30.6538 45.534 30.7925C43.6962 32.4681 41.8561 34.1411 40.0315 35.8301C39.3083 36.4998 38.5948 37.1846 37.9238 37.9089C37.213 38.6765 36.4433 39.3882 35.9779 40.3762C35.4518 41.497 34.4665 42.2592 33.6289 43.1327C33.1244 43.659 32.5958 44.1649 31.9613 44.7955C34.2236 45.8965 36.4056 46.8124 38.7142 47.831L38.7143 47.8305Z" fill="url(#paint6_linear_916_2152)"/>
</g>
<defs>
<linearGradient id="paint0_linear_916_2152" x1="58.8999" y1="50.5286" x2="54.4741" y2="60.351" gradientUnits="userSpaceOnUse">
<stop stop-color="#7CFB40"/>
<stop offset="0.9985" stop-color="#F9ED32"/>
</linearGradient>
<linearGradient id="paint1_linear_916_2152" x1="52.0576" y1="51.6146" x2="48.7859" y2="61.1527" gradientUnits="userSpaceOnUse">
<stop stop-color="#7CFB40"/>
<stop offset="0.9985" stop-color="#F9ED32"/>
</linearGradient>
<linearGradient id="paint2_linear_916_2152" x1="61.1724" y1="34.0466" x2="52.5405" y2="51.2618" gradientUnits="userSpaceOnUse">
<stop stop-color="#7CFB40"/>
<stop offset="0.9985" stop-color="#F9ED32"/>
</linearGradient>
<linearGradient id="paint3_linear_916_2152" x1="60.5637" y1="36.8365" x2="55.9687" y2="47.1767" gradientUnits="userSpaceOnUse">
<stop stop-color="#7CFB40"/>
<stop offset="0.9985" stop-color="#F9ED32"/>
</linearGradient>
<linearGradient id="paint4_linear_916_2152" x1="49.8362" y1="44.5316" x2="47.0195" y2="52.2632" gradientUnits="userSpaceOnUse">
<stop stop-color="#7CFB40"/>
<stop offset="0.9985" stop-color="#F9ED32"/>
</linearGradient>
<linearGradient id="paint5_linear_916_2152" x1="38.8302" y1="47.4274" x2="34.55" y2="55.4514" gradientUnits="userSpaceOnUse">
<stop stop-color="#7CFB40"/>
<stop offset="0.9985" stop-color="#F9ED32"/>
</linearGradient>
<linearGradient id="paint6_linear_916_2152" x1="47.3153" y1="32.2033" x2="39.0773" y2="48.2193" gradientUnits="userSpaceOnUse">
<stop stop-color="#7CFB40"/>
<stop offset="0.9985" stop-color="#F9ED32"/>
</linearGradient>
<clipPath id="clip0_916_2152">
<rect width="62" height="62" fill="white"/>
</clipPath>
</defs>
</svg>
