<svg width="60" height="60" viewBox="0 0 60 60" fill="none" xmlns="http://www.w3.org/2000/svg">
<path d="M49.3795 6.17283L39.9224 3.2909C33.451 1.31872 26.5491 1.31872 20.0781 3.2909L10.6205 6.17283C9.19506 6.60709 8.04879 7.6853 7.51641 9.09205L2.99289 21.044C-0.357044 29.8946 2.42409 39.9208 9.83626 45.7159L22.2033 55.3841C26.7953 58.9741 33.2047 58.9741 37.7967 55.3841L50.1638 45.7159C57.576 39.9208 60.3571 29.8946 57.0072 21.044L52.4841 9.09205C51.9513 7.6853 50.805 6.60709 49.3795 6.17283V6.17283Z" fill="#DB3500"/>
<path d="M7.52563 45.4207C7.90695 45.7594 8.30109 46.0876 8.70941 46.403L21.7676 56.4926C26.6167 60.2389 33.3838 60.2389 38.2324 56.4926L51.2906 46.403C51.6989 46.0872 52.093 45.7594 52.4748 45.4207H7.52563Z" fill="url(#paint0_linear_915_1723)"/>
<path d="M36.3148 11.8814C34.7264 10.2078 32.4838 9.16089 30 9.16089C25.1971 9.16089 21.2901 13.0684 21.2901 17.8708V25.0137C20.7069 25.146 20.1247 25.2902 19.5433 25.449C18.7779 25.6578 18.2483 26.3554 18.2483 27.1492V45.413C18.2483 45.9724 18.5124 46.4833 18.9359 46.8097L31.3577 59.2315C33.4731 59.0173 35.5481 58.3036 37.3956 57.0878C39.6936 55.2476 41.9998 53.4184 44.3243 51.6139C45.1424 50.9794 45.9984 50.3853 46.8741 49.8158L51.2906 46.4032C55.2026 43.3806 57.8929 39.2547 59.1637 34.7302L36.3148 11.8814Z" fill="url(#paint1_linear_915_1723)"/>
<path d="M47.4134 8.83385L38.9155 6.27449C33.1009 4.52309 26.8996 4.52309 21.0846 6.27449L12.5872 8.83385C11.3059 9.21928 10.2759 10.1769 9.79756 11.4262L5.73308 22.0399C2.72328 29.9001 5.22176 38.8041 11.8822 43.9503L22.9944 52.5361C27.1207 55.7244 32.8794 55.7244 37.0057 52.5361L48.1179 43.9503C54.7779 38.8041 57.2768 29.9001 54.267 22.0399L50.2025 11.4262C49.7242 10.1769 48.6942 9.21928 47.4134 8.83385V8.83385Z" fill="url(#paint2_radial_915_1723)"/>
<path d="M37.0056 52.5363L48.1178 43.9505C54.7783 38.8043 57.2772 29.9004 54.267 22.0401L50.2025 11.4264C49.7241 10.1772 48.6942 9.21951 47.4133 8.83408L38.9154 6.27472C36.0081 5.39902 33.0038 4.96094 30 4.96094V54.9277C32.4715 54.9277 34.9425 54.1307 37.0056 52.5363Z" fill="url(#paint3_linear_915_1723)"/>
<path d="M36.3148 11.8814C34.7264 10.2078 32.4838 9.16089 30 9.16089C25.1971 9.16089 21.2901 13.0684 21.2901 17.8708V25.0137C20.7069 25.146 20.1247 25.2902 19.5433 25.449C18.7779 25.6578 18.2483 26.3554 18.2483 27.1492V45.413C18.2483 45.9724 18.5124 46.4833 18.9359 46.8097L26.5073 54.3811C30.0206 55.5049 33.9578 54.8915 37.0056 52.5363L48.1178 43.9505C52.3064 40.7141 54.8483 35.9913 55.41 30.977L36.3148 11.8814Z" fill="url(#paint4_linear_915_1723)"/>
<path d="M40.4567 47.1127C33.5307 49.0037 26.4693 49.0037 19.5433 47.1127C18.7779 46.904 18.2483 46.2063 18.2483 45.4126V27.1487C18.2483 26.3554 18.7779 25.6578 19.5433 25.449C26.4693 23.558 33.5307 23.558 40.4567 25.449C41.2221 25.6578 41.7517 26.3554 41.7517 27.1487V45.4126C41.7517 46.2063 41.2221 46.904 40.4567 47.1127V47.1127Z" fill="url(#paint5_linear_915_1723)"/>
<path d="M40.0978 25.3537C39.9564 25.3166 39.8149 25.2795 39.6735 25.2438C39.5782 25.22 39.483 25.1967 39.3878 25.1733C39.25 25.1394 39.1127 25.1065 38.9749 25.0744C38.8783 25.052 38.7822 25.0296 38.6856 25.0081C38.5478 24.9769 38.41 24.9467 38.2718 24.917C38.1766 24.8964 38.0814 24.8762 37.9861 24.8561C37.8442 24.8268 37.7019 24.7984 37.5595 24.7705C37.4693 24.7531 37.3787 24.7348 37.2885 24.7178C37.1324 24.6881 36.9763 24.6606 36.8202 24.6327C36.7438 24.6194 36.6673 24.6052 36.5909 24.5919C36.3593 24.5521 36.1272 24.5146 35.8946 24.4789C35.8905 24.4784 35.8864 24.478 35.8823 24.4771C35.6538 24.4423 35.4254 24.4098 35.1974 24.3791C35.1205 24.369 35.0436 24.3599 34.9667 24.3498C34.8106 24.3301 34.6545 24.31 34.4984 24.2921C34.4078 24.2816 34.3172 24.272 34.2261 24.2619C34.0833 24.2463 33.9404 24.2312 33.7976 24.217C33.7024 24.2079 33.6067 24.1992 33.511 24.1905C33.3723 24.1777 33.2336 24.1658 33.0949 24.1548C32.9979 24.147 32.9008 24.1397 32.8038 24.1328C32.6656 24.1227 32.5269 24.1136 32.3886 24.1049C32.2925 24.0989 32.1964 24.093 32.1002 24.088C31.9574 24.0802 31.8146 24.0738 31.6718 24.0678C31.5811 24.0637 31.4905 24.0596 31.3994 24.0559C31.2428 24.0504 31.0858 24.0463 30.9288 24.0426C30.8524 24.0408 30.7759 24.0381 30.699 24.0367C30.466 24.0326 30.233 24.0303 30 24.0303H29.9995C29.7665 24.0303 29.5335 24.0326 29.3005 24.0371C29.2241 24.0385 29.1476 24.0408 29.0707 24.0426C28.9142 24.0468 28.7572 24.0504 28.6006 24.0564C28.51 24.0596 28.4189 24.0637 28.3282 24.0678C28.1854 24.0738 28.0421 24.0802 27.8993 24.088C27.8036 24.0934 27.7075 24.0989 27.6118 24.1053C27.4731 24.1136 27.3349 24.1227 27.1962 24.1328C27.0992 24.1397 27.0021 24.147 26.9051 24.1548C26.7664 24.1658 26.6277 24.1781 26.489 24.1905C26.3933 24.1992 26.2981 24.2079 26.2024 24.217C26.0596 24.2312 25.9167 24.2463 25.7739 24.2619C25.6833 24.272 25.5927 24.2816 25.502 24.2921C25.3455 24.31 25.1894 24.3301 25.0333 24.3498C24.9564 24.3599 24.8799 24.369 24.803 24.3791C24.575 24.4098 24.3466 24.4423 24.1187 24.4771C24.1141 24.4775 24.11 24.4784 24.1054 24.4789C23.8733 24.5141 23.6412 24.5521 23.4091 24.5915C23.3327 24.6048 23.2567 24.619 23.1802 24.6322C23.0241 24.6602 22.8676 24.6881 22.7115 24.7174C22.6213 24.7343 22.5311 24.7526 22.4409 24.7705C22.2986 24.7984 22.1562 24.8263 22.0139 24.8561C21.9186 24.8758 21.8234 24.8964 21.7282 24.917C21.5904 24.9463 21.4526 24.9765 21.3148 25.0076C21.2183 25.0296 21.1217 25.052 21.0251 25.0744C20.8873 25.1065 20.75 25.1394 20.6126 25.1729C20.5174 25.1962 20.4222 25.2195 20.327 25.2438C20.1855 25.2791 20.0436 25.3161 19.9022 25.3537C19.812 25.3775 19.7218 25.4008 19.6317 25.4251C19.5918 25.4356 19.552 25.4475 19.5122 25.458C19.0878 25.5826 18.739 25.8577 18.5156 26.2156C26.1122 28.4994 33.8878 28.4994 41.4844 26.2156C41.2614 25.8577 40.9122 25.5826 40.4878 25.458C40.448 25.4471 40.4082 25.4356 40.3683 25.4251C40.2782 25.4008 40.188 25.3775 40.0978 25.3537V25.3537Z" fill="url(#paint6_linear_915_1723)"/>
<path d="M40.4566 25.449C34.112 23.7163 27.6539 23.5726 21.29 25.0136V25.2365C21.29 25.7607 21.5578 26.2226 21.9639 26.4927L41.5996 46.1284C41.6976 45.9078 41.7516 45.6652 41.7516 45.4125V27.1486C41.7516 26.3553 41.222 25.6577 40.4566 25.449V25.449Z" fill="url(#paint7_linear_915_1723)"/>
<path d="M41.7516 27.1485C41.7516 26.3552 41.222 25.6576 40.4566 25.4488C38.8773 25.0176 37.2907 24.6848 35.7004 24.4504V25.2364C35.7004 25.761 35.9682 26.2224 36.3747 26.4925L41.7516 31.8699V27.1485Z" fill="url(#paint8_linear_915_1723)"/>
<path d="M39.7123 41.0586L32.2795 33.6259C31.662 32.969 30.7644 32.5785 29.777 32.6472C28.237 32.7538 26.9883 33.9994 26.8789 35.5393C26.8079 36.5299 27.1997 37.4304 27.8594 38.0488L28.6019 38.7918C28.8417 39.1575 28.9713 39.5938 28.9713 40.0414V41.3227C28.9713 41.6551 29.1246 41.9586 29.365 42.1554L35.3676 48.1581C36.4502 48.0079 37.5315 47.812 38.6095 47.5703C38.615 46.9006 38.9167 46.2579 39.4536 45.8564C40.2163 45.286 40.7102 44.376 40.7102 43.3497C40.7106 42.4452 40.3266 41.6303 39.7123 41.0586V41.0586Z" fill="url(#paint9_linear_915_1723)"/>
<path d="M37.2014 26.745C36.3683 26.745 35.6931 26.0698 35.6931 25.2366V17.8708C35.6931 14.7314 33.1392 12.1776 29.9999 12.1776C26.8605 12.1776 24.3067 14.7314 24.3067 17.8708V25.2366C24.3067 26.0698 23.6315 26.745 22.7983 26.745C21.9652 26.745 21.2896 26.0698 21.2896 25.2366V17.8708C21.2896 13.0679 25.197 9.16089 29.9999 9.16089C34.8023 9.16089 38.7097 13.0679 38.7097 17.8708V25.2366C38.7097 26.0698 38.0345 26.745 37.2014 26.745Z" fill="url(#paint10_linear_915_1723)"/>
<path d="M18.2483 40.3984V45.4123C18.2483 46.2061 18.7779 46.9037 19.5433 47.1125C26.4693 49.0035 33.5307 49.0035 40.4567 47.1125C41.2221 46.9037 41.7517 46.2061 41.7517 45.4123V40.3984H18.2483Z" fill="url(#paint11_linear_915_1723)"/>
<path d="M30.0604 41.6841C30.0562 42.4329 30.0273 43.1818 30.0107 43.9303C30.0044 44.216 30.0034 44.5014 29.9988 44.8666C29.8026 44.6347 29.6999 44.4449 29.6171 44.2384C29.4767 43.891 29.3265 43.5474 29.1821 43.2016C29.0749 42.9457 28.9715 42.6884 28.8648 42.4323C28.7585 42.1758 28.6535 41.9183 28.5424 41.6634C28.3624 41.251 28.1751 40.8422 27.996 40.4291C27.7786 39.9276 27.5688 39.4239 27.3515 38.9223C27.2032 38.5787 27.0452 38.2388 26.8958 37.8953C26.8404 37.7681 26.7993 37.635 26.7501 37.5052C26.4267 36.655 26.1018 35.8053 25.7804 34.9542C25.7513 34.8763 25.7416 34.7907 25.7108 34.6568C25.9777 34.6435 26.2018 34.6351 26.426 34.6217C26.9492 34.5903 27.4723 34.5556 27.996 34.5238C28.0814 34.5184 28.1676 34.5172 28.2533 34.5196C28.3982 34.5246 28.4776 34.5856 28.5161 34.7433C28.6311 35.2226 28.7654 35.6978 28.8981 36.1721C29.0799 36.8223 29.2783 37.4684 29.449 38.1215C29.6115 38.7425 29.7485 39.3704 29.8956 39.996C30.027 40.5511 30.0633 41.1171 30.0603 41.6842L30.0604 41.6841Z" fill="#FF820F"/>
<path d="M33.2197 33.5579C32.5189 37.204 31.3569 40.696 30.2732 44.2153C30.1995 43.5264 30.3077 42.8466 30.3106 42.1641C30.3138 41.4702 30.3284 40.7744 30.3737 40.0815C30.4184 39.3924 30.4977 38.705 30.5789 38.0192C30.661 37.3294 30.7654 36.6423 30.8572 35.9538C30.9487 35.2649 31.0368 34.5759 31.1263 33.8907C31.5235 33.7199 31.8933 33.5565 32.2669 33.4029C32.3407 33.3728 32.4351 33.3588 32.5118 33.3752C32.7503 33.4261 32.9852 33.4956 33.2197 33.5581L33.2197 33.5579Z" fill="#FF820F"/>
<path d="M25.7705 34.4357C25.8064 34.3521 25.8155 34.2855 25.8533 34.249C26.3158 33.803 26.7844 33.3639 27.2482 32.9189C27.6801 32.5041 28.1075 32.0838 28.5388 31.6674C28.5998 31.6087 28.6682 31.5585 28.7643 31.478C28.9382 31.6842 29.0578 31.8816 29.145 32.0994C29.1884 32.2074 29.2151 32.3246 29.2689 32.427C29.3657 32.6106 29.3037 32.756 29.1819 32.8932C29.154 32.9243 29.1202 32.9544 29.0835 32.9742C28.6995 33.1828 28.3149 33.3888 27.9297 33.5949C27.8828 33.62 27.8303 33.6347 27.7833 33.6597C27.4343 33.8451 27.067 34.0048 26.7433 34.2275C26.4439 34.4333 26.1314 34.4181 25.7707 34.4356L25.7705 34.4357Z" fill="#FF6500"/>
<path d="M30.1699 39.8687C30.139 39.8727 30.1072 39.8768 30.0755 39.8807C30.0265 39.6542 29.9766 39.4281 29.9285 39.2009C29.7684 38.4461 29.5489 37.7084 29.3332 36.9678C29.1175 36.2279 28.9633 35.4701 28.7857 34.7189C28.7717 34.6598 28.7678 34.5847 28.7921 34.5323C28.9268 34.2429 29.0816 33.9633 29.2098 33.6714C29.3123 33.4377 29.3853 33.1915 29.4687 32.959C29.5848 32.9257 29.6775 32.9003 29.769 32.8726C29.9498 32.8185 30.1052 32.8458 30.2343 32.9963C30.3734 33.1587 30.5112 33.3247 30.6664 33.4716C30.9236 33.716 30.9372 34.0077 30.8864 34.3308C30.7695 35.0723 30.6631 35.8154 30.5547 36.5587C30.4572 37.2259 30.3525 37.8924 30.2714 38.5618C30.2183 38.9952 30.2025 39.4332 30.1697 39.869L30.1699 39.8687Z" fill="#FFC24F"/>
<path d="M27.1367 34.3625C27.1309 34.3401 27.1252 34.3177 27.1197 34.2957C27.7146 33.8679 28.3849 33.5772 29.0188 33.2214C29.0357 33.2371 29.0524 33.2534 29.0687 33.2695C29.0558 33.3236 29.0511 33.3817 29.0271 33.4307C28.9237 33.6411 28.8131 33.8475 28.7081 34.0566C28.6234 34.2254 28.493 34.3103 28.3011 34.3173C27.9724 34.3299 27.6446 34.3554 27.3163 34.3728C27.2567 34.376 27.1971 34.3664 27.1368 34.3626L27.1367 34.3625Z" fill="#FFA02D"/>
<path d="M33.2147 34.3009C33.197 34.3911 33.1796 34.4818 33.1622 34.5727C33.1857 34.5774 33.2088 34.5825 33.2326 34.5877C33.2566 34.4987 33.281 34.4096 33.3058 34.3207C33.2749 34.314 33.2448 34.3075 33.2147 34.3009V34.3009ZM30.0106 43.9299C30.0273 43.1814 30.056 42.4326 30.0604 41.6837C30.0633 41.1164 30.0271 40.5506 29.8957 39.9955C29.7485 39.3699 29.6116 38.742 29.4491 38.121C29.2784 37.4679 29.0802 36.8217 28.8982 36.1716C28.7655 35.6973 28.6312 35.2222 28.5161 34.7428C28.4777 34.5851 28.3983 34.5241 28.2534 34.5191C28.1677 34.5167 28.0813 34.518 27.9961 34.5233C27.4724 34.5551 26.9493 34.5898 26.4261 34.6212C26.2018 34.6344 25.9778 34.643 25.7109 34.6563C25.7417 34.7902 25.7514 34.8758 25.7805 34.9537C26.1018 35.8047 26.4267 36.6544 26.7502 37.5047C26.7994 37.6345 26.8405 37.7676 26.8959 37.8948C27.0453 38.2383 27.2033 38.5782 27.3516 38.9218C27.5689 39.4234 27.7787 39.9271 27.9961 40.4286C28.1752 40.8417 28.3625 41.2505 28.5425 41.6629C28.6537 41.9179 28.7586 42.1753 28.8649 42.4318C28.9716 42.6881 29.0751 42.9454 29.1822 43.2011C29.3266 43.5469 29.4768 43.8905 29.6172 44.2379C29.7 44.4444 29.8027 44.6342 29.9989 44.8661C30.0035 44.5009 30.0046 44.2154 30.0108 43.9298L30.0106 43.9299ZM30.2731 44.2151C31.3569 40.6958 32.5187 37.2038 33.2197 33.5576C32.9852 33.4951 32.7503 33.4256 32.5118 33.3747C32.4351 33.3584 32.3407 33.3723 32.2669 33.4024C31.8933 33.556 31.5233 33.7195 31.1263 33.8902C31.0369 34.5755 30.9488 35.2646 30.8572 35.9533C30.7653 36.6418 30.6609 37.3287 30.5789 38.0187C30.4978 38.7047 30.4185 39.3918 30.3737 40.081C30.3284 40.7739 30.3138 41.4697 30.3106 42.1636C30.3076 42.8462 30.1994 43.5259 30.2732 44.2148L30.2731 44.2151ZM28.5386 31.667C28.1073 32.0834 27.6799 32.5037 27.248 32.9185C26.7842 33.3635 26.3156 33.8026 25.8531 34.2486C25.8153 34.2851 25.8062 34.3517 25.7703 34.4353C26.1312 34.4177 26.4436 34.433 26.743 34.2272C27.0665 34.0044 27.434 33.8448 27.7829 33.6594C27.8299 33.6344 27.8824 33.6197 27.9294 33.5946C28.3146 33.3886 28.6991 33.1825 29.0831 32.9739C29.1201 32.9542 29.1539 32.924 29.1816 32.8929C29.3033 32.7556 29.3652 32.6102 29.2686 32.4267C29.2147 32.3243 29.1882 32.2073 29.1447 32.0991C29.0574 31.8813 28.9379 31.6839 28.7639 31.4777C28.6679 31.5582 28.5994 31.6085 28.5385 31.6671L28.5386 31.667ZM26.4879 33.4417C26.7596 33.199 27.0235 32.9467 27.2854 32.6932C27.716 32.2767 28.1474 31.8609 28.5682 31.4347C28.7247 31.2765 28.876 31.2149 29.1072 31.2583C29.3869 31.3108 29.6785 31.2976 29.9648 31.3199C30.3301 31.3492 30.6743 31.4404 30.9921 31.6376C31.1342 31.726 31.3104 31.7599 31.4724 31.8135C31.9095 31.957 32.3472 32.1011 32.7862 32.2402C33.0624 32.3267 33.3437 32.3962 33.6183 32.4871C33.9387 32.5923 33.9592 32.6521 33.8715 32.9756C33.8066 33.2131 33.7623 33.4563 33.7033 33.6953C33.6675 33.8408 33.634 33.9894 33.576 34.1274C33.183 35.0673 32.9419 36.0566 32.6328 37.0237C32.5387 37.3187 32.4404 37.6133 32.3578 37.912C32.001 39.2012 31.6661 40.4972 31.2908 41.7814C30.9634 42.8997 30.5941 44.0065 30.237 45.1162C30.2072 45.2081 30.1271 45.2835 30.0666 45.3718C29.7267 45.1702 29.6104 44.8498 29.4794 44.5508C29.0785 43.6376 28.6871 42.7193 28.3023 41.7988C27.9801 41.0284 27.6719 40.2516 27.3576 39.4781C27.1035 38.8522 26.8475 38.2272 26.5958 37.6009C26.3441 36.9745 26.0995 36.3453 25.8457 35.7198C25.7049 35.3727 25.5576 35.0276 25.3996 34.6878C25.3366 34.5529 25.3293 34.4448 25.4451 34.3446C25.7925 34.0436 26.1447 33.7479 26.4877 33.4417L26.4879 33.4417ZM30.0751 39.8804C30.1068 39.8765 30.1386 39.8724 30.1696 39.8684C30.2023 39.4326 30.2181 38.9946 30.2712 38.5611C30.3525 37.8919 30.457 37.2253 30.5545 36.558C30.6628 35.8148 30.7693 35.0716 30.8862 34.3302C30.937 34.0071 30.9234 33.7153 30.6662 33.4709C30.5112 33.3242 30.3733 33.1581 30.2341 32.9956C30.105 32.8451 29.9497 32.8179 29.7689 32.872C29.6773 32.8999 29.5847 32.9252 29.4685 32.9583C29.3851 33.1908 29.312 33.4369 29.2096 33.6708C29.0814 33.9627 28.9266 34.2422 28.7919 34.5317C28.7677 34.584 28.7717 34.6593 28.7855 34.7182C28.963 35.4695 29.1173 36.2273 29.3331 36.9671C29.5487 37.7077 29.7683 38.4456 29.9283 39.2003C29.9765 39.4274 30.0263 39.6536 30.0753 39.8801L30.0751 39.8804ZM27.1197 34.2954C27.1253 34.3174 27.1309 34.3397 27.1368 34.3621C27.197 34.3661 27.2566 34.3755 27.3163 34.3723C27.6445 34.3547 27.9725 34.3293 28.301 34.3168C28.4931 34.3099 28.6234 34.2249 28.7081 34.0561C28.8131 33.847 28.9237 33.6406 29.0271 33.4302C29.0511 33.3813 29.0558 33.3231 29.0687 33.269C29.0522 33.253 29.0355 33.2367 29.0188 33.221C28.3849 33.5768 27.7146 33.8674 27.1196 34.2953L27.1197 34.2954ZM29.1357 31.5061C29.3211 31.9059 29.4893 32.2695 29.6603 32.6377C29.7798 32.6127 29.8604 32.5962 29.968 32.5739C29.8841 32.2842 29.8048 32.04 29.7445 31.7917C29.6803 31.5289 29.6757 31.5156 29.4106 31.5056C29.3308 31.5029 29.2508 31.5057 29.1357 31.5061V31.5061ZM30.5532 32.8522C30.5331 32.8829 30.5129 32.9136 30.4929 32.9444C30.7171 33.1637 30.9414 33.383 31.1476 33.5842C31.6857 33.4867 31.882 33.4118 32.026 33.2448C31.5274 33.1122 31.0401 32.9821 30.5531 32.8523L30.5532 32.8522ZM30.1601 32.4162C30.2341 32.5871 30.4364 32.5494 30.5861 32.5934C30.6685 32.6176 30.7513 32.6414 30.8335 32.6671C31.252 32.7972 31.6714 32.928 32.0897 33.0587C32.5437 33.2006 32.9233 33.0114 33.2934 32.7857C33.3044 32.779 33.3011 32.7481 33.3043 32.7289C32.4785 32.2746 30.4372 31.6296 29.9874 31.6866C29.9348 31.9538 30.0604 32.1867 30.1602 32.416L30.1601 32.4162ZM32.8724 33.1847C33.0557 33.2527 33.1691 33.2947 33.3615 33.3662C33.3428 33.2147 33.3327 33.13 33.3172 33.0008C33.1645 33.0641 33.0546 33.1096 32.8724 33.1847Z" fill="#DB3500"/>
<path d="M29.6603 32.6382C29.4893 32.27 29.3211 31.9064 29.1357 31.5066C29.2507 31.5063 29.3306 31.5035 29.4106 31.5061C29.6757 31.5161 29.6803 31.5294 29.7445 31.7922C29.8048 32.0405 29.8841 32.2847 29.9679 32.5744C29.8604 32.5967 29.7799 32.6131 29.6603 32.6382V32.6382Z" fill="#E84200"/>
<path d="M30.4929 32.945C30.513 32.9143 30.5332 32.8835 30.5532 32.8527C31.0402 32.9824 31.5276 33.1126 32.0261 33.2453C31.8821 33.4122 31.6857 33.487 31.1478 33.5846C30.9415 33.3835 30.7174 33.1642 30.4931 32.9449L30.4929 32.945Z" fill="#FFA02D"/>
<path d="M30.5859 32.5942C30.4363 32.55 30.2341 32.5879 30.16 32.4171C30.0604 32.1877 29.9346 31.9547 29.9872 31.6877C30.4372 31.6308 32.4785 32.2759 33.3041 32.73C33.3008 32.7491 33.3042 32.78 33.2932 32.7868C32.923 33.0124 32.5435 33.2017 32.0895 33.0597C31.6711 32.9289 31.2519 32.7983 30.8333 32.6682C30.7512 32.6425 30.6683 32.6187 30.5859 32.5945L30.5859 32.5942Z" fill="#FF6500"/>
<path d="M33.2327 34.5879C33.2089 34.5827 33.1859 34.5776 33.1624 34.5728C33.1798 34.4821 33.1972 34.3914 33.2149 34.301C33.2451 34.3076 33.2752 34.314 33.306 34.3208C33.2812 34.4097 33.2568 34.4988 33.2327 34.5879V34.5879Z" fill="#FF820F"/>
<path d="M33.3611 33.3668C33.1687 33.2953 33.0553 33.2533 32.872 33.1852C33.054 33.1102 33.1641 33.0647 33.3168 33.0014C33.3323 33.1306 33.3424 33.2152 33.3611 33.3668Z" fill="#FF820F"/>
<path d="M30.6036 34.0342C30.5081 35.196 30.3739 36.3536 30.2008 37.5063C30.1884 37.5891 30.317 37.609 30.3294 37.526C30.5024 36.3732 30.6367 35.2157 30.7322 34.0539C30.739 33.9708 30.6105 33.9506 30.6036 34.0342V34.0342Z" fill="#FFD360"/>
<path d="M30.3029 33.5527C30.192 34.1557 30.0955 34.7609 30.0137 35.3685C30.0025 35.4515 30.131 35.4715 30.1422 35.3883C30.2241 34.7808 30.3206 34.1754 30.4314 33.5725C30.4465 33.49 30.3179 33.4705 30.3029 33.5527V33.5527Z" fill="#FFD360"/>
<path d="M29.9636 32.9751C29.8781 32.9927 29.7927 33.0103 29.707 33.0278C29.6256 33.0444 29.6384 33.174 29.7204 33.1572C29.8059 33.1396 29.8913 33.122 29.977 33.1045C30.0584 33.0878 30.0456 32.9583 29.9636 32.9751Z" fill="#FFD360"/>
<path d="M30.0817 33.1155C30.0479 33.1403 30.0864 33.1928 30.1202 33.168C30.154 33.1432 30.1154 33.0907 30.0817 33.1155Z" fill="#FFED7A"/>
<path d="M30.0304 33.0454C29.9966 33.0702 30.0351 33.1227 30.0689 33.0979C30.1027 33.0731 30.0642 33.0207 30.0304 33.0454Z" fill="#FFED7A"/>
<path d="M29.8876 33.0159C29.8538 33.0407 29.8923 33.0932 29.9261 33.0684C29.9599 33.0436 29.9213 32.9911 29.8876 33.0159Z" fill="#FFED7A"/>
<path d="M30.6737 33.9041C30.6399 33.9289 30.6784 33.9814 30.7122 33.9566C30.746 33.9318 30.7075 33.8793 30.6737 33.9041Z" fill="#FFED7A"/>
<path d="M30.4925 33.6206C30.4588 33.6454 30.4973 33.6979 30.5311 33.6731C30.5648 33.6483 30.5263 33.5959 30.4925 33.6206Z" fill="#FFED7A"/>
<path d="M30.1119 39.7332C30.0782 39.758 30.1167 39.8105 30.1504 39.7857C30.1842 39.7609 30.1457 39.7084 30.1119 39.7332Z" fill="#FFED7A"/>
<path d="M30.0836 39.5657C30.0498 39.5905 30.0884 39.643 30.1221 39.6182C30.1559 39.5934 30.1174 39.5409 30.0836 39.5657Z" fill="#FFED7A"/>
<path d="M28.8441 34.763C28.8103 34.7878 28.8489 34.8402 28.8826 34.8155C28.9164 34.7907 28.8779 34.7382 28.8441 34.763Z" fill="#FFED7A"/>
<path d="M28.8849 34.5984C28.8511 34.6232 28.8896 34.6757 28.9234 34.6509C28.9572 34.6261 28.9187 34.5736 28.8849 34.5984Z" fill="#FFED7A"/>
<path d="M28.9454 33.3443C28.9117 33.3691 28.9502 33.4215 28.9839 33.3968C29.0177 33.372 28.9792 33.3195 28.9454 33.3443Z" fill="#FFED7A"/>
<path d="M31.632 33.2681C31.5982 33.2929 31.6367 33.3454 31.6705 33.3206C31.7042 33.2958 31.6657 33.2433 31.632 33.2681Z" fill="#FFED7A"/>
<path d="M29.4103 32.9457L29.5753 33.0714L29.7246 33.1069L29.7049 33.2374L29.7773 33.4153L29.6125 33.2895L29.4632 33.254L29.4827 33.1234L29.4103 32.9457Z" fill="#FFED7A"/>
<path d="M30.5277 33.5677L30.6234 33.6408L30.7101 33.6613L30.6987 33.737L30.7408 33.8402L30.645 33.7672L30.5583 33.7467L30.5698 33.6709L30.5277 33.5677Z" fill="#FFED7A"/>
<path d="M29.6214 31.57C29.5089 31.5602 29.3989 31.5707 29.2903 31.601C29.25 31.6122 29.2734 31.6729 29.3135 31.6617C29.411 31.6346 29.5107 31.6254 29.6115 31.6343C29.653 31.6379 29.6632 31.5737 29.6214 31.57Z" fill="#DB3500"/>
<path d="M29.655 31.7035C29.6059 31.7036 29.5566 31.7039 29.5075 31.704C29.4657 31.7041 29.4728 31.7687 29.5143 31.7686L29.6617 31.7682C29.7036 31.768 29.6964 31.7034 29.655 31.7035Z" fill="#DB3500"/>
<path d="M29.6244 31.8514C29.5906 31.8761 29.6291 31.9286 29.6629 31.9038C29.6967 31.8791 29.6582 31.8266 29.6244 31.8514Z" fill="#DB3500"/>
<path d="M29.6847 32.5193C29.6509 32.5441 29.6894 32.5966 29.7232 32.5718C29.757 32.547 29.7185 32.4945 29.6847 32.5193Z" fill="#DB3500"/>
<path d="M26.804 33.4292C26.5864 33.693 26.3473 33.9338 26.0849 34.153C26.053 34.1799 26.0913 34.2324 26.1234 34.2054C26.3904 33.9824 26.6335 33.7379 26.855 33.4694C26.8816 33.4371 26.8307 33.3967 26.8041 33.429L26.804 33.4292Z" fill="#DB3500"/>
<path d="M26.3235 34.1125C26.2783 34.1387 26.2458 34.1747 26.2208 34.2202C26.2008 34.2568 26.2605 34.2825 26.2805 34.246C26.3001 34.2103 26.327 34.1852 26.3619 34.1649C26.3982 34.1439 26.3593 34.0916 26.3235 34.1125Z" fill="#DB3500"/>
<path d="M30.6348 31.8868C30.4558 31.8396 30.2769 31.7923 30.098 31.7452C30.0575 31.7344 30.048 31.7989 30.0881 31.8095C30.2671 31.8566 30.4459 31.9039 30.6249 31.9511C30.6653 31.9618 30.6749 31.8973 30.6348 31.8868Z" fill="#DB3500"/>
<path d="M30.3467 31.9572C30.2832 31.9248 30.2154 31.9058 30.1442 31.9004C30.1026 31.8972 30.0925 31.9614 30.1344 31.9646C30.2004 31.9696 30.2619 31.9869 30.3209 32.0168C30.3581 32.0358 30.384 31.9761 30.3467 31.9572Z" fill="#DB3500"/>
<path d="M29.91 44.532C29.8763 44.5568 29.9148 44.6093 29.9485 44.5845C29.9823 44.5597 29.9438 44.5072 29.91 44.532Z" fill="#DB3500"/>
<path d="M29.8204 44.4097C29.7867 44.4345 29.8252 44.487 29.8589 44.4622C29.8927 44.4374 29.8542 44.3849 29.8204 44.4097Z" fill="#DB3500"/>
<path d="M29.7242 44.2786C29.6905 44.3034 29.729 44.3559 29.7628 44.3311C29.7965 44.3063 29.758 44.2538 29.7242 44.2786Z" fill="#DB3500"/>
<defs>
<linearGradient id="paint0_linear_915_1723" x1="30.0001" y1="47.5918" x2="30.0001" y2="58.3568" gradientUnits="userSpaceOnUse">
<stop offset="0.0029" stop-color="#C2E0FF" stop-opacity="0"/>
<stop offset="0.0763" stop-color="#BFDCFD" stop-opacity="0.07451"/>
<stop offset="1" stop-color="#9EB2E7"/>
</linearGradient>
<linearGradient id="paint1_linear_915_1723" x1="50.4409" y1="40.7299" x2="-6.79973" y2="21.0825" gradientUnits="userSpaceOnUse">
<stop stop-color="#54498B" stop-opacity="0"/>
<stop offset="0.034" stop-color="#534889" stop-opacity="0.035294"/>
<stop offset="1" stop-color="#3B395F"/>
</linearGradient>
<radialGradient id="paint2_radial_915_1723" cx="0" cy="0" r="1" gradientUnits="userSpaceOnUse" gradientTransform="translate(17.0546 7.8391) scale(49.8079 49.8079)">
<stop stop-color="#FF6E3A"/>
<stop offset="0.2085" stop-color="#FF6A3C"/>
<stop offset="0.396" stop-color="#FF5F44"/>
<stop offset="0.5755" stop-color="#FF4D50"/>
<stop offset="0.7501" stop-color="#FF3361"/>
<stop offset="0.9195" stop-color="#FF1278"/>
<stop offset="1" stop-color="#FF0084"/>
</radialGradient>
<linearGradient id="paint3_linear_915_1723" x1="38.6145" y1="31.4514" x2="3.47723" y2="23.8435" gradientUnits="userSpaceOnUse">
<stop stop-color="#FF0084" stop-opacity="0"/>
<stop offset="0.0737" stop-color="#F4087E" stop-opacity="0.07451"/>
<stop offset="0.3347" stop-color="#D2216B" stop-opacity="0.333333"/>
<stop offset="0.583" stop-color="#BA335E" stop-opacity="0.584314"/>
<stop offset="0.8111" stop-color="#AB3D56" stop-opacity="0.811765"/>
<stop offset="1" stop-color="#A64153"/>
</linearGradient>
<linearGradient id="paint4_linear_915_1723" x1="45.0908" y1="46.8191" x2="6.71088" y2="8.4392" gradientUnits="userSpaceOnUse">
<stop stop-color="#FF0084" stop-opacity="0"/>
<stop offset="0.0737" stop-color="#F4087E" stop-opacity="0.07451"/>
<stop offset="0.3347" stop-color="#D2216B" stop-opacity="0.333333"/>
<stop offset="0.583" stop-color="#BA335E" stop-opacity="0.584314"/>
<stop offset="0.8111" stop-color="#AB3D56" stop-opacity="0.811765"/>
<stop offset="1" stop-color="#A64153"/>
</linearGradient>
<linearGradient id="paint5_linear_915_1723" x1="22.0298" y1="31.5077" x2="43.1951" y2="44.183" gradientUnits="userSpaceOnUse">
<stop stop-color="#FFC738"/>
<stop offset="0.4286" stop-color="#FFBB23"/>
<stop offset="1" stop-color="#FFA700"/>
</linearGradient>
<linearGradient id="paint6_linear_915_1723" x1="30.0001" y1="24.3711" x2="30.0001" y2="27.2808" gradientUnits="userSpaceOnUse">
<stop stop-color="#FFC738"/>
<stop offset="0.4286" stop-color="#FFBB23"/>
<stop offset="1" stop-color="#FFA700"/>
</linearGradient>
<linearGradient id="paint7_linear_915_1723" x1="36.6551" y1="34.8293" x2="26.4339" y2="17.5654" gradientUnits="userSpaceOnUse">
<stop stop-color="#FFA700" stop-opacity="0"/>
<stop offset="0.0206" stop-color="#FEA600" stop-opacity="0.019608"/>
<stop offset="0.6348" stop-color="#EC8C00" stop-opacity="0.635294"/>
<stop offset="1" stop-color="#E58200"/>
</linearGradient>
<linearGradient id="paint8_linear_915_1723" x1="41.8634" y1="29.3459" x2="36.9297" y2="24.3038" gradientUnits="userSpaceOnUse">
<stop stop-color="#FFA700" stop-opacity="0"/>
<stop offset="0.0206" stop-color="#FEA600" stop-opacity="0.019608"/>
<stop offset="0.6348" stop-color="#EC8C00" stop-opacity="0.635294"/>
<stop offset="1" stop-color="#E58200"/>
</linearGradient>
<linearGradient id="paint9_linear_915_1723" x1="35.3352" y1="42.4056" x2="27.8171" y2="34.8876" gradientUnits="userSpaceOnUse">
<stop stop-color="#FFA700" stop-opacity="0"/>
<stop offset="0.0206" stop-color="#FEA600" stop-opacity="0.019608"/>
<stop offset="0.6348" stop-color="#EC8C00" stop-opacity="0.635294"/>
<stop offset="1" stop-color="#E58200"/>
</linearGradient>
<linearGradient id="paint10_linear_915_1723" x1="29.9999" y1="22.5642" x2="29.9999" y2="28.1225" gradientUnits="userSpaceOnUse">
<stop stop-color="#3B395F"/>
<stop offset="0.0633" stop-color="#37355A"/>
<stop offset="0.4033" stop-color="#232543"/>
<stop offset="0.7232" stop-color="#171B35"/>
<stop offset="1" stop-color="#131830"/>
</linearGradient>
<linearGradient id="paint11_linear_915_1723" x1="30.0001" y1="44.6849" x2="30.0001" y2="48.8727" gradientUnits="userSpaceOnUse">
<stop stop-color="#FFA700" stop-opacity="0"/>
<stop offset="0.0206" stop-color="#FEA600" stop-opacity="0.019608"/>
<stop offset="0.6348" stop-color="#EC8C00" stop-opacity="0.635294"/>
<stop offset="1" stop-color="#E58200"/>
</linearGradient>
</defs>
</svg>
