<svg width="58" height="61" viewBox="0 0 58 61" fill="none" xmlns="http://www.w3.org/2000/svg">
<path d="M16.6066 59.6735C16.4303 59.6776 16.251 59.643 15.9313 59.6156C13.5818 54.8533 11.4669 49.899 8.42668 45.4365C7.10487 43.4934 5.79432 41.5401 4.53193 39.5604C3.24598 37.5441 2.02356 35.4912 0.662802 33.2737C2.05635 33.0918 2.73467 32.4769 3.32181 31.3346C4.76863 28.5256 5.71236 25.5754 6.52696 22.5611C6.75956 21.6993 7.21246 21.1891 7.96969 20.6576C10.64 18.7785 13.2088 16.7531 15.7848 14.7469C17.9827 13.0396 20.1601 11.3058 22.3109 9.54258C25.1666 7.20413 28.0039 4.84637 30.8105 2.44795C31.2644 2.05872 31.4939 1.41135 31.997 0.613577C32.3259 0.588167 32.8598 0.541418 33.5248 0.48654C33.6232 2.33108 35.0587 3.37684 36.0414 4.67462C39.1799 8.82103 42.4394 12.8719 45.582 17.0153C47.7717 19.9035 49.9 22.8446 51.9585 25.8315C53.225 27.6689 54.2845 29.6435 55.4844 31.5277C56.0028 32.3418 56.633 33.0826 57.2191 33.853C57.7509 34.5501 57.8616 35.1609 57.2406 35.9495C55.8307 37.7514 54.5284 39.6386 53.1789 41.4903C51.7925 43.3877 50.359 45.2536 49.029 47.1885C47.6344 49.2099 46.3075 51.2791 45.0072 53.3624C44.2827 54.524 43.877 55.9468 42.9609 56.9082C41.7457 58.1877 40.2456 59.2497 38.7209 60.1715C38.0733 60.5628 37.0425 60.5191 36.2227 60.4032C29.7069 59.4936 23.1614 59.5394 16.6086 59.6715L16.6066 59.6735ZM15.794 56.6663C15.958 56.6867 16.1209 56.7039 16.2848 56.7233C16.9744 55.5413 17.7194 54.3909 18.3372 53.1754C19.2338 51.4163 20.0392 49.6093 20.8866 47.8227C21.8744 45.7444 21.8467 45.659 19.8117 44.5737C19.6519 44.4903 19.5033 44.3816 19.3496 44.2861C16.0697 42.2677 12.7928 40.2596 9.16649 38.8642C7.82418 38.3469 6.60073 37.5319 5.31785 36.8632C5.05247 36.727 4.75839 36.6376 4.13027 36.3926C8.48202 43.1824 12.9936 49.4386 15.793 56.6663L15.794 56.6663ZM17.1097 58.0993C17.2214 58.2497 17.3331 58.4001 17.4468 58.5536C19.4285 58.5607 21.4102 58.5709 23.3919 58.582C24.3028 58.5871 25.2117 58.5709 26.1206 58.6044C29.6311 58.7335 33.1405 58.9164 36.6541 59.0007C38.1757 59.0404 38.2239 58.9591 38.5129 57.394C38.9504 55.0342 39.3152 52.6571 39.7291 50.2923C40.1339 47.9873 40.5817 45.6916 40.9628 43.3816C41.1176 42.4486 41.1473 41.4974 41.2487 40.3968C37.2033 40.4374 33.7502 42.3318 30.0051 42.9222C27.8143 43.2708 25.6851 44.0086 23.7034 44.5249C21.445 49.1723 19.2738 53.6358 17.1076 58.0993L17.1097 58.0993ZM13.3717 39.0268C13.3041 39.1234 13.2385 39.2219 13.1719 39.3185C14.6689 40.1661 16.1598 41.0218 17.664 41.8531C18.4571 42.2881 19.2451 42.7555 20.0843 43.0757C21.2206 43.5096 21.3436 43.3714 21.4655 41.9669C18.7635 40.9842 16.0676 40.0035 13.3727 39.0258L13.3717 39.0268ZM4.71638 34.1639C7.21656 36.0125 17.04 39.5299 22.0742 40.4181C22.1756 40.2768 22.317 40.1468 22.3826 39.9842C24.0938 35.8225 25.7968 31.6568 27.4998 27.49C28.4066 25.2725 29.3196 23.057 30.2049 20.8324C30.3565 20.4483 30.4252 20.0245 30.4723 19.6139C30.8658 15.9675 31.2705 12.3201 31.623 8.67062C31.7757 7.10251 31.8116 5.52423 31.9202 3.60651C31.1793 4.24982 30.7674 4.59942 30.3647 4.96121C26.9403 8.05171 24.1481 11.7073 21.1253 15.1575C19.9777 16.4695 18.994 17.9218 17.8311 19.2186C16.5461 20.6566 15.0634 21.9259 13.8041 23.3863C10.7322 26.9413 7.74119 30.5663 4.71535 34.166L4.71638 34.1639ZM7.26779 24.4361C6.39375 26.7807 5.62321 29.1618 4.74814 31.7045C11.0129 24.5428 17.664 17.8903 23.3468 10.3841C21.5916 11.503 19.9203 12.7022 18.3208 13.9878C15.4928 16.2632 12.7856 18.7013 9.86736 20.8548C8.54555 21.8314 7.79037 23.0286 7.26779 24.4371L7.26779 24.4361ZM23.9719 38.9669C23.4636 40.2616 22.7791 41.5787 23.0548 43.3653C29.006 42.0696 34.7062 40.3754 40.9136 38.8256C38.7301 35.6071 36.7197 32.8377 34.9337 29.9372C33.8855 28.2309 32.5503 28.0266 30.7377 28.1496C29.1003 28.2573 28.1894 28.9433 27.6022 30.3539C26.4024 33.23 25.101 36.0644 23.9719 38.9669ZM39.5683 57.8361C41.0889 57.0281 41.7303 56.1064 41.7569 54.774C41.7692 54.2334 41.7867 53.6937 41.7826 53.151C41.7621 51.1795 42.093 49.1916 41.3635 47.2099C40.7835 50.6439 40.2056 54.0748 39.5683 57.8371L39.5683 57.8361ZM42.9732 53.6297C43.1085 53.6754 43.2427 53.7222 43.379 53.77C45.2982 50.9041 47.0965 47.9508 49.1663 45.2017C51.4564 42.157 54.515 37.6447 54.7937 36.2321C51.1173 37.2788 47.5207 38.2809 43.9477 39.3642C43.5337 39.4913 43.1495 40.036 42.963 40.476C42.7857 40.8866 42.8615 41.4181 42.8677 41.8948C42.9169 44.7586 42.9896 47.6245 43.0306 50.4874C43.0449 51.5352 42.9937 52.5829 42.9722 53.6297L42.9732 53.6297ZM29.1106 26.4402L29.3893 26.8782C29.9723 26.737 30.5584 26.5937 31.2357 26.4301C30.998 25.7075 30.8258 25.1963 30.5512 24.3609C29.9416 25.239 29.5276 25.8406 29.1106 26.4402ZM39.3428 34.0745C40.3716 35.5573 41.3809 37.0542 42.4558 38.6264C47.1159 37.3469 51.5087 36.225 56.1022 34.7798C55.0694 33.4363 54.2035 32.355 53.3889 31.2411C52.0364 29.3925 50.3733 27.7116 49.6796 25.4859C49.0659 23.5235 47.7984 21.994 46.6569 20.3761C45.58 18.8507 44.4119 17.3862 43.2212 15.9462C40.2169 12.317 37.1788 8.71331 34.1457 5.10552C33.8937 4.80674 33.575 4.5669 33.0535 4.07705C32.8547 6.13094 32.6805 7.89418 32.5124 9.65539C32.2757 12.1676 32.077 14.6839 31.7941 17.1921C31.4847 19.9178 30.6803 22.7074 33.1508 24.9504C33.2779 25.0662 33.3147 25.2735 33.4141 25.427C34.3466 26.8345 35.2647 28.2523 36.2238 29.6435C37.2454 31.1314 38.3141 32.5918 39.3428 34.0735L39.3428 34.0745Z" fill="#DB3500"/>
<path d="M16.2851 56.7231C16.1211 56.7038 15.9582 56.6855 15.7943 56.6662C12.9949 49.4385 8.4833 43.1823 4.13155 36.3925C4.75967 36.6374 5.05375 36.7269 5.31914 36.8631C6.60202 37.5318 7.82546 38.3468 9.16777 38.8641C12.7951 40.2595 16.0709 42.2676 19.3509 44.2859C19.5046 44.3815 19.6532 44.4902 19.813 44.5735C21.848 45.6589 21.8757 45.7443 20.8879 47.8226C20.0395 49.6092 19.2341 51.4172 18.3385 53.1753C17.7196 54.3898 16.9757 55.5412 16.2861 56.7231L16.2851 56.7231Z" fill="#FF820F"/>
<path d="M17.447 58.5525C17.3333 58.4001 17.2216 58.2487 17.1099 58.0982C19.276 53.6348 21.4473 49.1713 23.7057 44.5238C25.6874 44.0076 27.8166 43.2697 30.0073 42.9212C33.7525 42.3307 37.2056 40.4364 41.251 40.3957C41.1495 41.4963 41.1198 42.4486 40.9651 43.3805C40.5839 45.6905 40.1351 47.9863 39.7314 50.2912C39.3164 52.6571 38.9527 55.0332 38.5151 57.3929C38.2262 58.958 38.179 59.0393 36.6564 58.9997C33.1418 58.9153 29.6323 58.7324 26.1228 58.6033C25.214 58.5698 24.3051 58.5861 23.3942 58.581C21.4125 58.5698 19.4308 58.5586 17.4491 58.5525L17.447 58.5525Z" fill="#FFA02D"/>
<path d="M13.1722 39.3174C13.2399 39.2209 13.3054 39.1223 13.372 39.0257C16.0659 40.0034 18.7628 40.9831 21.4648 41.9669C21.3439 43.3713 21.221 43.5096 20.0836 43.0756C19.2444 42.7545 18.4575 42.288 17.6633 41.853C16.1602 41.0217 14.6682 40.166 13.1712 39.3184L13.1722 39.3174Z" fill="#F54F00"/>
<path d="M22.0744 40.417C17.0402 39.5288 7.21572 36.0124 4.71657 34.1628C7.7424 30.5621 10.7344 26.9381 13.8053 23.3832C15.0646 21.9228 16.5473 20.6534 17.8323 19.2154C18.9953 17.9186 19.9789 16.4664 21.1266 15.1544C24.1493 11.7041 26.9415 8.04957 30.366 4.95806C30.7686 4.59626 31.1806 4.24667 31.9214 3.60336C31.8128 5.52108 31.7759 7.10037 31.6242 8.66747C31.2718 12.3169 30.867 15.9643 30.4735 19.6107C30.4264 20.0223 30.3578 20.4451 30.2061 20.8293C29.3198 23.0539 28.4078 25.2694 27.501 27.4869C25.798 31.6536 24.095 35.8204 22.3838 39.981C22.3182 40.1446 22.1768 40.2737 22.0754 40.415L22.0744 40.417Z" fill="#FF6500"/>
<path d="M4.74947 31.7036C5.62453 29.1609 6.39508 26.7808 7.26912 24.4352C7.79273 23.0266 8.54688 21.8305 9.8687 20.8528C12.7869 18.6993 15.4931 16.2613 18.3222 13.9858C19.9227 12.7002 21.5929 11.501 23.3481 10.3821C17.6654 17.8883 11.0143 24.5419 4.74947 31.7026L4.74947 31.7036Z" fill="#E84200"/>
<path d="M23.0562 43.3652C22.7805 41.5786 23.465 40.2605 23.9732 38.9668C25.1035 36.0643 26.4038 33.2299 27.6036 30.3538C28.1897 28.9432 29.1017 28.2583 30.7391 28.1495C32.5528 28.0266 33.8869 28.2298 34.9351 29.9372C36.7211 32.8376 38.7315 35.607 40.915 38.8255C34.7076 40.3753 29.0074 42.0695 23.0562 43.3652Z" fill="#FFC24F"/>
<path d="M41.7571 54.7741C41.7304 56.1065 41.089 57.0282 39.5684 57.8362C40.2057 54.0739 40.7847 50.644 41.3636 47.209C42.0921 49.1917 41.7612 51.1785 41.7827 53.1501C41.7868 53.6928 41.7704 54.2335 41.7571 54.7731L41.7571 54.7741Z" fill="#F54F00"/>
<path d="M43.3801 53.77C43.2438 53.7212 43.1086 53.6755 42.9744 53.6298C42.9948 52.582 43.0461 51.5352 43.0328 50.4874C42.9918 47.6246 42.919 44.7587 42.8698 41.8948C42.8627 41.4182 42.7879 40.8877 42.9651 40.4761C43.1506 40.036 43.5348 39.4913 43.9498 39.3643C47.5228 38.282 51.1194 37.2799 54.7959 36.2321C54.5172 37.6447 51.4586 42.158 49.1684 45.2018C47.0986 47.9508 45.2993 50.9041 43.3811 53.77L43.3801 53.77Z" fill="#FF820F"/>
<path d="M29.3904 26.8782L29.1117 26.4402C29.5297 25.8395 29.9427 25.2389 30.5523 24.3609C30.827 25.1962 30.9991 25.7074 31.2368 26.43C30.5595 26.5936 29.9734 26.7369 29.3904 26.8782Z" fill="#F54F00"/>
<path d="M42.4561 38.6264C41.3812 37.0542 40.3719 35.5573 39.3431 34.0745C38.3144 32.5918 37.2457 31.1324 36.2241 29.6446C35.265 28.2533 34.3469 26.8356 33.4144 25.428C33.3161 25.2746 33.2792 25.0683 33.1511 24.9514C30.6806 22.7085 31.485 19.9188 31.7944 17.1931C32.0762 14.685 32.275 12.1687 32.5127 9.65642C32.6808 7.89521 32.855 6.13197 33.0538 4.07807C33.5753 4.5669 33.894 4.80776 34.146 5.10655C37.1791 8.71433 40.2172 12.318 43.2215 15.9472C44.4122 17.3862 45.5803 18.8507 46.6572 20.3771C47.7976 21.995 49.0651 23.5245 49.6799 25.487C50.3736 27.7126 52.0367 29.3935 53.3892 31.2422C54.2038 32.356 55.0697 33.4383 56.1025 34.7808C51.5079 36.226 47.1162 37.3479 42.4561 38.6274L42.4561 38.6264Z" fill="#F54F00"/>
</svg>
