<svg width="54" height="54" viewBox="0 0 54 54" fill="none" xmlns="http://www.w3.org/2000/svg">
<path d="M31.53 40.5771C30.6036 40.8032 29.693 41.1079 28.782 41.4807C29.2928 41.4181 29.8031 41.365 30.3134 41.2899C32.086 41.0287 33.858 40.7433 35.6294 40.4989C37.2119 40.2808 38.7939 40.1092 40.3751 39.9077C41.2978 39.7914 42.0753 39.4404 42.7121 38.881C42.9143 38.7025 43.1366 38.5343 43.3407 38.3555C43.5342 38.1852 43.7151 38.0077 43.9004 37.8338C43.8747 37.8021 43.8495 37.7706 43.8224 37.7393C43.5119 37.8072 43.202 37.8699 42.893 37.9433C40.4409 38.5244 37.9919 39.1151 35.5385 39.6859C34.204 39.9964 32.8604 40.2514 31.5304 40.5769L31.53 40.5771Z" fill="#E84200"/>
<path d="M49.9474 37.7343C49.5032 37.3335 49.0537 36.9363 48.6171 36.5315C48.4394 36.3673 48.1718 36.3716 47.9121 36.4519C47.3746 36.617 46.8491 36.8155 46.1769 37.0498C47.3765 37.5466 48.7085 37.561 49.8738 37.8406C49.8983 37.8051 49.9229 37.7697 49.9478 37.7342L49.9474 37.7343Z" fill="#E84200"/>
<path d="M39.3754 40.5431C38.4696 40.2987 29.6361 41.5514 26.0474 42.4322C26.2257 43.7877 26.3982 45.111 26.5723 46.4348C26.889 46.5549 27.1641 46.4782 27.5387 46.3386C29.1239 45.7495 30.4035 44.8193 31.8709 44.1038C32.7862 43.6574 33.7227 43.2353 34.6504 42.8028C36.0887 42.1327 37.5286 41.4628 38.9667 40.7898C39.1066 40.7235 39.23 40.6317 39.3756 40.5437L39.3754 40.5431Z" fill="#FF6500"/>
<path d="M50.5953 38.8937C49.7165 38.6019 48.8696 38.2697 47.9534 38.033C47.1895 37.8355 46.3467 37.7406 45.5279 37.6244C45.3874 37.6043 45.142 37.67 45.0163 37.7537C44.5458 38.0665 44.1058 38.4037 43.6528 38.73C43.3834 38.9244 43.0983 39.1066 42.8476 39.3116C42.7271 39.4093 42.5872 39.5613 42.5989 39.662C42.7906 41.3861 42.9347 43.1234 43.5681 44.7811C44.5676 44.3505 50.0064 39.7731 50.5953 38.8937Z" fill="#FFC24F"/>
<path d="M26.572 46.4348C26.3979 45.111 26.2254 43.7877 26.0472 42.4322C29.6359 41.5514 38.4699 40.2989 39.3752 40.5431C39.2296 40.6311 39.1062 40.7229 38.9663 40.7892C37.5287 41.4621 36.0888 42.132 34.65 42.8023C33.7223 43.2347 32.7862 43.6568 31.8705 44.1032C30.4031 44.8187 29.1234 45.7486 27.5383 46.3381C27.1634 46.4781 26.8883 46.5547 26.5719 46.4342L26.572 46.4348ZM25.7309 43.0829C25.8224 44.2093 25.9124 45.2998 25.9958 46.3908C26.0031 46.4822 25.9412 46.5854 25.9422 46.6785C25.9416 46.9106 25.7672 47.0448 25.4592 47.1254C24.9308 47.2651 24.4064 47.4305 23.8742 47.5453C23.2977 47.6699 22.7021 47.8931 22.1448 47.7249C22.4113 46.8259 24.9348 43.5021 25.7309 43.0829ZM49.8737 37.841C48.7084 37.5614 47.3763 37.5467 46.1768 37.0502C46.8491 36.8162 47.3746 36.6177 47.912 36.4523C48.1721 36.3719 48.4393 36.3677 48.617 36.5319C49.054 36.9363 49.5031 37.3339 49.9473 37.7347C49.9228 37.7701 49.8982 37.8055 49.8733 37.8411L49.8737 37.841ZM35.6297 40.4989C33.8583 40.7436 32.0863 41.0287 30.3137 41.29C29.8034 41.3651 29.2931 41.4182 28.7823 41.4808C29.6933 41.1076 30.6039 40.803 31.5303 40.5771C32.8607 40.2515 34.2042 39.9962 35.5383 39.6861C37.9917 39.1153 40.4408 38.5246 42.8928 37.9434C43.2019 37.8703 43.5118 37.8074 43.8222 37.7395C43.8493 37.7708 43.8745 37.8023 43.9003 37.834C43.715 38.0079 43.5335 38.1852 43.3405 38.3556C43.1369 38.5344 42.9146 38.7026 42.7119 38.8811C42.0756 39.4405 41.298 39.7912 40.3749 39.9078C38.7937 40.1091 37.2117 40.281 35.6292 40.4991L35.6297 40.4989ZM50.5966 40.4495C50.8725 40.004 51.2305 39.5734 51.5713 39.1412C51.8634 38.7724 51.8843 38.6108 51.6063 38.3743C50.6359 37.544 49.6671 36.714 48.6602 35.8529C48.3802 35.9432 48.0506 36.0613 47.7148 36.1562C45.8961 36.6714 44.0826 37.2037 42.2561 37.6843C40.56 38.131 38.8515 38.5243 37.1466 38.9331C36.2435 39.1492 35.3343 39.3428 34.4298 39.5544C33.0679 39.8733 31.7044 40.1864 30.3464 40.5253C29.2547 40.7977 28.1578 41.0702 27.0902 41.4114C26.5074 41.5984 25.9882 41.6597 25.3228 41.5704C25.2253 41.8968 25.137 42.1611 25.0681 42.4241C24.914 43.0112 24.5436 43.5599 24.1275 44.1082C23.2325 45.2882 22.3557 46.4733 21.4879 47.6603C21.0885 48.208 21.0945 48.2249 21.7306 48.4854C22.7421 48.9006 23.7479 49.3232 24.8073 49.685C25.144 49.8007 25.651 49.8189 26.0589 49.7336C27.4861 49.4348 28.8984 49.2663 30.3184 49.1909C31.1662 49.1457 32.0291 49.0221 32.8825 48.9494C34.5663 48.8073 36.2457 48.6969 37.9296 48.5336C39.2444 48.4054 40.564 48.2146 41.8815 48.0533C42.9783 47.9199 44.0744 47.8033 45.1727 47.6465C45.4003 47.6144 45.8074 47.4314 45.8251 47.3332C45.9273 46.7649 46.5381 46.3856 47.0165 45.9844C47.8155 45.315 48.1132 44.5434 48.5755 43.8063C49.2735 42.6924 49.9026 41.5643 50.5967 40.4498L50.5966 40.4495ZM47.9527 38.033C48.8694 38.2696 49.7159 38.6019 50.5947 38.8938C50.0058 39.7734 44.5666 44.3509 43.5674 44.7811C42.9339 43.1231 42.79 41.3862 42.5982 39.662C42.587 39.5609 42.7269 39.409 42.8469 39.3116C43.0977 39.1069 43.3828 38.9245 43.6522 38.7301C44.1052 38.4037 44.5451 38.0663 45.0157 37.7537C45.1413 37.6701 45.3867 37.6044 45.5272 37.6244C46.3461 37.741 47.1888 37.8356 47.9527 38.033ZM41.264 40.3883C41.524 40.2716 41.8521 40.1691 41.9194 40.4205C42.0715 40.9881 42.1585 41.5719 42.2641 42.152C42.3342 42.5353 42.3763 42.9265 42.4571 43.307C42.5887 43.9194 42.741 44.5255 42.903 45.2105C38.0351 46.3955 33.1804 47.2112 28.4434 48.6037C27.7446 48.8081 27.0146 48.9181 26.1207 49.1096C26.3035 48.8372 26.4029 48.6932 26.4976 48.5475C26.8908 47.9408 27.7027 47.4576 27.8699 46.7814C27.8894 46.7058 28.0477 46.6173 28.1602 46.5544C29.3627 45.8888 30.5452 45.1974 31.7816 44.5745C32.7801 44.0722 33.8456 43.6499 34.8849 43.1982C36.3227 42.5723 37.7641 41.9562 39.1995 41.327C39.8943 41.0234 40.5737 40.6981 41.2639 40.388L41.264 40.3883ZM22.6796 48.2331L25.9258 47.3633C26.017 47.9164 25.7325 48.4353 25.5521 48.9455C25.4653 49.1902 25.0565 49.3043 24.7387 49.2C24.2477 49.0391 23.7605 48.8713 23.3024 48.6746C23.074 48.5749 22.9159 48.4049 22.6792 48.2332L22.6796 48.2331ZM26.5113 47.2132C27.0585 47.3708 27.0169 47.5194 26.3039 47.9732C26.3805 47.6958 26.443 47.4624 26.5113 47.2132ZM49.9872 40.3975C49.7599 40.9137 49.4973 41.4141 49.2172 41.9117C48.762 42.718 48.3129 43.5255 47.8279 44.3261C47.4865 44.8881 47.3516 44.9408 46.5682 44.937C45.9718 44.934 45.3798 44.9165 44.7052 44.904C46.2972 43.2678 48.1879 41.8613 49.9867 40.3976L49.9872 40.3975ZM29.5564 48.7737C30.3633 48.5326 31.1645 48.2543 31.9818 48.0574C33.7117 47.6418 35.4485 47.2468 37.1884 46.8847C38.5259 46.6071 39.8729 46.4022 41.2135 46.147C41.8765 46.0213 42.5353 45.8535 43.2782 45.6863C44.7747 46.3149 44.8711 46.3941 44.9456 47.1279C44.0979 47.2973 43.2484 47.4795 42.3954 47.6341C40.0248 48.0634 37.6713 48.1936 35.3116 48.4131C34.3753 48.5002 33.4367 48.595 32.5007 48.6688C31.5161 48.7458 30.5333 48.8022 29.5497 48.8686C29.5514 48.8373 29.5545 48.8057 29.5557 48.7746L29.5564 48.7737ZM44.4633 45.3943C45.3772 45.2179 46.1269 45.2142 46.9522 45.3384C46.5035 45.7022 46.124 46.0098 45.7413 46.3212C45.3056 46.0059 44.9136 45.7212 44.4633 45.3943Z" fill="#DB3500"/>
<path d="M41.9201 40.4204C41.8528 40.169 41.5247 40.2715 41.2647 40.3882C40.5745 40.6983 39.8951 41.0237 39.2003 41.3272C37.7648 41.9564 36.3235 42.5725 34.8857 43.1984C33.8463 43.6501 32.7809 44.0724 31.7824 44.5748C30.546 45.1976 29.3634 45.889 28.161 46.5546C28.0485 46.6175 27.8901 46.706 27.8706 46.7816C27.7035 47.4578 26.8915 47.941 26.4983 48.5477C26.4037 48.6934 26.3043 48.8374 26.1215 49.1098C27.0159 48.9182 27.7454 48.8086 28.4442 48.6039C33.1812 47.2114 38.0355 46.3958 42.9038 45.2107C42.7417 44.5254 42.589 43.9197 42.4579 43.3072C42.3775 42.9266 42.335 42.5356 42.2649 42.1522C42.1593 41.5721 42.0723 40.9884 41.9202 40.4207L41.9201 40.4204Z" fill="#FFA02D"/>
<path d="M25.7313 43.0828C24.9352 43.502 22.4117 46.8257 22.1452 47.7247C22.702 47.893 23.2976 47.6699 23.8746 47.5451C24.4068 47.4304 24.9312 47.2649 25.4596 47.1253C25.7676 47.0447 25.9424 46.9103 25.9425 46.6784C25.9415 46.5853 26.0035 46.4821 25.9962 46.3906C25.9127 45.2994 25.8228 44.2092 25.7313 43.0828Z" fill="#E84200"/>
<path d="M25.9269 47.3632L22.6807 48.2331C22.9173 48.4045 23.0751 48.5749 23.3039 48.6744C23.7619 48.8712 24.2491 49.039 24.7402 49.1999C25.0581 49.3044 25.4668 49.1901 25.5536 48.9453C25.734 48.4352 26.0184 47.916 25.9273 47.3631L25.9269 47.3632Z" fill="#FF6500"/>
<path d="M26.3047 47.9726C27.0175 47.5191 27.0586 47.3703 26.5121 47.213C26.4438 47.4621 26.3813 47.6954 26.3047 47.9726Z" fill="#FF820F"/>
<path d="M49.2168 41.9115C49.4973 41.4138 49.76 40.9134 49.9868 40.3973C48.188 41.861 46.2968 43.2676 44.7052 44.9037C45.3799 44.9166 45.9715 44.9341 46.5682 44.9367C47.3512 44.9406 47.4865 44.8878 47.8279 44.3258C48.3129 43.5252 48.762 42.7177 49.2172 41.9114L49.2168 41.9115Z" fill="#FF820F"/>
<path d="M31.982 48.0569C31.1647 48.2538 30.3634 48.532 29.5566 48.7732C29.5549 48.8045 29.5519 48.8361 29.5506 48.8672C30.5337 48.801 31.517 48.7444 32.5016 48.6674C33.4372 48.5938 34.3758 48.4992 35.3125 48.4117C37.6722 48.1922 40.0261 48.0619 42.3962 47.6328C43.2494 47.4784 44.0988 47.2959 44.9464 47.1265C44.872 46.3928 44.7757 46.3139 43.279 45.6849C42.5362 45.8522 41.8774 46.0199 41.2144 46.1457C39.8737 46.4008 38.5269 46.606 37.1893 46.8834C35.4495 47.2458 33.7127 47.6408 31.9827 48.056L31.982 48.0569Z" fill="#FF820F"/>
<path d="M46.9519 45.3384C46.1266 45.2142 45.3768 45.2176 44.463 45.3943C44.9133 45.7212 45.3053 46.006 45.741 46.3212C46.1237 46.0098 46.5036 45.7021 46.9519 45.3384Z" fill="#E84200"/>
<path d="M20.4712 49.0752C21.4245 49.0965 22.3829 49.0379 23.3594 48.9136C22.8499 48.8418 22.3431 48.761 21.8308 48.7015C20.051 48.4951 18.2656 48.3121 16.4913 48.0897C14.9062 47.8908 13.3337 47.6471 11.7542 47.4325C10.8328 47.306 9.99103 47.4438 9.23114 47.8194C8.98957 47.9394 8.73134 48.0443 8.48792 48.1643C8.25699 48.2786 8.03624 48.4033 7.81226 48.5233C7.82892 48.5605 7.84511 48.5975 7.86316 48.6348C8.18063 48.6495 8.49625 48.6692 8.81371 48.6783C11.3326 48.7516 13.8511 48.8149 16.3686 48.8985C17.738 48.9439 19.1018 49.0454 20.4707 49.0752L20.4712 49.0752Z" fill="#E84200"/>
<path d="M1.94529 47.0543C2.27062 47.5565 2.60197 48.0564 2.91898 48.5604C3.04809 48.765 3.30771 48.8301 3.57937 48.8198C4.14118 48.7994 4.70022 48.7437 5.41013 48.6914C4.37998 47.901 3.09715 47.5424 2.04386 46.9707C2.011 46.9986 1.97814 47.0265 1.94482 47.0543L1.94529 47.0543Z" fill="#E84200"/>
<path d="M12.8843 47.0776C13.696 47.5481 22.5527 48.6245 26.2471 48.7025C26.4257 47.347 26.6016 46.0242 26.776 44.7004C26.5012 44.5024 26.2156 44.5052 25.8176 44.5431C24.134 44.702 22.6573 45.2693 21.0547 45.5806C20.0551 45.7748 19.0411 45.9402 18.0332 46.1178C16.4704 46.3929 14.9062 46.6673 13.3429 46.9451C13.1906 46.973 13.0476 47.0297 12.8843 47.077L12.8843 47.0776Z" fill="#FF6500"/>
<path d="M1.61963 45.7664C2.39294 46.2758 3.12506 46.8158 3.94881 47.2816C4.63557 47.67 5.42508 47.9798 6.18589 48.304C6.3164 48.3598 6.57046 48.3598 6.71346 48.3116C7.2489 48.1311 7.7612 47.9194 8.28322 47.7214C8.59374 47.6033 8.9163 47.5012 9.21155 47.3681C9.35317 47.3048 9.52764 47.1942 9.54244 47.094C9.80345 45.3789 10.114 43.6636 9.93118 41.8984C8.85429 42.0557 2.41608 45.0694 1.61963 45.7664Z" fill="#FFC24F"/>
<path d="M26.7762 44.7002C26.6018 46.024 26.4259 47.3468 26.2473 48.7022C22.5529 48.6242 13.6957 47.5476 12.8845 47.0774C13.0478 47.0301 13.1908 46.9734 13.3431 46.9456C14.9059 46.6677 16.4701 46.3933 18.0334 46.1183C19.0413 45.9407 20.0548 45.7753 21.0549 45.581C22.6575 45.2697 24.1342 44.7027 25.8178 44.5436C26.2163 44.5054 26.5018 44.5025 26.7762 44.7008L26.7762 44.7002ZM26.7212 48.1556C26.9243 47.0439 27.1196 45.9673 27.3214 44.8919C27.3381 44.8017 27.4246 44.718 27.4477 44.6278C27.5084 44.4039 27.7115 44.3193 28.0299 44.3212C28.5765 44.323 29.1258 44.2989 29.6695 44.3259C30.2587 44.3547 30.8918 44.2933 31.3865 44.6C30.8964 45.3994 27.5986 47.9567 26.7212 48.1556ZM2.04429 46.9703C3.09758 47.542 4.38041 47.901 5.41056 48.691C4.70065 48.743 4.14161 48.7987 3.57979 48.8194C3.30768 48.8297 3.04852 48.7646 2.91941 48.56C2.60194 48.0563 2.27105 47.5561 1.94571 47.0539C1.97857 47.0261 2.01143 46.9982 2.04475 46.9703L2.04429 46.9703ZM16.4909 48.0895C18.2652 48.3116 20.0506 48.4949 21.8305 48.7013C22.3428 48.7608 22.8495 48.8416 23.3591 48.9134C22.3826 49.038 21.4242 49.0966 20.4708 49.075C19.1015 49.0453 17.7377 48.9441 16.3688 48.8983C13.8512 48.8147 11.3328 48.7514 8.81385 48.6781C8.49638 48.6687 8.18076 48.6493 7.8633 48.6346C7.84525 48.5973 7.82905 48.5603 7.81239 48.5231C8.03638 48.4031 8.25759 48.2787 8.48805 48.1641C8.73101 48.0441 8.98924 47.9392 9.23128 47.8192C9.9907 47.4436 10.8325 47.3061 11.7544 47.4323C13.3338 47.6472 14.9064 47.8906 16.4914 48.0895L16.4909 48.0895ZM2.02115 44.2635C1.63935 44.6225 1.18213 44.9458 0.741095 45.275C0.363466 45.5557 0.301453 45.7063 0.508779 46.0067C1.23118 47.0599 1.95219 48.1124 2.7019 49.2047C2.99576 49.19 3.3447 49.1612 3.69364 49.1565C5.58364 49.1295 7.47317 49.0847 9.36178 49.0932C11.1157 49.1007 12.8678 49.163 14.6204 49.2094C15.5487 49.2345 16.477 49.2827 17.4054 49.3125C18.8034 49.3569 20.2015 49.4074 21.601 49.4315C22.726 49.4509 23.8561 49.4716 24.9756 49.4183C25.5869 49.3886 26.1043 49.4638 26.7239 49.7222C26.9026 49.4321 27.0562 49.1997 27.1909 48.9635C27.4917 48.4363 27.9915 48.0021 28.5353 47.5802C29.7052 46.6721 30.8589 45.7543 32.0043 44.8324C32.5318 44.4067 32.5305 44.3888 31.9835 43.9725C31.1139 43.3097 30.2517 42.6412 29.322 42.0175C29.0267 41.8186 28.5417 41.6698 28.1257 41.6466C26.6698 41.5658 25.262 41.3632 23.8709 41.0684C23.0402 40.8927 22.1748 40.7887 21.3316 40.638C19.6684 40.3395 18.0176 40.0115 16.3489 39.7333C15.0457 39.5169 13.7216 39.3596 12.4073 39.1745C11.3133 39.0194 10.2244 38.8484 9.12299 38.7156C8.89484 38.6877 8.45427 38.7591 8.41169 38.8493C8.16596 39.3718 7.4778 39.5802 6.91182 39.8439C5.96682 40.2837 5.47951 40.9519 4.84226 41.5442C3.87968 42.4395 2.98003 43.3664 2.02115 44.2632L2.02115 44.2635ZM3.94956 47.282C3.12534 46.8162 2.39369 46.2761 1.62038 45.7668C2.41683 45.0695 8.8555 42.0558 9.93193 41.8988C10.1147 43.6643 9.8042 45.3793 9.54319 47.0943C9.52792 47.1949 9.35345 47.3055 9.2123 47.3684C8.91705 47.5013 8.59449 47.6037 8.28396 47.7218C7.76195 47.9198 7.24965 48.1318 6.71421 48.3119C6.57121 48.3602 6.31714 48.3602 6.18664 48.3044C5.42583 47.9799 4.63632 47.6704 3.94956 47.282ZM11.0199 46.7382C10.7386 46.7836 10.3952 46.7977 10.3952 46.5374C10.3952 45.9497 10.4623 45.3633 10.5104 44.7757C10.5419 44.3873 10.6025 43.9985 10.6229 43.6101C10.6543 42.9845 10.664 42.3596 10.6849 41.656C15.6936 41.7713 20.5939 42.2399 25.53 42.1209C26.2579 42.1043 26.9914 42.187 27.9045 42.2334C27.6574 42.4492 27.5241 42.5626 27.395 42.6788C26.8581 43.1631 25.9488 43.4196 25.6123 44.0295C25.5739 44.0975 25.3981 44.142 25.2731 44.1736C23.9394 44.5054 22.6181 44.8672 21.2627 45.1488C20.1682 45.3756 19.0297 45.5077 17.9089 45.675C16.3581 45.9074 14.8064 46.1295 13.257 46.3657C12.5073 46.4791 11.7669 46.6176 11.0199 46.7385L11.0199 46.7382ZM31.0014 43.9706L27.6407 43.9706C27.6958 43.4127 28.1049 42.9852 28.4112 42.5391C28.5584 42.3251 28.9828 42.3208 29.2628 42.5037C29.6955 42.7862 30.1226 43.0744 30.5141 43.383C30.709 43.5384 30.8177 43.7435 31.0019 43.9706L31.0014 43.9706ZM27.0363 43.9641C26.5485 43.6702 26.6272 43.5374 27.4334 43.2837C27.2876 43.5318 27.1668 43.741 27.0363 43.9641ZM2.59638 44.4715C2.94949 44.0317 3.33267 43.6164 3.73205 43.2082C4.38041 42.5472 5.02321 41.8835 5.69887 41.2357C6.17415 40.7811 6.31807 40.7652 7.07379 40.9716C7.64903 41.1289 8.2164 41.2989 8.86476 41.4856C6.90349 42.6541 4.71315 43.5233 2.59685 44.4715L2.59638 44.4715ZM24.4989 41.6686C23.6571 41.6927 22.8111 41.7541 21.9707 41.7328C20.1923 41.6864 18.4124 41.6185 16.6381 41.5179C15.2743 41.4399 13.9202 41.2892 12.5591 41.1887C11.8863 41.1386 11.2064 41.1301 10.4456 41.0994C9.16279 40.1048 9.09013 40.0034 9.20814 39.2754C10.0708 39.3311 10.9385 39.375 11.8025 39.4464C14.2034 39.6453 16.5104 40.1286 18.8465 40.5274C19.7734 40.6856 20.7045 40.8369 21.6278 41.0079C22.5987 41.1884 23.5627 41.3882 24.5299 41.5787C24.5202 41.6084 24.5091 41.6382 24.4998 41.668L24.4989 41.6686ZM9.22526 41.0747C8.29692 41.0086 7.57174 40.8181 6.80677 40.4845C7.33434 40.2492 7.78046 40.0503 8.23075 39.8486C8.56996 40.2659 8.87494 40.6424 9.22526 41.0747Z" fill="#DB3500"/>
<path d="M10.3945 46.5374C10.3945 46.7977 10.7379 46.7836 11.0193 46.7382C11.7662 46.6173 12.5067 46.4788 13.2564 46.3654C14.8058 46.1293 16.3575 45.9072 17.9082 45.6747C19.0291 45.5075 20.1675 45.3753 21.262 45.1485C22.6175 44.8669 23.9387 44.5051 25.2725 44.1733C25.3974 44.1417 25.5733 44.0972 25.6117 44.0292C25.9481 43.4193 26.8575 43.1628 27.3943 42.6785C27.5235 42.5623 27.6567 42.4489 27.9039 42.2331C26.9903 42.1867 26.2573 42.1037 25.5293 42.1206C20.5933 42.2397 15.6934 41.771 10.6842 41.6558C10.6634 42.3596 10.6542 42.9842 10.6222 43.6098C10.6014 43.9982 10.5412 44.387 10.5098 44.7754C10.4616 45.3631 10.3945 45.9495 10.3945 46.5371L10.3945 46.5374Z" fill="#FFA02D"/>
<path d="M26.7209 48.1556C27.5984 47.9567 30.8962 45.3993 31.3862 44.5999C30.892 44.2932 30.2589 44.3546 29.6693 44.3258C29.1256 44.2989 28.5762 44.323 28.0297 44.3211C27.7113 44.3192 27.5077 44.4038 27.4475 44.6278C27.4244 44.718 27.3378 44.8017 27.3212 44.8919C27.1194 45.9676 26.9241 47.0439 26.7209 48.1556Z" fill="#E84200"/>
<path d="M27.6396 43.9706L31.0003 43.9706C30.8162 43.7439 30.7079 43.5384 30.5126 43.383C30.1211 43.0744 29.6939 42.7863 29.2612 42.5037C28.9812 42.3205 28.5569 42.3251 28.4097 42.5391C28.1033 42.9852 27.6942 43.4131 27.6392 43.9706L27.6396 43.9706Z" fill="#FF6500"/>
<path d="M27.4325 43.2842C26.6266 43.5378 26.5484 43.6709 27.0356 43.9643C27.166 43.7414 27.2868 43.5322 27.4325 43.2842Z" fill="#FF820F"/>
<path d="M3.73234 43.2085C3.3325 43.6167 2.94932 44.0321 2.59668 44.4719C4.71298 43.5237 6.90378 42.6544 8.86459 41.486C8.21623 41.299 7.64932 41.1289 7.07363 40.9719C6.31837 40.7655 6.17398 40.7815 5.6987 41.236C5.02304 41.8838 4.38024 42.5476 3.73188 43.2085L3.73234 43.2085Z" fill="#FF820F"/>
<path d="M21.9705 41.7332C22.8109 41.7545 23.6569 41.6931 24.4987 41.669C24.5084 41.6392 24.5195 41.6094 24.5288 41.5797C23.562 41.3892 22.5976 41.1894 21.6267 41.0089C20.7039 40.8379 19.7728 40.6863 18.8454 40.5284C16.5092 40.1297 14.2018 39.6463 11.8014 39.4474C10.9373 39.3757 10.0696 39.3321 9.20701 39.2764C9.089 40.0044 9.16165 40.1055 10.4445 41.1004C11.2053 41.1311 11.8851 41.1396 12.558 41.1897C13.919 41.2902 15.2731 41.4406 16.637 41.5189C18.4113 41.6191 20.1911 41.6871 21.9696 41.7338L21.9705 41.7332Z" fill="#FF820F"/>
<path d="M6.80713 40.4845C7.57211 40.8181 8.29728 41.0089 9.22562 41.0747C8.8753 40.6424 8.57032 40.2659 8.23111 39.8486C7.78082 40.0504 7.33424 40.2493 6.80713 40.4845Z" fill="#E84200"/>
<path d="M31.5539 33.78C30.921 34.4932 30.3458 35.2621 29.809 36.0872C30.1933 35.745 30.5827 35.4108 30.9595 35.0586C32.2681 33.8347 33.5625 32.5914 34.8797 31.3821C36.0566 30.3019 37.2596 29.2603 38.4449 28.1945C39.1374 27.5736 39.5768 26.8425 39.7818 26.02C39.8466 25.7582 39.9336 25.4934 39.9995 25.2301C40.0617 24.9801 40.1094 24.7311 40.1628 24.4826C40.1236 24.4712 40.0849 24.4597 40.0448 24.4493C39.8282 24.6819 39.609 24.9099 39.3968 25.1461C37.7116 27.0198 36.0344 28.8995 34.3422 30.7654C33.4218 31.7804 32.4623 32.7549 31.5542 33.7796L31.5539 33.78Z" fill="#E84200"/>
<path d="M45.0778 20.9585C44.4844 20.8818 43.8888 20.8111 43.2993 20.7269C43.0598 20.693 42.8422 20.8489 42.6744 21.0628C42.3265 21.5044 42.0075 21.9668 41.5882 22.5421C42.8572 22.2676 43.9605 21.5213 45.0778 21.0877C45.0778 21.0446 45.0778 21.0016 45.0781 20.9581L45.0778 20.9585Z" fill="#E84200"/>
<path d="M37.9848 29.2856C37.1009 29.6003 30.5514 35.6587 28.1024 38.4258C29.0205 39.4387 29.9157 40.4285 30.8124 41.4178C31.1412 41.3362 31.3237 41.1166 31.5523 40.7885C32.5201 39.4018 33.0426 37.9086 33.8418 36.485C34.3402 35.5971 34.8699 34.7168 35.3864 33.8332C36.1875 32.4634 36.9899 31.093 37.7892 29.7211C37.8664 29.5869 37.9157 29.4412 37.9853 29.286L37.9848 29.2856Z" fill="#FF6500"/>
<path d="M46.2705 21.5431C45.3819 21.8034 44.4965 22.0124 43.6084 22.3394C42.868 22.6119 42.1211 23.0136 41.3817 23.3842C41.2548 23.4476 41.0904 23.6414 41.0347 23.7816C40.826 24.3067 40.6561 24.8344 40.4695 25.3605C40.3587 25.6737 40.2279 25.9858 40.1385 26.2971C40.0952 26.446 40.0666 26.6506 40.1335 26.7267C41.2727 28.0351 42.38 29.3814 43.8444 30.3837C44.4211 29.4607 46.2869 22.6013 46.2705 21.5431Z" fill="#FFC24F"/>
<path d="M30.8123 41.4183C29.9156 40.429 29.0204 39.4392 28.1023 38.4263C30.5513 35.6592 37.1013 29.6007 37.9847 29.2861C37.9151 29.4413 37.8658 29.587 37.7886 29.7211C36.9897 31.0927 36.1872 32.4632 35.3858 33.8333C34.8693 34.7169 34.3399 35.5968 33.8412 36.4851C33.042 37.9087 32.5193 39.4017 31.5517 40.7886C31.3231 41.1172 31.1405 41.3368 30.8118 41.4178L30.8123 41.4183ZM28.2126 39.1412C28.9291 40.0152 29.6239 40.8606 30.3135 41.71C30.3715 41.7811 30.3793 41.9012 30.4332 41.9772C30.5648 42.1683 30.4979 42.3779 30.2905 42.6195C29.9355 43.0351 29.5986 43.4697 29.2264 43.867C28.8233 44.2976 28.4607 44.8201 27.9068 44.9991C27.6141 44.1082 27.7968 39.9391 28.2126 39.1412ZM45.0779 21.0881C43.9607 21.5216 42.8571 22.2678 41.5883 22.5424C42.0078 21.9674 42.3269 21.505 42.6745 21.0631C42.8427 20.8489 43.06 20.6934 43.2995 20.7273C43.889 20.8109 44.4845 20.8822 45.0779 20.9588C45.0779 21.0019 45.0779 21.045 45.0776 21.0885L45.0779 21.0881ZM34.8801 31.3819C33.5631 32.5914 32.2685 33.8345 30.9598 35.0584C30.5831 35.4106 30.1937 35.7448 29.8094 36.087C30.3459 35.2617 30.9211 34.4928 31.5542 33.7798C32.4627 32.7547 33.422 31.78 34.3423 30.7656C36.0344 28.8997 37.7117 27.0199 39.3968 25.1463C39.6093 24.9102 39.8283 24.6821 40.0449 24.4495C40.085 24.4598 40.1236 24.4714 40.1628 24.4828C40.1095 24.7312 40.0612 24.9804 39.9996 25.2303C39.9339 25.4932 39.8469 25.758 39.7819 26.0202C39.5771 26.8423 39.1375 27.5732 38.445 28.1946C37.2595 29.2602 36.0567 30.3021 34.8798 31.3823L34.8801 31.3819ZM47.1572 22.8212C47.1304 22.2979 47.1796 21.7401 47.2138 21.1908C47.244 20.7212 47.1692 20.5765 46.806 20.5403C45.5355 20.4101 44.2665 20.2792 42.9485 20.1444C42.7697 20.378 42.566 20.6628 42.3438 20.932C41.1419 22.3908 39.9539 23.8608 38.7259 25.2957C37.5857 26.6285 36.4049 27.9244 35.2359 29.231C34.6164 29.9228 33.9791 30.5996 33.3559 31.2883C32.4177 32.3258 31.475 33.3594 30.5514 34.4111C29.8089 35.2565 29.0622 36.105 28.3787 36.9932C28.006 37.4787 27.614 37.8247 27.0161 38.1301C27.1218 38.4539 27.1997 38.7215 27.2927 38.9769C27.5002 39.5473 27.508 40.2093 27.4781 40.897C27.414 42.3766 27.3677 43.8501 27.3299 45.3199C27.3133 45.9976 27.3279 46.0081 27.9992 45.8602C29.0671 45.6258 30.1346 45.4006 31.2116 45.0949C31.5543 44.9984 31.9814 44.7248 32.2682 44.4225C33.2716 43.3644 34.3367 42.4219 35.4613 41.5516C36.1326 41.0317 36.7717 40.439 37.432 39.8934C38.7355 38.818 40.0533 37.7712 41.3448 36.6784C42.3528 35.8246 43.3291 34.9165 44.3204 34.0339C45.1463 33.2999 45.9811 32.58 46.7948 31.8259C46.9636 31.67 47.1941 31.2878 47.1529 31.1969C46.9133 30.6716 47.1996 30.012 47.3645 29.4098C47.6403 28.4046 47.4459 27.6008 47.4064 26.7316C47.3462 25.4185 47.2212 24.1328 47.1575 22.8214L47.1572 22.8212ZM43.6079 22.3396C44.4962 22.0123 45.3813 21.8036 46.27 21.5433C46.2866 22.6017 44.4204 29.4615 43.8439 30.3839C42.3792 29.3814 41.2721 28.0353 40.1329 26.7269C40.0661 26.6502 40.0947 26.4456 40.1379 26.2973C40.2276 25.9862 40.3581 25.6739 40.4689 25.3607C40.6556 24.8346 40.8252 24.3067 41.0342 23.7818C41.0899 23.6416 41.2542 23.4478 41.3811 23.3844C42.1207 23.014 42.8674 22.6121 43.6079 22.3396ZM39.4494 28.0835C39.5968 27.8396 39.8081 27.5686 40.0066 27.7369C40.4548 28.117 40.8586 28.5475 41.2757 28.9643C41.5515 29.2395 41.8088 29.5372 42.0919 29.804C42.5486 30.2326 43.0189 30.6442 43.542 31.1152C40.2144 34.8605 36.6874 38.2947 33.5855 42.1361C33.1273 42.702 32.5898 43.2079 31.9639 43.8743C31.9591 43.5462 31.9588 43.3712 31.9537 43.1976C31.9316 42.4749 32.3241 41.6155 32.0766 40.9644C32.0496 40.8911 32.1294 40.7283 32.1861 40.6125C32.7958 39.3808 33.3745 38.1391 34.0364 36.9232C34.5714 35.9418 35.2069 34.9881 35.8044 34.025C36.6302 32.692 37.4644 31.3649 38.2865 30.0305C38.6849 29.3854 39.0583 28.7312 39.4492 28.0833L39.4494 28.0835ZM28.6358 45.1125L30.8095 42.5494C31.1994 42.9523 31.2609 43.5408 31.4029 44.063C31.4709 44.3136 31.1998 44.6401 30.8791 44.7353C30.3838 44.8826 29.8877 45.0219 29.3992 45.1209C29.1546 45.169 28.9278 45.1193 28.6355 45.1128L28.6358 45.1125ZM31.2055 42.0927C31.7451 41.9108 31.7955 42.0567 31.4675 42.8356C31.3726 42.564 31.2912 42.3365 31.2055 42.0927ZM46.6265 23.1254C46.7335 23.6792 46.8025 24.2401 46.8554 24.8087C46.9401 25.7306 47.0306 26.6502 47.0876 27.5845C47.1268 28.241 47.0459 28.3611 46.3997 28.8039C45.9077 29.1409 45.411 29.4636 44.8492 29.8373C45.2267 27.5858 45.9805 25.3531 46.6262 23.1258L46.6265 23.1254ZM34.5974 41.6423C35.1235 40.9847 35.6238 40.2998 36.1837 39.6727C37.3693 38.3463 38.5724 37.0329 39.7967 35.7447C40.7384 34.7551 41.7291 33.8198 42.6861 32.8469C43.1596 32.3661 43.6058 31.8531 44.1213 31.2927C45.7095 30.9577 45.8339 30.9679 46.3128 31.5288C45.7123 32.1506 45.1176 32.784 44.5043 33.3968C42.7997 35.0991 40.9389 36.5459 39.1237 38.0696C38.4035 38.6743 37.6859 39.2865 36.9583 39.88C36.1927 40.5038 35.4167 41.1097 34.6459 41.7241C34.6295 41.6975 34.614 41.6697 34.5973 41.6434L34.5974 41.6423ZM44.9295 30.3781C45.5804 29.7128 46.1947 29.2829 46.9439 28.9153C46.7821 29.4698 46.6452 29.9387 46.5078 30.4126C45.9702 30.4014 45.4858 30.3905 44.9295 30.3781Z" fill="#DB3500"/>
<path d="M40.007 27.7365C39.8085 27.5682 39.5971 27.8392 39.4498 28.0831C39.0588 28.731 38.6855 29.3852 38.2871 30.0303C37.465 31.3648 36.6308 32.6918 35.8049 34.0249C35.2075 34.9879 34.572 35.9416 34.037 36.923C33.3751 38.1389 32.7964 39.3806 32.1867 40.6123C32.13 40.7281 32.0502 40.8909 32.0772 40.9642C32.3247 41.6153 31.9322 42.4748 31.9543 43.1974C31.9594 43.371 31.9597 43.546 31.9644 43.8741C32.5907 43.2074 33.1281 42.702 33.5861 42.1359C36.688 38.2945 40.2147 34.8606 43.5426 31.115C43.0193 30.6438 42.5489 30.2328 42.0925 29.8038C41.8097 29.5367 41.5521 29.2393 41.2763 28.9641C40.8592 28.5473 40.4554 28.1168 40.0072 27.7367L40.007 27.7365Z" fill="#FFA02D"/>
<path d="M28.2127 39.141C27.7969 39.9389 27.6142 44.108 27.9069 44.9989C28.4605 44.8203 28.8231 44.2977 29.2265 43.8667C29.5987 43.4695 29.9356 43.0349 30.2906 42.6193C30.498 42.3777 30.5652 42.1677 30.4333 41.977C30.3794 41.901 30.3716 41.7809 30.3136 41.7098C29.6237 40.8601 28.9292 40.015 28.2127 39.141Z" fill="#E84200"/>
<path d="M30.8103 42.5489L28.6366 45.1119C28.9287 45.1182 29.1554 45.1685 29.4003 45.12C29.8888 45.021 30.3849 44.8817 30.8802 44.7344C31.2011 44.6394 31.472 44.3127 31.404 44.0621C31.262 43.54 31.2003 42.9512 30.8106 42.5485L30.8103 42.5489Z" fill="#FF6500"/>
<path d="M31.468 42.835C31.7958 42.0563 31.7449 41.9106 31.206 42.0924C31.2917 42.3361 31.3731 42.5634 31.468 42.835Z" fill="#FF820F"/>
<path d="M46.855 24.8089C46.8024 24.2399 46.7334 23.679 46.6261 23.1256C45.9804 25.3529 45.2263 27.586 44.8491 29.8371C45.4111 29.4636 45.9075 29.1413 46.3996 28.8037C47.0455 28.3613 47.1267 28.2408 47.0875 27.5843C47.0305 26.6501 46.94 25.7305 46.8553 24.8085L46.855 24.8089Z" fill="#FF820F"/>
<path d="M36.1834 39.6719C35.6235 40.2991 35.1232 40.9839 34.5971 41.6415C34.6135 41.6682 34.629 41.6959 34.6457 41.7222C35.4163 41.1081 36.1925 40.5019 36.9581 39.8781C37.6854 39.285 38.4033 38.6729 39.1236 38.0677C40.9387 36.544 42.7998 35.0969 44.5042 33.3949C45.1177 32.7823 45.7122 32.1487 46.3127 31.5269C45.8338 30.966 45.7096 30.956 44.1211 31.2909C43.6056 31.8512 43.1594 32.3642 42.686 32.845C41.729 33.8179 40.7385 34.7534 39.7966 35.7429C38.5725 37.0312 37.3694 38.3446 36.1835 39.6708L36.1834 39.6719Z" fill="#FF820F"/>
<path d="M46.9435 28.9154C46.1943 29.283 45.5797 29.7126 44.9291 30.3781C45.4854 30.3905 45.9698 30.4015 46.5074 30.4127C46.6448 29.9388 46.782 29.4695 46.9435 28.9154Z" fill="#E84200"/>
<path d="M25.2403 29.4874C25.8798 30.4225 26.4432 31.4144 26.9528 32.467C26.5509 32.0064 26.1418 31.5544 25.7502 31.0831C24.3903 29.4455 23.0501 27.7871 21.6778 26.1653C20.4517 24.7167 19.1891 23.3096 17.951 21.8767C17.2273 21.0417 16.8185 20.1145 16.6994 19.1145C16.6621 18.7962 16.5991 18.4712 16.5606 18.151C16.5246 17.847 16.5055 17.5465 16.4796 17.2457C16.5275 17.2381 16.5748 17.2302 16.6236 17.224C16.8442 17.5305 17.0686 17.8318 17.2835 18.1419C18.9904 20.6015 20.687 23.0671 22.4033 25.5186C23.3367 26.8521 24.3224 28.1437 25.2399 29.4869L25.2403 29.4874Z" fill="#E84200"/>
<path d="M11.212 12.3588C11.9228 12.3569 12.6353 12.3624 13.3426 12.351C13.63 12.3468 13.8632 12.563 14.0291 12.8401C14.3733 13.4125 14.6804 14.0051 15.0888 14.7456C13.634 14.2329 12.4449 13.1887 11.1927 12.5112C11.1991 12.4604 11.2055 12.4096 11.2117 12.3583L11.212 12.3588Z" fill="#E84200"/>
<path d="M18.3303 23.2316C19.3252 23.7343 26.1414 31.8514 28.6154 35.4779C27.3822 36.5349 26.1796 37.5681 24.9752 38.6004C24.5998 38.4552 24.4174 38.1692 24.197 37.7484C23.263 35.9697 22.8697 34.1319 22.1401 32.3348C21.685 31.2139 21.1919 30.0974 20.7149 28.979C19.9749 27.2451 19.2334 25.5102 18.4959 23.774C18.4249 23.6044 18.3886 23.4252 18.3297 23.232L18.3303 23.2316Z" fill="#FF6500"/>
<path d="M9.7188 12.8704C10.7274 13.3097 11.7398 13.6881 12.7377 14.2059C13.5698 14.6375 14.3903 15.2223 15.2065 15.7693C15.3466 15.863 15.5114 16.1159 15.5562 16.2895C15.7239 16.9395 15.8455 17.5867 15.987 18.2347C16.0709 18.6204 16.1785 19.0077 16.2375 19.3879C16.2664 19.5699 16.2695 19.8153 16.1793 19.8951C14.6416 21.2673 13.1357 22.6891 11.2602 23.6521C10.7182 22.4782 9.5417 14.1152 9.7188 12.8704Z" fill="#FFC24F"/>
<path d="M24.9752 38.6005C26.1796 37.5681 27.3822 36.535 28.6154 35.478C26.1414 31.8515 19.3246 23.7341 18.3304 23.2316C18.3892 23.4249 18.4256 23.604 18.4966 23.7737C19.2338 25.5094 19.9753 27.2443 20.7155 28.9786C21.1926 30.0971 21.6853 31.2131 22.1407 32.3345C22.8704 34.1316 23.2639 35.9692 24.1976 37.7481C24.418 38.1695 24.6005 38.4555 24.9758 38.6001L24.9752 38.6005ZM28.3788 36.3043C27.404 37.2276 26.4591 38.1203 25.5196 39.0187C25.4406 39.0938 25.4135 39.2342 25.3388 39.3158C25.1552 39.5214 25.2027 39.7785 25.4111 40.0941C25.7675 40.6369 26.0999 41.1993 26.4794 41.7231C26.8902 42.2907 27.2397 42.9607 27.8659 43.2542C28.3437 42.2478 28.7499 37.3066 28.3788 36.3043ZM11.1922 12.5116C12.4444 13.1892 13.6338 14.2331 15.0884 14.746C14.6796 14.0057 14.3725 13.4131 14.0287 12.8405C13.8624 12.563 13.6295 12.3473 13.3421 12.3515C12.6349 12.3622 11.9223 12.3574 11.2115 12.3593C11.205 12.41 11.1986 12.4608 11.1925 12.5121L11.1922 12.5116ZM21.6771 26.1647C23.049 27.7867 24.3896 29.4449 25.7495 31.0825C26.1411 31.5538 26.5502 32.0058 26.9521 32.4664C26.4428 31.4136 25.8794 30.4217 25.2395 29.4868C24.3217 28.1431 23.3363 26.8513 22.4029 25.5185C20.6866 23.067 18.99 20.6013 17.2831 18.1417C17.0679 17.8319 16.8438 17.5303 16.6232 17.2239C16.5744 17.2301 16.5271 17.238 16.4792 17.2455C16.5051 17.5463 16.5248 17.8472 16.5602 18.1509C16.5984 18.4706 16.6614 18.7956 16.699 19.1144C16.8178 20.1139 17.2269 21.0409 17.9506 21.8766C19.189 23.3093 20.4513 24.7166 21.6774 26.1652L21.6771 26.1647ZM8.48305 14.2444C8.5927 13.6315 8.61788 12.9667 8.65948 12.3142C8.69389 11.7563 8.80363 11.5968 9.23712 11.6083C10.7539 11.6442 12.2692 11.6791 13.8427 11.7168C14.0187 12.0188 14.2163 12.3848 14.438 12.7352C15.6371 14.6338 16.8182 16.5436 18.0517 18.4179C19.1969 20.1588 20.3954 21.8622 21.5784 23.5765C22.2055 24.4842 22.8557 25.377 23.4874 26.2817C24.4386 27.6443 25.3956 29.0031 26.3274 30.3804C27.0765 31.4876 27.8301 32.599 28.5033 33.7478C28.8702 34.3755 29.2806 34.8417 29.9398 35.2909C29.767 35.6568 29.6353 35.9605 29.4875 36.2478C29.1579 36.8891 29.05 37.6682 28.9827 38.4831C28.8378 40.2366 28.6726 41.9803 28.498 43.7183C28.4165 44.5196 28.3978 44.5298 27.6286 44.2553C26.4048 43.8198 25.1802 43.3953 23.9564 42.8744C23.5669 42.7096 23.1042 42.3234 22.8113 41.9243C21.7865 40.5276 20.6716 39.2579 19.4758 38.0645C18.7621 37.3517 18.0972 36.5578 17.4003 35.8163C16.0243 34.3545 14.6271 32.9242 13.2678 31.4436C12.207 30.2869 11.1917 29.0711 10.1549 27.883C9.29091 26.8947 8.41434 25.9218 7.5677 24.9117C7.39196 24.7027 7.17727 24.2179 7.23944 24.117C7.6001 23.5335 7.36106 22.7134 7.25646 21.979C7.08122 20.7531 7.43016 19.8347 7.60639 18.8162C7.87308 17.2774 8.21208 15.7807 8.48274 14.2446L8.48305 14.2444ZM12.7383 14.2058C11.74 13.6876 10.7279 13.3097 9.71934 12.8704C9.54193 14.1154 10.7187 22.4788 11.2608 23.652C13.1366 22.6888 14.6421 21.2673 16.1799 19.895C16.27 19.8146 16.2669 19.5692 16.238 19.3879C16.1787 19.0078 16.0714 18.6204 15.9875 18.2347C15.846 17.5867 15.7248 16.9392 15.5567 16.2895C15.512 16.1158 15.3472 15.863 15.207 15.7692C14.3905 15.2225 13.5704 14.6374 12.7383 14.2058ZM16.7832 21.5959C16.6459 21.2863 16.4372 20.9354 16.1781 21.1043C15.5932 21.4855 15.0531 21.9326 14.4994 22.3617C14.1332 22.645 13.7856 22.9575 13.4122 23.2297C12.81 23.6668 12.1943 24.0818 11.5075 24.5589C14.8712 29.4694 18.5163 34.0429 21.5996 39.0331C22.0552 39.7684 22.6134 40.4448 23.2518 41.3236C23.3063 40.9376 23.3327 40.7314 23.3646 40.5275C23.4984 39.679 23.1639 38.6075 23.5527 37.877C23.5954 37.7947 23.5257 37.5908 23.4761 37.4459C22.9411 35.9033 22.4442 34.3535 21.8453 32.8217C21.3611 31.5852 20.7542 30.3664 20.1936 29.1422C19.419 27.448 18.6336 25.7594 17.8636 24.0641C17.4902 23.2443 17.1477 22.4175 16.7836 21.5957L16.7832 21.5959ZM26.9898 43.2791L24.8098 39.9341C24.2902 40.3508 24.13 41.0354 23.8848 41.6296C23.7673 41.9149 24.0382 42.3401 24.4019 42.5001C24.9638 42.7475 25.5277 42.9857 26.0888 43.1753C26.3698 43.2684 26.6445 43.2436 26.9901 43.2796L26.9898 43.2791ZM24.4112 39.3368C23.8024 39.0419 23.7212 39.2064 23.9916 40.1734C24.144 39.8673 24.2739 39.6114 24.4112 39.3368ZM9.0632 14.682C8.8545 15.3187 8.68963 15.9695 8.54244 16.6318C8.30513 17.7059 8.06142 18.7762 7.85492 19.8689C7.71082 20.6368 7.78827 20.7904 8.48394 21.4087C9.01359 21.8793 9.55091 22.3336 10.1573 22.8579C10.0481 20.1479 9.49248 17.4039 9.0635 14.6824L9.0632 14.682ZM20.4805 38.3002C19.9585 37.4467 19.4709 36.5649 18.9046 35.7422C17.7048 34.0022 16.4826 32.2747 15.2316 30.5739C14.2693 29.2671 13.241 28.017 12.2581 26.7276C11.7718 26.0904 11.3224 25.4192 10.7983 24.6819C8.97627 24.0502 8.82813 24.0437 8.18009 24.6333C8.79513 25.4558 9.40163 26.291 10.0332 27.1046C11.7885 29.3653 13.766 31.3479 15.6783 33.4145C16.437 34.2345 17.1915 35.0631 17.9606 35.8711C18.77 36.7204 19.5942 37.5503 20.4112 38.3894C20.4345 38.3604 20.4569 38.3301 20.4805 38.3016L20.4805 38.3002ZM9.98208 23.4833C9.31412 22.6021 8.65417 22.0039 7.82591 21.4589C7.93397 22.1366 8.02537 22.7097 8.11666 23.2887C8.75199 23.3557 9.32458 23.415 9.98208 23.4833Z" fill="#DB3500"/>
<path d="M16.1779 21.104C16.437 20.9351 16.6457 21.2861 16.783 21.5956C17.1472 22.4174 17.4897 23.2442 17.8631 24.064C18.633 25.7594 19.4185 27.4479 20.1931 29.1422C20.7536 30.3663 21.3605 31.5852 21.8447 32.8216C22.4437 34.3534 22.9406 35.9032 23.4756 37.4459C23.5251 37.5908 23.5949 37.7946 23.5522 37.877C23.1634 38.6074 23.4979 39.679 23.3641 40.5274C23.3322 40.7313 23.3058 40.9375 23.2512 41.3235C22.6125 40.4443 22.0544 39.7685 21.5991 39.033C18.5157 34.0429 14.871 29.4698 11.507 24.5589C12.1941 24.0816 12.8098 23.6672 13.4117 23.2296C13.7848 22.9569 14.1327 22.6449 14.4989 22.3616C15.0526 21.9325 15.5927 21.4854 16.1776 21.1042L16.1779 21.104Z" fill="#FFA02D"/>
<path d="M28.3788 36.3043C28.75 37.3067 28.3437 42.2479 27.866 43.2542C27.2401 42.9612 26.8906 42.2913 26.4795 41.7231C26.0999 41.1994 25.7676 40.637 25.4112 40.0942C25.2028 39.7785 25.1549 39.521 25.3388 39.3158C25.4136 39.2343 25.4407 39.0939 25.5197 39.0188C26.4595 38.1202 27.4041 37.2277 28.3788 36.3043Z" fill="#E84200"/>
<path d="M24.8094 39.9338L26.9894 43.2788C26.6442 43.2425 26.3694 43.2681 26.0881 43.1745C25.527 42.9849 24.9631 42.7467 24.4012 42.4993C24.0372 42.3395 23.7666 41.9141 23.8841 41.6288C24.1293 41.0345 24.2899 40.3498 24.8091 39.9333L24.8094 39.9338Z" fill="#FF6500"/>
<path d="M23.9913 40.1726C23.721 39.206 23.8028 39.0419 24.4108 39.3364C24.2735 39.6109 24.1436 39.8667 23.9913 40.1726Z" fill="#FF820F"/>
<path d="M8.54303 16.6322C8.68992 15.9695 8.85479 15.3187 9.06379 14.6824C9.49277 17.4039 10.0487 20.1483 10.1576 22.8578C9.55089 22.3338 9.01387 21.8799 8.48423 21.4086C7.78886 20.7908 7.71111 20.6367 7.85521 19.8689C8.06171 18.7762 8.30542 17.7058 8.54273 16.6318L8.54303 16.6322Z" fill="#FF820F"/>
<path d="M18.9053 35.7421C19.4716 36.5647 19.9592 37.4466 20.4813 38.3001C20.4579 38.3291 20.4355 38.3594 20.4119 38.3879C19.5953 37.5493 18.7708 36.719 17.9614 35.8696C17.1926 35.0621 16.4377 34.2337 15.679 33.413C13.7668 31.3465 11.7889 29.3633 10.0339 27.1032C9.40206 26.2897 8.79587 25.4543 8.18083 24.6319C8.82886 24.0422 8.9767 24.0489 10.799 24.6804C11.3231 25.4177 11.7725 26.0889 12.2588 26.7261C13.2418 28.0156 14.2698 29.2658 15.2324 30.5724C16.483 32.2734 17.7052 34.0009 18.9053 35.7408L18.9053 35.7421Z" fill="#FF820F"/>
<path d="M7.82628 21.4596C8.65454 22.0046 9.3148 22.6026 9.98245 23.484C9.32495 23.4157 8.75236 23.3564 8.11703 23.2894C8.02574 22.7104 7.93404 22.1368 7.82628 21.4596Z" fill="#E84200"/>
<path d="M20.8688 18.6304C20.8318 17.1411 20.9336 15.6438 21.1497 14.1183C21.2743 14.9143 21.4148 15.706 21.5182 16.5063C21.8769 19.2869 22.1948 22.0761 22.5813 24.848C22.927 27.3242 23.3505 29.7809 23.7234 32.2484C23.9433 33.6879 23.7038 35.003 23.0511 36.1901C22.8426 36.5675 22.6603 36.9709 22.4518 37.3512C22.2531 37.712 22.0364 38.0568 21.8279 38.4067C21.7632 38.3807 21.6989 38.3554 21.6342 38.3272C21.6086 37.8312 21.5743 37.3382 21.5585 36.8422C21.4311 32.9071 21.3212 28.9726 21.1758 25.0396C21.0969 22.9003 20.9205 20.7697 20.8688 18.6312L20.8688 18.6304Z" fill="#E84200"/>
<path d="M24.3805 47.572C23.5079 47.0638 22.6392 46.5461 21.7633 46.0509C21.4078 45.8492 21.2946 45.4436 21.3126 45.0192C21.348 44.1415 21.4448 43.2682 21.5358 42.1591C22.9092 43.7685 23.5324 45.7725 24.5259 47.418C24.4774 47.4694 24.429 47.5207 24.3805 47.5728L24.3805 47.572Z" fill="#E84200"/>
<path d="M24.3403 30.4829C23.5227 29.2148 21.6523 15.3785 21.5168 9.60696C23.8722 9.32789 26.171 9.05316 28.4714 8.7806C28.8155 9.21005 28.8106 9.65613 28.7447 10.2779C28.4687 12.9081 27.4829 15.2151 26.9418 17.7188C26.6043 19.2804 26.3169 20.8644 26.0082 22.4391C25.5303 24.8806 25.0534 27.3242 24.5706 29.7664C24.5221 30.0043 24.4236 30.2277 24.3414 30.4829L24.3403 30.4829Z" fill="#FF6500"/>
<path d="M26.6187 48.0811C25.7336 46.873 24.7951 45.7292 23.9856 44.4423C23.3107 43.3694 22.7723 42.136 22.2089 40.9474C22.112 40.7436 22.112 40.3467 22.1958 40.1233C22.5094 39.2868 22.8773 38.4864 23.2214 37.6709C23.4266 37.1858 23.6041 36.6819 23.8354 36.2206C23.9454 35.9994 24.1375 35.7268 24.3117 35.7037C27.292 35.2959 30.2729 34.8108 33.3403 35.0964C33.0671 36.7788 27.8299 46.8368 26.6187 48.0811Z" fill="#FFC24F"/>
<path d="M28.4714 8.7808C26.1709 9.05336 23.8721 9.32809 21.5167 9.60716C21.6523 15.3787 23.5232 29.2157 24.3403 30.4831C24.4225 30.2279 24.521 30.0045 24.5695 29.7666C25.0523 27.3251 25.5292 24.8815 26.0071 22.4393C26.3157 20.8646 26.6032 19.2813 26.9407 17.719C27.4817 15.2153 28.467 12.9083 28.7436 10.2781C28.81 9.6556 28.8149 9.20952 28.4703 8.7808L28.4714 8.7808ZM22.4666 8.86683C24.3985 8.54944 26.2695 8.24435 28.1382 7.92913C28.295 7.90311 28.4403 7.76791 28.5971 7.73176C28.9863 7.63705 29.1333 7.31966 29.13 6.82225C29.1268 5.96842 29.1687 5.11024 29.1219 4.26075C29.0718 3.3404 29.1785 2.35137 28.6456 1.57851C27.2564 2.34413 22.8123 7.49607 22.4666 8.86683ZM24.5265 47.4181C23.533 45.7726 22.9092 43.7685 21.5363 42.1592C21.446 43.2682 21.3491 44.1416 21.3131 45.0193C21.2952 45.4444 21.4084 45.8492 21.7639 46.051C22.6392 46.5469 23.5085 47.0638 24.3811 47.5721C24.4296 47.5208 24.478 47.4694 24.5265 47.4174L24.5265 47.4181ZM22.5815 24.8489C22.1955 22.0771 21.8771 19.2878 21.5184 16.5072C21.4149 15.7069 21.2745 14.9152 21.1498 14.1192C20.9332 15.6447 20.8314 17.142 20.869 18.6313C20.9207 20.7706 21.0965 22.9012 21.176 25.0398C21.3213 28.9728 21.4313 32.9072 21.5587 36.8424C21.575 37.3384 21.6087 37.8314 21.6343 38.3274C21.6991 38.3556 21.7633 38.3809 21.8281 38.4069C22.0366 38.057 22.2527 37.7114 22.4519 37.3514C22.6604 36.9718 22.8428 36.5684 23.0513 36.1903C23.7039 35.0039 23.9429 33.6888 23.7235 32.2486C23.3501 29.7811 22.9272 27.3244 22.5815 24.8482L22.5815 24.8489ZM29.2302 47.4543C28.6064 48.0507 28.0446 48.765 27.4725 49.454C26.9847 50.044 26.7229 50.1408 26.2009 49.8169C24.3708 48.6884 22.5418 47.562 20.6436 46.3908C20.6692 45.9317 20.7193 45.3865 20.7274 44.8414C20.7742 41.8888 20.8521 38.9369 20.8374 35.9864C20.8243 33.2463 20.716 30.5091 20.6354 27.7712C20.5919 26.3209 20.5081 24.8706 20.4563 23.4203C20.379 21.2362 20.2914 19.0521 20.2495 16.8658C20.2157 15.1083 20.1798 13.3428 20.2724 11.5939C20.3241 10.6388 20.1934 9.83056 19.7443 8.86249C20.2484 8.58342 20.6523 8.34339 21.0627 8.13301C21.9789 7.66307 22.7334 6.88226 23.4666 6.03276C25.0447 4.20508 26.6396 2.4027 28.2417 0.613334C28.9814 -0.210862 29.0125 -0.208695 29.7359 0.645862C30.8878 2.00434 32.0494 3.35124 33.1332 4.8037C33.4789 5.26496 33.7374 6.02264 33.7777 6.6726C33.9182 8.94708 34.2704 11.1464 34.7826 13.3196C35.088 14.6174 35.2687 15.9693 35.5305 17.2866C36.0493 19.885 36.6192 22.4638 37.1026 25.0709C37.4788 27.1068 37.752 29.1752 38.0737 31.2285C38.3432 32.9376 38.6404 34.6388 38.8712 36.3595C38.9197 36.7159 38.7955 37.4042 38.6388 37.4707C37.7308 37.8546 37.3688 38.9296 36.9105 39.8138C36.1462 41.2902 34.9851 42.0514 33.9557 43.047C32.4 44.5508 30.7892 45.9562 29.2307 47.4543L29.2302 47.4543ZM23.9848 44.4416C24.7943 45.7292 25.7327 46.8723 26.6179 48.0803C27.8296 46.8361 33.0668 36.7773 33.3395 35.0957C30.2715 34.8101 27.2912 35.2952 24.3109 35.703C24.1362 35.7269 23.944 35.9994 23.8346 36.2199C23.6038 36.6812 23.4258 37.1851 23.2206 37.6702C22.8765 38.4857 22.508 39.2861 22.195 40.1225C22.1112 40.3459 22.1112 40.7429 22.2081 40.9467C22.772 42.1353 23.3098 43.3687 23.9848 44.4416ZM24.9298 33.396C24.8509 33.8355 24.8264 34.372 25.2788 34.372C26.3 34.372 27.319 34.2672 28.3402 34.192C29.0152 34.1428 29.6907 34.0481 30.3657 34.0163C31.4528 33.9671 32.5388 33.9519 33.7614 33.9194C33.5611 26.0946 32.7467 18.439 32.9536 10.7278C32.9824 9.59053 32.8387 8.44461 32.7581 7.01818C32.3831 7.40425 32.186 7.61246 31.9841 7.81418C31.1425 8.65283 30.6967 10.0735 29.6368 10.5991C29.5187 10.6591 29.4414 10.9338 29.3864 11.129C28.81 13.2126 28.1812 15.2767 27.6919 17.3943C27.2978 19.1042 27.068 20.8827 26.7774 22.6337C26.3734 25.0564 25.9875 27.4806 25.5771 29.9011C25.38 31.0723 25.1394 32.2291 24.9293 33.396L24.9298 33.396ZM29.7392 2.18002L29.7392 7.43027C30.7087 7.34424 31.4517 6.70513 32.2269 6.22652C32.5987 5.99661 32.6063 5.33364 32.2884 4.89624C31.7974 4.22026 31.2966 3.55295 30.7604 2.94131C30.4904 2.63694 30.1338 2.46704 29.7392 2.1793L29.7392 2.18002ZM29.7506 8.37448C30.2612 9.1365 30.492 9.01359 30.9329 7.75417C30.5018 7.98191 30.1382 8.1706 29.7506 8.37448ZM28.8687 46.5556C29.633 46.004 30.3548 45.4053 31.0641 44.7814C32.2127 43.7685 33.3662 42.7643 34.4919 41.7088C35.2818 40.9663 35.3095 40.7414 34.9508 39.5608C34.6775 38.6621 34.3819 37.7758 34.0575 36.7629C32.0271 39.8269 30.5165 43.2487 28.8687 46.5549L28.8687 46.5556ZM33.7396 12.3386C33.6977 13.6537 33.591 14.9753 33.628 16.2882C33.7086 19.0666 33.8267 21.8471 34.0014 24.619C34.137 26.7497 34.3988 28.8651 34.5736 30.9914C34.6607 32.0426 34.6753 33.1046 34.7287 34.2932C36.457 36.2973 36.6334 36.4108 37.8985 36.2264C37.8016 34.8788 37.7254 33.5232 37.6012 32.1734C37.2556 28.4226 36.4156 24.8186 35.7227 21.169C35.4478 19.7209 35.1849 18.2662 34.8876 16.8239C34.5741 15.3071 34.2268 13.8011 33.8958 12.2901C33.8441 12.3053 33.7924 12.3227 33.7407 12.3371L33.7396 12.3386ZM34.7717 36.1997C34.8866 37.65 35.2175 38.7829 35.7973 39.978C36.2061 39.1538 36.5517 38.4568 36.9023 37.7534C36.1772 37.2234 35.5229 36.747 34.7717 36.1997Z" fill="#DB3500"/>
<path d="M25.2788 34.3726C24.8264 34.3726 24.8509 33.8361 24.9299 33.3965C25.14 32.2297 25.3806 31.0729 25.5776 29.9017C25.9881 27.4811 26.374 25.057 26.7779 22.6343C27.0686 20.8833 27.2983 19.1047 27.6924 17.3949C28.1818 15.2773 28.8105 13.2132 29.387 11.1296C29.442 10.9344 29.5193 10.6597 29.6374 10.5996C30.6973 10.074 31.1431 8.65339 31.9847 7.81474C32.1866 7.61303 32.3837 7.40481 32.7587 7.01874C32.8393 8.4459 32.9835 9.59109 32.9541 10.7283C32.7473 18.4396 33.5616 26.0945 33.762 33.92C32.5388 33.9525 31.4534 33.967 30.3663 34.0169C29.6913 34.0494 29.0158 34.1434 28.3408 34.1925C27.3196 34.2677 26.3005 34.3726 25.2793 34.3726L25.2788 34.3726Z" fill="#FFA02D"/>
<path d="M22.4667 8.8667C22.8124 7.49594 27.2565 2.34401 28.6457 1.57837C29.1786 2.35051 29.0719 3.33954 29.122 4.26061C29.1688 5.11011 29.1269 5.96829 29.1301 6.82212C29.1334 7.31953 28.9864 7.63764 28.5972 7.73163C28.4404 7.76777 28.2951 7.90297 28.1383 7.929C26.269 8.24422 24.3986 8.54931 22.4667 8.8667Z" fill="#E84200"/>
<path d="M29.7396 7.43092L29.7396 2.18066C30.1337 2.46841 30.4908 2.63758 30.7608 2.94268C31.297 3.55432 31.7978 4.22162 32.2888 4.8976C32.6073 5.33501 32.5991 5.99798 32.2273 6.22788C31.4522 6.70649 30.7086 7.34561 29.7396 7.43164L29.7396 7.43092Z" fill="#FF6500"/>
<path d="M30.9329 7.75484C30.4921 9.0138 30.2608 9.13594 29.751 8.37493C30.1384 8.17112 30.5019 7.9825 30.9329 7.75484Z" fill="#FF820F"/>
<path d="M31.0641 44.781C30.3548 45.4056 29.633 46.0043 28.8688 46.5552C30.5165 43.249 32.0271 39.8264 34.0575 36.7632C34.3825 37.7761 34.6781 38.6617 34.9508 39.5611C35.3095 40.741 35.2818 40.9666 34.4919 41.7091C33.3662 42.7646 32.2127 43.7688 31.0641 44.7817L31.0641 44.781Z" fill="#FF820F"/>
<path d="M33.6274 16.2882C33.5904 14.9753 33.6971 13.6537 33.739 12.3386C33.7907 12.3234 33.8424 12.3061 33.8941 12.2916C34.2251 13.8019 34.5724 15.3086 34.8859 16.8254C35.1831 18.267 35.4466 19.7216 35.721 21.1705C36.4139 24.8201 37.2539 28.4248 37.5995 32.1749C37.7242 33.5247 37.7998 34.8803 37.8967 36.2279C36.6317 36.4123 36.4558 36.2988 34.727 34.2947C34.6736 33.1061 34.6589 32.044 34.5718 30.9928C34.3971 28.8666 34.1358 26.7511 33.9997 24.6205C33.8255 21.8486 33.7074 19.0681 33.6263 16.2897L33.6274 16.2882Z" fill="#FF820F"/>
<path d="M35.7971 39.9771C35.2173 38.782 34.8858 37.6491 34.7715 36.1988C35.5227 36.7461 36.177 37.2225 36.9021 37.7525C36.5515 38.4559 36.2059 39.1536 35.7971 39.9771Z" fill="#E84200"/>
</svg>
