<svg width="37" height="61" viewBox="0 0 37 61" fill="none" xmlns="http://www.w3.org/2000/svg">
<path d="M8.41418 43.4884L8.9344 44.8512L13.369 42.1369L8.41418 43.4884Z" fill="url(#paint0_linear_207_3191)"/>
<path d="M9.51254 46.4147L9.0446 45.0265L13.3689 42.137L14.786 41.4807L9.51254 46.4147Z" fill="url(#paint1_linear_207_3191)"/>
<path d="M11.5729 49.8936L9.75912 46.6438L11.7527 44.2363L14.7863 41.4803L11.5729 49.8936Z" fill="url(#paint2_linear_207_3191)"/>
<path d="M26.9556 30.3496C26.2239 31.4794 25.5157 32.012 24.9007 32.2343C24.2306 33.7041 23.1858 35.3901 21.5721 37.028C22.7591 36.7864 24.8727 36.2761 25.1853 35.7006C25.9348 35.47 27.2613 29.8801 26.9556 30.3496Z" fill="url(#paint3_linear_207_3191)"/>
<path d="M20.5345 34.0136C21.677 32.3877 22.6453 30.5304 23.2947 28.4261C23.2245 26.975 22.6709 21.9953 22.6709 21.9953C22.6709 21.9953 18.3629 18.8469 14.4614 18.0889C17.2021 21.0843 21.1548 27.7007 20.5345 34.0136Z" fill="url(#paint4_linear_207_3191)"/>
<path d="M10.3097 42.5315C10.3097 42.5315 10.8491 37.7792 13.6921 35.1002C16.1258 32.975 15.3088 31.4802 15.3088 31.4802C15.3088 31.4802 14.1217 33.6269 12.6353 33.823C12.1701 33.8829 11.7387 34.3267 11.3668 35.0337C10.5492 36.5697 10.3655 39.7831 10.3097 42.5315Z" fill="url(#paint5_linear_207_3191)"/>
<path d="M11.2821 35.1176C11.6541 34.4154 12.1686 34.0224 12.6337 33.9626C14.125 33.7663 15.2241 31.5641 15.2241 31.5641C15.2241 31.5641 14.0869 34.1665 10.774 34.0431C10.5063 34.1124 9.73808 34.3627 9.60332 35.5062C9.48389 35.7305 11.2821 35.1176 11.2821 35.1176Z" fill="url(#paint6_linear_207_3191)"/>
<path d="M12.447 41.4385L10.3063 42.5892C10.3063 42.5892 10.7684 38.2046 13.3861 35.3676C13.3455 35.282 16.0417 33.4582 15.3086 31.4753C15.3118 31.2203 16.6933 33.9228 13.4408 36.9634C11.8333 38.4664 12.447 41.4385 12.447 41.4385Z" fill="url(#paint7_linear_207_3191)"/>
<path d="M12.4471 41.4385C12.4471 41.4385 11.6638 38.6102 13.4359 36.9588C13.4359 36.9588 13.4913 38.3958 13.7 39.04C13.9764 39.8894 14.4859 40.0642 14.4859 40.0642L12.4471 41.4385Z" fill="url(#paint8_linear_207_3191)"/>
<path d="M15.3664 55.1669L12.1185 50.9382L12.4277 47.3608L14.786 41.4803L15.3664 55.1669Z" fill="url(#paint9_linear_207_3191)"/>
<path d="M24.6567 36.8254C24.6518 36.8305 24.6519 36.8355 24.6471 36.8406C24.6519 36.8355 24.6568 36.8304 24.6567 36.8254Z" fill="url(#paint10_linear_207_3191)"/>
<path d="M21.1459 37.4527C20.5869 37.9863 19.965 38.5071 19.2706 39.0153C19.4407 39.6557 19.2185 40.9602 15.8784 42.6223C15.8784 42.6223 21.6958 41.7109 24.6473 36.8449C24.497 36.9882 22.5693 37.6189 21.1459 37.4527Z" fill="url(#paint11_linear_207_3191)"/>
<path opacity="0.13" d="M22.671 22.0003L26.9561 30.3497C26.9561 30.3497 25.7969 40.0968 8.43284 43.464C8.31745 43.4669 22.693 37.0047 22.671 22.0003Z" fill="#141413"/>
<path d="M24.158 22.5738L26.1201 27.8933C26.1201 27.8933 25.5706 40.0737 8.43315 43.4592C8.31788 43.4669 24.1801 37.583 24.158 22.5738Z" fill="url(#paint12_linear_207_3191)"/>
<g clip-path="url(#clip0_207_3191)">
<path d="M8.50354 58.3345C8.61877 58.3644 8.73316 58.3936 8.84838 58.421C9.19452 58.031 9.56761 57.661 9.88595 57.2483C12.0138 54.4944 14.1501 51.7445 16.2351 48.9604C16.571 48.5132 16.7964 47.9066 16.8597 47.35C17.1968 44.4258 17.4305 41.4892 17.7701 38.565C18.0678 35.9922 18.4403 33.4302 18.8103 30.8698C19.0705 29.0679 19.0307 27.3121 18.4303 25.5679C18.1415 24.7281 18.0518 23.8231 17.8302 22.9579C17.2707 20.7891 16.6995 18.6254 16.1098 16.4642C15.8883 15.6494 15.6315 14.8415 15.3379 14.0513C15.1643 13.5802 14.8994 13.1741 14.2882 13.1185C13.7518 13.0678 13.2277 12.9069 12.449 12.7416C10.8039 15.3254 9.2344 17.8409 7.61182 20.3247C6.3593 22.2409 5.07984 24.1404 3.73722 25.9947C3.1702 26.7795 2.9955 27.486 3.21233 28.4605C3.93173 31.7039 4.54613 34.9729 5.17312 38.2359C5.90658 42.0458 6.61736 45.86 7.3231 49.6775C7.42198 50.2135 7.42844 50.7674 7.50464 51.3111C7.83257 53.6528 8.17058 55.9936 8.50522 58.3353L8.50354 58.3345Z" fill="#FFC24F" fill-opacity="0.7"/>
<path opacity="0.7" d="M10.9385 57.3559C10.7693 57.5832 10.675 57.8651 10.4225 58.37C12.1821 57.857 13.588 57.3945 15.0235 57.0437C17.095 56.5374 19.1919 56.1277 21.271 55.6458C23.7087 55.0806 25.9142 54.0672 27.8424 52.1097C24.7456 50.6736 21.7413 49.2818 18.5822 47.8181C18.1946 48.4075 17.889 48.8823 17.5733 49.3471C17.4418 49.5399 17.3006 49.8614 17.1384 49.8794C16.3107 49.969 16.0057 50.6657 15.6002 51.1854C14.0143 53.2176 12.4806 55.2893 10.9393 57.3559L10.9385 57.3559Z" fill="#F54F00"/>
<path opacity="0.7" d="M27.037 50.4172C27.6893 50.75 28.3239 51.4015 29.096 50.9507C29.9403 50.4568 30.6867 49.7993 31.466 49.1963C31.5709 49.1136 31.6402 48.9437 31.6617 48.8041C32.0906 45.967 32.5179 43.13 32.9343 40.2896C33.2944 37.8318 33.5529 35.3516 34.0181 32.9137C34.5797 29.9738 34.3327 27.0864 33.9281 24.0212C32.8619 25.5083 31.8919 26.8102 30.98 28.1523C30.5404 28.8024 30.2329 29.4865 30.1401 30.3348C29.9454 32.1114 29.5725 33.8732 29.203 35.625C28.6607 38.2009 28.0537 40.7585 27.487 43.327C27.0034 45.5035 26.5375 47.6825 26.0548 49.9111C26.442 50.1094 26.7391 50.2658 27.0362 50.4172L27.037 50.4172Z" fill="#F54F00"/>
<path opacity="0.7" d="M24.7645 49.5429C25.0124 48.859 25.305 48.2471 25.4555 47.6054C26.2054 44.4053 26.9033 41.1935 27.6456 37.9917C27.984 36.5418 28.4166 35.1109 28.7524 33.661C28.9204 32.9444 28.963 32.1988 29.0835 31.3252C26.2029 30.6139 23.5628 29.96 20.7671 29.2687C20.0585 35.1576 19.3721 40.864 18.6742 46.6629C20.7394 47.6402 22.6598 48.5481 24.7653 49.5429L24.7645 49.5429Z" fill="#FF820F"/>
<path opacity="0.8" d="M27.8348 29.759C28.4487 29.8844 28.8753 29.7437 29.1578 29.1219C29.4036 28.5875 29.7739 28.11 30.1564 27.4979C29.3341 26.7419 28.569 25.9857 27.7385 25.3045C27.5237 25.1251 27.0292 25.0297 26.8127 25.1547C25.1912 26.0843 23.6076 27.076 21.7689 28.196C22.4034 28.481 22.768 28.7247 23.1674 28.8111C24.7174 29.1543 26.2798 29.4419 27.8348 29.7599L27.8348 29.759Z" fill="#FF820F"/>
<path opacity="0.7" d="M20.4288 27.775C21.0793 27.4313 21.5645 27.2031 22.0228 26.9279C23.1708 26.2391 24.2843 25.4932 25.4501 24.8413C26.4212 24.3001 27.0532 23.6126 27.2201 22.4547C27.514 20.3913 27.9256 18.3419 28.2515 16.2834C28.9315 12.0084 29.5888 7.73182 30.2519 3.45687C30.2817 3.27188 30.2736 3.0853 30.2919 2.66583C27.6256 3.59809 25.2938 4.83628 22.9249 6.0275C20.5383 7.22633 18.0217 8.16493 15.3777 9.29465C15.7015 10.9976 15.9025 12.6706 16.3487 14.2757C17.4006 18.0545 18.566 21.8053 19.6902 25.5647C19.8885 26.2248 20.1272 26.8756 20.4288 27.775Z" fill="#FFA02D"/>
<path opacity="0.7" d="M30.1602 26.0866C30.6997 26.3618 31.0661 26.3264 31.3941 25.7616C32.0594 24.61 32.7575 23.476 33.4733 22.3538C34.0375 21.4714 34.2444 20.5186 34.0468 19.5088C33.7836 18.1478 33.4439 16.8013 33.1488 15.448C33.0552 15.012 33.0019 14.57 32.9235 14.1314C32.3873 11.217 31.8486 8.30259 31.31 5.38733C31.2024 5.38005 31.0956 5.37528 30.988 5.36799C30.7268 6.75805 30.4538 8.14563 30.2077 9.53565C29.8514 11.5395 29.4699 13.5385 29.1784 15.5498C28.8868 17.5661 28.692 19.5973 28.4559 21.6228C28.4288 21.8699 28.4295 22.1221 28.3856 22.366C28.0657 24.1706 28.6125 25.2963 30.1611 26.0858L30.1602 26.0866Z" fill="#E84200"/>
<path opacity="0.9" d="M35.3068 24.4269C34.8929 21.6845 34.9034 18.9032 34.2677 16.1706C33.3796 12.3467 32.7762 8.45412 32.0804 4.58695C31.863 3.37546 31.7447 2.14607 31.569 0.824371C31.1522 0.87503 30.778 0.82892 30.5019 0.969155C28.0751 2.21516 25.7091 3.57783 23.2426 4.73652C21.2672 5.66449 19.1981 6.41029 17.1322 7.1292C15.4795 7.70752 14.0446 8.30461 13.0159 9.97822C11.6699 12.162 9.80364 14.0176 8.26995 16.0943C6.88536 17.9664 5.57322 19.9055 4.36376 21.8964C3.70336 22.9832 3.31994 24.2391 2.80855 25.4172C2.74923 25.5543 2.70934 25.7343 2.60279 25.8094C1.47515 26.6007 1.92881 27.4997 2.23071 28.5421C2.76921 30.3991 3.09605 32.3189 3.46992 34.2209C4.06605 37.2478 4.64033 40.2764 5.19949 43.3084C5.53362 45.1206 5.83498 46.9362 6.12626 48.7535C6.59779 51.7034 7.05924 54.6533 7.50808 57.605C7.56876 57.9965 7.5303 58.4034 7.56073 58.8001C7.64068 59.8203 8.43298 60.352 9.42235 60.0527C11.5187 59.4211 13.5921 58.7098 15.708 58.1656C18.0709 57.5611 20.4796 57.1405 22.8526 56.5662C23.6532 56.3742 24.4626 56.0586 25.16 55.6223C26.0814 55.0484 26.8196 54.1564 27.7715 53.6622C29.0374 53.0076 29.8521 51.7959 31.06 51.1742C32.5374 50.4148 32.8361 49.2238 32.9921 47.7719C33.4083 43.8699 33.8673 39.972 34.3843 36.079C34.6391 34.1603 35.0655 32.2655 35.39 30.3541C35.4886 29.7706 35.5618 29.1711 35.5427 28.5828C35.5038 27.196 35.5103 25.794 35.3051 24.4253L35.3068 24.4269ZM34.0468 19.5089C34.2436 20.5187 34.0367 21.4724 33.4733 22.3539C32.7575 23.4753 32.0594 24.6101 31.3942 25.7616C31.0661 26.3265 30.6997 26.3619 30.1603 26.0867C28.6117 25.2972 28.0649 24.1715 28.3848 22.3669C28.4287 22.1222 28.428 21.87 28.4551 21.6237C28.692 19.5974 28.886 17.567 29.1776 15.5507C29.4691 13.5394 29.8506 11.5405 30.2069 9.53659C30.453 8.14656 30.726 6.75899 30.9872 5.36892C31.0948 5.37621 31.2016 5.38098 31.3092 5.38827C31.8478 8.30269 32.3865 11.2171 32.9227 14.1324C33.0011 14.5709 33.0544 15.0129 33.148 15.4489C33.4431 16.8022 33.7836 18.1487 34.046 19.5097L34.0468 19.5089ZM8.84829 58.421C8.73307 58.3936 8.61868 58.3645 8.50345 58.3345C8.16797 55.9928 7.8308 53.652 7.50287 51.3102C7.42667 50.7666 7.42021 50.2127 7.32133 49.6767C6.61559 45.8592 5.90481 42.045 5.17135 38.2351C4.54436 34.9712 3.92996 31.7031 3.21056 28.4597C2.99373 27.4852 3.16843 26.7787 3.73546 25.9939C5.07807 24.1396 6.35753 22.241 7.61005 20.3239C9.23263 17.8401 10.8022 15.3246 12.4472 12.7408C13.226 12.9061 13.75 13.067 14.2864 13.1177C14.8976 13.1733 15.1634 13.5794 15.3361 14.0505C15.6298 14.8407 15.8865 15.6478 16.108 16.4634C16.6969 18.6246 17.2689 20.7883 17.8284 22.9571C18.05 23.8223 18.1397 24.7273 18.4285 25.5671C19.0289 27.3113 19.0687 29.0679 18.8086 30.869C18.4386 33.4294 18.0661 35.9923 17.7684 38.5642C17.4287 41.4884 17.195 44.425 16.8579 47.3492C16.7946 47.9058 16.5692 48.5124 16.2333 48.9596C14.1475 51.7437 12.0121 54.4927 9.88418 57.2475C9.56584 57.6602 9.19275 58.0301 8.84661 58.4202L8.84829 58.421ZM10.4225 58.3699C10.6759 57.8658 10.7693 57.5831 10.9385 57.3558C12.4798 55.2892 14.0135 53.2175 15.5994 51.1853C16.0049 50.6656 16.3099 49.9689 17.1376 49.8793C17.2997 49.8613 17.441 49.539 17.5724 49.347C17.8881 48.8822 18.1937 48.4074 18.5813 47.818C21.7404 49.2817 24.7447 50.6735 27.8415 52.1096C25.9133 54.0679 23.7087 55.0813 21.2701 55.6457C19.191 56.1276 17.0941 56.5373 15.0227 57.0436C13.5871 57.3944 12.1812 57.8569 10.4216 58.3699L10.4225 58.3699ZM29.0968 50.9515C28.3247 51.4023 27.6893 50.7508 27.0378 50.418C26.7408 50.2666 26.4436 50.1102 26.0565 49.912C26.54 47.6833 27.0059 45.5043 27.4887 43.3278C28.0562 40.7594 28.6632 38.2009 29.2046 35.6258C29.5742 33.8741 29.9462 32.1122 30.1417 30.3357C30.2345 29.4873 30.5421 28.8032 30.9817 28.1532C31.8936 26.811 32.8636 25.5091 33.9298 24.022C34.3344 27.0863 34.5813 29.9746 34.0198 32.9145C33.5545 35.3524 33.297 37.8326 32.9359 40.2904C32.5188 43.13 32.0923 45.967 31.6634 48.8049C31.641 48.9445 31.5717 49.1145 31.4677 49.1971C30.6884 49.8001 29.942 50.4584 29.0977 50.9515L29.0968 50.9515ZM25.4563 47.6054C25.3058 48.2471 25.0132 48.8589 24.7653 49.5429C22.6598 48.5481 20.7394 47.6402 18.6742 46.6629C19.373 40.864 20.0593 35.1575 20.7671 29.2687C23.5628 29.96 26.2037 30.6139 29.0835 31.3251C28.9639 32.1988 28.9204 32.9444 28.7524 33.661C28.4166 35.1109 27.984 36.5418 27.6456 37.9917C26.9033 41.1943 26.2054 44.4061 25.4555 47.6054L25.4563 47.6054ZM29.1577 29.1219C28.8752 29.7438 28.4486 29.8844 27.8347 29.7591C26.2797 29.4411 24.7173 29.1535 23.1673 28.8103C22.7678 28.7239 22.4033 28.4803 21.7688 28.1953C23.6067 27.0752 25.191 26.0835 26.8126 25.1539C27.0291 25.029 27.5236 25.1244 27.7384 25.3037C28.568 25.9849 29.3332 26.7411 30.1563 27.4971C29.7738 28.1092 29.4035 28.5867 29.1577 29.1211L29.1577 29.1219ZM22.0227 26.9279C21.5645 27.2031 21.0784 27.4313 20.4287 27.7751C20.1272 26.8756 19.8885 26.2248 19.6901 25.5647C18.5651 21.8062 17.4006 18.0546 16.3487 14.2757C15.9033 12.6706 15.7015 10.9976 15.3777 9.2947C18.0216 8.16581 20.5383 7.22638 22.9248 6.02755C25.2938 4.83633 27.6256 3.59814 30.2919 2.66588C30.2728 3.08535 30.2808 3.27193 30.2519 3.45692C29.5896 7.73187 28.9315 12.0085 28.2515 16.2835C27.9248 18.3419 27.514 20.3914 27.22 22.4548C27.0532 23.6126 26.4212 24.3001 25.4501 24.8414C24.2843 25.4932 23.1716 26.2391 22.0227 26.9279ZM14.7162 12.2374C13.9749 11.9275 13.6097 11.7763 13.1579 11.5875C13.4433 11.1228 13.6375 10.8054 14.0426 10.1437C14.3095 10.9684 14.4552 11.4219 14.7162 12.2374Z" fill="#DB3500"/>
<path d="M13.158 11.5875C13.6098 11.7763 13.9742 11.9275 14.7163 12.2374C14.4545 11.4228 14.3088 10.9684 14.0427 10.1437C13.6376 10.8054 13.4443 11.1228 13.158 11.5875Z" fill="#FF820F"/>
<path d="M4.67297 30.9959C4.67347 31.1901 4.37172 31.1909 4.37122 30.9967C4.37073 30.8025 4.67247 30.8018 4.67297 30.9959Z" fill="#FFD865"/>
</g>
<defs>
<linearGradient id="paint0_linear_207_3191" x1="8.41369" y1="43.5629" x2="13.4008" y2="43.4373" gradientUnits="userSpaceOnUse">
<stop stop-color="#FBB040"/>
<stop offset="0.9985" stop-color="#F9ED32"/>
</linearGradient>
<linearGradient id="paint1_linear_207_3191" x1="9.12826" y1="43.7463" x2="14.6148" y2="44.1085" gradientUnits="userSpaceOnUse">
<stop stop-color="#FBB040"/>
<stop offset="0.9985" stop-color="#F9ED32"/>
</linearGradient>
<linearGradient id="paint2_linear_207_3191" x1="9.83751" y1="45.466" x2="14.505" y2="45.7741" gradientUnits="userSpaceOnUse">
<stop stop-color="#FBB040"/>
<stop offset="0.9985" stop-color="#F9ED32"/>
</linearGradient>
<linearGradient id="paint3_linear_207_3191" x1="21.6407" y1="33.7416" x2="27.9982" y2="33.5815" gradientUnits="userSpaceOnUse">
<stop offset="0.192" stop-color="#FBB040"/>
<stop offset="0.9985" stop-color="#F9ED32"/>
</linearGradient>
<linearGradient id="paint4_linear_207_3191" x1="23.7571" y1="32.4535" x2="17.1419" y2="18.7979" gradientUnits="userSpaceOnUse">
<stop stop-color="#FBB040"/>
<stop offset="0.9985" stop-color="#F9ED32"/>
</linearGradient>
<linearGradient id="paint5_linear_207_3191" x1="14.1254" y1="36.9696" x2="19.5161" y2="36.8338" gradientUnits="userSpaceOnUse">
<stop stop-color="#F0A321"/>
<stop offset="1" stop-color="#F0582E"/>
</linearGradient>
<linearGradient id="paint6_linear_207_3191" x1="9.55013" y1="33.6316" x2="15.2725" y2="33.4875" gradientUnits="userSpaceOnUse">
<stop stop-color="#F0A321"/>
<stop offset="1" stop-color="#F0582E"/>
</linearGradient>
<linearGradient id="paint7_linear_207_3191" x1="10.8087" y1="35.7076" x2="15.9127" y2="39.0623" gradientUnits="userSpaceOnUse">
<stop stop-color="#F0A321"/>
<stop offset="1" stop-color="#F0582E"/>
</linearGradient>
<linearGradient id="paint8_linear_207_3191" x1="16.9798" y1="43.127" x2="13.1095" y2="39.3632" gradientUnits="userSpaceOnUse">
<stop stop-color="#F0A321"/>
<stop offset="1" stop-color="#F0582E"/>
</linearGradient>
<linearGradient id="paint9_linear_207_3191" x1="12.3034" y1="48.1417" x2="15.8155" y2="48.3736" gradientUnits="userSpaceOnUse">
<stop stop-color="#FBB040"/>
<stop offset="0.9985" stop-color="#F9ED32"/>
</linearGradient>
<linearGradient id="paint10_linear_207_3191" x1="24.6475" y1="36.8357" x2="24.6583" y2="36.8354" gradientUnits="userSpaceOnUse">
<stop stop-color="#FBB040"/>
<stop offset="0.9985" stop-color="#F9ED32"/>
</linearGradient>
<linearGradient id="paint11_linear_207_3191" x1="15.8106" y1="39.8431" x2="24.7177" y2="39.6187" gradientUnits="userSpaceOnUse">
<stop offset="0.5015" stop-color="#FBB040"/>
<stop offset="0.9985" stop-color="#F9ED32"/>
</linearGradient>
<linearGradient id="paint12_linear_207_3191" x1="10.7931" y1="41.6568" x2="24.8438" y2="27.8646" gradientUnits="userSpaceOnUse">
<stop offset="0.7201" stop-color="#FBB040"/>
<stop offset="1" stop-color="#F9ED32"/>
</linearGradient>
<clipPath id="clip0_207_3191">
<rect width="59.2538" height="33.6623" fill="white" transform="matrix(0.00256299 0.999997 0.999997 -0.00256299 1.81372 0.900635)"/>
</clipPath>
</defs>
</svg>
