<svg width="20" height="50" viewBox="0 0 20 50" fill="none" xmlns="http://www.w3.org/2000/svg">
<path d="M1.55581 18.6305C1.5188 17.1412 1.62059 15.6439 1.8367 14.1184C1.96136 14.9144 2.1018 15.7061 2.20523 16.5064C2.56395 19.287 2.88185 22.0762 3.26834 24.8481C3.61401 27.3243 4.03751 29.781 4.41039 32.2485C4.63031 33.6879 4.3908 35.003 3.73812 36.1902C3.52963 36.5676 3.34727 36.971 3.13879 37.3513C2.9401 37.712 2.72345 38.0569 2.51496 38.4068C2.45018 38.3808 2.38595 38.3555 2.32117 38.3273C2.29559 37.8313 2.26129 37.3383 2.24551 36.8423C2.11813 32.9071 2.00817 28.9727 1.86283 25.0397C1.7839 22.9004 1.60753 20.7698 1.55581 18.6312L1.55581 18.6305Z" fill="#E84200"/>
<path d="M5.06755 47.5722C4.19495 47.0639 3.32617 46.5462 2.45031 46.051C2.09484 45.8493 1.98162 45.4437 1.99958 45.0193C2.03497 44.1416 2.13186 43.2683 2.22277 42.1592C3.59617 43.7686 4.21945 45.7727 5.21289 47.4182C5.16444 47.4695 5.116 47.5208 5.06755 47.5729L5.06755 47.5722Z" fill="#E84200"/>
<path d="M5.02735 30.4832C4.20973 29.2151 2.33934 15.3787 2.2038 9.60722C4.5592 9.32815 6.858 9.05342 9.15843 8.78086C9.50246 9.21031 9.49756 9.65639 9.4317 10.2781C9.15571 12.9083 8.16989 15.2154 7.6288 17.719C7.29131 19.2806 7.00389 20.8647 6.69524 22.4393C6.2173 24.8808 5.74045 27.3245 5.25761 29.7667C5.20916 30.0046 5.11063 30.228 5.02844 30.4832L5.02735 30.4832Z" fill="#FF6500"/>
<path d="M7.30544 48.0809C6.42033 46.8728 5.48187 45.7291 4.67242 44.4422C3.99742 43.3693 3.45906 42.1359 2.89565 40.9473C2.79876 40.7434 2.79876 40.3465 2.88259 40.1231C3.19613 39.2866 3.56412 38.4863 3.90815 37.6708C4.11337 37.1856 4.29082 36.6817 4.52217 36.2205C4.63213 35.9992 4.82429 35.7267 4.99848 35.7035C7.97881 35.2958 10.9597 34.8107 14.0271 35.0962C13.7538 36.7786 8.51663 46.8367 7.30544 48.0809Z" fill="#FFC24F"/>
<path d="M9.15839 8.7808C6.85796 9.05336 4.55916 9.32809 2.20375 9.60716C2.33929 15.3787 4.21023 29.2157 5.0273 30.4831C5.1095 30.2279 5.20803 30.0045 5.25647 29.7666C5.73931 27.3251 6.21616 24.8815 6.69411 22.4393C7.00275 20.8646 7.29017 19.2813 7.62767 17.719C8.16876 15.2153 9.15403 12.9083 9.43056 10.2781C9.49697 9.6556 9.50187 9.20952 9.1573 8.7808L9.15839 8.7808ZM3.15364 8.86683C5.08555 8.54944 6.95648 8.24435 8.82524 7.92913C8.98202 7.90311 9.12736 7.76791 9.28413 7.73176C9.67334 7.63705 9.82032 7.31966 9.81705 6.82225C9.81379 5.96842 9.8557 5.11024 9.80889 4.26075C9.75881 3.3404 9.8655 2.35137 9.33258 1.57851C7.94339 2.34413 3.49931 7.49607 3.15364 8.86683ZM5.21347 47.4181C4.22003 45.7726 3.5962 43.7685 2.22335 42.1592C2.13298 43.2682 2.03609 44.1416 2.00016 45.0193C1.9822 45.4444 2.09542 45.8492 2.45088 46.051C3.3262 46.5469 4.19553 47.0638 5.06812 47.5721C5.11657 47.5208 5.16502 47.4694 5.21347 47.4174L5.21347 47.4181ZM3.2685 24.8489C2.88256 22.0771 2.56411 19.2878 2.20538 16.5072C2.10195 15.7069 1.96151 14.9152 1.83686 14.1192C1.6202 15.6447 1.51841 17.142 1.55597 18.6313C1.60768 20.7706 1.78351 22.9012 1.86299 25.0398C2.00833 28.9728 2.11829 32.9072 2.24566 36.8424C2.26199 37.3384 2.29574 37.8314 2.32133 38.3274C2.38611 38.3556 2.45034 38.3809 2.51512 38.4069C2.7236 38.057 2.93971 37.7114 3.13895 37.3514C3.34743 36.9718 3.52979 36.5684 3.73827 36.1903C4.39095 35.0039 4.62992 33.6888 4.41055 32.2486C4.03712 29.7811 3.61416 27.3244 3.2685 24.8482L3.2685 24.8489ZM9.91721 47.4543C9.29338 48.0507 8.73161 48.765 8.1595 49.454C7.67176 50.044 7.40993 50.1408 6.88789 49.8169C5.05778 48.6884 3.22876 47.562 1.33061 46.3908C1.35619 45.9317 1.40627 45.3865 1.41444 44.8414C1.46125 41.8888 1.5391 38.9369 1.5244 35.9864C1.51133 33.2463 1.40301 30.5091 1.32244 27.7712C1.27889 26.3209 1.19507 24.8706 1.14335 23.4203C1.06606 21.2362 0.978413 19.0521 0.9365 16.8658C0.902749 15.1083 0.866823 13.3428 0.959363 11.5939C1.01108 10.6388 0.880432 9.83056 0.431341 8.86249C0.935411 8.58342 1.33932 8.34339 1.74976 8.13301C2.6659 7.66307 3.42038 6.88226 4.15362 6.03276C5.73169 4.20508 7.32664 2.4027 8.92867 0.613334C9.66845 -0.210862 9.69947 -0.208695 10.4229 0.645862C11.5748 2.00434 12.7364 3.35124 13.8202 4.8037C14.1659 5.26496 14.4244 6.02264 14.4647 6.6726C14.6052 8.94708 14.9574 11.1464 15.4696 13.3196C15.775 14.6174 15.9557 15.9693 16.2175 17.2866C16.7363 19.885 17.3062 22.4638 17.7896 25.0709C18.1658 27.1068 18.439 29.1752 18.7607 31.2285C19.0302 32.9376 19.3274 34.6388 19.5582 36.3595C19.6067 36.7159 19.4826 37.4042 19.3258 37.4707C18.4178 37.8546 18.0558 38.9296 17.5975 39.8138C16.8332 41.2902 15.6721 42.0514 14.6427 43.047C13.087 44.5508 11.4762 45.9562 9.91775 47.4543L9.91721 47.4543ZM4.67184 44.4416C5.48129 45.7292 6.41975 46.8723 7.30487 48.0803C8.51659 46.8361 13.7538 36.7773 14.0265 35.0957C10.9586 34.8101 7.97823 35.2952 4.99791 35.703C4.82317 35.7269 4.63101 35.9994 4.5216 36.2199C4.29079 36.6812 4.11279 37.1851 3.90757 37.6702C3.56354 38.4857 3.19501 39.2861 2.88201 40.1225C2.79818 40.3459 2.79818 40.7429 2.89507 40.9467C3.45902 42.1353 3.99684 43.3687 4.67184 44.4416ZM5.61683 33.396C5.5379 33.8355 5.51341 34.372 5.96576 34.372C6.98697 34.372 8.00599 34.2672 9.0272 34.192C9.70219 34.1428 10.3777 34.0481 11.0527 34.0163C12.1398 33.9671 13.2258 33.9519 14.4484 33.9194C14.2481 26.0946 13.4337 18.439 13.6406 10.7278C13.6694 9.59053 13.5257 8.44461 13.4452 7.01818C13.0701 7.40425 12.873 7.61246 12.6711 7.81418C11.8295 8.65283 11.3837 10.0735 10.3238 10.5991C10.2057 10.6591 10.1284 10.9338 10.0734 11.129C9.49697 13.2126 8.86825 15.2767 8.37887 17.3943C7.98476 19.1042 7.75505 20.8827 7.46436 22.6337C7.06045 25.0564 6.67451 27.4806 6.26407 29.9011C6.06701 31.0723 5.82641 32.2291 5.61629 33.396L5.61683 33.396ZM10.4262 2.18002L10.4262 7.43027C11.3957 7.34424 12.1387 6.70513 12.9139 6.22652C13.2857 5.99661 13.2933 5.33364 12.9754 4.89624C12.4844 4.22026 11.9836 3.55295 11.4474 2.94131C11.1774 2.63694 10.8208 2.46704 10.4262 2.1793L10.4262 2.18002ZM10.4376 8.37448C10.9482 9.1365 11.179 9.01359 11.6199 7.75417C11.1888 7.98191 10.8252 8.1706 10.4376 8.37448ZM9.55576 46.5556C10.32 46.004 11.0418 45.4053 11.7511 44.7814C12.8997 43.7685 14.0532 42.7643 15.1789 41.7088C15.9688 40.9663 15.9965 40.7414 15.6378 39.5608C15.3645 38.6621 15.069 37.7758 14.7445 36.7629C12.7141 39.8269 11.2035 43.2487 9.55576 46.5549L9.55576 46.5556ZM14.4266 12.3386C14.3847 13.6537 14.278 14.9753 14.315 16.2882C14.3956 19.0666 14.5137 21.8471 14.6885 24.619C14.824 26.7497 15.0858 28.8651 15.2606 30.9914C15.3477 32.0426 15.3624 33.1046 15.4157 34.2932C17.144 36.2973 17.3204 36.4108 18.5855 36.2264C18.4886 34.8788 18.4124 33.5232 18.2883 32.1734C17.9426 28.4226 17.1027 24.8186 16.4097 21.169C16.1348 19.7209 15.8719 18.2662 15.5747 16.8239C15.2611 15.3071 14.9138 13.8011 14.5829 12.2901C14.5311 12.3053 14.4794 12.3227 14.4277 12.3371L14.4266 12.3386ZM15.4587 36.1997C15.5736 37.65 15.9045 38.7829 16.4843 39.978C16.8931 39.1538 17.2387 38.4568 17.5893 37.7534C16.8642 37.2234 16.2099 36.747 15.4587 36.1997Z" fill="#DB3500"/>
<path d="M5.9658 34.3726C5.51344 34.3726 5.53794 33.8361 5.61687 33.3965C5.82699 32.2297 6.06759 31.0729 6.26465 29.9017C6.67509 27.4811 7.06103 25.057 7.46494 22.6343C7.75563 20.8833 7.98534 19.1047 8.37945 17.3949C8.86883 15.2773 9.49755 13.2132 10.074 11.1296C10.129 10.9344 10.2063 10.6597 10.3244 10.5996C11.3843 10.074 11.8301 8.65339 12.6717 7.81474C12.8736 7.61303 13.0707 7.40481 13.4457 7.01874C13.5263 8.4459 13.6706 9.59109 13.6412 10.7283C13.4343 18.4396 14.2487 26.0945 14.449 33.92C13.2258 33.9525 12.1404 33.967 11.0533 34.0169C10.3783 34.0494 9.70277 34.1434 9.02778 34.1925C8.00657 34.2677 6.98755 34.3726 5.96634 34.3726L5.9658 34.3726Z" fill="#FFA02D"/>
<path d="M3.15375 8.86682C3.49941 7.49606 7.9435 2.34413 9.33268 1.5785C9.8656 2.35063 9.75891 3.33966 9.80899 4.26074C9.8558 5.11023 9.81389 5.96841 9.81715 6.82225C9.82042 7.31965 9.67344 7.63776 9.28423 7.73175C9.12746 7.7679 8.98212 7.9031 8.82535 7.92912C6.95604 8.24434 5.08565 8.54943 3.15375 8.86682Z" fill="#E84200"/>
<path d="M10.4264 7.43107L10.4264 2.18081C10.8205 2.46856 11.1776 2.63773 11.4476 2.94283C11.9838 3.55447 12.4846 4.22177 12.9756 4.89776C13.294 5.33516 13.2859 5.99813 12.9141 6.22804C12.1389 6.70665 11.3953 7.34576 10.4264 7.43179L10.4264 7.43107Z" fill="#FF6500"/>
<path d="M11.6201 7.75461C11.1792 9.01403 10.9478 9.13622 10.4378 8.37492C10.8254 8.17104 11.189 7.98235 11.6201 7.75461Z" fill="#FF820F"/>
<path d="M11.7511 44.7808C11.0419 45.4055 10.32 46.0041 9.55577 46.555C11.2035 43.2489 12.7141 39.8263 14.7445 36.763C15.0695 37.7759 15.3651 38.6616 15.6378 39.5609C15.9965 40.7408 15.9688 40.9664 15.1789 41.7089C14.0532 42.7645 12.8997 43.7687 11.7511 44.7816L11.7511 44.7808Z" fill="#FF820F"/>
<path d="M14.3144 16.2883C14.2774 14.9753 14.3841 13.6537 14.426 12.3387C14.4777 12.3235 14.5294 12.3061 14.5811 12.2917C14.9121 13.802 15.2594 15.3086 15.5729 16.8254C15.8701 18.2671 16.1336 19.7217 16.408 21.1705C17.1009 24.8201 17.9409 28.4249 18.2865 32.175C18.4112 33.5248 18.4868 34.8803 18.5837 36.228C17.3187 36.4123 17.1428 36.2988 15.414 34.2947C15.3606 33.1062 15.3459 32.0441 15.2588 30.9929C15.0841 28.8666 14.8228 26.7512 14.6867 24.6206C14.5125 21.8487 14.3944 19.0681 14.3133 16.2897L14.3144 16.2883Z" fill="#FF820F"/>
<path d="M16.4838 39.9772C15.9041 38.7821 15.5726 37.6492 15.4583 36.1989C16.2095 36.7462 16.8638 37.2226 17.5889 37.7526C17.2383 38.456 16.8926 39.1537 16.4838 39.9772Z" fill="#E84200"/>
</svg>
