<svg width="54" height="61" viewBox="0 0 54 61" fill="none" xmlns="http://www.w3.org/2000/svg">
<path d="M42.3662 15.7058C44.579 12.7332 46.8906 9.83226 49.1518 6.89729C50.0151 5.77665 50.8559 4.64168 51.9453 3.19971C52.0494 4.69807 51.9031 5.75516 51.6285 6.82031C51.1709 8.61584 50.7635 10.4248 50.3265 12.2257C50.0043 13.5594 49.6633 14.8877 49.3385 16.2205C49.011 17.5541 48.6754 18.8878 48.3721 20.2286C47.8821 22.3992 47.4316 24.5769 46.9363 26.7475C46.3342 29.3826 45.6953 32.0043 45.0932 34.6394C44.6777 36.443 44.3125 38.26 43.9024 40.0663C43.7508 40.7358 43.5246 41.3866 43.3407 42.048C42.14 46.3829 40.9466 50.7205 39.7352 55.0536C39.623 55.4492 39.4103 55.8189 39.1411 56.4427C38.0356 55.715 37.1149 55.093 36.1799 54.4906C33.9967 53.0853 31.8045 51.6934 29.6186 50.2882C29.2614 50.0599 28.9133 49.8129 28.5777 49.5524C28.0132 49.1084 27.875 48.6331 28.1837 47.892C29.1295 45.6445 29.9865 43.3575 30.847 41.0787C32.027 37.9548 33.129 34.7988 34.3619 31.6964C35.5338 28.7453 36.8278 25.8417 38.0742 22.9175C39.177 20.3199 40.6917 17.9578 42.3671 15.7058H42.3662Z" fill="#FF820F"/>
<path d="M5.91016 38.8581C19.4034 26.3735 34.2867 15.8518 48.9384 4.99268C47.2129 7.9545 44.7865 10.3479 42.7737 13.06C40.726 15.8169 38.6271 18.5478 36.4143 21.1775C34.2149 23.7939 31.8818 26.3019 29.5461 28.7983C27.195 31.3081 24.7632 33.7418 22.3772 36.2176C19.9912 38.6961 17.6186 41.1853 15.2515 43.6548C13.1633 43.1742 11.2062 42.7436 9.26261 42.263C8.87945 42.1672 8.46129 41.947 8.20286 41.657C7.39884 40.7565 6.66392 39.7925 5.91016 38.8572V38.8581Z" fill="#FF820F"/>
<path d="M38.2545 57.15C37.8659 57.3782 37.6344 57.6172 37.376 57.6521C34.2201 58.0773 31.0596 58.4568 27.901 58.8739C24.9586 59.2642 22.018 59.6894 19.073 60.0877C18.6575 60.1432 18.2367 60.1432 17.6166 60.1834C17.526 58.8524 17.6274 57.7157 17.9172 56.5924C18.0608 56.0347 18.2977 55.4896 18.3829 54.9239C18.5346 53.9089 19.2085 53.5106 20.0977 53.32C20.3005 53.2779 20.524 53.2564 20.7286 53.285C22.875 53.5768 25.0161 53.8803 27.1598 54.1855C27.4209 54.2231 27.674 54.318 27.9351 54.3556C29.8733 54.6375 31.8098 55.0752 33.7561 55.1343C35.5562 55.1898 36.7604 56.1645 38.2536 57.15H38.2545Z" fill="#FF6500"/>
<path d="M36.6063 22.623C36.7418 22.6973 36.8809 22.7742 37.0191 22.8512C36.5507 23.8976 36.0867 24.9448 35.613 25.9912C34.039 29.4685 32.7531 33.0516 31.443 36.6346C30.1356 40.2149 28.5294 43.6869 27.0362 47.201C26.9186 47.4776 26.714 47.7882 26.4637 47.926C25.0764 48.6859 23.638 49.3474 22.2695 50.136C21.1748 50.7679 20.1608 51.5359 19.1459 52.2188C18.5842 52.0121 18.1391 51.842 17.6922 51.6845C16.811 51.3712 16.2699 50.8082 16.1954 49.8308C16.1156 48.7763 16.0519 47.7112 15.8625 46.672C15.5512 44.9454 16.3525 43.7424 17.5029 42.603C20.1446 39.9893 22.7487 37.3381 25.3618 34.6922C27.7083 32.3176 30.0809 29.9671 32.3682 27.5361C33.8515 25.9634 35.1993 24.2636 36.6081 22.6221L36.6063 22.623Z" fill="#FFC24F"/>
<path d="M32.5798 53.4442C32.5376 53.5507 32.4946 53.6564 32.4524 53.7602C28.82 53.7253 25.2889 52.9233 21.7121 52.4874C21.6906 52.3755 21.6718 52.2618 21.6538 52.1499C21.8638 51.9718 22.0531 51.7543 22.2927 51.629C23.3229 51.0929 24.3701 50.5934 25.4029 50.0671C26.2365 49.6419 27.0064 49.6849 27.7943 50.2184C29.1448 51.1295 30.5294 51.987 31.8924 52.8776C32.1401 53.0397 32.3501 53.2518 32.5798 53.4433V53.4442Z" fill="#FFA02D"/>
<path d="M8.10953 35.9099C8.44514 35.602 8.78074 35.2914 9.11635 34.9799C9.03648 34.8922 8.95931 34.8045 8.87945 34.7141C8.52231 34.9987 8.16337 35.2824 7.80354 35.5644C7.90763 35.6816 8.00903 35.7953 8.10953 35.9099ZM49.152 6.89761C46.8907 9.83258 44.5801 12.7335 42.3663 15.7061C40.691 17.959 39.1763 20.3202 38.0735 22.9178C36.8271 25.842 35.5331 28.7457 34.3612 31.6967C33.1282 34.7991 32.0254 37.9551 30.8463 41.079C29.9858 43.3579 29.1288 45.6448 28.183 47.8923C27.8743 48.6335 28.0125 49.1088 28.5769 49.5527C28.9125 49.8132 29.2616 50.0602 29.6178 50.2885C31.8038 51.6938 33.996 53.0856 36.1792 54.4909C37.1142 55.0942 38.0349 55.7154 39.1404 56.4431C39.4096 55.8192 39.6223 55.4495 39.7344 55.0539C40.9458 50.7217 42.1393 46.3841 43.3399 42.0484C43.5239 41.3869 43.75 40.7362 43.9017 40.0666C44.3118 38.2604 44.677 36.4434 45.0924 34.6398C45.6946 32.0046 46.3335 29.3829 46.9356 26.7478C47.4309 24.5773 47.8814 22.3995 48.3713 20.229C48.6746 18.8872 49.0102 17.5544 49.3378 16.2208C49.6626 14.8871 50.0036 13.5588 50.3257 12.226C50.7627 10.4251 51.1701 8.61616 51.6278 6.82063C51.9024 5.75548 52.0486 4.69839 51.9445 3.20003C50.8552 4.642 50.0135 5.77697 49.1511 6.89761H49.152ZM48.9393 4.99288C34.2867 15.852 19.4034 26.3737 5.91015 38.8583C6.66392 39.7936 7.39884 40.7576 8.20285 41.6581C8.46129 41.9472 8.87945 42.1683 9.26261 42.2641C11.2062 42.7447 13.1642 43.1753 15.2515 43.6559C17.6186 41.1855 19.9912 38.6963 22.3772 36.2187C24.7632 33.7429 27.195 31.3101 29.5461 28.7994C31.8818 26.3021 34.214 23.795 36.4143 21.1786C38.6271 18.5489 40.726 15.818 42.7737 13.0611C44.7874 10.349 47.2129 7.9556 48.9384 4.99377L48.9393 4.99288ZM19.0732 60.0878C22.0183 59.6895 24.9589 59.2643 27.9012 58.8741C31.0599 58.457 34.2203 58.0775 37.3762 57.6523C37.6347 57.6174 37.8662 57.3784 38.2547 57.1502C36.7607 56.1647 35.5573 55.1899 33.7573 55.1344C31.8109 55.0763 29.8745 54.6377 27.9362 54.3557C27.6751 54.3181 27.4221 54.2233 27.1609 54.1857C25.0172 53.8804 22.8761 53.577 20.7297 53.2852C20.5242 53.2557 20.3008 53.2771 20.0989 53.3201C19.2096 53.5117 18.5357 53.91 18.3841 54.9241C18.2988 55.4898 18.0619 56.034 17.9183 56.5925C17.6285 57.7159 17.5271 58.8526 17.6177 60.1836C18.2378 60.1433 18.6586 60.1433 19.0741 60.0878H19.0732ZM32.4732 59.0119C30.6758 59.1847 28.8811 59.4183 27.0909 59.6627C24.1486 60.0637 21.2053 60.4593 18.2737 60.9274C17.1843 61.1002 16.3991 60.9032 15.6023 60.0538C14.6386 59.0263 13.4343 58.2261 12.3557 57.2996C10.9819 56.1146 9.8737 54.7442 9.18185 53.0283C8.87317 52.2603 8.26836 51.6096 7.77841 50.9222C6.45215 49.0712 5.12588 47.2166 3.77897 45.3781C2.92919 44.2252 2.00853 43.1251 1.17759 41.9597C0.205772 40.6028 0.299095 40.3047 1.59844 39.2718C2.55411 38.5146 3.44427 37.675 4.38109 36.8945C4.9509 36.4192 5.52071 35.9251 6.15692 35.5447C10.4839 32.9472 14.3487 29.7088 18.42 26.7577C19.661 25.8572 20.9181 24.9702 22.1242 24.0214C27.3305 19.9255 32.4696 15.7392 37.7352 11.7176C42.3233 8.21696 47.0451 4.88547 51.7265 1.50653C52.115 1.22727 52.6561 1.16103 53.1568 0.985596C53.9241 2.78381 53.4494 4.40123 53.0958 5.97657C52.0199 10.7894 50.8911 15.5951 49.7299 20.3901C48.7581 24.4036 47.7118 28.4019 46.6996 32.4047C45.8794 35.6432 45.07 38.8833 44.2391 42.1164C43.4081 45.3494 42.5404 48.5735 41.7202 51.8092C41.2653 53.6047 40.8418 55.411 40.4765 57.228C40.333 57.9504 40.0449 58.4024 39.2885 58.4632C37.0173 58.6467 34.7425 58.7953 32.4741 59.0128L32.4732 59.0119ZM37.0191 22.8515C36.8809 22.7746 36.7418 22.6976 36.6063 22.6233C35.1975 24.2649 33.8497 25.9646 32.3664 27.5373C30.0791 29.9674 27.7065 32.3188 25.36 34.6935C22.7478 37.3393 20.1428 39.9906 17.5011 42.6042C16.3507 43.7436 15.5494 44.9466 15.8607 46.6732C16.0501 47.7115 16.1138 48.7767 16.1937 49.832C16.2681 50.8094 16.8092 51.3724 17.6904 51.6857C18.1382 51.8423 18.5824 52.0124 19.1441 52.2201C20.159 51.5371 21.173 50.77 22.2677 50.1372C23.6362 49.3486 25.0746 48.6872 26.4619 47.9272C26.7123 47.7894 26.9169 47.4779 27.0344 47.2022C28.5285 43.6881 30.1338 40.2161 31.4412 36.6358C32.7513 33.0528 34.0372 29.4689 35.6112 25.9924C36.085 24.946 36.5489 23.8988 37.0173 22.8524L37.0191 22.8515ZM32.4516 53.7605C32.4938 53.6567 32.5369 53.551 32.5791 53.4445C32.3502 53.253 32.1394 53.0408 31.8917 52.8788C30.5286 51.9891 29.1432 51.1307 27.7936 50.2196C27.0057 49.6852 26.2358 49.6431 25.4021 50.0683C24.3693 50.5946 23.3221 51.094 22.292 51.6302C22.0524 51.7546 21.863 51.973 21.6531 52.1511C21.6719 52.263 21.6908 52.3767 21.7114 52.4886C25.2882 52.9245 28.8192 53.7265 32.4516 53.7614V53.7605ZM16.2152 58.9824C16.6468 56.8467 17.0407 54.9053 17.4374 52.937C16.8864 52.6873 16.5158 52.5172 16.0205 52.2917C15.5063 53.6916 15.107 54.8972 14.6197 56.0635C14.1055 57.2987 14.0849 57.365 15.1151 58.1804C15.4264 58.4248 15.754 58.6476 16.2152 58.9824ZM14.4977 49.4704C14.6682 49.4068 14.8387 49.3433 15.0092 49.2788C14.7561 47.7491 14.5031 46.2185 14.2689 44.8133C11.8326 43.6282 10.8285 43.3525 9.76333 43.5968C11.3669 45.5839 12.9327 47.528 14.4986 49.4704H14.4977ZM14.7902 52.3579C14.9957 51.4601 14.0768 51.0189 13.6075 50.4057C13.3491 50.0683 13.088 49.7308 12.8349 49.388C11.5436 47.6453 10.2515 45.8972 8.9629 44.1527C7.56485 42.2587 5.49289 41.9025 3.35184 41.7199C3.28813 41.7145 3.21096 41.847 3.14186 41.9141C5.10973 46.1407 11.3758 54.6833 13.341 55.7717C14.3344 54.8605 14.5156 53.5645 14.7893 52.3588L14.7902 52.3579ZM6.20448 41.3609C5.67146 40.5536 5.34124 40.0541 4.7822 39.2065C4.4125 39.8652 4.20431 40.2322 3.88755 40.7926C4.68349 40.9868 5.25599 41.1273 6.20448 41.3609Z" fill="#DB3500"/>
<path d="M17.4384 52.9369C17.0418 54.9051 16.6479 56.8466 16.2163 58.9822C15.7559 58.6475 15.4284 58.4246 15.1161 58.1802C14.086 57.3648 14.1066 57.2986 14.6208 56.0634C15.108 54.8971 15.5074 53.6914 16.0215 52.2915C16.5169 52.5171 16.8866 52.6871 17.4384 52.9369Z" fill="#E84200"/>
<path d="M15.0089 49.2786C14.8385 49.3422 14.668 49.4057 14.4975 49.4702C12.9316 47.5288 11.3658 45.5838 9.76221 43.5967C10.8273 43.3523 11.8315 43.6289 14.2677 44.8131C14.5019 46.2184 14.755 47.7481 15.008 49.2786H15.0089Z" fill="#FFA02D"/>
<path d="M13.6083 50.4054C14.0767 51.0195 14.9956 51.4598 14.791 52.3576C14.5164 53.5633 14.3361 54.8603 13.3427 55.7705C11.3775 54.6812 5.11142 46.1386 3.14355 41.9129C3.21265 41.8467 3.28982 41.7133 3.35353 41.7187C5.49458 41.9022 7.56654 42.2575 8.96459 44.1515C10.2532 45.8969 11.5453 47.6441 12.8366 49.3868C13.0897 49.7296 13.3508 50.0671 13.6092 50.4045L13.6083 50.4054Z" fill="#FF6500"/>
<path d="M8.87962 34.7146C8.95948 34.805 9.03665 34.8927 9.11652 34.9804C8.78091 35.291 8.44531 35.6016 8.1097 35.9104C8.0083 35.7959 7.9069 35.6822 7.80371 35.5649C8.16354 35.283 8.52248 34.9992 8.87962 34.7146Z" fill="#FF820F"/>
<path d="M4.78283 39.2063C5.34187 40.0539 5.67209 40.5534 6.20511 41.3608C5.25752 41.1271 4.68412 40.9866 3.88818 40.7924C4.20494 40.2321 4.41313 39.8651 4.78283 39.2063Z" fill="#FF820F"/>
</svg>
