<svg width="62" height="60" viewBox="0 0 62 60" fill="none" xmlns="http://www.w3.org/2000/svg">
<path d="M46.8542 27.337L47.0591 27.9172L48.9579 26.8197L46.8542 27.337Z" fill="url(#paint0_linear_915_1307)"/>
<path d="M47.2866 28.5825L47.104 27.9922L48.9581 26.8197L49.5627 26.558L47.2866 28.5825Z" fill="url(#paint1_linear_915_1307)"/>
<path d="M48.118 30.0715L47.3877 28.6819L48.2539 27.6879L49.5623 26.558L48.118 30.0715Z" fill="url(#paint2_linear_915_1307)"/>
<path d="M54.8119 21.9936C54.4914 22.4622 54.1871 22.6792 53.9254 22.7664C53.6272 23.3791 53.1688 24.0789 52.4709 24.7524C52.974 24.6632 53.8707 24.4705 54.0086 24.2311C54.3271 24.1418 54.9458 21.7988 54.8119 21.9936Z" fill="url(#paint3_linear_915_1307)"/>
<path d="M52.0655 23.4703C52.5646 22.7968 52.9926 22.024 53.2888 21.1435C53.2746 20.5309 53.094 18.4252 53.094 18.4252C53.094 18.4252 51.3109 17.0519 49.6738 16.6908C50.7977 17.983 52.3942 20.8149 52.0655 23.4703Z" fill="url(#paint4_linear_915_1307)"/>
<path d="M47.6638 26.9534C47.6638 26.9534 47.9417 24.9552 49.169 23.8557C50.2178 22.9854 49.8892 22.3464 49.8892 22.3464C49.8892 22.3464 49.3658 23.239 48.7369 23.306C48.5402 23.3262 48.3535 23.5088 48.1892 23.803C47.8281 24.442 47.7166 25.795 47.6638 26.9534Z" fill="url(#paint5_linear_915_1307)"/>
<path d="M48.1521 23.8375C48.3165 23.5454 48.5376 23.3851 48.7343 23.3648C49.3652 23.2979 49.8521 22.381 49.8521 22.381C49.8521 22.381 49.345 23.4663 47.9493 23.379C47.8357 23.4054 47.5091 23.5028 47.4401 23.9836C47.3874 24.0769 48.1521 23.8375 48.1521 23.8375Z" fill="url(#paint6_linear_915_1307)"/>
<path d="M48.5763 26.5151L47.6614 26.9777C47.6614 26.9777 47.9028 25.1337 49.0368 23.9652C49.0205 23.9287 50.1768 23.1883 49.8888 22.3444C49.8928 22.2369 50.4466 23.3911 49.0428 24.6387C48.3491 25.2554 48.5763 26.5151 48.5763 26.5151Z" fill="url(#paint7_linear_915_1307)"/>
<path d="M48.5764 26.5153C48.5764 26.5153 48.2762 25.3144 49.0409 24.6368C49.0409 24.6368 49.0491 25.2434 49.1302 25.5172C49.2377 25.8783 49.4507 25.9575 49.4507 25.9575L48.5764 26.5153Z" fill="url(#paint8_linear_915_1307)"/>
<path d="M49.6618 32.3354L48.3372 30.5178L48.5055 29.0126L49.5624 26.558L49.6618 32.3354Z" fill="url(#paint9_linear_915_1307)"/>
<path d="M53.7748 24.6993C53.7724 24.7017 53.7724 24.7041 53.77 24.7065C53.7724 24.7041 53.7748 24.7017 53.7748 24.6993Z" fill="url(#paint10_linear_915_1307)"/>
<path d="M52.2871 24.927C52.0457 25.1461 51.7779 25.3591 51.4797 25.566C51.5446 25.8378 51.4371 26.3855 50.011 27.0509C50.011 27.0509 52.4737 26.7284 53.77 24.7079C53.705 24.7667 52.8855 25.0122 52.2871 24.927Z" fill="url(#paint11_linear_915_1307)"/>
<path opacity="0.13" d="M53.0942 18.4271L54.8124 21.9934C54.8124 21.9934 54.22 26.0911 46.8623 27.3265C46.8137 27.3265 52.9441 24.7543 53.0942 18.4271Z" fill="#141413"/>
<path d="M53.7149 18.6849L54.4858 20.9488C54.4858 20.9488 54.1247 26.0791 46.8623 27.3247C46.8136 27.3267 53.5648 25.0141 53.7149 18.6849Z" fill="url(#paint12_linear_915_1307)"/>
<g clip-path="url(#clip0_915_1307)">
<path d="M44.1646 33.5259C44.2085 33.5505 44.252 33.5745 44.2961 33.598C44.479 33.4758 44.6707 33.3646 44.8447 33.2302C46.0069 32.3334 47.1721 31.4391 48.32 30.5254C48.5047 30.3787 48.6614 30.1553 48.7467 29.9349C49.1962 28.7775 49.6049 27.604 50.0555 26.4469C50.4515 25.4288 50.8769 24.423 51.3011 23.4176C51.5995 22.71 51.7706 21.9893 51.7116 21.2134C51.6834 20.8399 51.7433 20.461 51.7452 20.0843C51.7483 19.1395 51.7461 18.1956 51.736 17.2507C51.7325 16.8946 51.714 16.5375 51.6784 16.1837C51.6579 15.9729 51.5931 15.7789 51.3496 15.691C51.1361 15.6131 50.9394 15.4915 50.6392 15.341C49.6923 16.2199 48.7833 17.079 47.8562 17.9194C47.1406 18.5678 46.4158 19.2064 45.67 19.8199C45.3549 20.0797 45.2082 20.3494 45.1928 20.7702C45.1403 22.1705 45.0422 23.5701 44.95 24.9686C44.8428 26.6016 44.7259 28.234 44.6066 29.8672C44.5897 30.0965 44.5333 30.3232 44.5064 30.5532C44.3903 31.5438 44.2785 32.5351 44.1652 33.5265L44.1646 33.5259Z" fill="#FFC24F" fill-opacity="0.7"/>
<path opacity="0.7" d="M45.2628 33.3863C45.1695 33.4611 45.101 33.566 44.9441 33.7451C45.7169 33.7235 46.3399 33.6848 46.9632 33.6948C47.8626 33.7092 48.762 33.7657 49.6619 33.7909C50.717 33.8203 51.7251 33.6421 52.7209 33.049C51.6103 32.1325 50.5328 31.244 49.3998 30.3096C49.1787 30.5088 49.0033 30.6699 48.8249 30.8259C48.7507 30.8906 48.6588 31.0067 48.5907 30.9968C48.2433 30.945 48.0445 31.1968 47.8236 31.3656C46.9596 32.0257 46.1127 32.7075 45.2632 33.3864L45.2628 33.3863Z" fill="#F54F00"/>
<path opacity="0.7" d="M52.5727 32.2724C52.8034 32.4779 52.9928 32.8114 53.356 32.7098C53.7533 32.5984 54.128 32.4097 54.5104 32.2468C54.562 32.2242 54.6084 32.1623 54.6321 32.1076C55.1098 30.9956 55.5869 29.8834 56.0599 28.7687C56.4691 27.8042 56.8392 26.8196 57.2892 25.8743C57.832 24.7345 58.0393 23.5298 58.2012 22.2358C57.6074 22.7289 57.0727 23.1567 56.5574 23.6071C56.3086 23.8255 56.1101 24.0719 55.9817 24.4082C55.7127 25.1124 55.3726 25.7916 55.0349 26.467C54.5387 27.4604 54.0181 28.4394 53.5128 29.427C53.0833 30.2637 52.6606 31.1032 52.2259 31.9612C52.3627 32.0834 52.4673 32.1789 52.5724 32.2724L52.5727 32.2724Z" fill="#F54F00"/>
<path opacity="0.7" d="M51.7387 31.6732C51.9128 31.4205 52.0975 31.2021 52.2274 30.9563C52.8749 29.7303 53.5023 28.4941 54.1469 27.2667C54.4397 26.7111 54.7689 26.1733 55.0607 25.6175C55.2057 25.343 55.3026 25.0432 55.445 24.6996C54.3453 24.1019 53.3377 23.5534 52.2706 22.973C51.3531 25.3006 50.4641 27.5561 49.5606 29.8481C50.2991 30.4673 50.9859 31.0427 51.739 31.6733L51.7387 31.6732Z" fill="#FF820F"/>
<path opacity="0.8" d="M55.1024 23.9272C55.3396 24.0438 55.5287 24.032 55.7103 23.8083C55.8676 23.6165 56.0697 23.4611 56.2911 23.2522C56.0362 22.8559 55.8046 22.4657 55.5384 22.0991C55.4699 22.003 55.2783 21.9113 55.1766 21.9392C54.4157 22.1455 53.6636 22.3812 52.7938 22.6422C53.0223 22.8262 53.1451 22.9645 53.2989 23.0424C53.8948 23.3478 54.5017 23.6319 55.1023 23.9275L55.1024 23.9272Z" fill="#FF820F"/>
<path opacity="0.7" d="M52.2919 22.3274C52.5941 22.2565 52.8164 22.2152 53.0328 22.1518C53.5748 21.9932 54.1088 21.8076 54.6541 21.666C55.1081 21.5487 55.4394 21.3356 55.631 20.8809C55.9711 20.0702 56.3578 19.2777 56.7104 18.4725C57.444 16.8005 58.1685 15.1253 58.8952 13.4515C58.9271 13.3792 58.9438 13.3022 58.996 13.133C57.8084 13.229 56.7247 13.4855 55.6309 13.7188C54.5291 13.9534 53.4019 14.0679 52.2024 14.2469C52.1528 14.9764 52.0563 15.6805 52.0672 16.3832C52.0933 18.0375 52.1687 19.6925 52.2263 21.3466C52.2368 21.6372 52.2648 21.9282 52.2919 22.3274V22.3274Z" fill="#FFA02D"/>
<path opacity="0.7" d="M56.4432 22.6767C56.634 22.8465 56.7873 22.8712 56.9814 22.6756C57.3758 22.2767 57.7816 21.8884 58.1935 21.5068C58.5179 21.2069 58.704 20.8402 58.7311 20.407C58.7689 19.8235 58.7739 19.2378 58.7979 18.654C58.8062 18.4661 58.8316 18.28 58.8464 18.0927C58.9386 16.8462 59.0297 15.5993 59.1209 14.3522C59.0778 14.3377 59.0347 14.3244 58.9916 14.3099C58.7367 14.8493 58.4772 15.3865 58.2285 15.9275C57.8693 16.7072 57.5003 17.4822 57.1667 18.2719C56.8326 19.0637 56.5364 19.8718 56.224 20.6732C56.1865 20.7711 56.1599 20.8741 56.1159 20.9689C55.7929 21.6713 55.8959 22.189 56.4436 22.6764L56.4432 22.6767Z" fill="#E84200"/>
<path opacity="0.9" d="M58.7205 22.5484C58.8442 21.3851 59.1452 20.2512 59.1773 19.0682C59.2229 17.413 59.392 15.7601 59.5206 14.1077C59.5612 13.5901 59.644 13.0758 59.7134 12.5177C59.5379 12.4939 59.3901 12.4352 59.2624 12.4629C58.1392 12.7125 57.0283 13.0161 55.8981 13.2258C54.9929 13.3937 54.069 13.4773 53.1492 13.5503C52.4131 13.61 51.7638 13.7005 51.1654 14.2737C50.3831 15.0213 49.4235 15.5795 48.5761 16.2633C47.8113 16.8795 47.0689 17.5308 46.363 18.2143C45.9775 18.5873 45.687 19.059 45.3526 19.4851C45.3138 19.5348 45.2783 19.604 45.2268 19.6232C44.6822 19.8259 44.7714 20.2411 44.7834 20.6987C44.805 21.514 44.7336 22.3323 44.6832 23.1484C44.6036 24.4472 44.5148 25.7445 44.4195 27.0415C44.3625 27.8166 44.2917 28.5897 44.2167 29.3624C44.0944 30.6166 43.968 31.8696 43.8362 33.122C43.8192 33.2883 43.7601 33.4502 43.7302 33.6154C43.6539 34.0402 43.9205 34.3417 44.3562 34.3252C45.2791 34.2911 46.2012 34.222 47.1227 34.2257C48.1514 34.2311 49.1793 34.3165 50.209 34.3353C50.5561 34.3424 50.9201 34.3 51.2513 34.1963C51.6885 34.0604 52.085 33.7751 52.5262 33.675C53.1126 33.543 53.5743 33.1354 54.1336 33.0106C54.8175 32.8583 55.0665 32.4042 55.2851 31.8283C55.8712 30.2803 56.4744 28.7386 57.1008 27.2051C57.4095 26.4493 57.7856 25.7215 58.122 24.9761C58.2245 24.7485 58.3184 24.5117 58.3733 24.2695C58.5054 23.6995 58.6577 23.128 58.7199 22.5476L58.7205 22.5484ZM58.731 20.407C58.7036 20.8401 58.5174 21.2072 58.1934 21.5068C57.7817 21.8881 57.3757 22.2767 56.9814 22.6757C56.7872 22.8712 56.6339 22.8465 56.4431 22.6767C55.8954 22.1893 55.7924 21.6715 56.1155 20.9692C56.1595 20.874 56.1861 20.7711 56.2235 20.6734C56.5363 19.8718 56.8321 19.0639 57.1662 18.2722C57.4998 17.4825 57.8688 16.7075 58.228 15.9277C58.4767 15.3867 58.7362 14.8496 58.9911 14.3102C59.0342 14.3246 59.0773 14.338 59.1204 14.3524C59.0293 15.5993 58.9382 16.8461 58.8459 18.093C58.8311 18.2803 58.8057 18.4664 58.7974 18.6543C58.7734 19.238 58.7687 19.8239 58.7306 20.4072L58.731 20.407ZM44.2961 33.5981C44.252 33.5746 44.2084 33.5505 44.1646 33.526C44.2775 32.5345 44.3897 31.5433 44.5057 30.5527C44.5326 30.3227 44.5891 30.096 44.6059 29.8667C44.7252 28.2335 44.8421 26.6011 44.9493 24.9681C45.0416 23.5692 45.1396 22.17 45.1921 20.7697C45.2076 20.3489 45.3542 20.0792 45.6694 19.8194C46.4151 19.2059 47.1398 18.5676 47.8555 17.9189C48.7827 17.0785 49.6916 16.2194 50.6386 15.3405C50.9387 15.491 51.1354 15.6126 51.3489 15.6905C51.5924 15.7784 51.6576 15.9725 51.6778 16.1832C51.7133 16.537 51.732 16.8937 51.7353 17.2502C51.745 18.195 51.7476 19.139 51.7446 20.0838C51.7427 20.4605 51.6827 20.8394 51.711 21.2129C51.7699 21.9888 51.5987 22.7099 51.3004 23.4171C50.8762 24.4225 50.4508 25.4286 50.0549 26.4464C49.6043 27.6035 49.1956 28.777 48.746 29.9344C48.6608 30.1547 48.5041 30.3782 48.3193 30.5249C47.171 31.4385 46.0063 32.3325 44.844 33.2297C44.6701 33.3641 44.4783 33.4753 44.2955 33.5975L44.2961 33.5981ZM44.9439 33.7452C45.1011 33.5665 45.1694 33.4611 45.2627 33.3863C46.1122 32.7074 46.9591 32.0257 47.8231 31.3655C48.044 31.1967 48.2428 30.9449 48.5902 30.9967C48.6583 31.0066 48.7503 30.8902 48.8244 30.8259C49.0028 30.6699 49.1782 30.5087 49.3993 30.3096C50.5323 31.2439 51.6098 32.1324 52.7204 33.0489C51.7246 33.6423 50.7167 33.8207 49.6614 33.7908C48.7615 33.7657 47.8621 33.7091 46.9627 33.6947C46.3394 33.6847 45.7164 33.7234 44.9436 33.7451L44.9439 33.7452ZM53.3562 32.7102C52.993 32.8118 52.8032 32.4782 52.5729 32.2728C52.4678 32.1794 52.3632 32.0838 52.2264 31.9616C52.6615 31.1037 53.0841 30.2642 53.5134 29.4275C54.019 28.4399 54.5397 27.4606 55.0354 26.4675C55.3731 25.7921 55.7129 25.1128 55.9822 24.4086C56.1106 24.0723 56.3091 23.826 56.5579 23.6076C57.0732 23.1572 57.608 22.7294 58.2017 22.2363C58.0399 23.53 57.8325 24.735 57.2897 25.8748C56.8397 26.82 56.47 27.8047 56.0604 28.7692C55.5872 29.8835 55.1105 30.9957 54.6326 32.1081C54.6086 32.1627 54.5622 32.2246 54.5109 32.2472C54.1286 32.4102 53.7537 32.5992 53.3566 32.7103L53.3562 32.7102ZM52.2276 30.9563C52.0977 31.2021 51.913 31.4206 51.7389 31.6733C50.9858 31.0426 50.2989 30.4672 49.5604 29.8481C50.4643 27.5561 51.3532 25.3007 52.2704 22.973C53.3375 23.5534 54.3455 24.102 55.4448 24.6995C55.3028 25.0433 55.2055 25.3429 55.0605 25.6174C54.7687 26.1733 54.4395 26.7111 54.1467 27.2667C53.5021 28.4944 52.8746 29.7306 52.2272 30.9562L52.2276 30.9563ZM55.7102 23.8083C55.5285 24.032 55.3394 24.0438 55.1023 23.9272C54.5016 23.6315 53.8947 23.3474 53.2988 23.042C53.145 22.9641 53.0222 22.8258 52.7937 22.6418C53.6632 22.3808 54.4156 22.1452 55.1765 21.9388C55.2782 21.9109 55.4698 22.0026 55.5383 22.0987C55.8042 22.4652 56.0358 22.8555 56.291 23.2518C56.0696 23.4608 55.8676 23.6161 55.7103 23.808L55.7102 23.8083ZM53.0325 22.1517C52.8162 22.2151 52.5935 22.2564 52.2917 22.3274C52.2646 21.9281 52.2366 21.6371 52.2261 21.3465C52.168 19.6927 52.0931 18.0374 52.067 16.3831C52.0564 15.6805 52.1526 14.9763 52.2022 14.2468C53.4016 14.0682 54.5288 13.9534 55.6306 13.7188C56.7245 13.4854 57.8082 13.2289 58.9957 13.1329C58.9432 13.3021 58.9266 13.3791 58.895 13.4515C58.1686 15.1254 57.4437 16.8004 56.7101 18.4724C56.3572 19.2776 55.9709 20.0701 55.6308 20.8808C55.4392 21.3355 55.1079 21.5486 54.6538 21.6659C54.1085 21.8075 53.5749 21.9932 53.0325 22.1517V22.1517ZM51.6182 15.3771C51.3488 15.1715 51.2159 15.0709 51.0516 14.9456C51.2177 14.7864 51.3308 14.6776 51.5667 14.4508C51.5877 14.8159 51.5987 15.0165 51.6182 15.3771V15.3771Z" fill="#DB3500"/>
<path d="M51.0518 14.9456C51.2161 15.0708 51.3486 15.1714 51.6184 15.3771C51.5985 15.0167 51.5875 14.8157 51.5669 14.4508C51.331 14.6776 51.2182 14.7865 51.0518 14.9456V14.9456Z" fill="#FF820F"/>
<path d="M45.5182 21.9609C45.4977 22.0401 45.3745 22.0083 45.395 21.929C45.4155 21.8497 45.5388 21.8816 45.5182 21.9609Z" fill="#FFD865"/>
</g>
<path d="M28.5163 21.0035L29.1277 20.934L28.4845 18.8374L28.5163 21.0035Z" fill="url(#paint13_linear_915_1307)"/>
<path d="M29.8271 20.8622L29.2108 20.9075L28.4845 18.8375L28.3652 18.1897L29.8271 20.8622Z" fill="url(#paint14_linear_915_1307)"/>
<path d="M31.4647 20.3858L29.9467 20.7855L29.1725 19.7183L28.3652 18.1896L31.4647 20.3858Z" fill="url(#paint15_linear_915_1307)"/>
<path d="M25.0963 12.049C25.481 12.4665 25.6242 12.8118 25.6505 13.0864C26.1805 13.5145 26.7596 14.1184 27.2592 14.9496C27.2852 14.4393 27.2987 13.5223 27.0964 13.3341C27.0809 13.0037 24.9366 11.8748 25.0963 12.049Z" fill="url(#paint16_linear_915_1307)"/>
<path d="M25.9183 15.0572C25.3741 14.4197 24.717 13.8291 23.9255 13.3428C23.3254 13.2191 21.2329 12.9223 21.2329 12.9223C21.2329 12.9223 19.4943 14.3516 18.7749 15.8658C20.2864 15.0608 23.4045 14.1408 25.9183 15.0572Z" fill="url(#paint17_linear_915_1307)"/>
<path d="M28.325 20.1287C28.325 20.1287 26.4403 19.4093 25.6444 17.9665C25.0317 16.7491 24.3353 16.9259 24.3353 16.9259C24.3353 16.9259 25.0876 17.6363 25.0116 18.2642C24.9872 18.4605 25.1232 18.6833 25.373 18.9095C25.9146 19.4048 27.2081 19.8173 28.325 20.1287Z" fill="url(#paint18_linear_915_1307)"/>
<path d="M25.3984 18.953C25.1506 18.7273 25.0441 18.4758 25.0685 18.2795C25.1449 17.6497 24.3607 16.9694 24.3607 16.9694C24.3607 16.9694 25.3044 17.7073 24.9061 19.0477C24.9063 19.1643 24.9278 19.5045 25.3809 19.6796C25.46 19.752 25.3984 18.953 25.3984 18.953Z" fill="url(#paint19_linear_915_1307)"/>
<path d="M28.1029 19.1408L28.3482 20.1362C28.3482 20.1362 26.6055 19.487 25.7214 18.1196C25.6822 18.1273 25.2203 16.8343 24.3332 16.9255C24.2294 16.8974 25.4785 16.6169 26.3791 18.2649C26.8243 19.0794 28.1029 19.1408 28.1029 19.1408Z" fill="url(#paint20_linear_915_1307)"/>
<path d="M28.1024 19.1407C28.1024 19.1407 26.8647 19.1637 26.3761 18.2664C26.3761 18.2664 26.969 18.3946 27.2541 18.377C27.6301 18.3533 27.755 18.1635 27.755 18.1635L28.1024 19.1407Z" fill="url(#paint21_linear_915_1307)"/>
<path d="M34.0174 19.3899L31.9488 20.2727L30.5198 19.7708L28.3652 18.1898L34.0174 19.3899Z" fill="url(#paint22_linear_915_1307)"/>
<path d="M27.5001 13.668C27.5019 13.6708 27.5042 13.6714 27.506 13.6742C27.5042 13.6714 27.5024 13.6685 27.5001 13.668Z" fill="url(#paint23_linear_915_1307)"/>
<path d="M27.3876 15.1684C27.5469 15.4528 27.6943 15.7615 27.829 16.0986C28.1085 16.0964 28.6181 16.3241 28.9463 17.8632C28.9463 17.8632 29.1849 15.3909 27.507 13.6741C27.5497 13.7506 27.6049 14.6043 27.3876 15.1684Z" fill="url(#paint24_linear_915_1307)"/>
<path opacity="0.13" d="M21.2355 12.9227L25.0965 12.0489C25.0965 12.0489 28.9566 13.5461 28.5087 20.9933C28.4978 21.0408 27.3675 14.4894 21.2355 12.9227Z" fill="#141413"/>
<path d="M21.6258 12.3758L24.005 12.1328C24.005 12.1328 28.9233 13.6364 28.5067 20.993C28.4977 21.0409 27.7598 13.943 21.6258 12.3758Z" fill="url(#paint25_linear_915_1307)"/>
<g clip-path="url(#clip1_915_1307)">
<path d="M33.9432 25.0137C33.977 24.9765 34.0102 24.9394 34.043 24.9017C33.965 24.6961 33.8997 24.4843 33.8077 24.2846C33.1947 22.9507 32.5848 21.6145 31.9521 20.2908C31.8507 20.0778 31.6681 19.875 31.4725 19.7424C30.4456 19.0445 29.3938 18.3828 28.3674 17.6839C27.4641 17.0695 26.5795 16.4292 25.695 15.7901C25.0725 15.3405 24.4085 15.012 23.6392 14.8952C23.2689 14.8389 22.9131 14.6954 22.5465 14.609C21.6265 14.3939 20.7062 14.1842 19.7832 13.9819C19.4354 13.9053 19.0832 13.8432 18.7304 13.7984C18.5205 13.7711 18.3168 13.7907 18.1765 14.0083C18.0527 14.1988 17.89 14.3632 17.676 14.6219C18.3198 15.742 18.953 16.8206 19.5638 17.9128C20.035 18.7556 20.4946 19.6053 20.925 20.4698C21.1074 20.8352 21.3373 21.0386 21.7439 21.1482C23.0967 21.5137 24.4385 21.9235 25.7806 22.3273C27.3479 22.7984 28.9124 23.2788 30.4771 23.7617C30.6967 23.8295 30.905 23.9355 31.1231 24.0133C32.0624 24.3488 33.0033 24.6803 33.9439 25.0132L33.9432 25.0137Z" fill="#FFC24F" fill-opacity="0.7"/>
<path opacity="0.7" d="M34.0537 23.9123C34.1056 24.02 34.1924 24.1104 34.3318 24.3035C34.4842 23.5456 34.5863 22.9297 34.736 22.3246C34.9519 21.4514 35.2089 20.5877 35.4355 19.7164C35.701 18.6948 35.7536 17.6724 35.3992 16.5689C34.2568 17.4454 33.1491 18.2959 31.9842 19.1903C32.1287 19.4504 32.2464 19.6575 32.3583 19.8664C32.4047 19.9532 32.4972 20.0689 32.4722 20.133C32.3438 20.4598 32.5445 20.7101 32.6594 20.9633C33.1087 21.9534 33.583 22.9318 34.0538 23.912L34.0537 23.9123Z" fill="#F54F00"/>
<path opacity="0.7" d="M34.6093 16.5388C34.8613 16.3602 35.2288 16.2504 35.2114 15.8737C35.1919 15.4616 35.0922 15.054 35.0193 14.6448C35.0089 14.5895 34.9589 14.5303 34.911 14.495C33.9346 13.7798 32.9579 13.0652 31.9779 12.3541C31.1298 11.7388 30.2534 11.1571 29.4333 10.5064C28.4444 9.72157 27.317 9.24912 26.0924 8.80081C26.4396 9.49012 26.7365 10.1073 27.0597 10.7106C27.2166 11.002 27.4122 11.2507 27.711 11.4513C28.3369 11.8716 28.9224 12.3555 29.5048 12.8362C30.3614 13.5427 31.1985 14.2698 32.0476 14.9839C32.7664 15.5903 33.4896 16.1907 34.2281 16.8069C34.3779 16.701 34.4944 16.6206 34.6091 16.5391L34.6093 16.5388Z" fill="#F54F00"/>
<path opacity="0.7" d="M33.838 17.2172C33.6308 16.9908 33.4594 16.7618 33.249 16.58C32.1998 15.6739 31.1359 14.7849 30.0846 13.8812C29.6089 13.4712 29.1587 13.0297 28.6826 12.6206C28.4476 12.4176 28.1773 12.2559 27.8744 12.04C27.0451 12.9774 26.2844 13.8362 25.4792 14.7458C27.5414 16.1624 29.5398 17.535 31.5705 18.93C32.3396 18.3493 33.0545 17.8092 33.8381 17.2169L33.838 17.2172Z" fill="#FF820F"/>
<path opacity="0.8" d="M27.0449 12.2003C27.2118 11.9954 27.2427 11.8085 27.0656 11.5813C26.9139 11.3849 26.8079 11.1531 26.654 10.8905C26.2106 11.0499 25.7783 11.188 25.3613 11.3651C25.2523 11.4103 25.1199 11.5764 25.1243 11.6818C25.1545 12.4696 25.2154 13.2554 25.2744 14.1616C25.505 13.9802 25.6674 13.8916 25.7778 13.7592C26.2092 13.2471 26.6223 12.7194 27.0452 12.2005L27.0449 12.2003Z" fill="#FF820F"/>
<path opacity="0.7" d="M24.8549 14.5801C24.8536 14.2697 24.8632 14.0438 24.85 13.8187C24.8172 13.2549 24.7562 12.6929 24.7406 12.1297C24.7282 11.6609 24.5949 11.2903 24.1948 11.0015C23.4812 10.488 22.7958 9.93337 22.0902 9.40897C20.6256 8.31873 19.1559 7.23665 17.6879 6.1527C17.6246 6.10539 17.5533 6.0719 17.4001 5.98304C17.2271 7.16182 17.2337 8.27544 17.2156 9.39374C17.1968 10.5201 17.0554 11.6442 16.9605 12.8533C17.6602 13.0653 18.3247 13.3174 19.0119 13.4646C20.6298 13.8106 22.2595 14.1087 23.8843 14.4238C24.1698 14.4788 24.4597 14.5169 24.8549 14.5801V14.5801Z" fill="#FFA02D"/>
<path opacity="0.7" d="M26.1272 10.613C26.3356 10.4652 26.394 10.3214 26.2471 10.0883C25.9469 9.61444 25.6596 9.13176 25.3802 8.64476C25.1608 8.26132 24.8452 7.99765 24.4291 7.87399C23.869 7.70617 23.2994 7.56976 22.7359 7.41536C22.5546 7.36506 22.3791 7.29851 22.1998 7.24205C21.0058 6.87241 19.8112 6.50371 18.6164 6.13484C18.5926 6.17363 18.57 6.2126 18.5462 6.25139C19.0146 6.62088 19.4798 6.99429 19.9511 7.35812C20.6303 7.88321 21.3027 8.41675 21.9974 8.91909C22.6939 9.42241 23.4149 9.8925 24.1257 10.3769C24.2128 10.4353 24.3071 10.4844 24.3897 10.5485C25.0015 11.021 25.5292 11.0369 26.1271 10.6125L26.1272 10.613Z" fill="#E84200"/>
<path opacity="0.9" d="M26.5135 8.3651C25.4077 7.98338 24.3703 7.43546 23.2247 7.13858C21.622 6.72261 20.0492 6.18677 18.4679 5.69044C17.9726 5.53475 17.49 5.33851 16.9617 5.14566C16.8991 5.31133 16.8087 5.44214 16.8071 5.57278C16.7981 6.72341 16.8446 7.87414 16.7952 9.02254C16.7557 9.94228 16.6297 10.8614 16.4943 11.7741C16.3872 12.5048 16.3297 13.1579 16.754 13.8697C17.3068 14.7998 17.6353 15.8602 18.1114 16.8395C18.5402 17.7231 19.0083 18.5928 19.5158 19.4342C19.7928 19.8935 20.1872 20.2825 20.5274 20.704C20.567 20.753 20.6265 20.8031 20.6337 20.8576C20.7089 21.4338 21.1336 21.4401 21.5822 21.5311C22.3815 21.6931 23.1629 21.9464 23.9469 22.1787C25.1947 22.5479 26.4388 22.9257 27.6813 23.3097C28.4239 23.5393 29.1614 23.7818 29.8975 24.0284C31.0922 24.4291 32.2849 24.8336 33.4758 25.2432C33.634 25.2971 33.7785 25.391 33.9327 25.4572C34.3296 25.6269 34.6833 25.4348 34.7649 25.0065C34.9389 24.0995 35.0786 23.1855 35.2891 22.2883C35.5253 21.287 35.8392 20.3046 36.0888 19.3054C36.1736 18.9687 36.2139 18.6045 36.1873 18.2585C36.153 17.8019 35.964 17.3515 35.9655 16.8992C35.9685 16.298 35.675 15.7566 35.6789 15.1836C35.684 14.4829 35.2974 14.1383 34.7853 13.7961C33.4084 12.8774 32.0415 11.9435 30.6877 10.9888C30.0205 10.5183 29.3957 9.98839 28.7449 9.49325C28.5461 9.34229 28.3364 9.19765 28.1128 9.08975C27.5869 8.83304 27.0642 8.55639 26.5126 8.3654L26.5135 8.3651ZM24.4291 7.87406C24.845 7.99803 25.1609 8.26187 25.3802 8.64483C25.6593 9.13166 25.9468 9.61451 26.2471 10.0884C26.394 10.3214 26.3356 10.4653 26.1272 10.6131C25.5293 11.0374 25.0016 11.0215 24.3898 10.5491C24.3069 10.4848 24.2126 10.4357 24.1258 10.3774C23.4149 9.89257 22.694 9.42295 21.9975 8.91963C21.3029 8.41729 20.6304 7.88375 19.9512 7.35866C19.4799 6.99483 19.0147 6.62142 18.5463 6.25193C18.5701 6.21314 18.5927 6.17418 18.6165 6.13539C19.811 6.50409 21.0056 6.87279 22.1999 7.2426C22.3792 7.29905 22.5548 7.3656 22.736 7.4159C23.2995 7.5703 23.8693 7.7064 24.4293 7.87454L24.4291 7.87406ZM34.0429 24.9019C34.0101 24.9396 33.9768 24.9767 33.9431 25.0139C33.0023 24.6812 32.0616 24.3494 31.1223 24.0139C30.9042 23.9361 30.696 23.8302 30.4763 23.7623C28.9116 23.2794 27.3471 22.799 25.7798 22.328C24.4374 21.9239 23.0959 21.5143 21.7431 21.1488C21.3365 21.0393 21.1066 20.8358 20.9242 20.4704C20.4938 19.606 20.0345 18.7564 19.563 17.9134C18.9522 16.8212 18.319 15.7427 17.6752 14.6225C17.8892 14.3638 18.0519 14.1994 18.1757 14.0089C18.3161 13.7913 18.5198 13.7714 18.7297 13.7991C19.0824 13.8438 19.4343 13.9057 19.7824 13.9825C20.7052 14.1851 21.6257 14.3945 22.5457 14.6096C22.9124 14.696 23.2681 14.8395 23.6385 14.8958C24.4077 15.0126 25.072 15.3413 25.6942 15.7908C26.5787 16.4298 27.4637 17.0703 28.3666 17.6846C29.393 18.3835 30.4448 19.0451 31.4717 19.7431C31.6673 19.8756 31.8499 20.0785 31.9514 20.2915C32.5839 21.6155 33.1936 22.9512 33.8069 24.2853C33.8989 24.4849 33.9642 24.6967 34.0422 24.9024L34.0429 24.9019ZM34.3317 24.3036C34.1928 24.1103 34.1055 24.0201 34.0536 23.9124C33.5827 22.9322 33.1085 21.9539 32.6591 20.9637C32.5442 20.7105 32.3435 20.4603 32.4719 20.1334C32.4969 20.0693 32.4041 19.9535 32.3581 19.8668C32.2461 19.6579 32.1284 19.4508 31.984 19.1907C33.1489 18.2963 34.2566 17.4458 35.399 16.5693C35.7537 17.673 35.7013 18.6951 35.4352 19.7168C35.2087 20.5881 34.9516 21.4519 34.7357 22.325C34.586 22.9301 34.4839 23.546 34.3315 24.3039L34.3317 24.3036ZM35.2117 15.8737C35.2291 16.2504 34.8614 16.3605 34.6096 16.5388C34.4949 16.6202 34.3783 16.7007 34.2285 16.8066C33.4902 16.19 32.767 15.5897 32.048 14.9836C31.1992 14.2692 30.3617 13.5419 29.5053 12.8359C28.9229 12.3552 28.3372 11.8716 27.7115 11.451C27.4126 11.2504 27.2171 11.0017 27.0602 10.7103C26.7369 10.107 26.4401 9.48981 26.0928 8.8005C27.3172 9.24864 28.4449 9.72125 29.4338 10.5061C30.2539 11.1568 31.1304 11.7382 31.9783 12.3538C32.9579 13.0651 33.9348 13.7793 34.9114 14.4947C34.9592 14.5303 35.0092 14.5895 35.0197 14.6445C35.0927 15.0537 35.1927 15.4614 35.2118 15.8734L35.2117 15.8737ZM33.2492 16.5798C33.4595 16.7615 33.631 16.9905 33.8381 17.217C33.0545 17.8093 32.3396 18.3494 31.5704 18.93C29.5399 17.5347 27.5416 16.1621 25.4792 14.7458C26.2844 13.8362 27.0453 12.9772 27.8743 12.04C28.1774 12.2556 28.4476 12.4177 28.6825 12.6206C29.1587 13.0297 29.6088 13.4712 30.0845 13.8813C31.1362 14.7851 32.2 15.6741 33.249 16.5801L33.2492 16.5798ZM27.0655 11.5814C27.2426 11.8086 27.2117 11.9955 27.0448 12.2005C26.6219 12.7194 26.2088 13.247 25.7774 13.7592C25.6669 13.8916 25.5046 13.9802 25.274 14.1615C25.2148 13.2556 25.1541 12.4695 25.1239 11.6817C25.1195 11.5764 25.2519 11.4102 25.3609 11.365C25.7778 11.1882 26.21 11.0502 26.6536 10.8904C26.8075 11.1531 26.9135 11.3849 27.0651 11.5812L27.0655 11.5814ZM24.85 13.8188C24.8632 14.0438 24.8534 14.2701 24.8548 14.5802C24.4597 14.5169 24.1698 14.4789 23.8843 14.4239C22.2597 14.1092 20.6298 13.8106 19.0119 13.4647C18.3249 13.3172 17.6602 13.0654 16.9605 12.8533C17.0557 11.6444 17.1968 10.5202 17.2156 9.39381C17.2337 8.27551 17.227 7.16189 17.4001 5.98311C17.5532 6.07229 17.6245 6.10578 17.6879 6.15277C19.156 7.23641 20.6256 8.3188 22.0902 9.40904C22.7956 9.93375 23.4812 10.4881 24.1948 11.0015C24.5949 11.2903 24.7282 11.661 24.7406 12.1298C24.7562 12.693 24.8173 13.2547 24.85 13.8188V13.8188ZM17.9308 13.6761C17.67 13.8925 17.5421 13.9994 17.3831 14.1314C17.2653 13.9338 17.1847 13.7992 17.0166 13.5183C17.377 13.5799 17.575 13.6141 17.9308 13.6761V13.6761Z" fill="#DB3500"/>
<path d="M17.3832 14.1313C17.5421 13.9993 17.6699 13.8927 17.9309 13.676C17.5752 13.6145 17.3769 13.5801 17.0167 13.5182C17.1847 13.7991 17.2655 13.9334 17.3832 14.1313V14.1313Z" fill="#FF820F"/>
<path d="M22.9772 21.0983C23.0499 21.1361 22.9912 21.249 22.9185 21.2112C22.8458 21.1734 22.9046 21.0605 22.9772 21.0983Z" fill="#FFD865"/>
<g clip-path="url(#clip2_915_1307)">
<path d="M43.6282 17.4158C43.8381 17.0743 43.8242 17.0042 43.6439 16.6392C43.5499 16.4494 43.4541 16.2607 43.3679 16.0673C43.2571 15.8191 43.1561 15.5667 43.0497 15.3164C42.9899 15.1755 42.9338 15.0312 42.8007 14.9275C42.7744 14.9372 42.7611 14.9386 42.7527 14.9458C42.467 15.1937 42.1817 15.4423 41.8969 15.6909C41.8834 15.7024 41.8729 15.7174 41.8615 15.7309C41.6784 15.9404 41.5029 16.1573 41.3095 16.3567C41.2056 16.464 41.1651 16.5802 41.1544 16.7214C41.1442 16.8568 41.1198 16.9909 41.105 17.1257C41.1006 17.1649 41.101 17.207 41.111 17.2445C41.1818 17.5078 41.288 17.7524 41.4295 17.9899C41.581 18.2448 41.7358 18.4942 41.9203 18.7259C41.9756 18.7949 42.0277 18.8669 42.0741 18.9423C42.2161 19.1739 42.3537 19.4085 42.4955 19.6404C42.5185 19.678 42.5546 19.7078 42.6002 19.7589C42.6275 19.6904 42.6481 19.6428 42.6657 19.5938C42.7357 19.3985 42.7942 19.1982 42.8761 19.0081C43.0075 18.703 43.1514 18.4035 43.2946 18.1037C43.4042 17.8738 43.4928 17.636 43.6284 17.4157L43.6282 17.4158ZM41.1664 19.1913C41.5444 19.4381 41.9601 19.5602 42.3928 19.7098C42.3769 19.6616 42.3742 19.6387 42.3631 19.6209C42.0859 19.1809 41.8002 18.7468 41.4976 18.3231C41.3336 18.0939 41.1211 17.963 40.8384 17.857C40.9524 18.3214 41.0603 18.7608 41.1664 19.1913V19.1913ZM42.8897 19.698C43.1312 19.5383 43.3717 19.3765 43.6108 19.2125C43.6534 19.1835 43.7243 19.1359 43.7191 19.1077C43.6986 18.9854 43.7997 18.9058 43.8049 18.791C43.8168 18.5153 43.8491 18.2404 43.8227 17.9637C43.8182 17.9172 43.8229 17.8695 43.8253 17.8224C43.8338 17.6423 43.8433 17.4618 43.8524 17.2816C43.838 17.2788 43.8234 17.2758 43.8092 17.273C43.4071 18.0722 42.9889 18.8644 42.7255 19.7657C42.8067 19.7329 42.8527 19.7225 42.8897 19.6978L42.8897 19.698ZM43.4606 19.443C43.1982 19.6126 42.9293 19.7733 42.6632 19.938C42.6385 19.9534 42.614 19.9692 42.5725 19.9953C42.3692 19.742 42.0795 19.6849 41.8033 19.6006C41.7585 19.587 41.7149 19.5689 41.671 19.5521C41.5386 19.5015 41.4086 19.4444 41.2737 19.4008C41.1305 19.3549 41.0387 19.2437 41.0111 19.0974C40.9687 18.871 40.9165 18.6462 40.861 18.4221C40.8085 18.2106 40.7513 17.9997 40.687 17.7915C40.6259 17.5928 40.6759 17.3931 40.664 17.1945C40.6528 17.0062 40.6293 16.8183 40.6063 16.6307C40.5851 16.4586 40.5932 16.3044 40.6862 16.1397C40.834 15.8776 40.9445 15.5936 41.0608 15.3148C41.1357 15.1353 41.1782 14.9412 41.2636 14.7674C41.3163 14.6596 41.4186 14.5747 41.5041 14.4847C41.785 14.1888 42.0664 13.8931 42.352 13.6014C42.5579 13.3917 42.5691 13.4035 42.7357 13.5998C42.9366 13.8361 43.179 14.0253 43.4179 14.2198C43.6054 14.3726 43.7809 14.5411 43.9549 14.7094C44.1676 14.9152 44.2253 15.1905 44.2603 15.4674C44.3341 16.0495 44.4612 16.6196 44.6278 17.1815C44.6496 17.2551 44.6628 17.3317 44.6852 17.4053C44.7002 17.4545 44.7183 17.5051 44.7469 17.5472C44.8208 17.656 44.8192 17.68 44.7437 17.7714C44.6956 17.8296 44.6528 17.895 44.6201 17.9635C44.5256 18.1612 44.433 18.3602 44.3482 18.5622C44.2939 18.6908 44.2598 18.8276 44.2073 18.9568C44.187 19.0069 44.1467 19.0781 44.105 19.0865C43.8497 19.1365 43.6673 19.3096 43.4605 19.4433L43.4606 19.443ZM40.8997 17.733C40.9868 17.7937 41.0886 17.8334 41.1956 17.8876C41.1872 17.7121 40.9465 17.1501 40.762 16.9275C40.7666 17.0675 40.7707 17.2079 40.7765 17.3481C40.7796 17.4245 40.7736 17.5043 40.7942 17.5762C40.8111 17.6348 40.8507 17.6989 40.8998 17.7331L40.8997 17.733ZM43.9076 19.0106C44.0909 18.9479 44.0702 18.9019 44.054 18.7591C44.0444 18.6779 44.0195 18.5979 44.0152 18.5166C44.0035 18.3047 44.0005 18.0927 43.9916 17.8809C43.9895 17.8318 43.9782 17.7831 43.9711 17.7343C43.9632 17.735 43.955 17.7355 43.947 17.7362C43.9339 18.1566 43.921 18.5771 43.9076 19.0106V19.0106ZM44.1445 18.675C44.1537 18.6777 44.1625 18.6805 44.1715 18.6835C44.1931 18.6454 44.218 18.6086 44.2352 18.5688C44.2681 18.4927 44.2942 18.4136 44.327 18.3371C44.4085 18.1473 44.4898 17.9573 44.5762 17.7697C44.6103 17.6957 44.6142 17.633 44.548 17.5794C44.3975 17.4572 44.2542 17.3243 44.0436 17.2268C44.0784 17.7268 44.1116 18.2008 44.1446 18.6749L44.1445 18.675ZM40.9808 16.923C41.0619 16.7913 41.1911 15.5067 41.18 15.3461C41.0442 15.6463 40.9016 15.9594 40.7604 16.2733C40.7485 16.2999 40.7288 16.3358 40.7375 16.357C40.8154 16.5451 40.842 16.7562 40.9808 16.923ZM44.1312 17.149C44.269 17.2213 44.3903 17.3244 44.5548 17.4387C44.5299 17.3015 44.5181 17.2036 44.4941 17.109C44.4014 16.7426 44.3028 16.3777 44.2104 16.0112C44.157 15.7989 44.1058 15.586 44.0629 15.3713C44.0321 15.216 43.9421 15.134 43.7913 15.1088C43.7505 15.1018 43.7092 15.0974 43.6683 15.0891C43.524 15.059 43.38 15.0272 43.2351 14.9974C43.1878 14.9875 43.1394 14.9823 43.0577 14.9699C43.1361 15.1419 43.2023 15.2783 43.2611 15.4176C43.4377 15.8357 43.6074 16.2567 43.7878 16.6732C43.8664 16.8545 43.9323 17.0452 44.131 17.1491L44.1312 17.149ZM41.2582 15.8163C41.2478 15.9353 41.2538 16.0557 41.2523 16.1724C41.7003 15.752 42.1397 15.3392 42.6076 14.8997C42.5019 14.902 42.4335 14.9025 42.3652 14.9054C42.1761 14.9137 41.9871 14.9217 41.7982 14.9326C41.6983 14.9384 41.598 14.9455 41.4991 14.9607C41.3714 14.9801 41.348 15.0052 41.333 15.1294C41.3057 15.3581 41.278 15.5869 41.2581 15.8162L41.2582 15.8163ZM41.5181 14.8317C41.9064 14.8169 42.2595 14.8033 42.6122 14.7899C42.6333 14.7369 42.673 14.6847 42.6709 14.6339C42.6645 14.484 42.6485 14.3333 42.6235 14.1852C42.6022 14.0583 42.5653 13.9336 42.5309 13.8092C42.519 13.7661 42.4932 13.7266 42.461 13.6581C42.3752 13.7537 42.3008 13.8279 42.2363 13.9096C42.1232 14.0538 42.0181 14.204 41.9055 14.3484C41.7845 14.5041 41.6588 14.6564 41.5182 14.8316L41.5181 14.8317ZM42.8478 14.6218C42.8668 14.7208 42.9452 14.7918 43.0504 14.8216C43.1297 14.844 43.2068 14.8751 43.2871 14.8943C43.4764 14.9401 43.6665 14.983 43.8572 15.022C43.8876 15.0284 43.9228 15.0099 43.9647 15.0009C43.955 14.9628 43.9561 14.9288 43.9398 14.9094C43.8378 14.7868 43.7407 14.6582 43.6252 14.5495C43.4495 14.3844 43.2593 14.2346 43.0772 14.0762C42.931 13.9488 42.7873 13.8185 42.6116 13.6618C42.631 13.7696 42.6356 13.8412 42.6569 13.9075C42.7319 14.1427 42.8011 14.3786 42.8477 14.6217L42.8478 14.6218Z" fill="#DB3500"/>
</g>
</g>
<g clip-path="url(#clip3_915_1307)">
<path d="M17.7874 45.2996L18.0784 46.1238L20.7759 44.5647L17.7874 45.2996Z" fill="url(#paint26_linear_915_1307)"/>
<path d="M18.4012 47.069L18.1418 46.2304L20.7759 44.5646L21.6347 44.1929L18.4012 47.069Z" fill="url(#paint27_linear_915_1307)"/>
<path d="M19.5829 49.1843L18.5454 47.2102L19.776 45.7981L21.6348 44.1929L19.5829 49.1843Z" fill="url(#paint28_linear_915_1307)"/>
<path d="M29.0931 37.7086C28.6377 38.3743 28.2054 38.6827 27.8337 38.8066C27.41 39.6769 26.7587 40.6712 25.7673 41.628C26.482 41.5012 27.7559 41.2274 27.9518 40.8873C28.4043 40.7605 29.2833 37.4319 29.0931 37.7086Z" fill="url(#paint29_linear_915_1307)"/>
<path d="M25.191 39.8066C25.8999 38.8498 26.508 37.7518 26.9288 36.5011C26.9086 35.6307 26.6521 32.6393 26.6521 32.6393C26.6521 32.6393 24.1189 30.6883 21.7932 30.1753C23.3898 32.0111 25.6578 36.0342 25.191 39.8066Z" fill="url(#paint30_linear_915_1307)"/>
<path d="M18.9373 44.7549C18.9373 44.7549 19.3321 41.9162 21.0756 40.3542C22.5656 39.1179 22.0987 38.2101 22.0987 38.2101C22.0987 38.2101 21.3552 39.4781 20.4618 39.5732C20.1822 39.602 19.9171 39.8614 19.6837 40.2793C19.1707 41.1871 19.0122 43.1093 18.9373 44.7549Z" fill="url(#paint31_linear_915_1307)"/>
<path d="M19.6317 40.3282C19.8651 39.9132 20.1793 39.6856 20.4588 39.6568C21.3551 39.5617 22.0467 38.259 22.0467 38.259C22.0467 38.259 21.3263 39.8009 19.3435 39.6769C19.1821 39.7144 18.7181 39.8527 18.6202 40.5357C18.5452 40.6683 19.6317 40.3282 19.6317 40.3282Z" fill="url(#paint32_linear_915_1307)"/>
<path d="M20.2341 44.1324L18.9343 44.7894C18.9343 44.7894 19.2773 42.1698 20.8883 40.5098C20.8652 40.4579 22.5079 39.406 22.0987 38.2072C22.1044 38.0544 22.8912 39.6942 20.8969 41.4666C19.9113 42.3427 20.2341 44.1324 20.2341 44.1324Z" fill="url(#paint33_linear_915_1307)"/>
<path d="M20.2341 44.1324C20.2341 44.1324 19.8076 42.4263 20.8941 41.4637C20.8941 41.4637 20.9056 42.3254 21.0209 42.7145C21.1736 43.2275 21.4762 43.3399 21.4762 43.3399L20.2341 44.1324Z" fill="url(#paint34_linear_915_1307)"/>
<path d="M21.7759 52.4005L19.894 49.8184L20.1332 47.68L21.6347 44.1929L21.7759 52.4005Z" fill="url(#paint35_linear_915_1307)"/>
<path d="M27.6185 41.5531C27.615 41.5565 27.615 41.56 27.6116 41.5634C27.615 41.56 27.6185 41.5565 27.6185 41.5531Z" fill="url(#paint36_linear_915_1307)"/>
<path d="M25.505 41.8759C25.162 42.1872 24.7816 42.4898 24.358 42.7837C24.4502 43.1699 24.2975 43.948 22.2715 44.8933C22.2715 44.8933 25.7701 44.4351 27.6117 41.5647C27.5194 41.6483 26.3551 41.997 25.505 41.8759Z" fill="url(#paint37_linear_915_1307)"/>
<path opacity="0.13" d="M26.6522 32.6422L29.0932 37.7086C29.0932 37.7086 28.2517 43.53 17.799 45.2851C17.7298 45.2851 26.4389 41.6309 26.6522 32.6422Z" fill="#141413"/>
<path d="M27.534 33.0082L28.6292 36.2244C28.6292 36.2244 28.1162 43.5127 17.799 45.2822C17.7298 45.2851 27.3208 41.9997 27.534 33.0082Z" fill="url(#paint38_linear_915_1307)"/>
<path opacity="0.8" d="M38.2787 39.1227C38.2414 40.0751 38.0059 40.4767 37.0885 40.7037C35.5246 41.0923 33.9423 41.4098 32.3578 41.7043C31.2847 41.9032 30.1946 42.0146 29.1115 42.1597C29.0061 42.174 28.8976 42.1458 28.6581 42.1263C28.3869 41.4193 28.0259 40.6906 27.8264 39.9188C27.5424 38.8168 27.3789 37.6804 27.1559 36.5605C27.0576 36.0685 27.158 35.7618 27.6726 35.5054C28.8234 34.9327 29.9154 34.242 31.0514 33.6356C31.286 33.5115 31.616 33.4753 31.8812 33.5202C32.2751 33.5886 32.6815 33.7081 33.027 33.9059C34.4892 34.7434 35.9309 35.6156 37.3799 36.4762C37.9625 36.8212 38.2945 37.3088 38.2731 38.0136C38.2616 38.3822 38.2947 38.7539 38.2787 39.1227V39.1227Z" fill="#FF820F"/>
<path opacity="0.8" d="M37.345 41.2775C37.2882 41.6595 37.3199 41.9051 37.2141 42.0527C37.0047 42.3464 36.7434 42.6148 36.4645 42.8456C34.2305 44.6992 31.9753 46.5273 29.7522 48.3913C28.7988 49.1887 27.9087 50.0617 26.973 50.8782C26.7642 51.0617 26.4872 51.2686 26.235 51.2781C25.5825 51.3011 24.9236 51.2346 24.2711 51.1704C24.1546 51.1595 24.0552 50.9905 23.8406 50.8C24.3572 49.7218 24.7947 48.5853 25.4186 47.5612C26.2575 46.1807 27.2489 44.8921 28.1575 43.5528C28.4213 43.1658 28.7076 42.9362 29.2066 42.876C30.2576 42.7475 31.2983 42.5427 32.339 42.3378C33.6261 42.0843 34.9076 41.7985 36.1937 41.5255C36.5111 41.4573 36.8305 41.3884 37.3451 41.2769L37.345 41.2775Z" fill="#F54F00"/>
<path opacity="0.8" d="M34.3324 33.1289C34.9064 33.6334 35.4729 34.1451 35.9611 34.7853C34.9236 34.218 33.8874 33.6536 32.8364 33.0792C32.7586 32.6184 32.6761 32.1322 32.5747 31.5503C33.448 31.8187 33.7614 32.6257 34.3318 33.1287L34.3324 33.1289Z" fill="#E84200"/>
<path opacity="0.8" d="M30.7664 30.8466C31.3961 31.0259 31.8363 31.4749 31.8594 32.3804C30.4782 33.1384 29.1044 33.9085 27.7145 34.6471C27.5037 34.7597 27.2035 34.8204 26.9805 34.7645C24.5406 34.1452 22.0242 33.7973 19.7141 32.7129C19.0069 32.3821 18.4833 31.6537 18.0784 30.3031C19.0765 29.7506 20.0655 29.151 21.1027 28.6554C21.4669 28.4806 21.9848 28.4424 22.378 28.5452C25.1839 29.2775 27.9784 30.0487 30.7667 30.8454L30.7664 30.8466Z" fill="#FFC24F"/>
<path opacity="0.8" d="M27.4972 41.5272C27.5257 41.6598 27.4617 41.8136 27.4302 42.0305C26.3066 41.9587 25.2469 41.6811 24.251 41.2688C22.0426 40.3592 19.8153 39.5328 17.4847 38.9784C16.5438 38.7546 15.6631 38.2823 14.5444 37.8403C16.229 36.4207 17.7489 35.1132 19.3111 33.8621C19.5412 33.6779 20.0014 33.6597 20.3188 33.7308C22.2506 34.1662 24.1712 34.6477 26.0872 35.1114C26.5891 37.3834 27.0493 39.4536 27.4968 41.5265L27.4972 41.5272Z" fill="#FFA02D"/>
<path opacity="0.8" d="M24.7918 52.1578C24.8495 52.1776 24.8865 52.259 25.003 52.386C24.2512 53.3592 23.3422 54.1365 22.3015 54.7628C22.2219 54.7018 22.1414 54.6419 22.0618 54.581C22.2842 53.9992 22.4862 53.4067 22.7357 52.8366C23.1233 51.9542 23.3065 51.8689 24.2602 52.0234C24.4403 52.0535 24.6183 52.1004 24.7912 52.1577L24.7918 52.1578Z" fill="#F54F00"/>
<path opacity="0.8" d="M27.4291 43.0122C26.2721 44.988 25.1434 46.7968 24.134 48.671C23.1431 50.5138 22.2705 52.4231 21.2316 54.5352C20.6618 53.0286 20.1734 51.7174 19.673 50.4085C19.1722 49.1013 18.7089 47.7789 18.1441 46.5018C17.5622 45.1924 16.8556 43.94 16.2463 42.6413C15.6591 41.3857 15.1258 40.1047 14.5702 38.8343C14.6134 38.7665 14.6554 38.701 14.6986 38.6332C18.9067 40.082 23.1154 41.5283 27.4285 43.0121L27.4291 43.0122Z" fill="#FF6500"/>
<path opacity="0.8" d="M20.2146 54.4078C20.1206 54.4671 20.0296 54.5246 19.936 54.5822C19.0507 53.3782 18.1591 52.1767 17.2807 50.968C16.1799 49.4586 14.9605 48.018 14.0298 46.4067C12.8931 44.4454 12 42.341 11.0112 40.293C10.4851 39.2061 9.97247 38.1136 9.45761 37.0198C9.38132 36.8583 9.32511 36.685 9.20068 36.3695C10.784 37.065 12.2818 37.6841 13.3961 38.8164C14.1175 39.549 14.5749 40.5826 15.0235 41.5417C15.8041 43.202 16.5032 44.9015 17.2068 46.5983C17.6124 47.5796 17.9549 48.5874 18.3368 49.5803C18.9574 51.1903 19.5874 52.7987 20.2142 54.407L20.2146 54.4078Z" fill="#F54F00"/>
<path opacity="0.8" d="M19.6155 28.214C19.6399 28.2924 19.6665 28.3694 19.6917 28.4473C18.8971 28.8624 18.1004 29.2782 17.2387 29.7284C16.8904 29.3529 16.5935 29.0335 16.1479 28.5543C17.4774 28.4232 18.5468 28.3184 19.6163 28.2135L19.6155 28.214Z" fill="#F54F00"/>
<path opacity="0.8" d="M15.1294 28.5695C16.4641 30.0419 17.9448 31.3482 18.8119 33.2545C17.5627 34.3286 16.3821 35.3141 15.2381 36.3432C14.827 36.7119 14.5192 36.7669 13.9815 36.5342C12.336 35.8217 10.6406 35.2235 8.97438 34.5573C7.91375 34.1332 7.10422 33.351 6.16534 32.5318C9.16941 31.1307 12.0119 29.6334 15.1293 28.5701L15.1294 28.5695Z" fill="#FF820F"/>
<path opacity="0.8" d="M13.5047 37.4483C12.6904 37.4206 11.5993 36.8961 10.5363 36.0655C11.7306 36.3429 12.6157 36.8996 13.5047 37.4483Z" fill="#FF820F"/>
<path opacity="0.8" d="M11.9168 44.2437C10.9855 43.1903 9.47893 42.6468 9.20797 41.0246C7.93088 39.0402 7.56374 36.7039 6.73518 34.5465C6.71134 34.4817 6.72513 34.401 6.72168 34.3284C7.75054 34.8916 7.85671 35.0482 8.12329 36.0247C8.22705 36.402 8.42222 36.7596 8.60519 37.1124C9.81444 39.4325 11.193 41.6691 11.9167 44.2443L11.9168 44.2437Z" fill="#E84200"/>
<path d="M27.4291 43.0123C23.116 41.5285 18.9073 40.0821 14.6992 38.6334C14.656 38.7012 14.614 38.7667 14.5708 38.8345C15.1257 40.1053 15.6597 41.3859 16.247 42.6414C16.8557 43.94 17.5628 45.1926 18.1447 46.502C18.7095 47.7791 19.1729 49.1015 19.6737 50.4086C20.1741 51.7176 20.6623 53.0294 21.2323 54.5354C22.2713 52.4227 23.1439 50.5134 24.1346 48.6712C25.1446 46.7971 26.2729 44.9876 27.4297 43.0124L27.4291 43.0123ZM8.74147 30.6629C10.6312 29.8656 12.4773 28.9668 14.3711 28.1763C14.9642 27.9299 15.6406 27.8479 16.2881 27.7666C17.9462 27.5605 19.6088 27.3959 21.2687 27.2191C21.4705 27.1992 21.7217 27.1382 21.8739 27.2283C23.4573 28.1656 25.2686 28.4038 26.9854 28.9239C28.4255 29.3602 29.8696 29.7777 31.3052 30.2245C31.5003 30.2852 31.6574 30.4656 31.8362 30.5852C31.9556 30.6635 32.1344 30.8229 32.1979 30.7869C33.0862 30.2823 33.3235 31.1376 33.765 31.5337C34.6106 32.2906 35.4583 33.0492 36.2729 33.8422C36.769 34.3259 37.2062 34.8711 37.6667 35.3917C37.7392 35.4741 37.7753 35.6066 37.864 35.6563C38.9201 36.2544 38.8549 37.2744 38.849 38.2761C38.8485 38.4967 38.7848 38.7442 38.8618 38.9341C39.2572 39.9265 38.9159 40.8124 38.5103 41.693C38.4203 41.886 38.3227 42.1023 38.1659 42.2337C37.0828 43.146 35.9778 44.0298 34.8913 44.94C32.6426 46.8228 30.3276 48.6345 28.1755 50.6241C26.3787 52.2885 24.5045 53.8489 22.609 55.3888C22.3241 55.6206 22.0151 55.8255 21.7038 56.0189C20.8601 56.542 20.4258 56.4613 19.8449 55.664C18.3528 53.6147 16.8764 51.5558 15.3745 49.5151C14.7023 48.6027 14.0165 47.6939 13.2688 46.8434C12.84 46.3554 12.24 46.0216 11.7792 45.558C10.6201 44.3924 9.3902 43.2744 8.40225 41.9732C7.83086 41.2236 7.49923 40.1787 7.37078 39.224C7.08416 37.1029 6.09564 35.2377 5.4863 33.2386C5.42584 33.0354 5.29602 32.8212 5.13527 32.6873C4.74108 32.354 4.91841 32.0505 5.11044 31.7179C6.4636 31.8472 7.58176 31.1513 8.74207 30.663L8.74147 30.6629ZM15.1288 28.5694C12.0114 29.6327 9.16895 31.13 6.16487 32.5311C7.10375 33.3504 7.91328 34.1325 8.97392 34.5566C10.6401 35.2228 12.3355 35.821 13.981 36.5335C14.5187 36.7662 14.8271 36.7113 15.2377 36.3425C16.3816 35.3134 17.5622 34.3279 18.8114 33.2538C17.9448 31.3482 16.4635 30.0418 15.129 28.5688L15.1288 28.5694ZM19.7142 32.7129C22.0243 33.7972 24.5412 34.1459 26.9807 34.7645C27.2036 34.8204 27.5039 34.7596 27.7147 34.6471C29.104 33.9077 30.4783 33.1384 31.8595 32.3803C31.8365 31.4743 31.397 31.0254 30.7665 30.8465C27.9782 30.0499 25.1837 29.2787 22.3778 28.5464C21.9846 28.4435 21.4667 28.4818 21.1025 28.6566C20.0655 29.1516 19.0763 29.7518 18.0783 30.3043C18.4832 31.6549 19.0074 32.3834 19.7139 32.7141L19.7142 32.7129ZM38.2784 39.122C38.2939 38.7524 38.2607 38.3813 38.2727 38.0129C38.2941 37.3081 37.9615 36.8203 37.3795 36.4755C35.9305 35.6149 34.4888 34.7426 33.0266 33.9052C32.6812 33.7074 32.2748 33.5879 31.8808 33.5195C31.6157 33.4746 31.2851 33.5106 31.051 33.6349C29.9151 34.2412 28.8229 34.9326 27.6722 35.5046C27.1582 35.7612 27.0573 36.0677 27.1556 36.5597C27.3785 37.6797 27.5422 38.8154 27.8261 39.9181C28.025 40.6897 28.3859 41.4184 28.6578 42.1256C28.8971 42.1457 29.0056 42.1739 29.1112 42.159C30.1942 42.0138 31.2844 41.9024 32.3575 41.7035C33.9418 41.4096 35.5243 41.0916 37.0882 40.7029C38.0055 40.476 38.2412 40.0738 38.2784 39.122V39.122ZM26.0872 35.1114C24.1718 34.6479 22.2507 34.1656 20.3188 33.7308C20.0013 33.6598 19.5412 33.678 19.3111 33.8622C17.7489 35.1132 16.229 36.4207 14.5444 37.8404C15.6631 38.2824 16.5438 38.7546 17.4846 38.9785C19.8153 39.5329 22.042 40.3591 24.251 41.2689C25.2463 41.681 26.3066 41.9588 27.4302 42.0306C27.4617 41.8137 27.5257 41.6598 27.4972 41.5272C27.0491 39.4542 26.5894 37.3848 26.0876 35.1122L26.0872 35.1114ZM37.2135 42.0526C37.3193 41.905 37.2876 41.6594 37.3444 41.2774C36.8292 41.3887 36.5102 41.4584 36.193 41.526C34.9069 41.799 33.6254 42.0848 32.3383 42.3384C31.2976 42.5432 30.2569 42.748 29.2059 42.8765C28.7069 42.9367 28.4206 43.1663 28.1568 43.5533C27.2481 44.8926 26.2574 46.1813 25.4179 47.5617C24.7935 48.585 24.3558 49.7221 23.8399 50.8005C24.055 50.9917 24.1538 51.16 24.2704 51.1709C24.9227 51.2357 25.5818 51.3016 26.2343 51.2786C26.4865 51.2691 26.7634 51.0623 26.9723 50.8787C27.9074 50.0621 28.7983 49.1886 29.7515 48.3918C31.9752 46.5279 34.2298 44.6997 36.4638 42.8461C36.7428 42.6147 37.0046 42.3471 37.2134 42.0532L37.2135 42.0526ZM35.9607 34.7845C35.4723 34.1449 34.906 33.6326 34.332 33.1281C33.7617 32.6245 33.4482 31.8181 32.5749 31.5497C32.6761 32.1322 32.7586 32.6185 32.8366 33.0786C33.8876 33.653 34.9238 34.2174 35.9613 34.7847L35.9607 34.7845ZM25.0027 52.3852C24.8862 52.2583 24.8486 52.1767 24.7915 52.1571C24.618 52.0997 24.44 52.0528 24.2605 52.0228C23.3068 51.8683 23.1237 51.9529 22.736 52.836C22.4867 53.4055 22.2846 53.998 22.0621 54.5804C22.1417 54.6413 22.2222 54.7012 22.3018 54.7621C23.3423 54.1365 24.2508 53.359 25.0033 52.3854L25.0027 52.3852ZM19.9355 54.5814C20.0291 54.5239 20.1201 54.4664 20.2141 54.407C19.5872 52.7993 18.9574 51.1903 18.3367 49.5803C17.9549 48.5874 17.6124 47.5796 17.2067 46.5983C16.5032 44.9015 15.8041 43.2019 15.0235 41.5417C14.575 40.582 14.1176 39.5484 13.396 38.8164C12.2816 37.6847 10.7839 37.065 9.20063 36.3695C9.32506 36.685 9.38128 36.8583 9.45756 37.0198C9.97242 38.1136 10.485 39.2061 11.0111 40.293C12.0007 42.3405 12.8932 44.4448 14.0297 46.4067C14.96 48.0172 16.1799 49.4586 17.2806 50.968C18.1592 52.176 19.0508 53.3776 19.9359 54.5821L19.9355 54.5814ZM19.6908 28.4477C19.6665 28.3694 19.6398 28.2924 19.6147 28.2144C18.5453 28.3193 17.4758 28.4242 16.1463 28.5552C16.5919 29.0344 16.8895 29.3534 17.2371 29.7293C18.0988 29.2792 18.8955 28.8633 19.6901 28.4482L19.6908 28.4477ZM10.5363 36.0654C11.5988 36.8953 12.6904 37.4206 13.5047 37.4483C12.6155 36.9002 11.7312 36.3431 10.5363 36.0654ZM9.20757 41.0238C9.47898 42.6468 10.9856 43.1903 11.9164 44.243C11.1928 41.6678 9.81433 39.4306 8.60494 37.1111C8.42197 36.7583 8.22619 36.4005 8.12304 36.0234C7.85646 35.0468 7.75029 34.8903 6.72142 34.327C6.72473 34.4003 6.71108 34.4804 6.73493 34.5452C7.56349 36.7026 7.93047 39.0394 9.20772 41.0232L9.20757 41.0238Z" fill="#DB3500"/>
</g>
<path opacity="0.8" d="M49.2605 5.31403C49.2477 5.64032 49.167 5.7779 48.8527 5.85566C48.317 5.9888 47.7749 6.09755 47.232 6.19845C46.8644 6.26659 46.4909 6.30475 46.1199 6.35449C46.0838 6.35937 46.0466 6.34971 45.9646 6.34305C45.8716 6.10082 45.748 5.85116 45.6796 5.58677C45.5823 5.20923 45.5263 4.81993 45.4499 4.43625C45.4163 4.2677 45.4506 4.16264 45.6269 4.07478C46.0212 3.87861 46.3953 3.64196 46.7845 3.43423C46.8649 3.39172 46.9779 3.37931 47.0687 3.3947C47.2037 3.41813 47.3429 3.45908 47.4613 3.52683C47.9622 3.81374 48.4561 4.11257 48.9525 4.40739C49.1521 4.52556 49.2659 4.69262 49.2585 4.93409C49.2546 5.06036 49.2659 5.18769 49.2605 5.31403V5.31403Z" fill="#FF820F"/>
<path opacity="0.8" d="M48.9403 6.05243C48.9208 6.1833 48.9317 6.26745 48.8954 6.31801C48.8237 6.41864 48.7342 6.51058 48.6386 6.58963C47.8733 7.22468 47.1007 7.85094 46.3391 8.48952C46.0125 8.76271 45.7075 9.0618 45.387 9.3415C45.3154 9.40439 45.2205 9.47525 45.1341 9.47851C44.9106 9.48638 44.6849 9.46361 44.4613 9.4416C44.4214 9.43787 44.3874 9.37997 44.3139 9.31472C44.4908 8.94533 44.6407 8.55598 44.8545 8.20516C45.1419 7.7322 45.4815 7.29076 45.7928 6.83192C45.8831 6.69933 45.9812 6.62067 46.1522 6.60007C46.5122 6.55603 46.8688 6.48586 47.2253 6.4157C47.6662 6.32882 48.1053 6.23094 48.5459 6.13739C48.6546 6.11404 48.764 6.09042 48.9403 6.05223L48.9403 6.05243Z" fill="#F54F00"/>
<path opacity="0.8" d="M47.9086 3.2609C48.1052 3.43373 48.2993 3.60902 48.4665 3.82836C48.1111 3.63402 47.7561 3.44066 47.396 3.24387C47.3694 3.08603 47.3411 2.91945 47.3064 2.72009C47.6056 2.81205 47.7129 3.08853 47.9084 3.26085L47.9086 3.2609Z" fill="#E84200"/>
<path opacity="0.8" d="M46.6866 2.47876C46.9024 2.5402 47.0531 2.69402 47.061 3.00422C46.5879 3.26392 46.1172 3.52774 45.6411 3.78078C45.5689 3.81933 45.466 3.84014 45.3896 3.821C44.5537 3.60883 43.6917 3.48963 42.9002 3.11814C42.658 3.0048 42.4786 2.75528 42.3399 2.29258C42.6818 2.10329 43.0206 1.89788 43.3759 1.7281C43.5007 1.6682 43.6781 1.65511 43.8129 1.69035C44.7741 1.94121 45.7315 2.20542 46.6867 2.47834L46.6866 2.47876Z" fill="#FFC24F"/>
<path opacity="0.8" d="M45.5666 6.13813C45.5764 6.18355 45.5545 6.23626 45.5437 6.31056C45.1588 6.28596 44.7957 6.19085 44.4545 6.04961C43.6979 5.73797 42.9349 5.45488 42.1365 5.26494C41.8141 5.18826 41.5124 5.02647 41.1292 4.87505C41.7063 4.3887 42.227 3.94077 42.7622 3.51218C42.841 3.44907 42.9986 3.44283 43.1074 3.46717C43.7692 3.61635 44.4272 3.78129 45.0836 3.94015C45.2555 4.71852 45.4132 5.42773 45.5665 6.13787L45.5666 6.13813Z" fill="#FFA02D"/>
<path opacity="0.8" d="M44.6397 9.77996C44.6594 9.78673 44.6721 9.81462 44.712 9.85812C44.4545 10.1915 44.143 10.4578 43.7865 10.6724C43.7592 10.6515 43.7317 10.631 43.7044 10.6101C43.7806 10.4108 43.8498 10.2078 43.9353 10.0125C44.0681 9.71019 44.1308 9.68099 44.4576 9.73392C44.5193 9.74423 44.5802 9.76031 44.6395 9.77991L44.6397 9.77996Z" fill="#F54F00"/>
<path opacity="0.8" d="M45.5433 6.64694C45.147 7.32381 44.7603 7.94348 44.4145 8.58557C44.075 9.21689 43.7761 9.87098 43.4202 10.5946C43.225 10.0784 43.0577 9.62922 42.8862 9.18079C42.7147 8.73298 42.5559 8.27993 42.3624 7.84242C42.1631 7.39383 41.921 6.96478 41.7123 6.51985C41.5111 6.08971 41.3284 5.65086 41.1381 5.21565C41.1529 5.19242 41.1672 5.16997 41.182 5.14674C42.6237 5.64307 44.0655 6.13856 45.5431 6.64689L45.5433 6.64694Z" fill="#FF6500"/>
<path opacity="0.8" d="M43.0716 10.5506C43.0394 10.571 43.0082 10.5907 42.9761 10.6104C42.6728 10.1979 42.3674 9.78629 42.0664 9.37222C41.6893 8.85512 41.2716 8.36158 40.9527 7.80957C40.5633 7.13766 40.2574 6.41673 39.9186 5.7151C39.7384 5.34276 39.5627 4.96847 39.3864 4.59377C39.3602 4.53844 39.341 4.47907 39.2983 4.37097C39.8407 4.60925 40.3539 4.82132 40.7356 5.20924C40.9828 5.46022 41.1395 5.81434 41.2932 6.1429C41.5606 6.71168 41.8001 7.29392 42.0411 7.87521C42.1801 8.21141 42.2974 8.55667 42.4282 8.89682C42.6409 9.44839 42.8567 9.99941 43.0714 10.5504L43.0716 10.5506Z" fill="#F54F00"/>
<path opacity="0.8" d="M42.8668 1.57723C42.8751 1.60408 42.8842 1.63046 42.8929 1.65715C42.6206 1.79936 42.3477 1.94184 42.0525 2.09606C41.9332 1.96742 41.8315 1.858 41.6788 1.69383C42.1343 1.64892 42.5006 1.613 42.867 1.57708L42.8668 1.57723Z" fill="#F54F00"/>
<path opacity="0.8" d="M41.3293 1.69887C41.7865 2.20329 42.2938 2.65081 42.5908 3.30389C42.1629 3.67186 41.7584 4.00949 41.3665 4.36203C41.2257 4.48834 41.1202 4.50721 40.936 4.42747C40.3723 4.18338 39.7915 3.97844 39.2206 3.75021C38.8573 3.60492 38.5799 3.33697 38.2583 3.05632C39.2874 2.57631 40.2612 2.06334 41.3292 1.69908L41.3293 1.69887Z" fill="#FF820F"/>
<path opacity="0.8" d="M40.7725 4.74068C40.4936 4.73118 40.1197 4.5515 39.7556 4.26694C40.1647 4.362 40.468 4.55272 40.7725 4.74068Z" fill="#FF820F"/>
<path opacity="0.8" d="M40.229 7.06875C39.91 6.70787 39.3938 6.52165 39.301 5.9659C38.8635 5.28608 38.7377 4.4857 38.4538 3.7466C38.4457 3.72441 38.4504 3.69677 38.4492 3.67188C38.8017 3.86484 38.8381 3.91847 38.9294 4.25303C38.9649 4.38227 39.0318 4.5048 39.0945 4.62566C39.5088 5.42049 39.981 6.18673 40.2289 7.06896L40.229 7.06875Z" fill="#E84200"/>
<path d="M45.5435 6.64684C44.0659 6.13851 42.6241 5.64302 41.1824 5.14669C41.1676 5.16992 41.1533 5.19237 41.1385 5.2156C41.3286 5.65096 41.5115 6.08966 41.7127 6.5198C41.9212 6.96468 42.1635 7.39378 42.3628 7.84237C42.5563 8.27989 42.7151 8.73293 42.8866 9.18074C43.0581 9.62917 43.2253 10.0786 43.4206 10.5945C43.7765 9.87072 44.0755 9.21663 44.4149 8.58553C44.7609 7.94349 45.1474 7.32356 45.5437 6.64689L45.5435 6.64684ZM39.1414 2.4161C39.7888 2.14298 40.4212 1.83504 41.07 1.56423C41.2732 1.47981 41.505 1.45173 41.7268 1.42389C42.2948 1.35327 42.8644 1.29687 43.4331 1.23629C43.5022 1.22951 43.5883 1.20859 43.6404 1.23945C44.1829 1.56057 44.8034 1.64218 45.3915 1.82034C45.8849 1.96984 46.3796 2.11285 46.8715 2.26594C46.9383 2.28672 46.9921 2.34853 47.0534 2.3895C47.0943 2.41632 47.1555 2.47091 47.1773 2.4586C47.4816 2.28571 47.5629 2.57873 47.7141 2.71443C48.0038 2.97372 48.2942 3.23363 48.5733 3.5053C48.7433 3.67102 48.8931 3.85779 49.0508 4.03615C49.0756 4.06435 49.088 4.10976 49.1184 4.12678C49.4802 4.33167 49.4579 4.68114 49.4558 5.0243C49.4557 5.09985 49.4338 5.18466 49.4602 5.24972C49.5957 5.58968 49.4788 5.89318 49.3398 6.19487C49.309 6.26101 49.2755 6.3351 49.2218 6.38011C48.8508 6.69264 48.4722 6.99545 48.1 7.30726C47.3296 7.95229 46.5365 8.57293 45.7993 9.25454C45.1837 9.82475 44.5416 10.3593 43.8923 10.8869C43.7946 10.9663 43.6888 11.0365 43.5821 11.1027C43.2931 11.282 43.1443 11.2543 42.9453 10.9811C42.4341 10.2791 41.9283 9.57374 41.4138 8.87463C41.1835 8.56203 40.9486 8.25072 40.6924 7.95933C40.5455 7.79216 40.34 7.67782 40.1821 7.51898C39.785 7.11965 39.3636 6.73664 39.0252 6.29086C38.8294 6.03408 38.7158 5.67611 38.6718 5.34905C38.5736 4.62236 38.235 3.98339 38.0262 3.2985C38.0055 3.22889 37.961 3.1555 37.906 3.10965C37.7709 2.99545 37.8317 2.8915 37.8975 2.77756C38.361 2.82185 38.7441 2.58341 39.1416 2.41615L39.1414 2.4161ZM41.3296 1.6989C40.2617 2.06317 39.2878 2.57613 38.2587 3.05614C38.5803 3.3368 38.8577 3.60475 39.221 3.75003C39.7919 3.97826 40.3727 4.18321 40.9364 4.4273C41.1206 4.50704 41.2263 4.48822 41.3669 4.36185C41.7588 4.00932 42.1633 3.67169 42.5912 3.30371C42.2944 2.6509 41.7869 2.20332 41.3297 1.6987L41.3296 1.6989ZM42.9005 3.1184C43.6919 3.48989 44.5542 3.60934 45.3899 3.82126C45.4663 3.8404 45.5692 3.81959 45.6414 3.78104C46.1173 3.52774 46.5882 3.26418 47.0613 3.00448C47.0535 2.69408 46.9029 2.5403 46.6869 2.47902C45.7317 2.20609 44.7743 1.94189 43.813 1.69103C43.6783 1.65579 43.5009 1.66888 43.3761 1.72877C43.0209 1.89835 42.682 2.10397 42.3401 2.29325C42.4788 2.75595 42.6584 3.00552 42.9004 3.11881L42.9005 3.1184ZM49.2604 5.31407C49.2657 5.18747 49.2543 5.06035 49.2584 4.93412C49.2658 4.69265 49.1518 4.52555 48.9524 4.40742C48.456 4.1126 47.9621 3.81377 47.4612 3.52687C47.3428 3.45912 47.2036 3.41817 47.0686 3.39474C46.9778 3.37935 46.8645 3.39171 46.7844 3.43427C46.3952 3.642 46.021 3.87885 45.6268 4.07482C45.4507 4.16272 45.4162 4.26773 45.4498 4.43629C45.5262 4.81997 45.5823 5.20906 45.6795 5.5868C45.7477 5.85115 45.8713 6.10081 45.9645 6.34308C46.0464 6.34995 46.0836 6.35961 46.1198 6.35452C46.4908 6.30478 46.8643 6.26662 47.2319 6.19848C47.7747 6.0978 48.3168 5.98883 48.8526 5.85569C49.1669 5.77793 49.2476 5.64014 49.2604 5.31407V5.31407ZM45.0838 3.94011C44.4276 3.78131 43.7695 3.6161 43.1076 3.46714C42.9989 3.4428 42.8412 3.44903 42.7624 3.51214C42.2272 3.94073 41.7065 4.38867 41.1294 4.87501C41.5127 5.02644 41.8144 5.18823 42.1367 5.26491C42.9352 5.45484 43.698 5.73789 44.4547 6.04957C44.7957 6.19076 45.159 6.28592 45.5439 6.31052C45.5547 6.23622 45.5766 6.18352 45.5669 6.13809C45.4134 5.4279 45.2559 4.71895 45.084 3.94037L45.0838 3.94011ZM48.8955 6.31807C48.9318 6.26752 48.9209 6.18337 48.9404 6.0525C48.7639 6.09064 48.6546 6.11452 48.5459 6.13766C48.1053 6.23121 47.6663 6.32909 47.2254 6.41597C46.8688 6.48613 46.5123 6.5563 46.1522 6.60034C45.9813 6.62094 45.8832 6.6996 45.7928 6.83219C45.4815 7.29103 45.1421 7.73252 44.8545 8.20543C44.6406 8.556 44.4907 8.94555 44.3139 9.31499C44.3876 9.3805 44.4215 9.43814 44.4614 9.44187C44.6849 9.46409 44.9107 9.48665 45.1342 9.47878C45.2206 9.47552 45.3155 9.40466 45.387 9.34177C45.7074 9.06202 46.0126 8.76277 46.3392 8.48979C47.101 7.85126 47.8734 7.22495 48.6387 6.5899C48.7343 6.51064 48.824 6.41896 48.8955 6.31828L48.8955 6.31807ZM48.4663 3.82813C48.299 3.609 48.105 3.4335 47.9084 3.26067C47.713 3.08814 47.6056 2.81187 47.3064 2.71991C47.3411 2.91947 47.3694 3.08606 47.3961 3.24369C47.7561 3.44048 48.1111 3.63384 48.4665 3.82818L48.4663 3.82813ZM44.7123 9.85789C44.6724 9.81439 44.6595 9.78644 44.6399 9.77973C44.5805 9.76007 44.5195 9.744 44.458 9.73373C44.1313 9.68081 44.0686 9.7098 43.9358 10.0123C43.8503 10.2074 43.7811 10.4104 43.7049 10.6099C43.7321 10.6308 43.7597 10.6513 43.787 10.6722C44.1435 10.4579 44.4547 10.1915 44.7125 9.85794L44.7123 9.85789ZM42.9763 10.6103C43.0084 10.5906 43.0396 10.5709 43.0718 10.5505C42.857 9.99976 42.6412 9.44853 42.4286 8.89697C42.2978 8.55681 42.1805 8.21156 42.0415 7.87535C41.8005 7.29406 41.561 6.71182 41.2935 6.14304C41.1399 5.81427 40.9832 5.46016 40.736 5.20939C40.3542 4.82167 39.8411 4.60939 39.2987 4.37111C39.3413 4.47921 39.3606 4.53858 39.3867 4.59391C39.5631 4.96861 39.7387 5.3429 39.9189 5.71524C40.258 6.41671 40.5637 7.13759 40.9531 7.80972C41.2718 8.36147 41.6897 8.85526 42.0668 9.37236C42.3678 9.78623 42.6732 10.1979 42.9765 10.6105L42.9763 10.6103ZM42.8925 1.65722C42.8842 1.63037 42.875 1.60399 42.8664 1.5773C42.5001 1.61322 42.1337 1.64915 41.6782 1.69405C41.8309 1.85822 41.9328 1.96749 42.0519 2.09628C42.3471 1.94206 42.62 1.79959 42.8923 1.65738L42.8925 1.65722ZM39.7563 4.26695C40.1203 4.55126 40.4943 4.73119 40.7732 4.74069C40.4686 4.55294 40.1656 4.36206 39.7563 4.26695ZM39.3011 5.96562C39.3941 6.52164 39.9102 6.70785 40.2291 7.06848C39.9812 6.18624 39.5089 5.4198 39.0946 4.62518C39.0319 4.50432 38.9649 4.38173 38.9295 4.25255C38.8382 3.91799 38.8018 3.86436 38.4494 3.67139C38.4505 3.69649 38.4458 3.72393 38.454 3.74612C38.7378 4.48522 38.8636 5.2858 39.3011 5.96542L39.3011 5.96562Z" fill="#DB3500"/>
<defs>
<linearGradient id="paint0_linear_915_1307" x1="46.8532" y1="27.3684" x2="48.9575" y2="27.3684" gradientUnits="userSpaceOnUse">
<stop stop-color="#FBB040"/>
<stop offset="0.9985" stop-color="#F9ED32"/>
</linearGradient>
<linearGradient id="paint1_linear_915_1307" x1="47.1529" y1="27.4533" x2="49.4625" y2="27.6643" gradientUnits="userSpaceOnUse">
<stop stop-color="#FBB040"/>
<stop offset="0.9985" stop-color="#F9ED32"/>
</linearGradient>
<linearGradient id="paint2_linear_915_1307" x1="47.4333" y1="28.1861" x2="49.3982" y2="28.3656" gradientUnits="userSpaceOnUse">
<stop stop-color="#FBB040"/>
<stop offset="0.9985" stop-color="#F9ED32"/>
</linearGradient>
<linearGradient id="paint3_linear_915_1307" x1="52.5348" y1="23.3674" x2="55.2173" y2="23.3674" gradientUnits="userSpaceOnUse">
<stop offset="0.192" stop-color="#FBB040"/>
<stop offset="0.9985" stop-color="#F9ED32"/>
</linearGradient>
<linearGradient id="paint4_linear_915_1307" x1="53.441" y1="22.8467" x2="50.7966" y2="17.0182" gradientUnits="userSpaceOnUse">
<stop stop-color="#FBB040"/>
<stop offset="0.9985" stop-color="#F9ED32"/>
</linearGradient>
<linearGradient id="paint5_linear_915_1307" x1="49.3319" y1="24.6486" x2="51.6064" y2="24.6486" gradientUnits="userSpaceOnUse">
<stop stop-color="#F0A321"/>
<stop offset="1" stop-color="#F0582E"/>
</linearGradient>
<linearGradient id="paint6_linear_915_1307" x1="47.4376" y1="23.1925" x2="49.8521" y2="23.1925" gradientUnits="userSpaceOnUse">
<stop stop-color="#F0A321"/>
<stop offset="1" stop-color="#F0582E"/>
</linearGradient>
<linearGradient id="paint7_linear_915_1307" x1="47.9463" y1="24.0812" x2="50.0629" y2="25.55" gradientUnits="userSpaceOnUse">
<stop stop-color="#F0A321"/>
<stop offset="1" stop-color="#F0582E"/>
</linearGradient>
<linearGradient id="paint8_linear_915_1307" x1="50.4698" y1="27.2754" x2="48.8778" y2="25.6473" gradientUnits="userSpaceOnUse">
<stop stop-color="#F0A321"/>
<stop offset="1" stop-color="#F0582E"/>
</linearGradient>
<linearGradient id="paint9_linear_915_1307" x1="48.4448" y1="29.3405" x2="49.9233" y2="29.4756" gradientUnits="userSpaceOnUse">
<stop stop-color="#FBB040"/>
<stop offset="0.9985" stop-color="#F9ED32"/>
</linearGradient>
<linearGradient id="paint10_linear_915_1307" x1="53.7703" y1="24.7041" x2="53.7754" y2="24.7041" gradientUnits="userSpaceOnUse">
<stop stop-color="#FBB040"/>
<stop offset="0.9985" stop-color="#F9ED32"/>
</linearGradient>
<linearGradient id="paint11_linear_915_1307" x1="50.0119" y1="25.8783" x2="53.7702" y2="25.8783" gradientUnits="userSpaceOnUse">
<stop offset="0.5015" stop-color="#FBB040"/>
<stop offset="0.9985" stop-color="#F9ED32"/>
</linearGradient>
<linearGradient id="paint12_linear_915_1307" x1="47.8766" y1="26.5897" x2="53.9479" y2="20.9232" gradientUnits="userSpaceOnUse">
<stop offset="0.7201" stop-color="#FBB040"/>
<stop offset="1" stop-color="#F9ED32"/>
</linearGradient>
<linearGradient id="paint13_linear_915_1307" x1="28.5467" y1="21.0115" x2="29.0191" y2="18.961" gradientUnits="userSpaceOnUse">
<stop stop-color="#FBB040"/>
<stop offset="0.9985" stop-color="#F9ED32"/>
</linearGradient>
<linearGradient id="paint14_linear_915_1307" x1="28.6966" y1="20.7389" x2="29.4208" y2="18.5356" gradientUnits="userSpaceOnUse">
<stop stop-color="#FBB040"/>
<stop offset="0.9985" stop-color="#F9ED32"/>
</linearGradient>
<linearGradient id="paint15_linear_915_1307" x1="29.4737" y1="20.6298" x2="30.0898" y2="18.7554" gradientUnits="userSpaceOnUse">
<stop stop-color="#FBB040"/>
<stop offset="0.9985" stop-color="#F9ED32"/>
</linearGradient>
<linearGradient id="paint16_linear_915_1307" x1="25.9239" y1="14.5764" x2="26.5261" y2="11.9624" gradientUnits="userSpaceOnUse">
<stop offset="0.192" stop-color="#FBB040"/>
<stop offset="0.9985" stop-color="#F9ED32"/>
</linearGradient>
<linearGradient id="paint17_linear_915_1307" x1="25.6194" y1="13.5768" x2="19.346" y2="14.8453" gradientUnits="userSpaceOnUse">
<stop stop-color="#FBB040"/>
<stop offset="0.9985" stop-color="#F9ED32"/>
</linearGradient>
<linearGradient id="paint18_linear_915_1307" x1="26.4535" y1="17.9858" x2="26.9642" y2="15.7693" gradientUnits="userSpaceOnUse">
<stop stop-color="#F0A321"/>
<stop offset="1" stop-color="#F0582E"/>
</linearGradient>
<linearGradient id="paint19_linear_915_1307" x1="24.6095" y1="19.5045" x2="25.1515" y2="17.1516" gradientUnits="userSpaceOnUse">
<stop stop-color="#F0A321"/>
<stop offset="1" stop-color="#F0582E"/>
</linearGradient>
<linearGradient id="paint20_linear_915_1307" x1="25.5897" y1="19.2083" x2="27.4962" y2="17.4755" gradientUnits="userSpaceOnUse">
<stop stop-color="#F0A321"/>
<stop offset="1" stop-color="#F0582E"/>
</linearGradient>
<linearGradient id="paint21_linear_915_1307" x1="29.2681" y1="17.4663" x2="27.3241" y2="18.6522" gradientUnits="userSpaceOnUse">
<stop stop-color="#F0A321"/>
<stop offset="1" stop-color="#F0582E"/>
</linearGradient>
<linearGradient id="paint22_linear_915_1307" x1="30.8258" y1="19.9035" x2="31.2893" y2="18.4931" gradientUnits="userSpaceOnUse">
<stop stop-color="#FBB040"/>
<stop offset="0.9985" stop-color="#F9ED32"/>
</linearGradient>
<linearGradient id="paint23_linear_915_1307" x1="27.5037" y1="13.6734" x2="27.5049" y2="13.6684" gradientUnits="userSpaceOnUse">
<stop stop-color="#FBB040"/>
<stop offset="0.9985" stop-color="#F9ED32"/>
</linearGradient>
<linearGradient id="paint24_linear_915_1307" x1="27.8038" y1="17.599" x2="28.6475" y2="13.9367" gradientUnits="userSpaceOnUse">
<stop offset="0.5015" stop-color="#FBB040"/>
<stop offset="0.9985" stop-color="#F9ED32"/>
</linearGradient>
<linearGradient id="paint25_linear_915_1307" x1="28.0182" y1="19.8397" x2="23.8593" y2="12.6512" gradientUnits="userSpaceOnUse">
<stop offset="0.7201" stop-color="#FBB040"/>
<stop offset="1" stop-color="#F9ED32"/>
</linearGradient>
<linearGradient id="paint26_linear_915_1307" x1="17.7859" y1="45.3442" x2="20.7753" y2="45.3442" gradientUnits="userSpaceOnUse">
<stop stop-color="#FBB040"/>
<stop offset="0.9985" stop-color="#F9ED32"/>
</linearGradient>
<linearGradient id="paint27_linear_915_1307" x1="18.2113" y1="45.4647" x2="21.4925" y2="45.7645" gradientUnits="userSpaceOnUse">
<stop stop-color="#FBB040"/>
<stop offset="0.9985" stop-color="#F9ED32"/>
</linearGradient>
<linearGradient id="paint28_linear_915_1307" x1="18.6101" y1="46.5058" x2="21.4016" y2="46.7608" gradientUnits="userSpaceOnUse">
<stop stop-color="#FBB040"/>
<stop offset="0.9985" stop-color="#F9ED32"/>
</linearGradient>
<linearGradient id="paint29_linear_915_1307" x1="25.858" y1="39.6604" x2="29.6689" y2="39.6604" gradientUnits="userSpaceOnUse">
<stop offset="0.192" stop-color="#FBB040"/>
<stop offset="0.9985" stop-color="#F9ED32"/>
</linearGradient>
<linearGradient id="paint30_linear_915_1307" x1="27.145" y1="38.9206" x2="23.3883" y2="30.6405" gradientUnits="userSpaceOnUse">
<stop stop-color="#FBB040"/>
<stop offset="0.9985" stop-color="#F9ED32"/>
</linearGradient>
<linearGradient id="paint31_linear_915_1307" x1="21.3069" y1="41.4806" x2="24.5383" y2="41.4806" gradientUnits="userSpaceOnUse">
<stop stop-color="#F0A321"/>
<stop offset="1" stop-color="#F0582E"/>
</linearGradient>
<linearGradient id="paint32_linear_915_1307" x1="18.6166" y1="39.4119" x2="22.0467" y2="39.4119" gradientUnits="userSpaceOnUse">
<stop stop-color="#F0A321"/>
<stop offset="1" stop-color="#F0582E"/>
</linearGradient>
<linearGradient id="paint33_linear_915_1307" x1="19.3391" y1="40.6746" x2="22.346" y2="42.7612" gradientUnits="userSpaceOnUse">
<stop stop-color="#F0A321"/>
<stop offset="1" stop-color="#F0582E"/>
</linearGradient>
<linearGradient id="paint34_linear_915_1307" x1="22.924" y1="45.2122" x2="20.6623" y2="42.8992" gradientUnits="userSpaceOnUse">
<stop stop-color="#F0A321"/>
<stop offset="1" stop-color="#F0582E"/>
</linearGradient>
<linearGradient id="paint35_linear_915_1307" x1="20.047" y1="48.1459" x2="22.1474" y2="48.3378" gradientUnits="userSpaceOnUse">
<stop stop-color="#FBB040"/>
<stop offset="0.9985" stop-color="#F9ED32"/>
</linearGradient>
<linearGradient id="paint36_linear_915_1307" x1="27.6119" y1="41.56" x2="27.6194" y2="41.56" gradientUnits="userSpaceOnUse">
<stop stop-color="#FBB040"/>
<stop offset="0.9985" stop-color="#F9ED32"/>
</linearGradient>
<linearGradient id="paint37_linear_915_1307" x1="22.2728" y1="43.2274" x2="27.612" y2="43.2274" gradientUnits="userSpaceOnUse">
<stop offset="0.5015" stop-color="#FBB040"/>
<stop offset="0.9985" stop-color="#F9ED32"/>
</linearGradient>
<linearGradient id="paint38_linear_915_1307" x1="19.2399" y1="44.2381" x2="27.865" y2="36.188" gradientUnits="userSpaceOnUse">
<stop offset="0.7201" stop-color="#FBB040"/>
<stop offset="1" stop-color="#F9ED32"/>
</linearGradient>
<clipPath id="clip0_915_1307">
<rect width="24.9936" height="14.1989" fill="white" transform="matrix(-0.250467 0.968125 0.968125 0.250467 47.5625 9.37415)"/>
</clipPath>
<clipPath id="clip1_915_1307">
<rect width="24.9936" height="14.1989" fill="white" transform="matrix(0.887185 0.461414 0.461414 -0.887185 11.1707 16.2806)"/>
</clipPath>
<clipPath id="clip2_915_1307">
<rect width="6.08007" height="4.39944" fill="white" transform="translate(45.9517 14.7974) rotate(111.757)"/>
</clipPath>
<clipPath id="clip3_915_1307">
<rect width="35.0532" height="28.587" fill="white" transform="translate(7.46509 23.2509) rotate(15.1379)"/>
</clipPath>
</defs>
</svg>
