<svg width="57" height="60" viewBox="0 0 57 60" fill="none" xmlns="http://www.w3.org/2000/svg">
<g clip-path="url(#clip0_916_2197)">
<path d="M15.9435 59.1891C15.7672 59.1932 15.5879 59.1586 15.2682 59.1312C12.9187 54.3689 10.8038 49.4146 7.7636 44.9521C6.44178 43.009 5.13123 41.0557 3.86885 39.076C2.5829 37.0597 1.36047 35.0068 -0.000282727 32.7893C1.39326 32.6074 2.07159 31.9925 2.65872 30.8502C4.10555 28.0413 5.04927 25.091 5.86388 22.0767C6.09647 21.2149 6.54938 20.7047 7.3066 20.1732C9.97688 18.2941 12.5457 16.2687 15.1217 14.2626C17.3196 12.5552 19.497 10.8215 21.6478 9.05821C24.5035 6.71976 27.3408 4.36199 30.1474 1.96358C30.6013 1.57435 30.8308 0.926978 31.3339 0.1292C31.6629 0.103793 32.1967 0.0570447 32.8617 0.00216578C32.9601 1.84671 34.3956 2.89246 35.3783 4.19025C38.5168 8.33666 41.7763 12.3875 44.9189 16.5309C47.1086 19.4192 49.2369 22.3603 51.2954 25.3471C52.5619 27.1845 53.6214 29.1592 54.8213 31.0433C55.3398 31.8574 55.9699 32.5982 56.556 33.3686C57.0878 34.0657 57.1985 34.6765 56.5776 35.4652C55.1676 37.267 53.8653 39.1543 52.5158 41.0059C51.1294 42.9033 49.6959 44.7692 48.3659 46.7042C46.9713 48.7255 45.6444 50.7947 44.3441 52.8781C43.6197 54.0397 43.2139 55.4625 42.2978 56.4238C41.0826 57.7033 39.5825 58.7654 38.0578 59.6871C37.4102 60.0784 36.3794 60.0347 35.5596 59.9188C29.0438 59.0093 22.4983 59.055 15.9455 59.1871L15.9435 59.1891ZM15.1309 56.182C15.2949 56.2023 15.4578 56.2196 15.6217 56.2389C16.3113 55.057 17.0563 53.9065 17.6741 52.6911C18.5707 50.9319 19.3761 49.1249 20.2235 47.3383C21.2113 45.26 21.1836 45.1747 19.1486 44.0893C18.9888 44.006 18.8402 43.8972 18.6865 43.8017C15.4066 41.7834 12.1297 39.7752 8.50341 38.3798C7.1611 37.8626 5.93765 37.0475 4.65477 36.3788C4.38938 36.2426 4.0953 36.1532 3.46718 35.9083C7.81893 42.698 12.3305 48.9542 15.1299 56.182L15.1309 56.182ZM16.4466 57.6149C16.5583 57.7653 16.67 57.9157 16.7837 58.0692C18.7654 58.0763 20.7471 58.0865 22.7288 58.0977C23.6397 58.1027 24.5486 58.0865 25.4575 58.12C28.968 58.2491 32.4775 58.432 35.991 58.5164C37.5127 58.556 37.5608 58.4747 37.8498 56.9096C38.2873 54.5498 38.6521 52.1728 39.066 49.8079C39.4708 47.503 39.9186 45.2072 40.2997 42.8972C40.4545 41.9643 40.4842 41.013 40.5856 39.9124C36.5403 39.953 33.0871 41.8474 29.342 42.4378C27.1513 42.7864 25.022 43.5242 23.0403 44.0405C20.782 48.6879 18.6107 53.1514 16.4445 57.6149L16.4466 57.6149ZM12.7086 38.5424C12.641 38.639 12.5754 38.7376 12.5088 38.8341C14.0059 39.6817 15.4967 40.5374 17.0009 41.3687C17.794 41.8037 18.582 42.2712 19.4212 42.5913C20.5576 43.0252 20.6805 42.887 20.8024 41.4825C18.1004 40.4998 15.4045 39.5191 12.7097 38.5414L12.7086 38.5424ZM4.05329 33.6796C6.55347 35.5282 16.3769 39.0455 21.4111 39.9337C21.5125 39.7925 21.6539 39.6624 21.7195 39.4998C23.4307 35.3381 25.1337 31.1724 26.8367 27.0057C27.7435 24.7882 28.6565 22.5727 29.5418 20.348C29.6935 19.9639 29.7621 19.5401 29.8092 19.1295C30.2027 15.4831 30.6075 11.8357 30.9599 8.18625C31.1126 6.61813 31.1485 5.03985 31.2571 3.12214C30.5163 3.76544 30.1043 4.11504 29.7017 4.47684C26.2772 7.56734 23.485 11.2229 20.4623 14.6731C19.3146 15.9852 18.331 17.4374 17.168 18.7342C15.883 20.1722 14.4003 21.4415 13.141 22.9019C10.0691 26.4569 7.0781 30.0819 4.05227 33.6816L4.05329 33.6796ZM6.60471 23.9518C5.73067 26.2963 4.96012 28.6774 4.08506 31.2202C10.3499 24.0585 17.0009 17.4059 22.6837 9.89969C20.9285 11.0186 19.2573 12.2178 17.6578 13.5034C14.8297 15.7789 12.1225 18.2169 9.20428 20.3704C7.88246 21.347 7.12728 22.5442 6.60471 23.9528L6.60471 23.9518ZM23.3088 38.4825C22.8005 39.7772 22.1161 41.0943 22.3917 42.8809C28.3429 41.5852 34.0431 39.891 40.2506 38.3412C38.067 35.1227 36.0566 32.3533 34.2706 29.4529C33.2224 27.7465 31.8873 27.5423 30.0746 27.6652C28.4372 27.773 27.5263 28.4589 26.9392 29.8695C25.7393 32.7456 24.438 35.58 23.3088 38.4825V38.4825ZM38.9052 57.3517C40.4258 56.5438 41.0672 55.622 41.0939 54.2897C41.1062 53.749 41.1236 53.2094 41.1195 52.6667C41.099 50.6951 41.4299 48.7073 40.7004 46.7255C40.1204 50.1595 39.5425 53.5905 38.9052 57.3527L38.9052 57.3517ZM42.3101 53.1453C42.4454 53.1911 42.5796 53.2378 42.7159 53.2856C44.6351 50.4197 46.4334 47.4664 48.5032 44.7174C50.7933 41.6726 53.8519 37.1603 54.1307 35.7477C50.4542 36.7945 46.8576 37.7965 43.2846 38.8799C42.8706 39.0069 42.4864 39.5516 42.2999 39.9917C42.1226 40.4022 42.1984 40.9338 42.2046 41.4104C42.2538 44.2743 42.3265 47.1402 42.3675 50.003C42.3819 51.0508 42.3306 52.0986 42.3091 53.1453L42.3101 53.1453ZM28.4475 25.9559L28.7262 26.3939C29.3092 26.2526 29.8953 26.1093 30.5726 25.9457C30.3349 25.2231 30.1628 24.7119 29.8881 23.8766C29.2785 24.7546 28.8645 25.3562 28.4475 25.9559V25.9559ZM38.6798 33.5901C39.7085 35.0729 40.7178 36.5699 41.7927 38.142C46.4529 36.8625 50.8456 35.7406 55.4392 34.2954C54.4063 32.9519 53.5405 31.8706 52.7258 30.7568C51.3733 28.9081 49.7103 27.2272 49.0166 25.0016C48.4028 23.0391 47.1353 21.5096 45.9938 19.8917C44.9169 18.3663 43.7488 16.9018 42.5581 15.4618C39.5538 11.8326 36.5157 8.22893 33.4827 4.62115C33.2306 4.32236 32.9119 4.08252 32.3904 3.59268C32.1916 5.64657 32.0174 7.40981 31.8493 9.17102C31.6126 11.6833 31.4139 14.1996 31.1311 16.7077C30.8216 19.4334 30.0172 22.2231 32.4877 24.466C32.6148 24.5818 32.6517 24.7892 32.7511 24.9426C33.6835 26.3502 34.6016 27.7679 35.5607 29.1592C36.5823 30.647 37.651 32.1074 38.6798 33.5891L38.6798 33.5901Z" fill="#DB3500"/>
<path d="M15.622 56.2389C15.4581 56.2196 15.2951 56.2013 15.1312 56.182C12.3318 48.9542 7.82021 42.698 3.46847 35.9083C4.09658 36.1532 4.39066 36.2426 4.65605 36.3788C5.93893 37.0475 7.16238 37.8626 8.50469 38.3798C12.132 39.7752 15.4078 41.7834 18.6878 43.8017C18.8415 43.8972 18.9901 44.006 19.1499 44.0893C21.1849 45.1747 21.2126 45.26 20.2248 47.3383C19.3764 49.1249 18.571 50.9329 17.6754 52.6911C17.0565 53.9055 16.3126 55.057 15.623 56.2389L15.622 56.2389Z" fill="#FF820F"/>
<path d="M16.7839 58.0681C16.6702 57.9157 16.5585 57.7643 16.4468 57.6139C18.613 53.1504 20.7842 48.6869 23.0426 44.0395C25.0243 43.5232 27.1535 42.7854 29.3443 42.4368C33.0894 41.8463 36.5425 39.952 40.5879 39.9113C40.4865 41.012 40.4567 41.9642 40.302 42.8961C39.9208 45.2061 39.472 47.5019 39.0683 49.8068C38.6533 52.1727 38.2896 54.5488 37.852 56.9086C37.5631 58.4736 37.5159 58.5549 35.9933 58.5153C32.4787 58.431 28.9692 58.248 25.4598 58.119C24.5509 58.0854 23.642 58.1017 22.7311 58.0966C20.7494 58.0854 18.7677 58.0742 16.786 58.0681L16.7839 58.0681Z" fill="#FFA02D"/>
<path d="M12.5092 38.833C12.5768 38.7365 12.6424 38.6379 12.709 38.5414C15.4028 39.519 18.0997 40.4987 20.8018 41.4825C20.6808 42.887 20.5579 43.0252 19.4205 42.5912C18.5813 42.2701 17.7944 41.8036 17.0003 41.3687C15.4971 40.5373 14.0052 39.6816 12.5081 38.8341L12.5092 38.833Z" fill="#F54F00"/>
<path d="M21.4113 39.9327C16.3771 39.0445 6.55263 35.5282 4.05348 33.6786C7.07931 30.0779 10.0713 26.4539 13.1422 22.8989C14.4016 21.4385 15.8842 20.1692 17.1692 18.7312C18.3322 17.4344 19.3158 15.9821 20.4635 14.6701C23.4862 11.2199 26.2784 7.56532 29.7029 4.4738C30.1056 4.11201 30.5175 3.76241 31.2583 3.11911C31.1497 5.03683 31.1128 6.61612 30.9612 8.18322C30.6087 11.8327 30.2039 15.4801 29.8105 19.1265C29.7633 19.5381 29.6947 19.9609 29.543 20.345C28.6567 22.5696 27.7447 24.7851 26.8379 27.0026C25.1349 31.1694 23.4319 35.3361 21.7207 39.4968C21.6552 39.6604 21.5137 39.7894 21.4123 39.9307L21.4113 39.9327Z" fill="#FF6500"/>
<path d="M4.08639 31.2191C4.96145 28.6764 5.732 26.2963 6.60604 23.9507C7.12964 22.5421 7.88379 21.346 9.20561 20.3683C12.1239 18.2148 14.83 15.7768 17.6591 13.5013C19.2596 12.2157 20.9298 11.0165 22.6851 9.89762C17.0023 17.4038 10.3512 24.0574 4.08639 31.2181L4.08639 31.2191Z" fill="#E84200"/>
<path d="M22.3928 42.881C22.1172 41.0944 22.8017 39.7763 23.3099 38.4825C24.4401 35.58 25.7404 32.7456 26.9403 29.8696C27.5264 28.459 28.4384 27.774 30.0758 27.6653C31.8894 27.5423 33.2235 27.7456 34.2718 29.4529C36.0578 32.3534 38.0682 35.1227 40.2517 38.3413C34.0443 39.8911 28.3441 41.5852 22.3928 42.881V42.881Z" fill="#FFC24F"/>
<path d="M41.094 54.2896C41.0673 55.622 40.4259 56.5437 38.9053 57.3517C39.5426 53.5894 40.1216 50.1595 40.7005 46.7245C41.4291 48.7072 41.0981 50.6941 41.1196 52.6656C41.1237 53.2083 41.1073 53.749 41.094 54.2886L41.094 54.2896Z" fill="#F54F00"/>
<path d="M42.717 53.2856C42.5808 53.2369 42.4455 53.1911 42.3113 53.1454C42.3318 52.0976 42.383 51.0508 42.3697 50.0031C42.3287 47.1402 42.2559 44.2743 42.2068 41.4104C42.1996 40.9338 42.1248 40.4033 42.302 39.9917C42.4875 39.5517 42.8718 39.0069 43.2867 38.8799C46.8597 37.7976 50.4563 36.7955 54.1328 35.7477C53.8541 37.1604 50.7955 41.6737 48.5054 44.7174C46.4355 47.4664 44.6362 50.4197 42.7181 53.2856L42.717 53.2856Z" fill="#FF820F"/>
<path d="M28.7275 26.3939L28.4488 25.9559C28.8669 25.3553 29.2798 24.7547 29.8895 23.8766C30.1641 24.712 30.3363 25.2232 30.574 25.9457C29.8967 26.1094 29.3106 26.2527 28.7275 26.3939V26.3939Z" fill="#F54F00"/>
<path d="M41.793 38.142C40.7181 36.5699 39.7088 35.0729 38.6801 33.5901C37.6513 32.1074 36.5826 30.648 35.561 29.1602C34.6019 27.7689 33.6838 26.3512 32.7513 24.9437C32.653 24.7902 32.6161 24.5839 32.488 24.467C30.0175 22.2241 30.8219 19.4344 31.1314 16.7088C31.4131 14.2006 31.6119 11.6843 31.8496 9.17204C32.0177 7.41083 32.1919 5.64759 32.3907 3.5937C32.9122 4.08253 33.2309 4.32338 33.483 4.62217C36.516 8.22995 39.5541 11.8337 42.5584 15.4628C43.7491 16.9018 44.9172 18.3663 45.9941 19.8928C47.1346 21.5107 48.4021 23.0402 49.0169 25.0026C49.7106 27.2282 51.3736 28.9092 52.7261 30.7578C53.5408 31.8716 54.4066 32.954 55.4395 34.2965C50.8449 35.7416 46.4532 36.8636 41.793 38.1431L41.793 38.142Z" fill="#F54F00"/>
<path d="M40.048 37.7649L40.5972 38.1643L41.0901 38.271L41.0337 38.6979L41.2827 39.2731L40.7335 38.8727L40.2396 38.7659L40.297 38.3401L40.048 37.7649Z" fill="#FFED7A"/>
<path d="M36.4677 35.9935L37.8479 36.9986L39.0867 37.2669L38.9443 38.339L39.5693 39.7842L38.1891 38.7791L36.9493 38.5108L37.0917 37.4386L36.4677 35.9935Z" fill="#FFED7A"/>
<path d="M38.1442 33.7799L38.4082 37.4289L42.1582 36.6963L38.2323 37.9126L40.625 41.415L38.1443 38.3522L35.6633 41.415L37.7925 38.3522L34.1301 36.6963L37.9684 37.7807L38.1442 33.7799Z" fill="white" fill-opacity="0.33"/>
<path d="M40.4487 34.3353L38.8528 37.6274L42.4667 38.8679L38.4587 37.9583L38.7795 42.1879L38.1626 38.295L34.4827 39.7071L37.858 38.1192L35.5142 34.8539L38.2961 37.7121L40.4487 34.3353Z" fill="white" fill-opacity="0.33"/>
<path d="M41.2392 34.942L38.8457 37.709L42.0154 39.8425L38.3794 37.9266L37.5946 42.095L38.0062 38.1752L34.0862 38.5866L37.7575 37.9265L36.3387 34.1658L38.286 37.6467L41.2392 34.942Z" fill="white" fill-opacity="0.33"/>
<path d="M39.3065 33.8361L38.4771 37.3995L42.2758 37.8112L38.1658 37.8092L39.4128 41.8635L37.9514 38.203L34.6741 40.3929L37.6155 38.0987L34.6085 35.4317L37.9528 37.605L39.3065 33.8361Z" fill="white" fill-opacity="0.33"/>
<path d="M41.3428 35.0496L38.8429 37.7208L41.9267 39.9768L38.3684 37.92L37.4212 42.0546L37.9858 38.1538L34.0527 38.4117L37.747 37.8956L36.4764 34.0824L38.286 37.6367L41.3428 35.0496Z" fill="white" fill-opacity="0.33"/>
<path d="M41.9181 35.8634L38.8119 37.7965L41.2068 40.7737L38.3021 37.8662L36.317 41.6147L37.872 37.993L34.0062 37.2241L37.7082 37.6817L37.4678 33.6696L38.2959 37.5712L41.9181 35.8634Z" fill="white" fill-opacity="0.33"/>
<path d="M37.622 28.6888L38.2341 37.1485L46.9278 35.4499L37.8264 38.2696L43.3733 46.3895L37.6222 39.2889L31.8707 46.3895L36.8068 39.2889L28.3162 35.4499L37.2145 37.9639L37.622 28.6888Z" fill="white" fill-opacity="0.63"/>
<path d="M42.9646 29.9764L39.2649 37.6087L47.6431 40.4845L38.3512 38.3758L39.095 48.1813L37.6647 39.1564L29.1335 42.43L36.9586 38.7487L31.525 31.1787L37.9742 37.805L42.9646 29.9764Z" fill="white" fill-opacity="0.63"/>
<path d="M44.7975 31.3829L39.2485 37.7976L46.5969 42.7439L38.1674 38.3021L36.348 47.966L37.3023 38.8784L28.2144 39.8324L36.7257 38.3019L33.4365 29.5835L37.9509 37.6532L44.7975 31.3829Z" fill="white" fill-opacity="0.63"/>
<path d="M40.3168 28.8192L38.394 37.0801L47.2004 38.0347L37.6723 38.0301L40.5631 47.4292L37.1751 38.943L29.5774 44.0197L36.3964 38.7013L29.4252 32.5181L37.1785 37.5566L40.3168 28.8192Z" fill="white" fill-opacity="0.63"/>
<path d="M45.0375 31.6325L39.2418 37.8252L46.3911 43.0552L38.1418 38.287L35.9458 47.8723L37.2548 38.8291L28.1366 39.4268L36.7013 38.2304L33.7556 29.3901L37.9509 37.6302L45.0375 31.6325Z" fill="white" fill-opacity="0.63"/>
<path d="M46.3712 33.519L39.1702 38.0006L44.7223 44.9028L37.9882 38.162L33.3861 46.8523L36.9911 38.456L28.0289 36.6734L36.6114 37.7345L36.0541 28.433L37.9738 37.4781L46.3712 33.519Z" fill="white" fill-opacity="0.63"/>
<path d="M4.20348 29.6033L4.46752 33.2523L8.21751 32.5196L4.29167 33.7359L6.68429 37.2384L4.20358 34.1756L1.72268 37.2384L3.85186 34.1756L0.189453 32.5196L4.02772 33.604L4.20348 29.6033Z" fill="white" fill-opacity="0.33"/>
<path d="M6.50799 30.1586L4.91214 33.4508L8.52606 34.6913L4.51803 33.7817L4.83886 38.0113L4.22193 34.1184L0.541979 35.5304L3.91733 33.9425L1.57356 30.6773L4.3554 33.5355L6.50799 30.1586Z" fill="white" fill-opacity="0.33"/>
<path d="M7.29855 30.7653L4.905 33.5323L8.07472 35.6659L4.43868 33.7499L3.65389 37.9184L4.06552 33.9985L0.145499 34.41L3.81682 33.7498L2.39802 29.9892L4.34531 33.47L7.29855 30.7653Z" fill="white" fill-opacity="0.33"/>
<path d="M5.36588 29.6595L4.53646 33.2228L8.3351 33.6346L4.22516 33.6326L5.47211 37.6869L4.01072 34.0264L0.733461 36.2162L3.67481 33.9221L0.667803 31.255L4.01217 33.4284L5.36588 29.6595Z" fill="white" fill-opacity="0.33"/>
<path d="M7.40215 30.873L4.90219 33.5442L7.98603 35.8001L4.42772 33.7434L3.48048 37.878L4.04512 33.9772L0.112006 34.2351L3.80634 33.719L2.53574 29.9057L4.34537 33.4601L7.40215 30.873Z" fill="white" fill-opacity="0.33"/>
<path d="M7.97741 31.6867L4.87127 33.6199L7.26616 36.5971L4.36141 33.6895L2.37633 37.4381L3.93134 33.8163L0.065503 33.0474L3.76753 33.5051L3.52716 29.4929L4.3552 33.3945L7.97741 31.6867Z" fill="white" fill-opacity="0.33"/>
<path d="M31.6376 1.28992L31.9016 4.93896L35.6516 4.20628L31.7257 5.42257L34.1184 8.92506L31.6377 5.86221L29.1568 8.92506L31.2859 5.86221L27.6235 4.20628L31.4618 5.29067L31.6376 1.28992Z" fill="white" fill-opacity="0.33"/>
<path d="M33.9421 1.84527L32.3462 5.13745L35.9601 6.37793L31.9521 5.46834L32.2729 9.6979L31.656 5.80504L27.9761 7.21709L31.3514 5.62918L29.0076 2.3639L31.7895 5.22214L33.9421 1.84527Z" fill="white" fill-opacity="0.33"/>
<path d="M34.7326 2.45199L32.3391 5.21896L35.5088 7.35252L31.8728 5.43658L31.088 9.60505L31.4996 5.68516L27.5796 6.09666L31.2509 5.43646L29.8321 1.67583L31.7794 5.15667L34.7326 2.45199Z" fill="white" fill-opacity="0.33"/>
<path d="M32.8 1.34615L31.9705 4.90947L35.7692 5.32123L31.6592 5.31923L32.9062 9.37351L31.4448 5.713L28.1675 7.90286L31.1089 5.60875L28.1019 2.94168L31.4463 5.11502L32.8 1.34615Z" fill="white" fill-opacity="0.33"/>
<path d="M34.8362 2.55963L32.3363 5.23085L35.4201 7.48677L31.8618 5.43006L30.9146 9.56464L31.4792 5.66386L27.5461 5.9217L31.2404 5.40562L29.9698 1.59236L31.7795 5.14671L34.8362 2.55963Z" fill="white" fill-opacity="0.33"/>
<path d="M35.4115 3.37339L32.3054 5.30655L34.7002 8.28376L31.7955 5.37617L29.8104 9.12471L31.3654 5.50298L27.4996 4.73407L31.2016 5.19174L30.9612 1.17956L31.7893 5.08117L35.4115 3.37339Z" fill="white" fill-opacity="0.33"/>
<path d="M51.8614 30.8342L52.1255 34.4833L55.8755 33.7506L51.9496 34.9669L54.3422 38.4694L51.8615 35.4065L49.3806 38.4694L51.5098 35.4065L47.8474 33.7506L51.6857 34.835L51.8614 30.8342Z" fill="white" fill-opacity="0.33"/>
<path d="M54.1659 31.3896L52.5701 34.6818L56.184 35.9222L52.176 35.0127L52.4968 39.2422L51.8799 35.3494L48.1999 36.7614L51.5753 35.1735L49.2315 31.9082L52.0134 34.7665L54.1659 31.3896Z" fill="white" fill-opacity="0.33"/>
<path d="M54.9565 31.9963L52.563 34.7633L55.7327 36.8968L52.0966 34.9809L51.3118 39.1494L51.7235 35.2295L47.8035 35.641L51.4748 34.9808L50.056 31.2201L52.0033 34.701L54.9565 31.9963Z" fill="white" fill-opacity="0.33"/>
<path d="M53.0238 30.8905L52.1944 34.4538L55.9931 34.8655L51.8831 34.8635L53.1301 38.9178L51.6687 35.2573L48.3914 37.4472L51.3328 35.1531L48.3258 32.486L51.6701 34.6593L53.0238 30.8905Z" fill="white" fill-opacity="0.33"/>
<path d="M55.0601 32.1039L52.5602 34.7752L55.644 37.0311L52.0857 34.9744L51.1384 39.109L51.7031 35.2082L47.77 35.466L51.4643 34.9499L50.1937 31.1367L52.0033 34.691L55.0601 32.1039Z" fill="white" fill-opacity="0.33"/>
<path d="M55.6354 32.9177L52.5292 34.8509L54.9241 37.8281L52.0194 34.9205L50.0343 38.669L51.5893 35.0473L47.7235 34.2784L51.4255 34.736L51.1851 30.7239L52.0132 34.6255L55.6354 32.9177Z" fill="white" fill-opacity="0.33"/>
<path d="M17.3932 51.2339L17.6572 54.8829L21.4072 54.1502L17.4814 55.3665L19.874 58.869L17.3933 55.8062L14.9124 58.869L17.0416 55.8062L13.3792 54.1502L17.2174 55.2346L17.3932 51.2339Z" fill="white" fill-opacity="0.33"/>
<path d="M19.6977 51.7892L18.1018 55.0814L21.7158 56.3219L17.7077 55.4123L18.0286 59.6419L17.4116 55.749L13.7317 57.1611L17.107 55.5732L14.7633 52.3079L17.5451 55.1661L19.6977 51.7892Z" fill="white" fill-opacity="0.33"/>
<path d="M20.4882 52.396L18.0947 55.1629L21.2644 57.2965L17.6284 55.3805L16.8436 59.549L17.2552 55.6291L13.3352 56.0406L17.0065 55.3804L15.5877 51.6198L17.535 55.1006L20.4882 52.396Z" fill="white" fill-opacity="0.33"/>
<path d="M18.5556 51.2901L17.7262 54.8534L21.5248 55.2652L17.4149 55.2632L18.6618 59.3175L17.2004 55.657L13.9232 57.8468L16.8645 55.5527L13.8575 52.8857L17.2019 55.059L18.5556 51.2901Z" fill="white" fill-opacity="0.33"/>
<path d="M20.5918 52.5036L18.0919 55.1748L21.1757 57.4307L17.6174 55.374L16.6702 59.5086L17.2348 55.6078L13.3017 55.8657L16.996 55.3496L15.7254 51.5363L17.5351 55.0907L20.5918 52.5036Z" fill="white" fill-opacity="0.33"/>
<path d="M21.1671 53.3174L18.061 55.2505L20.4559 58.2277L17.5511 55.3201L15.566 59.0687L17.121 55.4469L13.2552 54.678L16.9572 55.1357L16.7169 51.1235L17.5449 55.0251L21.1671 53.3174Z" fill="white" fill-opacity="0.33"/>
<path d="M40.079 50.8822L40.343 54.5312L44.093 53.7986L40.1672 55.0149L42.5598 58.5173L40.0791 55.4545L37.5982 58.5173L39.7273 55.4545L36.0649 53.7986L39.9032 54.883L40.079 50.8822Z" fill="white" fill-opacity="0.33"/>
<path d="M42.3835 51.4376L40.7876 54.7297L44.4015 55.9702L40.3935 55.0606L40.7144 59.2902L40.0974 55.3973L36.4175 56.8094L39.7928 55.2215L37.449 51.9562L40.2309 54.8144L42.3835 51.4376Z" fill="white" fill-opacity="0.33"/>
<path d="M43.174 52.0443L40.7805 54.8112L43.9502 56.9448L40.3142 55.0289L39.5294 59.1973L39.941 55.2774L36.021 55.6889L39.6923 55.0287L38.2735 51.2681L40.2208 54.749L43.174 52.0443Z" fill="white" fill-opacity="0.33"/>
<path d="M41.2414 50.9384L40.4119 54.5018L44.2106 54.9135L40.1006 54.9115L41.3476 58.9658L39.8862 55.3053L36.6089 57.4951L39.5503 55.201L36.5433 52.534L39.8877 54.7073L41.2414 50.9384Z" fill="white" fill-opacity="0.33"/>
<path d="M43.2776 52.1519L40.7777 54.8231L43.8615 57.0791L40.3032 55.0223L39.356 59.1569L39.9206 55.2561L35.9875 55.514L39.6818 54.9979L38.4112 51.1846L40.2209 54.739L43.2776 52.1519Z" fill="white" fill-opacity="0.33"/>
<path d="M43.8529 52.9657L40.7468 54.8988L43.1416 57.876L40.2369 54.9685L38.2518 58.717L39.8068 55.0953L35.941 54.3264L39.643 54.784L39.4026 50.7718L40.2307 54.6735L43.8529 52.9657Z" fill="white" fill-opacity="0.33"/>
<path d="M20.7345 36.1101L20.9985 39.7591L24.7485 39.0265L20.8227 40.2428L23.2153 43.7452L20.7346 40.6824L18.2537 43.7452L20.3829 40.6824L16.7205 39.0265L20.5587 40.1109L20.7345 36.1101Z" fill="white" fill-opacity="0.33"/>
<path d="M23.039 36.6655L21.4431 39.9576L25.0571 41.1981L21.049 40.2885L21.3699 44.5181L20.7529 40.6252L17.073 42.0373L20.4483 40.4494L18.1046 37.1841L20.8864 40.0423L23.039 36.6655Z" fill="white" fill-opacity="0.33"/>
<path d="M23.8296 37.2722L21.436 40.0392L24.6057 42.1727L20.9697 40.2568L20.1849 44.4252L20.5965 40.5054L16.6765 40.9168L20.3478 40.2567L18.929 36.496L20.8763 39.9769L23.8296 37.2722Z" fill="white" fill-opacity="0.33"/>
<path d="M21.8969 36.1663L21.0675 39.7297L24.8661 40.1414L20.7562 40.1394L22.0031 44.1937L20.5417 40.5332L17.2645 42.7231L20.2058 40.4289L17.1988 37.7619L20.5432 39.9352L21.8969 36.1663Z" fill="white" fill-opacity="0.33"/>
<path d="M23.9332 37.3798L21.4332 40.051L24.517 42.307L20.9587 40.2502L20.0115 44.3848L20.5761 40.484L16.643 40.7419L20.3373 40.2258L19.0667 36.4126L20.8764 39.9669L23.9332 37.3798Z" fill="white" fill-opacity="0.33"/>
<path d="M24.5084 38.1936L21.4023 40.1267L23.7972 43.1039L20.8924 40.1964L18.9073 43.9449L20.4623 40.3232L16.5965 39.5543L20.2985 40.0119L20.0582 35.9998L20.8862 39.9014L24.5084 38.1936Z" fill="white" fill-opacity="0.33"/>
</g>
<defs>
<clipPath id="clip0_916_2197">
<rect width="57" height="60" fill="white" transform="translate(57 60) rotate(-180)"/>
</clipPath>
</defs>
</svg>
