<svg width="58" height="61" viewBox="0 0 58 61" fill="none" xmlns="http://www.w3.org/2000/svg">
<path d="M41.1615 1.29523C41.3377 1.29117 41.517 1.32572 41.8367 1.35316C44.1863 6.11544 46.3012 11.0698 49.3414 15.5323C50.6632 17.4754 51.9737 19.4287 53.2361 21.4084C54.5221 23.4247 55.7445 25.4776 57.1053 27.6951C55.7117 27.877 55.0334 28.4918 54.4463 29.6341C52.9994 32.4431 52.0557 35.3934 51.2411 38.4076C51.0085 39.2695 50.5556 39.7796 49.7984 40.3111C47.1281 42.1902 44.5593 44.2157 41.9833 46.2218C39.7854 47.9292 37.608 49.6629 35.4572 51.4262C32.6015 53.7646 29.7642 56.1224 26.9576 58.5208C26.5037 58.91 26.2742 59.5574 25.771 60.3552C25.4421 60.3806 24.9083 60.4273 24.2433 60.4822C24.1449 58.6377 22.7093 57.5919 21.7267 56.2941C18.5882 52.1477 15.3287 48.0968 12.1861 43.9535C9.99634 41.0652 7.86812 38.1241 5.80957 35.1373C4.54308 33.2998 3.48358 31.3252 2.2837 29.441C1.76522 28.627 1.13505 27.8861 0.548945 27.1158C0.0171444 26.4186 -0.0935193 25.8078 0.527427 25.0192C1.93736 23.2174 3.23971 21.3301 4.58919 19.4785C5.97556 17.5811 7.40907 15.7152 8.73908 13.7802C10.1336 11.7588 11.4606 9.68968 12.7609 7.60632C13.4853 6.44471 13.8911 5.02192 14.8071 4.06052C16.0224 2.78103 17.5225 1.71902 19.0472 0.797258C19.6948 0.405992 20.7256 0.449692 21.5453 0.565547C28.0612 1.47512 34.6067 1.42938 41.1594 1.29727L41.1615 1.29523ZM41.974 4.3024C41.8101 4.28207 41.6472 4.2648 41.4832 4.24549C40.7936 5.42742 40.0487 6.57784 39.4308 7.79331C38.5343 9.55249 37.7289 11.3594 36.8815 13.146C35.8937 15.2243 35.9214 15.3097 37.9563 16.3951C38.1162 16.4784 38.2648 16.5872 38.4185 16.6827C41.6984 18.701 44.9753 20.7092 48.6016 22.1045C49.9439 22.6218 51.1673 23.4369 52.4502 24.1056C52.7156 24.2418 53.0097 24.3312 53.6378 24.5761C49.2861 17.7864 44.7745 11.5302 41.9751 4.3024H41.974ZM40.6584 2.86945C40.5467 2.71904 40.435 2.56863 40.3213 2.41517C38.3396 2.40806 36.3579 2.39789 34.3762 2.38672C33.4652 2.38163 32.5564 2.3979 31.6475 2.36436C28.137 2.23529 24.6275 2.05236 21.1139 1.96801C19.5923 1.92838 19.5442 2.00968 19.2552 3.57474C18.8177 5.93454 18.4529 8.31161 18.0389 10.6765C17.6342 12.9814 17.1864 15.2772 16.8052 17.5872C16.6505 18.5201 16.6208 19.4714 16.5194 20.572C20.5647 20.5313 24.0178 18.637 27.763 18.0465C29.9537 17.6979 32.083 16.9601 34.0647 16.4439C36.323 11.7964 38.4943 7.33294 40.6604 2.86945H40.6584ZM44.3964 21.9419C44.464 21.8454 44.5296 21.7468 44.5962 21.6503C43.0991 20.8027 41.6082 19.947 40.104 19.1157C39.3109 18.6807 38.523 18.2132 37.6838 17.8931C36.5474 17.4591 36.4245 17.5973 36.3025 19.0018C39.0046 19.9846 41.7005 20.9653 44.3953 21.9429L44.3964 21.9419ZM53.0517 26.8048C50.5515 24.9562 40.7281 21.4389 35.6939 20.5506C35.5924 20.6919 35.451 20.822 35.3855 20.9846C33.6743 25.1462 31.9713 29.312 30.2683 33.4787C29.3615 35.6962 28.4485 37.9117 27.5632 40.1363C27.4115 40.5205 27.3429 40.9443 27.2957 41.3549C26.9023 45.0013 26.4975 48.6487 26.145 52.2981C25.9924 53.8662 25.9565 55.4445 25.8479 57.3622C26.5887 56.7189 27.0006 56.3693 27.4033 56.0075C30.8278 52.917 33.62 49.2615 36.6427 45.8112C37.7903 44.4992 38.774 43.047 39.937 41.7502C41.2219 40.3122 42.7046 39.0428 43.9639 37.5824C47.0359 34.0275 50.0269 30.4024 53.0527 26.8028L53.0517 26.8048ZM50.5003 36.5326C51.3743 34.1881 52.1449 31.8069 53.0199 29.2642C46.7551 36.4259 40.104 43.0785 34.4213 50.5847C36.1765 49.4658 37.8477 48.2666 39.4472 46.981C42.2753 44.7055 44.9825 42.2675 47.9007 40.114C49.2225 39.1373 49.9777 37.9402 50.5003 36.5316V36.5326ZM33.7962 22.0019C34.3044 20.7071 34.9889 19.3901 34.7133 17.6034C28.762 18.8992 23.0618 20.5933 16.8544 22.1431C19.038 25.3617 21.0484 28.1311 22.8344 31.0315C23.8826 32.7378 25.2177 32.9421 27.0304 32.8191C28.6678 32.7114 29.5787 32.0254 30.1658 30.6148C31.3657 27.7388 32.667 24.9044 33.7962 22.0019ZM18.1998 3.13266C16.6792 3.9406 16.0378 4.86237 16.0111 6.19471C15.9988 6.73537 15.9814 7.27501 15.9855 7.8177C16.006 9.78928 15.675 11.7771 16.4046 13.7589C16.9846 10.3249 17.5625 6.89391 18.1998 3.13165V3.13266ZM14.7948 7.33904C14.6596 7.2933 14.5254 7.24655 14.3891 7.19879C12.4699 10.0647 10.6716 13.018 8.60178 15.767C6.31165 18.8118 3.25303 23.3241 2.97432 24.7367C6.65082 23.6899 10.2474 22.6879 13.8204 21.6045C14.2344 21.4775 14.6186 20.9328 14.8051 20.4927C14.9824 20.0821 14.9065 19.5506 14.9004 19.074C14.8512 16.2101 14.7785 13.3442 14.7375 10.4814C14.7231 9.43358 14.7744 8.3858 14.7959 7.33904H14.7948ZM28.6575 34.5285L28.3788 34.0905C27.7958 34.2318 27.2097 34.3751 26.5324 34.5387C26.7701 35.2613 26.9422 35.7724 27.2168 36.6078C27.8265 35.7298 28.2405 35.1281 28.6575 34.5285ZM18.4252 26.8942C17.3965 25.4115 16.3872 23.9145 15.3123 22.3423C10.6521 23.6218 6.2594 24.7438 1.66583 26.1889C2.69869 27.5325 3.56453 28.6138 4.37914 29.7276C5.73169 31.5762 7.39472 33.2572 8.08842 35.4828C8.70219 37.4452 9.9697 38.9747 11.1112 40.5926C12.1881 42.1181 13.3562 43.5825 14.5469 45.0226C17.5512 48.6517 20.5893 52.2554 23.6223 55.8632C23.8744 56.162 24.1931 56.4019 24.7146 56.8917C24.9134 54.8378 25.0876 53.0746 25.2556 51.3134C25.4923 48.8011 25.6911 46.2848 25.9739 43.7766C26.2834 41.051 27.0877 38.2613 24.6173 36.0184C24.4902 35.9025 24.4533 35.6952 24.3539 35.5417C23.4215 34.1342 22.5034 32.7165 21.5443 31.3252C20.5227 29.8374 19.454 28.377 18.4252 26.8953V26.8942Z" fill="#DB3500"/>
<path d="M41.483 4.24561C41.6469 4.26491 41.8098 4.28321 41.9738 4.30252C44.7732 11.5303 49.2848 17.7865 53.6365 24.5762C53.0084 24.3313 52.7143 24.2419 52.4489 24.1057C51.1661 23.437 49.9426 22.6219 48.6003 22.1046C44.973 20.7093 41.6971 18.7011 38.4172 16.6828C38.2635 16.5873 38.1149 16.4785 37.9551 16.3952C35.9201 15.3098 35.8924 15.2245 36.8802 13.1462C37.7286 11.3595 38.534 9.55159 39.4296 7.79343C40.0485 6.57898 40.7924 5.42754 41.482 4.24561H41.483Z" fill="#FF820F"/>
<path d="M40.3211 2.41623C40.4348 2.56867 40.5465 2.7201 40.6582 2.87051C38.492 7.334 36.3208 11.7975 34.0624 16.4449C32.0807 16.9612 29.9515 17.699 27.7607 18.0476C24.0156 18.638 20.5625 20.5324 16.5171 20.573C16.6185 19.4724 16.6482 18.5202 16.803 17.5882C17.1841 15.2782 17.6329 12.9825 18.0367 10.6775C18.4517 8.31165 18.8154 5.9356 19.2529 3.5758C19.5419 2.01073 19.589 1.92943 21.1117 1.96907C24.6263 2.05342 28.1358 2.23635 31.6452 2.36542C32.5541 2.39895 33.463 2.38269 34.3739 2.38777C36.3556 2.39895 38.3373 2.41013 40.319 2.41623H40.3211Z" fill="#FFA02D"/>
<path d="M44.5958 21.6513C44.5282 21.7479 44.4626 21.8465 44.396 21.943C41.7022 20.9653 39.0053 19.9857 36.3032 19.0019C36.4241 17.5974 36.5471 17.4592 37.6845 17.8931C38.5237 18.2143 39.3106 18.6808 40.1047 19.1157C41.6079 19.947 43.0998 20.8027 44.5969 21.6503L44.5958 21.6513Z" fill="#F54F00"/>
<path d="M35.6937 20.5518C40.7279 21.44 50.5523 24.9563 53.0515 26.8059C50.0257 30.4066 47.0337 34.0306 43.9627 37.5856C42.7034 39.046 41.2207 40.3153 39.9358 41.7533C38.7728 43.0501 37.7891 44.5024 36.6415 45.8144C33.6188 49.2646 30.8265 52.9192 27.4021 56.0107C26.9994 56.3725 26.5875 56.7221 25.8467 57.3654C25.9553 55.4477 25.9922 53.8684 26.1438 52.3013C26.4963 48.6518 26.9011 45.0044 27.2945 41.358C27.3417 40.9464 27.4103 40.5236 27.562 40.1395C28.4483 37.9149 29.3603 35.6994 30.2671 33.4819C31.9701 29.3151 33.6731 25.1484 35.3842 20.9877C35.4498 20.8241 35.5912 20.6951 35.6927 20.5538L35.6937 20.5518Z" fill="#FF6500"/>
<path d="M53.0186 29.2651C52.1435 31.8079 51.373 34.188 50.4989 36.5336C49.9753 37.9421 49.2212 39.1383 47.8994 40.1159C44.9811 42.2694 42.275 44.7075 39.4459 46.9829C37.8454 48.2685 36.1752 49.4677 34.4199 50.5866C40.1027 43.0804 46.7538 36.4268 53.0186 29.2662V29.2651Z" fill="#E84200"/>
<path d="M34.7119 17.6035C34.9875 19.3901 34.3031 20.7082 33.7948 22.002C32.6646 24.9045 31.3643 27.7388 30.1644 30.6149C29.5783 32.0255 28.6664 32.7105 27.029 32.8192C25.2153 32.9422 23.8812 32.7389 22.833 31.0316C21.047 28.1311 19.0366 25.3618 16.853 22.1432C23.0604 20.5934 28.7606 18.8993 34.7119 17.6035Z" fill="#FFC24F"/>
<path d="M16.011 6.19461C16.0376 4.86227 16.6791 3.94051 18.1997 3.13257C17.5623 6.89483 16.9834 10.3248 16.4045 13.7598C15.6759 11.777 16.0069 9.7902 15.9854 7.81862C15.9813 7.27593 15.9977 6.73527 16.011 6.19563V6.19461Z" fill="#F54F00"/>
<path d="M14.3879 7.19873C14.5242 7.24751 14.6595 7.29324 14.7937 7.33898C14.7732 8.38676 14.722 9.43352 14.7353 10.4813C14.7763 13.3442 14.849 16.2101 14.8982 19.0739C14.9054 19.5506 14.9802 20.0811 14.8029 20.4927C14.6175 20.9327 14.2332 21.4774 13.8182 21.6045C10.2452 22.6868 6.64866 23.6888 2.97217 24.7366C3.25088 23.324 6.3095 18.8107 8.59962 15.767C10.6694 13.0179 12.4688 10.0646 14.3869 7.19873H14.3879Z" fill="#FF820F"/>
<path d="M28.3777 34.0906L28.6564 34.5286C28.2383 35.1292 27.8254 35.7298 27.2157 36.6079C26.9411 35.7725 26.769 35.2613 26.5312 34.5388C27.2086 34.3751 27.7947 34.2318 28.3777 34.0906Z" fill="#F54F00"/>
<path d="M15.312 22.3423C16.3869 23.9145 17.3962 25.4115 18.4249 26.8942C19.4537 28.377 20.5224 29.8364 21.544 31.3242C22.5031 32.7155 23.4212 34.1332 24.3536 35.5407C24.452 35.6942 24.4889 35.9005 24.617 36.0174C27.0874 38.2603 26.2831 41.05 25.9736 43.7756C25.6918 46.2838 25.4931 48.8001 25.2553 51.3123C25.0873 53.0735 24.9131 54.8368 24.7143 56.8907C24.1928 56.4018 23.8741 56.161 23.622 55.8622C20.589 52.2544 17.5509 48.6507 14.5466 45.0216C13.3559 43.5825 12.1878 42.1181 11.1109 40.5916C9.97043 38.9737 8.70292 37.4442 8.08812 35.4818C7.39442 33.2561 5.73139 31.5752 4.37884 29.7266C3.56423 28.6128 2.69839 27.5304 1.66553 26.1879C6.26012 24.7428 10.6518 23.6208 15.312 22.3413V22.3423Z" fill="#F54F00"/>
</svg>
