<svg width="86" height="85" viewBox="0 0 86 85" fill="none" xmlns="http://www.w3.org/2000/svg">
<path d="M50.3577 57.2449C49.2949 58.4428 48.3289 59.7339 47.4275 61.1196C48.0728 60.545 48.7268 59.9837 49.3595 59.3923C51.5572 57.3369 53.7309 55.2489 55.9431 53.218C57.9196 51.404 59.9399 49.6546 61.9304 47.8648C63.0933 46.8221 63.8312 45.5942 64.1756 44.213C64.2843 43.7733 64.4304 43.3286 64.5412 42.8865C64.6456 42.4665 64.7257 42.0484 64.8153 41.6312C64.7495 41.612 64.6846 41.5926 64.6172 41.5752C64.2535 41.9658 63.8854 42.3486 63.5289 42.7454C60.6989 45.8919 57.8822 49.0488 55.0404 52.1823C53.4948 53.8869 51.8833 55.5234 50.3582 57.2443L50.3577 57.2449Z" fill="#E84200"/>
<path d="M73.0691 35.7127C72.0726 35.584 71.0724 35.4653 70.0825 35.3238C69.6803 35.267 69.3148 35.5287 69.033 35.8879C68.4488 36.6296 67.9129 37.4061 67.2088 38.3722C69.34 37.9113 71.1929 36.6579 73.0692 35.9298C73.0692 35.8575 73.0692 35.7851 73.0696 35.7121L73.0691 35.7127Z" fill="#E84200"/>
<path d="M61.1572 49.6979C59.6729 50.2264 48.6738 60.4008 44.5609 65.0477C46.1028 66.7489 47.6061 68.411 49.1121 70.0724C49.6642 69.9354 49.9708 69.5666 50.3545 69.0157C51.9799 66.6869 52.8575 64.1793 54.1995 61.7885C55.0366 60.2972 55.9261 58.8189 56.7935 57.3351C58.1389 55.0347 59.4865 52.7332 60.8287 50.4292C60.9584 50.2039 61.0411 49.9592 61.158 49.6986L61.1572 49.6979Z" fill="#FF6500"/>
<path d="M75.0728 36.6947C73.5805 37.1318 72.0935 37.4829 70.6021 38.032C69.3587 38.4896 68.1043 39.1643 66.8626 39.7866C66.6494 39.8931 66.3734 40.2185 66.2799 40.4541C65.9294 41.3359 65.6441 42.222 65.3306 43.1057C65.1446 43.6317 64.925 44.1557 64.7748 44.6785C64.702 44.9286 64.6541 45.2721 64.7664 45.4C66.6795 47.5972 68.5391 49.8582 70.9985 51.5415C71.9668 49.9914 75.1004 38.4718 75.0728 36.6947Z" fill="#FFC24F"/>
<path d="M49.1123 70.0726C47.6064 68.4112 46.1031 66.749 44.5612 65.0479C48.6741 60.401 59.6741 50.2264 61.1575 49.6981C61.0406 49.9587 60.9579 50.2034 60.8282 50.4287C59.4865 52.7321 58.1388 55.0336 56.793 57.3346C55.9256 58.8184 55.0365 60.2962 54.199 61.788C52.8569 64.1788 51.979 66.6861 50.354 69.0152C49.9702 69.5671 49.6636 69.9358 49.1115 70.0719L49.1123 70.0726ZM44.7465 66.2486C45.9497 67.7164 47.1165 69.1361 48.2746 70.5626C48.3721 70.6819 48.3852 70.8836 48.4756 71.0113C48.6966 71.3322 48.5843 71.6843 48.236 72.09C47.6399 72.788 47.0741 73.5177 46.4489 74.1849C45.7721 74.9082 45.1631 75.7857 44.2329 76.0862C43.7414 74.5901 44.0482 67.5885 44.7465 66.2486ZM73.0698 35.9306C71.1935 36.6586 69.3402 37.9117 67.2094 38.3729C67.9139 37.4072 68.4498 36.6306 69.0336 35.8886C69.3159 35.5289 69.6809 35.2677 70.0831 35.3245C71.0731 35.4651 72.0732 35.5847 73.0697 35.7135C73.0698 35.7858 73.0698 35.8582 73.0693 35.9311L73.0698 35.9306ZM55.9437 53.2178C53.7319 55.249 51.5578 57.3367 49.3601 59.392C48.7274 59.9835 48.0734 60.5448 47.4281 61.1194C48.3291 59.7334 49.2951 58.4422 50.3584 57.2447C51.8839 55.5231 53.495 53.8863 55.0405 52.1827C57.8823 49.0492 60.699 45.8923 63.529 42.7458C63.8859 42.3494 64.2536 41.9662 64.6173 41.5756C64.6847 41.593 64.7496 41.6124 64.8155 41.6315C64.7258 42.0487 64.6448 42.4671 64.5413 42.8869C64.4311 43.3284 64.285 43.7731 64.1757 44.2134C63.8318 45.594 63.0936 46.8216 61.9305 47.8651C59.9396 49.6547 57.9197 51.4043 55.9432 53.2183L55.9437 53.2178ZM76.5617 38.8411C76.5167 37.9622 76.5993 37.0254 76.6567 36.103C76.7074 35.3144 76.5818 35.0713 75.9718 35.0106C73.8383 34.7918 71.707 34.572 69.4937 34.3457C69.1933 34.7381 68.8512 35.2163 68.4782 35.6683C66.4597 38.1182 64.4646 40.587 62.4023 42.9967C60.4874 45.2349 58.5044 47.4113 56.5413 49.6055C55.5008 50.7673 54.4306 51.9039 53.3841 53.0606C51.8085 54.8029 50.2253 56.5387 48.6742 58.3049C47.4273 59.7247 46.1732 61.1497 45.0254 62.6413C44.3995 63.4566 43.7412 64.0376 42.7371 64.5505C42.9146 65.0944 43.0454 65.5437 43.2016 65.9727C43.55 66.9306 43.5632 68.0424 43.513 69.1972C43.4052 71.682 43.3275 74.1566 43.2641 76.625C43.2363 77.7631 43.2606 77.7807 44.388 77.5324C46.1815 77.1386 47.9742 76.7605 49.7829 76.2472C50.3584 76.0851 51.0758 75.6256 51.5574 75.1179C53.2424 73.341 55.0312 71.7581 56.9198 70.2965C58.0472 69.4235 59.1204 68.4281 60.2293 67.5118C62.4183 65.7058 64.6315 63.9479 66.8005 62.1127C68.4933 60.6787 70.1329 59.1537 71.7977 57.6715C73.1846 56.4387 74.5865 55.2299 75.9531 53.9634C76.2366 53.7015 76.6237 53.0597 76.5544 52.9071C76.1521 52.0248 76.6328 50.9172 76.9098 49.9058C77.373 48.2177 77.0466 46.8678 76.9801 45.4082C76.8791 43.2029 76.6692 41.0438 76.5621 38.8415L76.5617 38.8411ZM70.601 38.0322C72.0929 37.4826 73.5793 37.1321 75.0717 36.6949C75.0996 38.4724 71.9656 49.9926 70.9973 51.5418C68.5376 49.8582 66.6783 47.5975 64.7653 45.4003C64.6531 45.2715 64.701 44.9279 64.7736 44.6787C64.9243 44.1563 65.1434 43.6319 65.3295 43.1059C65.643 42.2223 65.9278 41.3358 66.2788 40.4543C66.3723 40.2188 66.6483 39.8934 66.8615 39.7868C68.1035 39.1649 69.3575 38.4899 70.601 38.0322ZM63.6173 47.6785C63.8648 47.2688 64.2197 46.8137 64.5531 47.0964C65.3058 47.7348 65.984 48.4577 66.6843 49.1577C67.1476 49.6199 67.5797 50.1198 68.0551 50.5678C68.8221 51.2876 69.6119 51.9789 70.4904 52.7698C64.9021 59.0596 58.9789 64.8269 53.7696 71.2782C53.0001 72.2285 52.0974 73.0782 51.0462 74.1973C51.0383 73.6463 51.0378 73.3524 51.0292 73.0608C50.9921 71.8472 51.6513 70.4038 51.2356 69.3104C51.1903 69.1874 51.3243 68.9139 51.4195 68.7195C52.4434 66.6509 53.4152 64.5657 54.5269 62.5237C55.4253 60.8756 56.4926 59.2739 57.4959 57.6566C58.8828 55.4179 60.2838 53.1893 61.6643 50.9483C62.3335 49.8649 62.9605 48.7662 63.6169 47.6782L63.6173 47.6785ZM45.4572 76.2766L49.1077 71.9723C49.7624 72.6488 49.8657 73.6373 50.1042 74.5142C50.2184 74.9351 49.763 75.4834 49.2246 75.6432C48.3927 75.8905 47.5596 76.1246 46.7391 76.2908C46.3285 76.3716 45.9476 76.288 45.4566 76.2772L45.4572 76.2766ZM49.7727 71.2054C50.6788 70.8998 50.7635 71.1448 50.2128 72.453C50.0534 71.9968 49.9166 71.6148 49.7727 71.2054ZM75.6705 39.352C75.8502 40.2819 75.966 41.2239 76.0549 42.1788C76.1972 43.7271 76.3491 45.2714 76.4448 46.8405C76.5107 47.9429 76.3748 48.1446 75.2895 48.8883C74.4633 49.4542 73.6291 49.9962 72.6857 50.6238C73.3197 46.8426 74.5856 43.093 75.67 39.3525L75.6705 39.352ZM55.4689 70.4489C56.3524 69.3446 57.1927 68.1944 58.1329 67.1411C60.1241 64.9137 62.1446 62.7079 64.2007 60.5446C65.782 58.8826 67.4459 57.312 69.0531 55.678C69.8482 54.8706 70.5975 54.0091 71.4632 53.068C74.1305 52.5054 74.3394 52.5225 75.1436 53.4645C74.1352 54.5087 73.1365 55.5724 72.1065 56.6015C69.2437 59.4604 66.1187 61.8901 63.0704 64.449C61.8609 65.4644 60.6557 66.4926 59.4338 67.4893C58.148 68.5368 56.845 69.5544 55.5504 70.5863C55.5228 70.5415 55.4968 70.495 55.4687 70.4508L55.4689 70.4489ZM72.8205 51.5319C73.9136 50.4147 74.9452 49.6928 76.2035 49.0754C75.9317 50.0067 75.7019 50.7941 75.4711 51.5899C74.5682 51.5712 73.7547 51.5528 72.8205 51.5319Z" fill="#DB3500"/>
<path d="M64.5533 47.0958C64.2199 46.813 63.865 47.2681 63.6175 47.6778C62.961 48.7658 62.3341 49.8646 61.6649 50.948C60.2844 53.1889 58.8833 55.4176 57.4965 57.6563C56.4932 59.2735 55.4259 60.8752 54.5275 62.5234C53.4158 64.5653 52.444 66.6506 51.4201 68.7191C51.3249 68.9135 51.1908 69.1871 51.2362 69.3101C51.6519 70.4035 50.9927 71.8469 51.0298 73.0605C51.0384 73.3521 51.0388 73.646 51.0468 74.1969C52.0985 73.0772 53.0011 72.2285 53.7702 71.2778C58.9795 64.8266 64.9022 59.0599 70.491 52.7695C69.6121 51.9782 68.8222 51.2879 68.0556 50.5675C67.5808 50.1189 67.1482 49.6196 66.6849 49.1573C65.9846 48.4574 65.3064 47.7344 64.5537 47.0961L64.5533 47.0958Z" fill="#FFA02D"/>
<path d="M44.7464 66.2486C44.0481 67.5885 43.7413 74.5901 44.2328 76.0861C45.1625 75.7862 45.7715 74.9087 46.4489 74.1849C47.074 73.5177 47.6398 72.7879 48.2359 72.09C48.5842 71.6842 48.697 71.3316 48.4755 71.0112C48.3851 70.8836 48.372 70.6819 48.2746 70.5626C47.116 69.1357 45.9496 67.7164 44.7464 66.2486Z" fill="#E84200"/>
<path d="M49.1088 71.9714L45.4583 76.2758C45.9488 76.2862 46.3296 76.3707 46.7407 76.2894C47.5612 76.1231 48.3943 75.8891 49.2262 75.6418C49.765 75.4822 50.22 74.9336 50.1058 74.5127C49.8673 73.6358 49.7636 72.647 49.1093 71.9708L49.1088 71.9714Z" fill="#FF6500"/>
<path d="M50.2127 72.4521C50.7634 71.1439 50.6778 70.8992 49.7726 71.2045C49.9165 71.6139 50.0533 71.9959 50.2127 72.4521Z" fill="#FF820F"/>
<path d="M76.0538 42.1791C75.9654 41.2236 75.8496 40.2817 75.6694 39.3523C74.585 43.0928 73.3186 46.8429 72.6851 50.6235C73.6289 49.9962 74.4626 49.4549 75.2889 48.888C76.3737 48.1449 76.5101 47.9427 76.4442 46.8402C76.3485 45.2712 76.1966 43.7269 76.0543 42.1785L76.0538 42.1791Z" fill="#FF820F"/>
<path d="M58.1324 67.1404C57.1922 68.1936 56.3519 69.3438 55.4684 70.4482C55.496 70.4929 55.522 70.5395 55.5501 70.5837C56.8442 69.5523 58.1477 68.5342 59.4335 67.4867C60.6549 66.4906 61.8605 65.4627 63.0701 64.4464C66.1184 61.8875 69.2439 59.4572 72.1062 56.5988C73.1366 55.5701 74.1349 54.5061 75.1433 53.4618C74.3391 52.5199 74.1306 52.5031 71.4629 53.0654C70.5972 54.0065 69.8479 54.868 69.0528 55.6754C67.4456 57.3094 65.7821 58.8803 64.2004 60.542C62.1447 62.7056 60.1242 64.9114 58.1326 67.1385L58.1324 67.1404Z" fill="#FF820F"/>
<path d="M76.2027 49.0759C74.9444 49.6933 73.9124 50.4148 72.8197 51.5324C73.7539 51.5532 74.5674 51.5716 75.4703 51.5904C75.701 50.7946 75.9314 50.0065 76.2027 49.0759Z" fill="#E84200"/>
<path d="M39.7548 50.0358C40.8289 51.6061 41.775 53.2719 42.6309 55.0396C41.9559 54.266 41.2688 53.507 40.6113 52.7156C38.3273 49.9653 36.0766 47.1803 33.772 44.4567C31.7129 42.024 29.5925 39.6609 27.5133 37.2546C26.298 35.8523 25.6114 34.295 25.4114 32.6157C25.3488 32.0812 25.2429 31.5353 25.1783 30.9977C25.1179 30.4871 25.0858 29.9824 25.0423 29.4773C25.1228 29.4645 25.2022 29.4513 25.2842 29.4409C25.6546 29.9555 26.0314 30.4616 26.3924 30.9823C29.2589 35.1129 32.1081 39.2537 34.9904 43.3707C36.558 45.6101 38.2133 47.7792 39.7543 50.035L39.7548 50.0358Z" fill="#E84200"/>
<path d="M16.196 21.271C17.3897 21.2678 18.5863 21.2771 19.7741 21.2579C20.2567 21.2509 20.6484 21.6139 20.9271 22.0792C21.505 23.0405 22.0208 24.0357 22.7067 25.2793C20.2635 24.4183 18.2665 22.6647 16.1635 21.5269C16.1744 21.4416 16.1852 21.3563 16.1955 21.2702L16.196 21.271Z" fill="#E84200"/>
<path d="M28.1506 39.5303C29.8213 40.3746 41.2684 54.0064 45.4232 60.0967C43.3522 61.8718 41.3325 63.6068 39.3099 65.3404C38.6795 65.0966 38.3731 64.6163 38.003 63.9097C36.4344 60.9225 35.774 57.8361 34.5487 54.8181C33.7844 52.9357 32.9563 51.0607 32.1552 49.1824C30.9125 46.2705 29.6672 43.357 28.4287 40.4412C28.3095 40.1564 28.2485 39.8556 28.1496 39.531L28.1506 39.5303Z" fill="#FF6500"/>
<path d="M13.6881 22.1295C15.3819 22.8672 17.0821 23.5027 18.7581 24.3722C20.1554 25.097 21.5333 26.0792 22.904 26.9978C23.1394 27.1552 23.4162 27.5799 23.4913 27.8714C23.773 28.963 23.9771 30.05 24.2148 31.1382C24.3557 31.7859 24.5364 32.4363 24.6355 33.0749C24.684 33.3805 24.6892 33.7926 24.5378 33.9265C21.9554 36.2311 19.4264 38.6187 16.2768 40.236C15.3665 38.2647 13.3907 24.22 13.6881 22.1295Z" fill="#FFC24F"/>
<path d="M39.3097 65.3405C41.3324 63.6068 43.352 61.8718 45.4231 60.0967C41.2683 54.0064 29.8202 40.3742 28.1505 39.5303C28.2494 39.8549 28.3104 40.1557 28.4296 40.4406C29.6676 43.3555 30.9129 46.2691 32.1561 49.1817C32.9572 51.06 33.7848 52.9343 34.5496 54.8175C35.7749 57.8355 36.4359 60.9215 38.0039 63.909C38.374 64.6167 38.6804 65.0971 39.3108 65.3398L39.3097 65.3405ZM45.0256 61.4843C43.3886 63.0349 41.8018 64.5341 40.224 66.0429C40.0914 66.169 40.0459 66.4048 39.9203 66.5417C39.6119 66.887 39.6919 67.3188 40.0418 67.8489C40.6404 68.7604 41.1984 69.7049 41.8358 70.5845C42.5257 71.5378 43.1128 72.6629 44.1643 73.1558C44.9666 71.4658 45.6489 63.1676 45.0256 61.4843ZM16.1628 21.5273C18.2657 22.6652 20.2632 24.4184 22.7059 25.2798C22.0195 24.0365 21.5037 23.0413 20.9263 22.0797C20.6471 21.6136 20.2559 21.2514 19.7734 21.2584C18.5856 21.2764 17.3889 21.2683 16.1952 21.2715C16.1844 21.3567 16.1736 21.442 16.1633 21.5281L16.1628 21.5273ZM33.7709 44.4561C36.075 47.18 38.3262 49.9647 40.6101 52.7149C41.2677 53.5064 41.9548 54.2654 42.6297 55.039C41.7744 53.2709 40.8283 51.6051 39.7537 50.0351C38.2122 47.7786 36.5574 45.6092 34.9898 43.3708C32.1075 39.2538 29.2583 35.1131 26.3918 30.9825C26.0303 30.462 25.654 29.9556 25.2836 29.441C25.2016 29.4514 25.1222 29.4646 25.0417 29.4774C25.0852 29.9825 25.1183 30.4877 25.1777 30.9978C25.2418 31.5346 25.3477 32.0806 25.4108 32.6159C25.6103 34.2944 26.2974 35.8513 27.5127 37.2547C29.5924 39.6607 31.7123 42.0241 33.7714 44.4569L33.7709 44.4561ZM11.6131 24.4373C11.7972 23.408 11.8395 22.2916 11.9094 21.1958C11.9672 20.2588 12.1515 19.991 12.8795 20.0103C15.4268 20.0706 17.9715 20.1293 20.614 20.1925C20.9095 20.6998 21.2414 21.3144 21.6137 21.9028C23.6275 25.0913 25.611 28.2986 27.6825 31.4462C29.6057 34.3698 31.6185 37.2305 33.6051 40.1095C34.6583 41.6339 35.7502 43.1331 36.8112 44.6525C38.4085 46.9409 40.0158 49.2229 41.5806 51.5358C42.8386 53.3952 44.1042 55.2617 45.2347 57.1909C45.8509 58.2452 46.5402 59.0281 47.6472 59.7824C47.3569 60.397 47.1358 60.907 46.8877 61.3894C46.3341 62.4665 46.1529 63.7749 46.0399 65.1434C45.7964 68.0882 45.5191 71.0165 45.2258 73.9353C45.0889 75.2809 45.0576 75.298 43.7658 74.8372C41.7106 74.1057 39.6541 73.3928 37.5988 72.5181C36.9447 72.2413 36.1676 71.5927 35.6757 70.9225C33.9546 68.5769 32.0823 66.4446 30.0742 64.4404C28.8755 63.2433 27.759 61.91 26.5886 60.6647C24.2778 58.2098 21.9313 55.8078 19.6485 53.3214C17.8671 51.3788 16.1619 49.337 14.4207 47.3418C12.9698 45.682 11.4977 44.0482 10.0759 42.3518C9.78074 42.0008 9.42019 41.1866 9.52461 41.0171C10.1303 40.0372 9.72885 38.66 9.55318 37.4266C9.25889 35.3679 9.84489 33.8255 10.1408 32.1151C10.5887 29.5308 11.158 27.0174 11.6126 24.4376L11.6131 24.4373ZM18.7592 24.3725C17.0828 23.5022 15.3831 22.8675 13.6893 22.1298C13.3914 24.2206 15.3677 38.2661 16.2779 40.2363C19.4281 38.6187 21.9566 36.2314 24.539 33.9269C24.6904 33.7918 24.6852 33.3797 24.6367 33.0752C24.537 32.437 24.3569 31.7862 24.216 31.1385C23.9783 30.0503 23.7747 28.963 23.4925 27.8717C23.4174 27.5802 23.1406 27.1555 22.9052 26.9981C21.534 26.0799 20.1566 25.0973 18.7592 24.3725ZM25.5523 36.7832C25.3217 36.2634 24.9712 35.6741 24.5361 35.9577C23.5538 36.5978 22.6467 37.3488 21.7169 38.0694C21.1019 38.5451 20.5181 39.0699 19.8911 39.5271C18.8797 40.2611 17.8457 40.9581 16.6924 41.7594C22.3412 50.006 28.4627 57.6866 33.6408 66.067C34.406 67.3019 35.3433 68.4379 36.4154 69.9136C36.507 69.2654 36.5513 68.9191 36.6049 68.5767C36.8296 67.1518 36.2679 65.3523 36.9208 64.1256C36.9926 63.9873 36.8754 63.6449 36.7921 63.4016C35.8938 60.8108 35.0592 58.2082 34.0534 55.6357C33.2402 53.5592 32.221 51.5123 31.2796 49.4565C29.9788 46.6111 28.6597 43.7755 27.3667 40.9283C26.7395 39.5516 26.1644 38.1631 25.5528 36.7829L25.5523 36.7832ZM42.6929 73.1977L39.032 67.5802C38.1594 68.28 37.8903 69.4296 37.4785 70.4276C37.2812 70.9067 37.7361 71.6208 38.3469 71.8895C39.2905 72.305 40.2376 72.705 41.1798 73.0233C41.6517 73.1798 42.1132 73.138 42.6934 73.1985L42.6929 73.1977ZM38.3626 66.5771C37.3401 66.0819 37.2038 66.358 37.6578 67.982C37.9137 67.468 38.1319 67.0382 38.3626 66.5771ZM12.5874 25.1722C12.2369 26.2415 11.96 27.3345 11.7128 28.4467C11.3143 30.2504 10.905 32.048 10.5582 33.883C10.3162 35.1726 10.4463 35.4306 11.6146 36.4689C12.5041 37.2592 13.4064 38.0222 14.4248 38.9026C14.2414 34.3515 13.3083 29.7433 12.5879 25.173L12.5874 25.1722ZM31.7615 64.8363C30.8848 63.4029 30.0659 61.922 29.1148 60.5404C27.0999 57.6181 25.0474 54.7171 22.9465 51.8608C21.3305 49.6661 19.6036 47.5669 17.9529 45.4014C17.1361 44.3312 16.3814 43.2041 15.5013 41.9658C12.4414 40.9049 12.1926 40.8941 11.1043 41.8843C12.1372 43.2655 13.1557 44.6681 14.2163 46.0346C17.1642 49.8311 20.4852 53.1607 23.6966 56.6312C24.9708 58.0083 26.238 59.3999 27.5296 60.7568C28.8889 62.1832 30.273 63.5768 31.645 64.986C31.6841 64.9374 31.7218 64.8864 31.7614 64.8385L31.7615 64.8363ZM14.1305 39.9529C13.0088 38.4732 11.9005 37.4685 10.5095 36.5532C10.691 37.6913 10.8445 38.6537 10.9978 39.6261C12.0648 39.7386 13.0263 39.8382 14.1305 39.9529Z" fill="#DB3500"/>
<path d="M24.5358 35.9569C24.9709 35.6733 25.3214 36.2626 25.552 36.7824C26.1636 38.1627 26.7387 39.5512 27.3659 40.9279C28.6589 43.775 29.978 46.6107 31.2788 49.456C32.2202 51.5118 33.2394 53.5587 34.0526 55.6352C35.0584 58.2078 35.8929 60.8104 36.7913 63.4011C36.8746 63.6444 36.9918 63.9868 36.92 64.1251C36.2671 65.3519 36.8288 67.1514 36.6041 68.5762C36.5505 68.9186 36.5062 69.265 36.4146 69.9131C35.342 68.4367 34.4047 67.3018 33.64 66.0665C28.4619 57.6862 22.3409 50.0063 16.6916 41.7589C17.8454 40.9573 18.8794 40.2614 19.8902 39.5266C20.5168 39.0687 21.1011 38.5447 21.7161 38.0689C22.6459 37.3483 23.553 36.5974 24.5353 35.9572L24.5358 35.9569Z" fill="#FFA02D"/>
<path d="M45.0261 61.4845C45.6494 63.1678 44.9671 71.466 44.1647 73.156C43.1137 72.6639 42.5267 71.5388 41.8363 70.5847C41.1989 69.7052 40.6408 68.7607 40.0423 67.8491C39.6923 67.319 39.6119 66.8865 39.9207 66.542C40.0463 66.405 40.0918 66.1692 40.2245 66.0431C41.8027 64.534 43.3891 63.0351 45.0261 61.4845Z" fill="#E84200"/>
<path d="M39.0315 67.5795L42.6924 73.197C42.1127 73.1362 41.6512 73.179 41.1788 73.0218C40.2365 72.7035 39.2895 72.3035 38.3459 71.888C37.7346 71.6196 37.2801 70.9051 37.4775 70.4261C37.8893 69.4281 38.1589 68.2781 39.0309 67.5787L39.0315 67.5795Z" fill="#FF6500"/>
<path d="M37.6577 67.9813C37.2036 66.3573 37.3409 66.0816 38.3624 66.5764C38.1317 67.0375 37.9135 67.4673 37.6577 67.9813Z" fill="#FF820F"/>
<path d="M11.7137 28.4476C11.9604 27.3346 12.2373 26.2416 12.5883 25.1731C13.3087 29.7434 14.2422 34.3524 14.4252 38.9027C13.4063 38.0227 12.5044 37.2604 11.615 36.469C10.4472 35.4315 10.3166 35.1727 10.5586 33.8831C10.9054 32.0481 11.3147 30.2506 11.7132 28.4468L11.7137 28.4476Z" fill="#FF820F"/>
<path d="M29.1158 60.5397C30.0669 61.9213 30.8858 63.4022 31.7625 64.8356C31.7233 64.8842 31.6857 64.9352 31.646 64.9831C30.2745 63.5746 28.8899 62.1803 27.5306 60.7539C26.2395 59.3977 24.9718 58.0065 23.6976 56.6283C20.4862 53.1578 17.1647 49.8274 14.2174 46.0316C13.1562 44.6656 12.1382 43.2626 11.1053 41.8814C12.1936 40.8911 12.4419 40.9024 15.5023 41.9629C16.3824 43.2012 17.1371 44.3283 17.9539 45.3985C19.6046 47.5639 21.331 49.6636 22.9476 51.8579C25.0479 54.7145 27.1004 57.6156 29.1158 60.5375L29.1158 60.5397Z" fill="#FF820F"/>
<path d="M10.5102 36.5541C11.9011 37.4694 13.01 38.4737 14.1312 39.9538C13.027 39.8391 12.0654 39.7395 10.9985 39.627C10.8451 38.6546 10.6912 37.6915 10.5102 36.5541Z" fill="#E84200"/>
<path d="M32.4137 31.8029C32.3515 29.3018 32.5225 26.7873 32.8854 24.2254C33.0948 25.5622 33.3306 26.8917 33.5043 28.2357C34.1068 32.9054 34.6406 37.5896 35.2897 42.2447C35.8702 46.4031 36.5814 50.5288 37.2076 54.6727C37.577 57.0901 37.1747 59.2987 36.0786 61.2923C35.7285 61.9261 35.4223 62.6036 35.0721 63.2422C34.7385 63.8481 34.3746 64.4272 34.0245 65.0149C33.9157 64.9712 33.8078 64.9287 33.699 64.8813C33.6561 64.0484 33.5985 63.2204 33.572 62.3875C33.358 55.7788 33.1734 49.1714 32.9293 42.5664C32.7967 38.9737 32.5006 35.3956 32.4137 31.8041L32.4137 31.8029Z" fill="#E84200"/>
<path d="M38.3116 80.407C36.8462 79.5534 35.3871 78.6841 33.9162 77.8524C33.3193 77.5137 33.1291 76.8325 33.1593 76.1198C33.2187 74.6458 33.3814 73.1791 33.5341 71.3166C35.8406 74.0193 36.8873 77.385 38.5557 80.1484C38.4743 80.2346 38.3929 80.3208 38.3116 80.4082L38.3116 80.407Z" fill="#E84200"/>
<path d="M38.2437 51.7083C36.8706 49.5786 33.7295 26.3421 33.5019 16.6496C37.4575 16.1809 41.3181 15.7195 45.1814 15.2618C45.7591 15.983 45.7509 16.7321 45.6403 17.7763C45.1768 22.1934 43.5212 26.0678 42.6125 30.2724C42.0457 32.8949 41.5631 35.5552 41.0447 38.1996C40.2421 42.2998 39.4413 46.4036 38.6304 50.505C38.549 50.9045 38.3836 51.2797 38.2455 51.7083L38.2437 51.7083Z" fill="#FF6500"/>
<path d="M42.0697 81.2615C40.5832 79.2326 39.0072 77.3118 37.6478 75.1506C36.5142 73.3488 35.6101 71.2775 34.664 69.2814C34.5012 68.939 34.5012 68.2725 34.642 67.8973C35.1686 66.4925 35.7866 65.1484 36.3643 63.7789C36.709 62.9642 37.007 62.1179 37.3955 61.3433C37.5802 60.9718 37.9029 60.514 38.1954 60.4752C43.2005 59.7904 48.2065 58.9757 53.3579 59.4553C52.899 62.2806 44.1037 79.1719 42.0697 81.2615Z" fill="#FFC24F"/>
<path d="M45.1814 15.2616C41.3181 15.7193 37.4575 16.1807 33.5019 16.6494C33.7295 26.3419 36.8716 49.5796 38.2437 51.708C38.3818 51.2794 38.5472 50.9043 38.6286 50.5048C39.4395 46.4046 40.2403 42.3008 41.0429 38.1994C41.5613 35.5549 42.044 32.8959 42.6108 30.2722C43.5194 26.0675 45.1741 22.1932 45.6385 17.7761C45.75 16.7307 45.7583 15.9816 45.1796 15.2616L45.1814 15.2616ZM35.0972 15.4061C38.3416 14.8731 41.4836 14.3607 44.6219 13.8313C44.8852 13.7876 45.1293 13.5606 45.3926 13.4998C46.0462 13.3408 46.293 12.8078 46.2876 11.9724C46.2821 10.5385 46.3525 9.09733 46.2738 7.67069C46.1897 6.12507 46.3689 4.46412 45.4739 3.16618C43.141 4.45197 35.6777 13.104 35.0972 15.4061ZM38.5564 80.1484C36.888 77.385 35.8404 74.0193 33.5348 71.3166C33.3831 73.1791 33.2203 74.6458 33.16 76.1198C33.1298 76.8337 33.32 77.5137 33.9169 77.8524C35.3869 78.6853 36.8469 79.5534 38.3123 80.407C38.3937 80.3208 38.475 80.2346 38.5564 80.1472L38.5564 80.1484ZM35.29 42.2461C34.6419 37.5911 34.1071 32.9069 33.5047 28.2372C33.331 26.8932 33.0951 25.5637 32.8858 24.2269C32.5219 26.7888 32.351 29.3033 32.414 31.8044C32.5009 35.3971 32.7962 38.9752 32.9296 42.5667C33.1737 49.1717 33.3584 55.7791 33.5723 62.3877C33.5997 63.2207 33.6564 64.0487 33.6994 64.8816C33.8082 64.929 33.916 64.9715 34.0248 65.0152C34.3749 64.4275 34.7379 63.8472 35.0725 63.2425C35.4226 62.6051 35.7288 61.9276 36.079 61.2926C37.1751 59.3002 37.5764 57.0916 37.208 54.673C36.5809 50.5291 35.8705 46.4034 35.29 42.2449L35.29 42.2461ZM46.4558 80.2091C45.4081 81.2108 44.4647 82.4104 43.5039 83.5674C42.6848 84.5582 42.2451 84.7209 41.3684 84.1769C38.2949 82.2817 35.2233 80.39 32.0356 78.4231C32.0785 77.6521 32.1626 76.7366 32.1764 75.8211C32.255 70.8625 32.3857 65.9051 32.361 60.9502C32.3391 56.3485 32.1572 51.7518 32.0219 47.1538C31.9487 44.7182 31.808 42.2826 31.7211 39.847C31.5913 36.179 31.4441 32.5111 31.3737 28.8395C31.317 25.8879 31.2567 22.9229 31.4121 19.9859C31.499 18.382 31.2796 17.0245 30.5254 15.3988C31.3719 14.9301 32.0502 14.527 32.7395 14.1737C34.2781 13.3845 35.5451 12.0732 36.7765 10.6466C39.4267 7.5772 42.1052 4.55032 44.7956 1.54529C46.038 0.161162 46.0901 0.164793 47.305 1.59992C49.2394 3.88132 51.1903 6.14329 53.0104 8.58253C53.5909 9.35715 54.0251 10.6296 54.0928 11.7211C54.3286 15.5408 54.9201 19.2343 55.7803 22.884C56.2932 25.0634 56.5967 27.3339 57.0364 29.5461C57.9076 33.9098 58.8648 38.2407 59.6766 42.6189C60.3083 46.0379 60.7672 49.5116 61.3074 52.9598C61.76 55.8301 62.2591 58.687 62.6467 61.5767C62.7281 62.1753 62.5196 63.3311 62.2564 63.4428C60.7315 64.0876 60.1236 65.893 59.3539 67.3779C58.0704 69.8572 56.1204 71.1357 54.3917 72.8076C51.779 75.3331 49.074 77.6934 46.4567 80.2091L46.4558 80.2091ZM37.6468 75.1497C39.0062 77.3121 40.5822 79.2317 42.0686 81.2605C44.1036 79.171 52.8989 62.2785 53.3569 59.4544C48.2046 58.9748 43.1995 59.7895 38.1944 60.4742C37.9009 60.5143 37.5782 60.972 37.3945 61.3424C37.0069 62.117 36.7079 62.9633 36.3633 63.7779C35.7855 65.1475 35.1666 66.4916 34.641 67.8964C34.5002 68.2715 34.5002 68.9381 34.6629 69.2805C35.61 71.2766 36.5132 73.3479 37.6468 75.1497ZM39.2338 56.5999C39.1012 57.3381 39.0601 58.239 39.8198 58.239C41.5348 58.239 43.2461 58.0629 44.9611 57.9367C46.0947 57.8541 47.2292 57.695 48.3627 57.6416C50.1883 57.5591 52.0121 57.5336 54.0654 57.4789C53.7289 44.3381 52.3613 31.4815 52.7087 18.5313C52.7572 16.6214 52.5158 14.697 52.3805 12.3015C51.7507 12.9498 51.4197 13.2995 51.0806 13.6383C49.6673 15.0467 48.9186 17.4325 47.1387 18.3152C46.9403 18.416 46.8105 18.8773 46.7181 19.2052C45.75 22.7043 44.6942 26.1708 43.8723 29.727C43.2104 32.5985 42.8247 35.5853 42.3365 38.526C41.6582 42.5946 41.01 46.6657 40.3207 50.7307C39.9898 52.6976 39.5857 54.6402 39.2329 56.5999L39.2338 56.5999ZM47.3105 4.17636L47.3105 12.9935C48.9387 12.8491 50.1865 11.7757 51.4883 10.972C52.1127 10.5859 52.1255 9.4725 51.5916 8.73794C50.767 7.60271 49.926 6.48204 49.0255 5.45486C48.5721 4.9437 47.9733 4.65838 47.3105 4.17515L47.3105 4.17636ZM47.3297 14.5792C48.1872 15.8589 48.5748 15.6525 49.3153 13.5375C48.5913 13.9199 47.9806 14.2368 47.3297 14.5792ZM45.8488 78.6999C47.1323 77.7735 48.3444 76.7682 49.5356 75.7204C51.4645 74.0193 53.4017 72.3329 55.2922 70.5602C56.6186 69.3133 56.6653 68.9357 56.0628 66.953C55.6039 65.4438 55.1075 63.9552 54.5627 62.2542C51.1528 67.3998 48.616 73.1464 45.8488 78.6987L45.8488 78.6999ZM54.0288 21.2364C53.9584 23.445 53.7792 25.6645 53.8414 27.8694C53.9767 32.5353 54.1751 37.205 54.4685 41.86C54.6961 45.4382 55.1359 48.9908 55.4293 52.5616C55.5756 54.327 55.6003 56.1106 55.6898 58.1066C58.5923 61.4723 58.8885 61.6629 61.0131 61.3533C60.8504 59.0901 60.7224 56.8136 60.5139 54.5467C59.9334 48.2477 58.5229 42.1952 57.3591 36.0661C56.8975 33.6342 56.4559 31.1913 55.9568 28.769C55.4302 26.2217 54.847 23.6927 54.2912 21.1551C54.2043 21.1806 54.1175 21.2097 54.0306 21.234L54.0288 21.2364ZM55.7621 61.3084C55.955 63.744 56.5108 65.6465 57.4844 67.6535C58.1709 66.2694 58.7514 65.099 59.3401 63.9176C58.1225 63.0276 57.0236 62.2275 55.7621 61.3084Z" fill="#DB3500"/>
<path d="M39.8194 58.24C39.0597 58.24 39.1009 57.3391 39.2334 56.6009C39.5863 54.6412 39.9904 52.6986 40.3213 50.7317C41.0106 46.6667 41.6587 42.5956 42.3371 38.527C42.8252 35.5863 43.211 32.5995 43.8729 29.728C44.6947 26.1718 45.7506 22.7053 46.7187 19.2062C46.811 18.8783 46.9408 18.417 47.1392 18.3162C48.9191 17.4335 49.6678 15.0477 51.0811 13.6393C51.4203 13.3005 51.7512 12.9508 52.3811 12.3025C52.5164 14.6992 52.7587 16.6224 52.7093 18.5323C52.3619 31.4825 53.7295 44.3379 54.0659 57.4799C52.0118 57.5346 50.1889 57.5588 48.3633 57.6426C47.2297 57.6973 46.0952 57.8551 44.9617 57.9377C43.2467 58.0639 41.5353 58.24 39.8203 58.24L39.8194 58.24Z" fill="#FFA02D"/>
<path d="M35.0974 15.406C35.6779 13.104 43.1412 4.45191 45.4742 3.16612C46.3691 4.46284 46.19 6.1238 46.2741 7.67063C46.3527 9.09726 46.2823 10.5385 46.2878 11.9724C46.2933 12.8077 46.0464 13.3419 45.3928 13.4998C45.1295 13.5605 44.8854 13.7875 44.6221 13.8313C41.4829 14.3606 38.3418 14.873 35.0974 15.406Z" fill="#E84200"/>
<path d="M47.3113 12.9949L47.3113 4.17769C47.9732 4.66093 48.5729 4.94504 49.0263 5.45741C49.9268 6.48458 50.7678 7.60525 51.5924 8.74048C52.1272 9.47504 52.1135 10.5884 51.4891 10.9745C50.1873 11.7783 48.9386 12.8516 47.3113 12.9961L47.3113 12.9949Z" fill="#FF6500"/>
<path d="M49.3154 13.5383C48.5749 15.6533 48.1864 15.8585 47.3298 14.58C47.9807 14.2376 48.5914 13.9207 49.3154 13.5383Z" fill="#FF820F"/>
<path d="M49.5356 75.7194C48.3444 76.7685 47.1322 77.7738 45.8487 78.699C48.6159 73.1466 51.1528 67.3988 54.5627 62.2545C55.1084 63.9555 55.6048 65.4428 56.0628 66.9533C56.6653 68.9348 56.6186 69.3136 55.2922 70.5605C53.4017 72.3332 51.4645 74.0196 49.5356 75.7207L49.5356 75.7194Z" fill="#FF820F"/>
<path d="M53.8404 27.8695C53.7782 25.6646 53.9574 23.4451 54.0278 21.2366C54.1146 21.2111 54.2015 21.1819 54.2883 21.1577C54.8442 23.694 55.4274 26.2243 55.954 28.7716C56.4531 31.1926 56.8956 33.6355 57.3563 36.0687C58.52 42.1977 59.9306 48.2515 60.5111 54.5493C60.7205 56.8161 60.8475 59.0927 61.0103 61.3559C58.8857 61.6655 58.5904 61.4748 55.687 58.1092C55.5974 56.1131 55.5727 54.3296 55.4265 52.5642C55.133 48.9933 54.6942 45.4407 54.4657 41.8626C54.1731 37.2076 53.9748 32.5379 53.8386 27.8719L53.8404 27.8695Z" fill="#FF820F"/>
<path d="M57.4836 67.6521C56.51 65.6451 55.9533 63.7425 55.7613 61.3069C57.0228 62.226 58.1217 63.0262 59.3394 63.9162C58.7506 65.0975 58.1701 66.2692 57.4836 67.6521Z" fill="#E84200"/>
</svg>
