<svg width="38" height="50" viewBox="0 0 38 50" fill="none" xmlns="http://www.w3.org/2000/svg">
<path d="M23.8423 29.4874C24.4819 30.4225 25.0453 31.4144 25.5549 32.467C25.153 32.0064 24.7438 31.5544 24.3523 31.0831C22.9923 29.4455 21.6521 27.7871 20.2798 26.1653C19.0537 24.7167 17.7911 23.3096 16.553 21.8767C15.8294 21.0417 15.4205 20.1145 15.3015 19.1145C15.2642 18.7962 15.2011 18.4712 15.1626 18.151C15.1266 17.847 15.1075 17.5465 15.0817 17.2457C15.1296 17.2381 15.1769 17.2302 15.2257 17.224C15.4463 17.5305 15.6706 17.8318 15.8856 18.1419C17.5925 20.6015 19.2891 23.0671 21.0053 25.5186C21.9388 26.8521 22.9244 28.1437 23.842 29.4869L23.8423 29.4874Z" fill="#E84200"/>
<path d="M9.81401 12.3592C10.5248 12.3573 11.2374 12.3628 11.9447 12.3514C12.232 12.3472 12.4653 12.5633 12.6312 12.8404C12.9753 13.4128 13.2825 14.0054 13.6909 14.7459C12.236 14.2333 11.0469 13.1891 9.79471 12.5115C9.80114 12.4607 9.80758 12.41 9.81371 12.3587L9.81401 12.3592Z" fill="#E84200"/>
<path d="M16.9324 23.2318C17.9272 23.7345 24.7435 31.8517 27.2175 35.4782C25.9843 36.5352 24.7817 37.5683 23.5772 38.6006C23.2019 38.4554 23.0195 38.1694 22.799 37.7487C21.865 35.9699 21.4718 34.1321 20.7422 32.3351C20.2871 31.2141 19.794 30.0976 19.317 28.9792C18.577 27.2453 17.8355 25.5104 17.098 23.7742C17.027 23.6046 16.9907 23.4255 16.9318 23.2322L16.9324 23.2318Z" fill="#FF6500"/>
<path d="M8.32085 12.8704C9.32942 13.3097 10.3418 13.6881 11.3398 14.2059C12.1719 14.6375 12.9923 15.2223 13.8085 15.7693C13.9487 15.863 14.1135 16.1159 14.1582 16.2895C14.326 16.9395 14.4475 17.5867 14.5891 18.2347C14.6729 18.6204 14.7805 19.0077 14.8395 19.3879C14.8684 19.5699 14.8715 19.8153 14.7814 19.8951C13.2437 21.2673 11.7378 22.6891 9.86228 23.6521C9.32027 22.4782 8.14375 14.1152 8.32085 12.8704Z" fill="#FFC24F"/>
<path d="M23.5773 38.6006C24.7817 37.5683 25.9843 36.5351 27.2175 35.4781C24.7435 31.8516 17.9266 23.7342 16.9324 23.2318C16.9913 23.425 17.0276 23.6041 17.0986 23.7738C17.8358 25.5095 18.5773 27.2444 19.3176 28.9788C19.7946 30.0972 20.2874 31.2132 20.7428 32.3346C21.4724 34.1317 21.866 35.9693 22.7997 37.7482C23.0201 38.1696 23.2025 38.4557 23.5779 38.6002L23.5773 38.6006ZM26.9808 36.3044C26.0061 37.2277 25.0612 38.1205 24.1217 39.0188C24.0427 39.0939 24.0156 39.2343 23.9408 39.3159C23.7572 39.5215 23.8048 39.7786 24.0132 40.0943C24.3696 40.637 24.7019 41.1994 25.0814 41.7232C25.4923 42.2909 25.8418 42.9608 26.4679 43.2543C26.9457 42.2479 27.352 37.3067 26.9808 36.3044ZM9.79423 12.5117C11.0465 13.1893 12.2359 14.2333 13.6904 14.7462C13.2817 14.0058 12.9746 13.4132 12.6307 12.8406C12.4645 12.5631 12.2315 12.3474 11.9442 12.3516C11.2369 12.3623 10.5244 12.3575 9.81354 12.3594C9.8071 12.4102 9.80066 12.461 9.79453 12.5122L9.79423 12.5117ZM20.2791 26.1648C21.6511 27.7868 22.9916 29.445 24.3516 31.0826C24.7431 31.5539 25.1523 32.0059 25.5542 32.4665C25.0449 31.4137 24.4815 30.4218 23.8416 29.4869C22.9237 28.1433 21.9384 26.8514 21.0049 25.5186C19.2886 23.0671 17.5921 20.6015 15.8852 18.1419C15.6699 17.832 15.4459 17.5304 15.2253 17.224C15.1765 17.2302 15.1292 17.2381 15.0813 17.2457C15.1071 17.5464 15.1268 17.8473 15.1622 18.151C15.2004 18.4707 15.2635 18.7958 15.301 19.1145C15.4198 20.114 15.829 21.0411 16.5526 21.8767C17.791 23.3094 19.0533 24.7167 20.2794 26.1653L20.2791 26.1648ZM7.0851 14.2445C7.19475 13.6316 7.21993 12.9668 7.26153 12.3143C7.29594 11.7564 7.40568 11.5969 7.83917 11.6084C9.35597 11.6443 10.8713 11.6793 12.4447 11.7169C12.6207 12.019 12.8184 12.385 13.04 12.7353C14.2392 14.634 15.4202 16.5437 16.6537 18.418C17.7989 20.1589 18.9975 21.8623 20.1804 23.5766C20.8075 24.4844 21.4577 25.3771 22.0895 26.2818C23.0406 27.6444 23.9977 29.0033 24.9295 30.3805C25.6785 31.4877 26.4322 32.5991 27.1053 33.7479C27.4722 34.3757 27.8827 34.8419 28.5418 35.291C28.369 35.6569 28.2373 35.9606 28.0896 36.2479C27.76 36.8893 27.6521 37.6683 27.5848 38.4833C27.4398 40.2368 27.2746 41.9804 27.1 43.7184C27.0185 44.5197 26.9999 44.5299 26.2307 44.2555C25.0069 43.8199 23.7823 43.3954 22.5585 42.8746C22.169 42.7097 21.7063 42.3235 21.4133 41.9244C20.3885 40.5278 19.2736 39.258 18.0779 38.0646C17.3641 37.3518 16.6993 36.5579 16.0024 35.8164C14.6264 34.3546 13.2292 32.9243 11.8698 31.4437C10.8091 30.287 9.79372 29.0712 8.75693 27.8831C7.89296 26.8948 7.01639 25.9219 6.16975 24.9118C5.99401 24.7028 5.77932 24.218 5.8415 24.1171C6.20215 23.5336 5.96311 22.7135 5.85851 21.9791C5.68327 20.7532 6.03221 19.8348 6.20844 18.8163C6.47513 17.2775 6.81414 15.7808 7.08479 14.2447L7.0851 14.2445ZM11.3403 14.2059C10.3421 13.6877 9.32996 13.3098 8.32139 12.8705C8.14398 14.1155 9.32079 22.479 9.86282 23.6522C11.7386 22.6889 13.2442 21.2674 14.7819 19.8951C14.8721 19.8147 14.869 19.5693 14.8401 19.388C14.7808 19.008 14.6735 18.6205 14.5896 18.2348C14.448 17.5868 14.3268 16.9393 14.1588 16.2896C14.114 16.116 13.9492 15.8631 13.8091 15.7693C12.9926 15.2226 12.1724 14.6375 11.3403 14.2059ZM15.3853 21.596C15.248 21.2865 15.0393 20.9355 14.7802 21.1044C14.1953 21.4856 13.6552 21.9327 13.1015 22.3618C12.7353 22.6451 12.3877 22.9576 12.0143 23.2298C11.412 23.6669 10.7963 24.082 10.1096 24.5591C13.4732 29.4695 17.1183 34.0431 20.2016 39.0332C20.6573 39.7685 21.2154 40.445 21.8538 41.3237C21.9083 40.9377 21.9347 40.7315 21.9667 40.5276C22.1005 39.6792 21.766 38.6076 22.1548 37.8772C22.1975 37.7948 22.1277 37.591 22.0781 37.4461C21.5432 35.9034 21.0463 34.3536 20.4473 32.8218C19.9631 31.5854 19.3562 30.3665 18.7957 29.1424C18.0211 27.4481 17.2356 25.7596 16.4657 24.0642C16.0922 23.2445 15.7498 22.4177 15.3856 21.5958L15.3853 21.596ZM25.5918 43.2793L23.4119 39.9343C22.8923 40.3509 22.7321 41.0355 22.4868 41.6298C22.3693 41.915 22.6402 42.3402 23.0039 42.5003C23.5658 42.7477 24.1297 42.9859 24.6908 43.1754C24.9718 43.2686 25.2466 43.2437 25.5921 43.2797L25.5918 43.2793ZM23.0133 39.337C22.4044 39.0421 22.3233 39.2065 22.5936 40.1735C22.746 39.8675 22.8759 39.6115 23.0133 39.337ZM7.66525 14.6821C7.45655 15.3188 7.29168 15.9697 7.14449 16.6319C6.90718 17.706 6.66347 18.7763 6.45697 19.869C6.31287 20.6369 6.39032 20.7905 7.08599 21.4088C7.61564 21.8794 8.15296 22.3338 8.75935 22.858C8.65011 20.148 8.09453 17.404 7.66555 14.6826L7.66525 14.6821ZM19.0826 38.3004C18.5606 37.4469 18.0729 36.565 17.5066 35.7424C16.3068 34.0023 15.0847 32.2748 13.8337 30.574C12.8714 29.2672 11.8431 28.0172 10.8602 26.7277C10.3738 26.0905 9.92441 25.4193 9.40035 24.682C7.57833 24.0503 7.43018 24.0438 6.78214 24.6335C7.39718 25.4559 8.00368 26.2911 8.63522 27.1048C10.3906 29.3654 12.3681 31.3481 14.2803 33.4146C15.039 34.2346 15.7936 35.0632 16.5627 35.8712C17.3721 36.7206 18.1963 37.5504 19.0132 38.3895C19.0365 38.3606 19.059 38.3302 19.0826 38.3017L19.0826 38.3004ZM8.58413 23.4834C7.91617 22.6023 7.25622 22.004 6.42796 21.459C6.53602 22.1367 6.62742 22.7098 6.71871 23.2888C7.35404 23.3558 7.92663 23.4151 8.58413 23.4834Z" fill="#DB3500"/>
<path d="M14.78 21.104C15.0391 20.9351 15.2478 21.2861 15.3851 21.5956C15.7492 22.4174 16.0917 23.2442 16.4652 24.064C17.2351 25.7594 18.0206 27.4479 18.7951 29.1422C19.3557 30.3663 19.9626 31.5852 20.4468 32.8216C21.0457 34.3534 21.5427 35.9032 22.0776 37.4459C22.1272 37.5908 22.197 37.7946 22.1542 37.877C21.7654 38.6074 22.0999 39.679 21.9661 40.5274C21.9342 40.7313 21.9078 40.9375 21.8533 41.3235C21.2146 40.4443 20.6565 39.7685 20.2011 39.033C17.1178 34.0429 13.473 29.4698 10.1091 24.5589C10.7961 24.0816 11.4118 23.6672 12.0137 23.2296C12.3868 22.9569 12.7347 22.6449 13.1009 22.3616C13.6546 21.9325 14.1948 21.4854 14.7797 21.1042L14.78 21.104Z" fill="#FFA02D"/>
<path d="M26.9809 36.3046C27.3521 37.3069 26.9458 42.2482 26.468 43.2545C25.8422 42.9615 25.4926 42.2915 25.0815 41.7234C24.702 41.1996 24.3697 40.6372 24.0133 40.0945C23.8049 39.7788 23.757 39.5212 23.9409 39.3161C24.0157 39.2345 24.0428 39.0941 24.1218 39.019C25.0615 38.1205 26.0062 37.2279 26.9809 36.3046Z" fill="#E84200"/>
<path d="M23.4115 39.934L25.5914 43.279C25.2462 43.2428 24.9714 43.2683 24.6901 43.1747C24.129 42.9852 23.5651 42.7469 23.0032 42.4995C22.6392 42.3397 22.3686 41.9143 22.4861 41.629C22.7314 41.0348 22.8919 40.35 23.4112 39.9335L23.4115 39.934Z" fill="#FF6500"/>
<path d="M22.5934 40.1729C22.3231 39.2063 22.4048 39.0421 23.0128 39.3366C22.8755 39.6111 22.7457 39.867 22.5934 40.1729Z" fill="#FF820F"/>
<path d="M7.14508 16.6326C7.29197 15.9698 7.45684 15.319 7.66584 14.6828C8.09483 17.4042 8.6507 20.1486 8.75964 22.8582C8.15294 22.3342 7.61592 21.8802 7.08628 21.409C6.39092 20.7912 6.31316 20.6371 6.45727 19.8692C6.66376 18.7765 6.90747 17.7062 7.14478 16.6321L7.14508 16.6326Z" fill="#FF820F"/>
<path d="M17.5073 35.742C18.0737 36.5646 18.5613 37.4465 19.0833 38.3C19.06 38.3289 19.0376 38.3593 19.014 38.3878C18.1973 37.5491 17.3728 36.7188 16.5634 35.8695C15.7946 35.062 15.0398 34.2336 14.281 33.4129C12.3688 31.3463 10.391 29.3632 8.63595 27.103C8.00411 26.2896 7.39792 25.4542 6.78288 24.6317C7.43092 24.0421 7.57875 24.0488 9.40109 24.6803C9.92515 25.4176 10.3745 26.0888 10.8609 26.726C11.8438 28.0154 12.8718 29.2657 13.8344 30.5723C15.0851 32.2733 16.3073 34.0008 17.5073 35.7406L17.5073 35.742Z" fill="#FF820F"/>
<path d="M6.42833 21.4596C7.25659 22.0046 7.91685 22.6026 8.5845 23.484C7.927 23.4157 7.35441 23.3564 6.71908 23.2894C6.62779 22.7104 6.53609 22.1368 6.42833 21.4596Z" fill="#E84200"/>
<path d="M19.4709 18.6303C19.4338 17.141 19.5356 15.6437 19.7517 14.1182C19.8764 14.9142 20.0168 15.7059 20.1203 16.5062C20.479 19.2868 20.7969 22.076 21.1834 24.8479C21.529 27.3241 21.9526 29.7808 22.3254 32.2483C22.5454 33.6877 22.3058 35.0028 21.6532 36.19C21.4447 36.5674 21.2623 36.9708 21.0538 37.3511C20.8551 37.7118 20.6385 38.0567 20.43 38.4066C20.3652 38.3806 20.301 38.3553 20.2362 38.3271C20.2106 37.8311 20.1763 37.3381 20.1605 36.8421C20.0332 32.9069 19.9232 28.9725 19.7779 25.0395C19.6989 22.9002 19.5226 20.7696 19.4709 18.631L19.4709 18.6303Z" fill="#E84200"/>
<path d="M22.9826 47.5719C22.11 47.0637 21.2412 46.546 20.3653 46.0508C20.0099 45.8491 19.8967 45.4435 19.9146 45.0191C19.95 44.1414 20.0469 43.268 20.1378 42.159C21.5112 43.7683 22.1345 45.7724 23.1279 47.4179C23.0795 47.4692 23.031 47.5206 22.9826 47.5726L22.9826 47.5719Z" fill="#E84200"/>
<path d="M22.9424 30.4832C22.1248 29.2151 20.2544 15.3787 20.1188 9.60721C22.4742 9.32814 24.773 9.05341 27.0735 8.78085C27.4175 9.21029 27.4126 9.65637 27.3467 10.2781C27.0708 12.9083 26.0849 15.2153 25.5438 17.719C25.2063 19.2806 24.9189 20.8647 24.6103 22.4393C24.1323 24.8808 23.6555 27.3245 23.1726 29.7667C23.1242 30.0045 23.0257 30.2279 22.9435 30.4832L22.9424 30.4832Z" fill="#FF6500"/>
<path d="M25.2207 48.0809C24.3356 46.8728 23.3971 45.7291 22.5877 44.4422C21.9127 43.3693 21.3743 42.1359 20.8109 40.9473C20.714 40.7434 20.714 40.3465 20.7979 40.1231C21.1114 39.2866 21.4794 38.4863 21.8234 37.6708C22.0286 37.1857 22.2061 36.6818 22.4375 36.2205C22.5474 35.9993 22.7396 35.7267 22.9138 35.7036C25.8941 35.2958 28.875 34.8107 31.9424 35.0963C31.6691 36.7786 26.4319 46.8367 25.2207 48.0809Z" fill="#FFC24F"/>
<path d="M27.0734 8.7808C24.773 9.05336 22.4742 9.32809 20.1188 9.60716C20.2543 15.3787 22.1253 29.2157 22.9423 30.4831C23.0245 30.2279 23.1231 30.0045 23.1715 29.7666C23.6544 27.3251 24.1312 24.8815 24.6091 22.4393C24.9178 20.8646 25.2052 19.2813 25.5427 17.719C26.0838 15.2153 27.0691 12.9083 27.3456 10.2781C27.412 9.6556 27.4169 9.20952 27.0723 8.7808L27.0734 8.7808ZM21.0687 8.86683C23.0006 8.54944 24.8715 8.24435 26.7403 7.92913C26.8971 7.90311 27.0424 7.76791 27.1992 7.73176C27.5884 7.63705 27.7354 7.31966 27.7321 6.82225C27.7288 5.96842 27.7707 5.11024 27.7239 4.26075C27.6738 3.3404 27.7805 2.35137 27.2476 1.57851C25.8584 2.34413 21.4143 7.49607 21.0687 8.86683ZM23.1285 47.4181C22.1351 45.7726 21.5112 43.7685 20.1384 42.1592C20.048 43.2682 19.9511 44.1416 19.9152 45.0193C19.8972 45.4444 20.0105 45.8492 20.3659 46.051C21.2412 46.5469 22.1106 47.0638 22.9832 47.5721C23.0316 47.5208 23.0801 47.4694 23.1285 47.4174L23.1285 47.4181ZM21.1835 24.8489C20.7976 22.0771 20.4791 19.2878 20.1204 16.5072C20.017 15.7069 19.8766 14.9152 19.7519 14.1192C19.5352 15.6447 19.4334 17.142 19.471 18.6313C19.5227 20.7706 19.6985 22.9012 19.778 25.0398C19.9234 28.9728 20.0333 32.9072 20.1607 36.8424C20.177 37.3384 20.2108 37.8314 20.2364 38.3274C20.3011 38.3556 20.3654 38.3809 20.4302 38.4069C20.6386 38.057 20.8548 37.7114 21.054 37.3514C21.2625 36.9718 21.4448 36.5684 21.6533 36.1903C22.306 35.0039 22.545 33.6888 22.3256 32.2486C21.9522 29.7811 21.5292 27.3244 21.1835 24.8482L21.1835 24.8489ZM27.8322 47.4543C27.2084 48.0507 26.6467 48.765 26.0745 49.454C25.5868 50.044 25.325 50.1408 24.8029 49.8169C22.9728 48.6884 21.1438 47.562 19.2456 46.3908C19.2712 45.9317 19.3213 45.3865 19.3295 44.8414C19.3763 41.8888 19.4541 38.9369 19.4394 35.9864C19.4264 33.2463 19.318 30.5091 19.2375 27.7712C19.1939 26.3209 19.1101 24.8706 19.0584 23.4203C18.9811 21.2362 18.8935 19.0521 18.8515 16.8658C18.8178 15.1083 18.7819 13.3428 18.8744 11.5939C18.9261 10.6388 18.7955 9.83056 18.3464 8.86249C18.8505 8.58342 19.2544 8.34339 19.6648 8.13301C20.5809 7.66307 21.3354 6.88226 22.0687 6.03276C23.6467 4.20508 25.2417 2.4027 26.8437 0.613334C27.5835 -0.210862 27.6145 -0.208695 28.338 0.645862C29.4898 2.00434 30.6515 3.35124 31.7353 4.8037C32.0809 5.26496 32.3395 6.02264 32.3798 6.6726C32.5202 8.94708 32.8724 11.1464 33.3846 13.3196C33.69 14.6174 33.8707 15.9693 34.1326 17.2866C34.6513 19.885 35.2213 22.4638 35.7047 25.0709C36.0808 27.1068 36.3541 29.1752 36.6758 31.2285C36.9452 32.9376 37.2425 34.6388 37.4733 36.3595C37.5217 36.7159 37.3976 37.4042 37.2408 37.4707C36.3328 37.8546 35.9709 38.9296 35.5125 39.8138C34.7482 41.2902 33.5871 42.0514 32.5578 43.047C31.002 44.5508 29.3913 45.9562 27.8328 47.4543L27.8322 47.4543ZM22.5869 44.4416C23.3963 45.7292 24.3348 46.8723 25.2199 48.0803C26.4316 46.8361 31.6688 36.7773 31.9416 35.0957C28.8736 34.8101 25.8933 35.2952 22.9129 35.703C22.7382 35.7269 22.5461 35.9994 22.4366 36.2199C22.2058 36.6812 22.0278 37.1851 21.8226 37.6702C21.4786 38.4857 21.1101 39.2861 20.797 40.1225C20.7132 40.3459 20.7132 40.7429 20.8101 40.9467C21.3741 42.1353 21.9119 43.3687 22.5869 44.4416ZM23.5319 33.396C23.4529 33.8355 23.4284 34.372 23.8808 34.372C24.902 34.372 25.921 34.2672 26.9422 34.192C27.6172 34.1428 28.2928 34.0481 28.9678 34.0163C30.0548 33.9671 31.1408 33.9519 32.3634 33.9194C32.1631 26.0946 31.3488 18.439 31.5556 10.7278C31.5845 9.59053 31.4408 8.44461 31.3602 7.01818C30.9851 7.40425 30.7881 7.61246 30.5861 7.81418C29.7446 8.65283 29.2987 10.0735 28.2389 10.5991C28.1208 10.6591 28.0435 10.9338 27.9885 11.129C27.412 13.2126 26.7833 15.2767 26.2939 17.3943C25.8998 19.1042 25.6701 20.8827 25.3794 22.6337C24.9755 25.0564 24.5895 27.4806 24.1791 29.9011C23.9821 31.0723 23.7414 32.2291 23.5313 33.396L23.5319 33.396ZM28.3412 2.18002L28.3412 7.43027C29.3107 7.34424 30.0538 6.70513 30.8289 6.22652C31.2007 5.99661 31.2083 5.33364 30.8904 4.89624C30.3994 4.22026 29.8986 3.55295 29.3624 2.94131C29.0924 2.63694 28.7359 2.46704 28.3412 2.1793L28.3412 2.18002ZM28.3527 8.37448C28.8633 9.1365 29.0941 9.01359 29.535 7.75417C29.1039 7.98191 28.7402 8.1706 28.3527 8.37448ZM27.4708 46.5556C28.2351 46.004 28.9569 45.4053 29.6662 44.7814C30.8148 43.7685 31.9682 42.7643 33.094 41.7088C33.8838 40.9663 33.9116 40.7414 33.5528 39.5608C33.2796 38.6621 32.984 37.7758 32.6596 36.7629C30.6291 39.8269 29.1186 43.2487 27.4708 46.5549L27.4708 46.5556ZM32.3417 12.3386C32.2997 13.6537 32.1931 14.9753 32.2301 16.2882C32.3106 19.0666 32.4288 21.8471 32.6035 24.619C32.739 26.7497 33.0009 28.8651 33.1756 30.9914C33.2627 32.0426 33.2774 33.1046 33.3307 34.2932C35.0591 36.2973 35.2354 36.4108 36.5005 36.2264C36.4036 34.8788 36.3274 33.5232 36.2033 32.1734C35.8576 28.4226 35.0177 24.8186 34.3247 21.169C34.0498 19.7209 33.7869 18.2662 33.4897 16.8239C33.1762 15.3071 32.8289 13.8011 32.4979 12.2901C32.4462 12.3053 32.3945 12.3227 32.3428 12.3371L32.3417 12.3386ZM33.3737 36.1997C33.4886 37.65 33.8196 38.7829 34.3993 39.978C34.8081 39.1538 35.1538 38.4568 35.5043 37.7534C34.7793 37.2234 34.125 36.747 33.3737 36.1997Z" fill="#DB3500"/>
<path d="M23.8808 34.3726C23.4285 34.3726 23.453 33.8361 23.5319 33.3965C23.742 32.2297 23.9826 31.0729 24.1797 29.9017C24.5901 27.4811 24.9761 25.057 25.38 22.6343C25.6707 20.8833 25.9004 19.1047 26.2945 17.3949C26.7839 15.2773 27.4126 13.2132 27.9891 11.1296C28.044 10.9344 28.1213 10.6597 28.2395 10.5996C29.2993 10.074 29.7451 8.65339 30.5867 7.81474C30.7887 7.61303 30.9857 7.40481 31.3608 7.01874C31.4413 8.4459 31.5856 9.59109 31.5562 10.7283C31.3493 18.4396 32.1637 26.0945 32.364 33.92C31.1409 33.9525 30.0554 33.967 28.9683 34.0169C28.2934 34.0494 27.6178 34.1434 26.9428 34.1925C25.9216 34.2677 24.9026 34.3726 23.8814 34.3726L23.8808 34.3726Z" fill="#FFA02D"/>
<path d="M21.0688 8.8667C21.4144 7.49594 25.8585 2.34401 27.2477 1.57837C27.7806 2.35051 27.6739 3.33954 27.724 4.26061C27.7708 5.11011 27.7289 5.96829 27.7322 6.82212C27.7355 7.31953 27.5885 7.63764 27.1993 7.73163C27.0425 7.76777 26.8972 7.90297 26.7404 7.929C24.8711 8.24422 23.0007 8.54931 21.0688 8.8667Z" fill="#E84200"/>
<path d="M28.3417 7.43104L28.3417 2.18078C28.7358 2.46853 29.0929 2.6377 29.3629 2.9428C29.8991 3.55444 30.3999 4.22174 30.8909 4.89773C31.2093 5.33513 31.2012 5.9981 30.8294 6.22801C30.0542 6.70662 29.3106 7.34573 28.3417 7.43176L28.3417 7.43104Z" fill="#FF6500"/>
<path d="M29.5349 7.75496C29.0941 9.01393 28.8629 9.13607 28.353 8.37505C28.7405 8.17125 29.1039 7.98262 29.5349 7.75496Z" fill="#FF820F"/>
<path d="M29.6662 44.7809C28.9569 45.4055 28.2351 46.0041 27.4708 46.5551C29.1186 43.2489 30.6291 39.8263 32.6596 36.7631C32.9845 37.7759 33.2801 38.6616 33.5529 39.561C33.9116 40.7409 33.8838 40.9664 33.094 41.7089C31.9682 42.7645 30.8148 43.7687 29.6662 44.7816L29.6662 44.7809Z" fill="#FF820F"/>
<path d="M32.2294 16.2882C32.1924 14.9753 32.2991 13.6537 32.341 12.3386C32.3927 12.3234 32.4445 12.3061 32.4962 12.2916C32.8271 13.8019 33.1744 15.3086 33.488 16.8254C33.7852 18.267 34.0487 19.7216 34.323 21.1705C35.016 24.8201 35.8559 28.4248 36.2016 32.1749C36.3262 33.5247 36.4019 34.8803 36.4988 36.2279C35.2337 36.4123 35.0579 36.2988 33.329 34.2947C33.2757 33.1061 33.261 32.044 33.1739 30.9928C32.9991 28.8666 32.7379 26.7511 32.6018 24.6205C32.4276 21.8486 32.3095 19.0681 32.2283 16.2897L32.2294 16.2882Z" fill="#FF820F"/>
<path d="M34.3991 39.9771C33.8194 38.782 33.4879 37.6491 33.3736 36.1988C34.1248 36.7461 34.7791 37.2225 35.5042 37.7525C35.1536 38.4559 34.8079 39.1536 34.3991 39.9771Z" fill="#E84200"/>
</svg>
