<svg width="33" height="33" viewBox="0 0 33 33" fill="none" xmlns="http://www.w3.org/2000/svg">
<g clip-path="url(#clip0_200_188)">
<path d="M12.4122 15.7885V15.7781C11.2162 15.7781 10.251 16.7669 10.251 17.9821C10.251 19.1974 11.2162 20.1862 12.4122 20.1862C13.6083 20.1862 14.5735 19.1975 14.5735 17.9925C14.5735 16.7771 13.5978 15.7885 12.4122 15.7885Z" fill="#DB4311"/>
<g filter="url(#filter0_i_200_188)">
<path d="M16.2207 1.15723C7.59127 1.15723 0.595703 8.15279 0.595703 16.7822C0.595703 25.4117 7.59127 32.4072 16.2207 32.4072C24.8501 32.4072 31.8457 25.4117 31.8457 16.7822C31.8457 8.15279 24.8501 1.15723 16.2207 1.15723ZM22.0016 25.0267C22.0016 25.0267 21.2145 24.151 20.6481 23.3788C23.376 22.6064 24.4044 21.0615 24.4044 21.0615C21.5682 22.8151 18.9194 23.4898 16.2207 23.4021C13.522 23.4896 10.8732 22.8151 8.03733 21.0615C8.03733 21.0615 9.06545 22.6064 11.7936 23.3788C11.2271 24.1512 10.4402 25.0267 10.4402 25.0267C5.76064 24.9237 3.9457 22.0605 3.8407 22.1841C3.8407 15.8091 6.9357 10.6182 6.9357 10.6182C9.70545 8.63073 12.2864 8.5481 12.7795 8.53779L13.0943 8.83648C9.55858 9.82516 7.84845 11.37 7.84845 11.37C10.883 9.90435 13.7431 9.38879 16.2207 9.35791C18.6983 9.38916 21.5582 9.90435 24.593 11.37C24.593 11.37 22.8828 9.82516 19.3472 8.83648L19.662 8.53779C20.1551 8.5481 22.736 8.63048 25.5057 10.6182C25.5057 10.6182 28.6006 15.809 28.6006 22.1841C28.4957 22.0605 26.6808 24.9237 22.0016 25.0267Z" fill="#DB4311"/>
</g>
<path d="M20.029 15.778V15.7883C18.8434 15.7883 17.8677 16.7771 17.8677 17.9923C17.8677 19.1973 18.833 20.1861 20.029 20.1861C21.225 20.1861 22.1902 19.1973 22.1902 17.982C22.1902 16.7667 21.2251 15.778 20.029 15.778Z" fill="#DB4311"/>
</g>
<defs>
<filter id="filter0_i_200_188" x="0.595703" y="1.15723" width="31.25" height="35.25" filterUnits="userSpaceOnUse" color-interpolation-filters="sRGB">
<feFlood flood-opacity="0" result="BackgroundImageFix"/>
<feBlend mode="normal" in="SourceGraphic" in2="BackgroundImageFix" result="shape"/>
<feColorMatrix in="SourceAlpha" type="matrix" values="0 0 0 0 0 0 0 0 0 0 0 0 0 0 0 0 0 0 127 0" result="hardAlpha"/>
<feOffset dy="4"/>
<feGaussianBlur stdDeviation="2"/>
<feComposite in2="hardAlpha" operator="arithmetic" k2="-1" k3="1"/>
<feColorMatrix type="matrix" values="0 0 0 0 0 0 0 0 0 0 0 0 0 0 0 0 0 0 0.25 0"/>
<feBlend mode="normal" in2="shape" result="effect1_innerShadow_200_188"/>
</filter>
<clipPath id="clip0_200_188">
<rect width="32" height="32" fill="white" transform="translate(0.220703 0.782227)"/>
</clipPath>
</defs>
</svg>
