<svg width="33" height="33" viewBox="0 0 33 33" fill="none" xmlns="http://www.w3.org/2000/svg">
<g filter="url(#filter0_i_200_184)">
<path d="M16.2207 0.782227C7.3855 0.782227 0.220703 7.94702 0.220703 16.7822C0.220703 25.6174 7.3855 32.7822 16.2207 32.7822C25.0559 32.7822 32.2207 25.6174 32.2207 16.7822C32.2207 7.94702 25.0559 0.782227 16.2207 0.782227ZM23.5261 13.2573C23.5332 13.4148 23.5366 13.573 23.5366 13.7319C23.5366 18.5847 19.8428 24.1807 13.0876 24.1809H13.0879H13.0876C11.0137 24.1809 9.08374 23.573 7.4585 22.5312C7.74585 22.5652 8.03833 22.582 8.33447 22.582C10.0552 22.582 11.6387 21.9951 12.8958 21.01C11.2881 20.9802 9.93262 19.9185 9.46484 18.4592C9.68872 18.5022 9.91895 18.5256 10.155 18.5256C10.4902 18.5256 10.8149 18.4805 11.1235 18.3962C9.44312 18.0598 8.17725 16.5747 8.17725 14.7964C8.17725 14.7798 8.17725 14.7649 8.17773 14.7495C8.67261 15.0247 9.23853 15.1902 9.84106 15.2087C8.85498 14.5508 8.20679 13.426 8.20679 12.1519C8.20679 11.479 8.38867 10.8486 8.7041 10.3059C10.5151 12.5281 13.2217 13.9895 16.2739 14.1431C16.2109 13.874 16.1785 13.5938 16.1785 13.3057C16.1785 11.2783 17.8232 9.63354 19.8513 9.63354C20.9077 9.63354 21.8618 10.0801 22.532 10.7939C23.3687 10.6289 24.1543 10.3232 24.864 9.90259C24.5894 10.7598 24.0073 11.479 23.249 11.9338C23.9919 11.845 24.7 11.6479 25.3579 11.3555C24.8665 12.092 24.2432 12.739 23.5261 13.2573Z" fill="#DB4311"/>
</g>
<defs>
<filter id="filter0_i_200_184" x="0.220703" y="0.782227" width="32" height="36" filterUnits="userSpaceOnUse" color-interpolation-filters="sRGB">
<feFlood flood-opacity="0" result="BackgroundImageFix"/>
<feBlend mode="normal" in="SourceGraphic" in2="BackgroundImageFix" result="shape"/>
<feColorMatrix in="SourceAlpha" type="matrix" values="0 0 0 0 0 0 0 0 0 0 0 0 0 0 0 0 0 0 127 0" result="hardAlpha"/>
<feOffset dy="4"/>
<feGaussianBlur stdDeviation="2"/>
<feComposite in2="hardAlpha" operator="arithmetic" k2="-1" k3="1"/>
<feColorMatrix type="matrix" values="0 0 0 0 0 0 0 0 0 0 0 0 0 0 0 0 0 0 0.25 0"/>
<feBlend mode="normal" in2="shape" result="effect1_innerShadow_200_184"/>
</filter>
</defs>
</svg>
