<svg width="2851" height="1801" viewBox="0 0 2851 1801" fill="none" xmlns="http://www.w3.org/2000/svg">
<g clip-path="url(#clip0_738_437)">
<path d="M2850.05 1800.08V1228.08L2349.55 1074.18L1864.15 980.678L1883.35 1020.88L1923.45 1037.48L1932.55 1077.38L2282.35 1253.08L2282.65 1282.68L2359.05 1349.18L2344.65 1462.08L2373.65 1486.68L2347.45 1541.38L2275.25 1531.78L2267.65 1538.98L2289.95 1574.28L2328.35 1603.18L2348.05 1655.38L2357.05 1662.78L2372.05 1796.38L2405.85 1800.08H2850.05Z" fill="black"/>
<g opacity="0.35">
<path d="M1864.15 980.678L1883.35 1020.88L1918.65 1034.08L1932.55 1077.38L2366.15 1295.38L2344.45 1462.48L2373.45 1487.08L2343.75 1557.68L2372.05 1796.38L2416.85 1800.08H2850.05L2847.15 1227.48L1864.15 980.678Z" fill="#C0272D"/>
<path d="M1875.15 994.978L1936.45 1018.08L1919.75 1027.08L1923.45 1037.48L2172.95 1151.88L2721.75 1294.28L2583.75 1308.08L2850.05 1228.08L2849.75 1540.98L2366.15 1295.38L1932.55 1077.38L1918.65 1034.08L1883.35 1020.88L1864.15 980.678L1875.15 994.978Z" fill="url(#paint0_linear_738_437)"/>
<path d="M2281.95 1249.98L2850.05 1535.58V1800.08H2416.85L2372.05 1796.38L2513.25 1743.08L2601.05 1734.28L2549.15 1715.58L2381.05 1758.88L2362.45 1586.48L2343.95 1557.08L2348.65 1545.88L2496.75 1616.88L2362.95 1543.68L2357.85 1524.18L2427.55 1566.18L2731.35 1709.78L2835.75 1738.58L2489.05 1572.88L2829.75 1721.38L2399.85 1510.58L2722.35 1638.68L2373.65 1486.68L2344.65 1462.08L2351.35 1409.68L2511.05 1474.28L2353.25 1394.78L2355.25 1378.88L2479.25 1429.48L2356.75 1367.18L2359.05 1349.18L2282.65 1282.68L2281.95 1249.98Z" fill="url(#paint1_linear_738_437)"/>
<path d="M2850.05 1228.08L2349.55 1074.18L1864.15 980.678L1875.15 994.978L1936.45 1018.08L1919.75 1027.08L1923.45 1037.48L2172.95 1151.88L2734.85 1294.08L2473.85 1266.38L2283.25 1219.58L2283.65 1234.58L2850.05 1524.98V1228.08Z" fill="#C0272D"/>
<path d="M2849.95 1242.08L2349.55 1074.18L1864.15 980.678L2850.05 1267.78L2849.85 1393.38L2283.65 1234.58L2850.05 1510.18L2849.95 1242.08Z" fill="black"/>
<path d="M2520.85 1616.48L2347.45 1541.38L2275.25 1531.78L2267.65 1538.98L2321.75 1569.48L2451.25 1611.68L2520.85 1616.48Z" fill="#C0272D"/>
<path d="M2267.65 1538.98L2289.95 1574.28L2328.35 1603.18L2348.05 1655.38L2379.45 1680.88L2449.45 1631.98L2451.25 1611.68L2321.75 1569.48L2267.65 1538.98Z" fill="#130046"/>
<path d="M2490.05 1741.18L2377.75 1663.28L2321.75 1569.48L2451.25 1611.68L2490.05 1741.18Z" fill="url(#paint2_linear_738_437)"/>
<path d="M2520.95 1615.98L2507.65 1744.08L2490.15 1740.68L2451.25 1611.68L2520.95 1615.98Z" fill="url(#paint3_linear_738_437)"/>
<path opacity="0.15" d="M2267.65 1538.98L2289.95 1574.28L2328.35 1603.18L2348.05 1655.38L2379.45 1680.88L2449.45 1631.98L2451.25 1611.68L2321.75 1569.48L2267.65 1538.98Z" fill="#FF921E"/>
<path opacity="0.15" d="M2490.05 1741.18L2377.75 1663.28L2321.75 1569.48L2451.25 1611.68L2490.05 1741.18Z" fill="#FF921E"/>
<path opacity="0.15" d="M2520.95 1615.98L2507.65 1744.08L2490.15 1740.68L2451.25 1611.68L2520.95 1615.98Z" fill="#FF921E"/>
<path d="M2753.85 1569.48L2825.15 1646.78L2785.35 1646.08L2634.15 1560.18L2753.85 1569.48Z" fill="#C0272D"/>
<path d="M2825.15 1646.78L2842.55 1743.08L2785.35 1646.08L2825.15 1646.78Z" fill="url(#paint4_linear_738_437)"/>
<path d="M2785.35 1646.08L2728.75 1688.18L2638.85 1715.58L2634.15 1560.18L2785.35 1646.08Z" fill="url(#paint5_linear_738_437)"/>
<path d="M2785.35 1646.08L2842.55 1743.08L2728.75 1688.18L2729.55 1614.38L2785.35 1646.08Z" fill="#130046"/>
<path opacity="0.15" d="M2825.15 1646.78L2842.55 1743.08L2785.35 1646.08L2825.15 1646.78Z" fill="#FF921E"/>
<path opacity="0.15" d="M2785.35 1646.08L2728.75 1688.18L2638.85 1715.58L2634.15 1560.18L2785.35 1646.08Z" fill="#FF921E"/>
<path opacity="0.15" d="M2785.35 1646.08L2842.55 1743.08L2728.75 1688.18L2729.55 1614.38L2785.35 1646.08Z" fill="#FF921E"/>
</g>
<path fill-rule="evenodd" clip-rule="evenodd" d="M2049.81 1002.01C2101.41 1019.92 2180 993.971 2186.58 942.234C2186.58 942.234 2178.72 965.916 2152.53 983.378C2126.34 1000.82 2078.92 1010.46 2049.81 1002.01Z" fill="#F0582E"/>
<path fill-rule="evenodd" clip-rule="evenodd" d="M2199.15 907.829C2199.15 907.829 2192.97 897.567 2184.84 896.263C2184.84 896.263 2219.66 939.583 2183.45 977.799C2183.45 977.799 2201.33 944.756 2180.2 908.119C2159.06 871.483 2141.66 866.906 2141.66 866.906C2168.53 872.227 2188.63 876.169 2199.15 907.829Z" fill="#FFAA00"/>
<path fill-rule="evenodd" clip-rule="evenodd" d="M2122.67 789.509C2122.67 789.509 2120.89 799.695 2136.58 809.21L2139.94 806.019C2139.94 806.019 2138.23 809.748 2146.44 814.084C2148.39 814.901 2150.34 815.738 2152.32 816.612C2160.12 819.399 2171.76 820.195 2194.07 820.961C2194.07 820.961 2183.24 826.792 2174.97 826.574C2188.87 837.641 2203.76 826.344 2215.95 855.103C2206.61 843.32 2194.35 841.906 2187.63 845.542C2199.61 855.311 2216.79 868.806 2219.33 883.683C2199.3 865.187 2192.8 864.975 2183.11 860.114C2183.11 860.114 2180.84 862.951 2193.25 877.131C2205.68 891.311 2222.44 906.06 2214.12 945.352C2214.12 945.352 2213.65 911.731 2194.08 892.932C2174.5 874.133 2151.14 875.654 2126.61 850.806C2102.08 825.919 2122.67 789.509 2122.67 789.509Z" fill="#F0582E"/>
<path fill-rule="evenodd" clip-rule="evenodd" d="M2122.85 792.844C2123.6 796.627 2126.46 803.039 2136.59 809.175L2139.95 805.983C2139.95 805.983 2138.24 809.712 2146.45 814.049C2148.4 814.866 2150.35 815.702 2152.33 816.577C2160.14 819.364 2171.78 820.161 2194.09 820.927C2194.09 820.927 2183.26 826.758 2174.98 826.54C2175.55 827.005 2176.13 827.415 2176.71 827.788C2174.56 827.496 2173.6 827.617 2174.78 829.72C2177.45 834.523 2175.8 838.628 2175.8 838.628C2168.32 833.04 2165.71 836.747 2165.71 836.747C2173.35 841.658 2182.83 852.338 2182.83 852.338C2173.55 843.845 2159.51 845.395 2159.51 845.395C2166.66 850.905 2169.1 858.607 2169.1 858.607C2169.1 858.607 2155.19 851.959 2156.51 856.894C2157.82 861.828 2188.85 871.923 2205.3 899.54C2214.29 914.625 2215.58 930.385 2214.91 941.556C2214.7 942.786 2214.45 944.032 2214.18 945.314C2214.18 945.314 2213.71 911.69 2194.13 892.889C2174.56 874.088 2151.18 875.609 2126.66 850.758C2107.01 830.857 2116.3 803.548 2120.78 793.448C2121.44 793.214 2122.13 793.018 2122.85 792.844Z" fill="#F0A321"/>
<path fill-rule="evenodd" clip-rule="evenodd" d="M2135.68 902.338C2134.48 903.848 2159.85 933.779 2140.87 956.98C2121.9 980.182 2116.18 999.967 2143.31 1008.51C2143.31 1008.51 2129.07 1005.68 2132.79 984.766C2136.53 963.849 2159.01 962.441 2160.46 936.392C2161.9 910.324 2136.37 881.085 2132.64 877.762C2128.89 874.437 2126.67 873.566 2126.67 873.566C2126.67 873.566 2129 895.151 2135.68 902.338Z" fill="#F0582E"/>
<path fill-rule="evenodd" clip-rule="evenodd" d="M2135.69 902.338C2134.49 903.848 2159.86 933.78 2140.88 956.982C2122.91 978.956 2116.82 997.865 2139.29 1007.08C2116.09 991.783 2134.95 967.111 2148.93 953.083C2163.75 938.206 2152.5 920.718 2152.5 920.718C2159.49 930.294 2159.38 940.779 2158.03 947.924C2159.34 944.663 2160.2 940.89 2160.46 936.392C2161.9 910.323 2136.36 881.084 2132.63 877.761C2131.57 876.819 2130.64 876.072 2129.84 875.5C2128.78 875.854 2127.84 876.161 2127.04 876.422C2127.94 882.515 2130.52 896.753 2135.69 902.338Z" fill="#F0A321"/>
<path fill-rule="evenodd" clip-rule="evenodd" d="M2160.04 949.958C2155.93 977.361 2123.44 978.698 2094.72 973.254C2065.99 967.811 2012.83 963.235 2002.78 976.29C2002.78 976.29 2008.63 969.053 2034.92 972.618C2034.92 972.618 2002.5 971.74 1985.23 998.916C1985.23 998.916 2007.3 977.748 2032.92 979.367C2032.92 979.367 2017.8 981.863 2013.48 994.835C2013.48 994.835 2028.8 976.2 2061.02 977.942C2106.52 980.384 2207.3 985.473 2170.18 905.93C2157.78 879.382 2132.06 870.54 2132.06 870.54L2130.33 881.839C2146.52 902.186 2164.48 920.47 2160.04 949.958Z" fill="#FFCC00"/>
<path fill-rule="evenodd" clip-rule="evenodd" d="M2160.25 950.466C2157.83 966.613 2145.53 973.648 2129.98 975.572C2130.11 975.562 2130.26 975.571 2130.39 975.562C2186.2 971.443 2155.39 902.492 2171.85 919.755C2175.13 923.2 2177 927.458 2177.97 931.842C2177.18 924.598 2174.75 916.262 2170.31 906.716C2158.03 880.335 2132.56 871.549 2132.56 871.549L2130.84 882.777C2146.86 902.995 2164.65 921.163 2160.25 950.466Z" fill="#FFAA00"/>
<path fill-rule="evenodd" clip-rule="evenodd" d="M2119.84 883.211C2120.04 882.296 2139.64 936.271 2086.66 935.814C2086.66 935.814 2090.54 939.918 2099.37 940.638C2099.37 940.638 2081.45 943.155 2074.91 950.666C2074.91 950.666 2085.04 945.753 2094.23 947.778C2103.41 949.803 2120.87 947.404 2127.79 932.601C2134.69 917.816 2129.04 897.549 2119.84 883.211Z" fill="#F0582E"/>
<path fill-rule="evenodd" clip-rule="evenodd" d="M2121.94 889.495C2123.22 894.894 2124.4 903.037 2123.04 910.973C2124.45 913.408 2125.62 917.017 2125.26 922.029C2124.47 933.124 2117.25 942.285 2103.96 944.352C2094 945.898 2084.16 945.669 2077.12 948.617C2076.32 949.251 2075.59 949.909 2074.95 950.627C2074.95 950.627 2085.09 945.712 2094.28 947.738C2103.48 949.764 2120.95 947.363 2127.88 932.553C2133.77 919.976 2130.56 903.449 2123.82 889.955C2123.14 889.816 2122.51 889.645 2121.94 889.495Z" fill="#F0A321"/>
<path fill-rule="evenodd" clip-rule="evenodd" d="M2113.48 865.011C2113.48 865.011 2112.92 885.425 2124.79 902.115C2136.65 918.805 2159.19 930.727 2146.19 955.066C2146.19 955.066 2159.23 941.9 2147.31 923.632C2135.37 905.363 2131.02 874.951 2129.74 871.086C2128.44 867.219 2115.56 847.405 2115.56 847.405L2113.48 865.011Z" fill="#FFCC00"/>
<path fill-rule="evenodd" clip-rule="evenodd" d="M2113.31 865.037C2113.31 865.037 2112.76 885.459 2124.65 902.156C2133.39 914.435 2147.89 924.136 2149.79 938.088C2149.27 926.86 2140.41 914.776 2134.09 907.366C2125.15 896.908 2122.65 888.753 2121.54 879.358C2120.44 869.962 2126.63 877.141 2130.55 880.017L2131 878.101L2131.12 877.924C2130.4 874.485 2129.91 872.024 2129.61 871.096C2128.31 867.228 2115.4 847.405 2115.4 847.405L2113.31 865.037Z" fill="#F0582E"/>
<path fill-rule="evenodd" clip-rule="evenodd" d="M2122.62 847.72C2122.62 847.72 2122.19 891.401 2149.59 899.707C2176.99 908.012 2181.51 928.232 2175.33 953.206C2175.33 953.206 2183.95 938.576 2182.86 920.478C2181.78 902.362 2167.87 883.869 2158.58 876.683C2149.3 869.496 2128.19 831.977 2128.19 831.977C2128.19 831.977 2120.66 830.546 2122.62 847.72Z" fill="#F0582E"/>
<path fill-rule="evenodd" clip-rule="evenodd" d="M2122.58 847.717C2122.58 847.717 2122.16 891.395 2149.55 899.699C2175.64 907.602 2181 926.318 2176.1 949.687C2184.57 917.972 2170.14 898.592 2154.72 888.901C2137.72 878.214 2137.76 861.917 2137.76 861.917C2140.82 865.2 2147.82 868.913 2153.74 871.683C2143.48 859.147 2128.18 831.997 2128.18 831.997C2128.18 831.997 2120.63 830.546 2122.58 847.717Z" fill="#F0582E"/>
<path fill-rule="evenodd" clip-rule="evenodd" d="M2083.86 712.259C2083.86 712.259 2072.39 747.478 2098.45 774.251C2124.49 801.022 2156.54 803.497 2186.52 803.133C2186.52 803.133 2149.79 799.135 2129.66 767.059C2109.54 734.983 2085.92 702.078 2085.92 702.078L2083.86 712.259Z" fill="#F0582E"/>
<path fill-rule="evenodd" clip-rule="evenodd" d="M2083.86 712.257C2083.86 712.257 2072.39 747.468 2098.45 774.235C2123.65 800.145 2154.49 803.302 2183.64 803.144C2106.33 792.117 2111.5 742.761 2111.5 742.761C2111.5 742.761 2110.25 739.418 2108.26 734.314C2095.82 715.867 2085.92 702.078 2085.92 702.078L2083.86 712.257Z" fill="#F0A321"/>
<path fill-rule="evenodd" clip-rule="evenodd" d="M2116.19 715.577C2115.3 715.014 2138.04 774.307 2202.76 797.584C2202.76 797.584 2158.72 790.501 2130.68 775.271C2102.65 760.042 2085.45 702.144 2079.38 694.93L2116.19 715.577Z" fill="#F0582E"/>
<path fill-rule="evenodd" clip-rule="evenodd" d="M2201.66 797.156C2202.03 797.293 2202.39 797.429 2202.76 797.566C2202.76 797.566 2158.72 790.482 2130.68 775.252C2102.65 760.023 2085.45 702.126 2079.38 694.911L2098.59 705.69C2100.22 712.327 2101.21 717.244 2101.21 717.244C2101.21 717.244 2143.6 785.499 2201.66 797.156Z" fill="#F0A321"/>
<path fill-rule="evenodd" clip-rule="evenodd" d="M2082.52 698.253C2082.52 698.253 2144.12 781.907 2229.01 787.457C2169.24 756.816 2145.99 710.551 2082.52 698.253Z" fill="#F0582E"/>
<path fill-rule="evenodd" clip-rule="evenodd" d="M2082.52 698.253C2082.52 698.253 2143.17 780.596 2227.03 787.293C2168.7 768.134 2118.53 713.111 2117.4 711.538C2117.4 711.538 2116.69 710.555 2115.45 708.881C2105.61 704.291 2094.82 700.63 2082.52 698.253Z" fill="#F0A321"/>
<path fill-rule="evenodd" clip-rule="evenodd" d="M2109.78 670.901C2085.22 599.731 2169.5 554.624 2152.6 482.86C2152.6 482.86 2191.85 517.338 2163.02 564.182C2134.19 611.045 2118.5 608.303 2109.78 670.901Z" fill="#F0582E"/>
<path fill-rule="evenodd" clip-rule="evenodd" d="M2159.1 600.222C2170.73 563.924 2291.45 488.017 2210.67 404.83C2225.17 509.18 2185.94 516.537 2159.1 600.222Z" fill="#F0582E"/>
<path fill-rule="evenodd" clip-rule="evenodd" d="M2096.16 706.988C2163.79 732.1 2190.41 767.696 2247.14 769.023C2196.83 745.678 2171.23 701.751 2096.16 706.988Z" fill="#F0582E"/>
<path fill-rule="evenodd" clip-rule="evenodd" d="M2096.16 706.988C2163.79 732.1 2190.41 767.696 2247.14 769.023C2246.48 768.715 2245.84 768.409 2245.2 768.102C2232.42 766.471 2215.84 760.912 2194.9 747.639C2167.49 730.277 2146.28 715.951 2127.75 707.83C2118.22 706.55 2107.78 706.187 2096.16 706.988Z" fill="#F0A321"/>
<path fill-rule="evenodd" clip-rule="evenodd" d="M2108.04 707.572C2156.29 676.876 2226.67 735.837 2290.88 742C2229.86 770.106 2188.31 714.329 2108.04 707.572Z" fill="#F0582E"/>
<path fill-rule="evenodd" clip-rule="evenodd" d="M2108.04 707.489C2112.56 704.605 2117.28 702.512 2122.17 701.096C2155.69 700.023 2194.5 719.894 2224.5 735.598C2242.98 745.262 2265.03 746.507 2284.68 744.552C2226.97 766.284 2185.56 714.028 2108.04 707.489Z" fill="#F0A321"/>
<path fill-rule="evenodd" clip-rule="evenodd" d="M2111.85 706.566C2172.55 649.482 2277.09 731.598 2336.09 704.615C2319.01 782.619 2170.48 673.904 2111.85 706.566Z" fill="#F0582E"/>
<path fill-rule="evenodd" clip-rule="evenodd" d="M2111.85 706.348C2113.35 704.931 2114.87 703.631 2116.41 702.39C2154.82 682.361 2231.47 705.904 2279.57 717.161C2303.75 722.819 2321.47 718.646 2333.88 711.975C2308.72 775.403 2168.44 674.599 2111.85 706.348Z" fill="#F0A321"/>
<path fill-rule="evenodd" clip-rule="evenodd" d="M2122.71 699.27C2156.75 644.349 2303.5 688.056 2358.52 659.068C2311.8 744.701 2187.61 664.049 2122.71 699.27Z" fill="#F0582E"/>
<path fill-rule="evenodd" clip-rule="evenodd" d="M2122.71 699.178C2123.39 698.063 2124.13 697.009 2124.92 695.978C2158.13 673.582 2201.69 678.782 2261.84 689.105C2300.17 695.683 2331.07 682.989 2352.34 668.673C2301.61 738.225 2184.93 665.293 2122.71 699.178Z" fill="#F0582E"/>
<path fill-rule="evenodd" clip-rule="evenodd" d="M2127.73 693.503C2172.5 602.927 2315.83 664.097 2374.85 605.268C2369.11 710.281 2203.03 636.835 2127.73 693.503Z" fill="#F0582E"/>
<path fill-rule="evenodd" clip-rule="evenodd" d="M2127.73 693.457C2128.25 692.383 2128.82 691.33 2129.38 690.295C2166.41 656.874 2244.06 647.002 2297.02 649.862C2330.42 651.672 2355.28 637.353 2372.52 621.111C2350.82 702.38 2198.84 639.846 2127.73 693.457Z" fill="#F0A321"/>
<path fill-rule="evenodd" clip-rule="evenodd" d="M2133.81 683.36C2176.72 615.655 2383.25 668.638 2374.21 525.402C2329.9 615.555 2151.58 595.312 2133.81 683.36Z" fill="#F0582E"/>
<path fill-rule="evenodd" clip-rule="evenodd" d="M2133.81 683.335C2173.93 619.967 2357.06 662.119 2373.51 550.878C2363.83 576.579 2346.12 602.659 2313.67 611.266C2246.65 629.028 2168.34 628.856 2134.09 682.177C2134 682.563 2133.88 682.947 2133.81 683.335Z" fill="#F0A321"/>
<path fill-rule="evenodd" clip-rule="evenodd" d="M2140.93 665.154C2164.16 568.087 2278.66 600.111 2347.93 475.862C2351.69 624.551 2188.22 600.415 2140.93 665.154Z" fill="#F0582E"/>
<path fill-rule="evenodd" clip-rule="evenodd" d="M2346.16 507.51C2328.66 612.177 2206.72 607.202 2153.27 652.185C2179.17 615.624 2233.4 596.878 2280.45 582.16C2309.62 573.045 2331.73 538.411 2346.16 507.51Z" fill="#F0A321"/>
<path fill-rule="evenodd" clip-rule="evenodd" d="M2325.88 395.817C2325.88 395.817 2324.83 446.371 2260.4 514.597C2195.98 582.823 2138.04 615.17 2135.67 643.545C2133.28 671.9 2114.64 716.545 2076.81 694.525C2076.81 694.525 2085.4 706.943 2097.92 709.246C2104.89 710.529 2113.11 708.665 2121.76 699.775C2145.91 674.916 2135.67 643.563 2176.1 615.504C2216.54 587.408 2360.97 528.427 2325.88 395.817Z" fill="#F0582E"/>
<path fill-rule="evenodd" clip-rule="evenodd" d="M2142.3 661.222C2147.9 646.097 2155.17 630.491 2176.37 615.759C2213.62 589.923 2339.04 537.85 2331.21 426.18C2326.89 459.525 2314.59 502.972 2287.75 524.436C2241.16 561.675 2157.43 598.4 2142.57 659.533C2142.43 660.117 2142.39 660.653 2142.3 661.222Z" fill="#F0A321"/>
<path fill-rule="evenodd" clip-rule="evenodd" d="M2066.12 758.992C2064.07 773.943 2075.59 804.775 2091.35 818.648C2107.13 832.522 2113.69 843.644 2116.53 855.724C2119.36 867.805 2132.42 884.303 2145.84 890.141C2145.84 890.141 2129.26 872.145 2127.12 857.007C2124.99 841.853 2125.63 834.482 2125.63 834.482C2125.63 834.482 2135.29 864.186 2163.58 874.028C2163.58 874.028 2146.3 859.106 2141.59 844.466L2150.59 851.106C2150.59 851.106 2150.68 850.758 2146.88 841.326C2143.08 831.894 2146.94 831.13 2135.66 822.201C2124.36 813.253 2077.16 773.461 2073.5 761.901C2069.86 750.342 2066.12 758.992 2066.12 758.992Z" fill="#F0582E"/>
<path fill-rule="evenodd" clip-rule="evenodd" d="M2126.21 834.725C2127.03 837.123 2137.06 864.71 2164.13 874.121C2164.13 874.121 2163.86 873.88 2163.38 873.457C2158.74 871.772 2152.93 867.685 2146.19 858.869C2128.35 835.574 2125.4 824 2125.4 824C2125.4 824 2125.36 828.534 2126.21 834.725Z" fill="#F0A321"/>
<path fill-rule="evenodd" clip-rule="evenodd" d="M2066.1 758.989C2064.06 773.925 2075.56 804.728 2091.29 818.588C2107.04 832.449 2113.6 843.56 2116.43 855.63C2119.26 867.699 2132.3 884.181 2145.69 890.014C2145.69 890.014 2145.57 889.876 2145.35 889.639C2132.11 880.029 2122.62 860.498 2120.3 849.521C2117.27 835.248 2109.86 822.52 2101.67 816.237C2093.48 809.954 2084.2 792.33 2084.2 792.33C2084.2 792.33 2097.21 801.293 2111.46 808.742C2122.96 814.764 2138.48 827.143 2144.04 831.691C2143.15 829.144 2141.34 826.703 2135.57 822.122C2124.29 813.182 2077.17 773.428 2073.51 761.879C2069.83 750.347 2066.1 758.989 2066.1 758.989Z" fill="#F0A321"/>
<path fill-rule="evenodd" clip-rule="evenodd" d="M2066.14 735.529C2066.14 735.529 2063.22 771.103 2086.59 788.817C2109.96 806.532 2146.33 828.929 2154.4 850.441C2154.4 850.441 2154.55 841.333 2147.35 832.923C2147.35 832.923 2160.26 836.503 2162.7 841.151C2162.7 841.151 2164.12 835.365 2156.93 832.167C2149.76 828.971 2143.93 824.097 2143.93 824.097C2153.87 828.148 2169.64 824.269 2172.93 834.985C2172.93 834.985 2175.7 826.814 2164.69 824.199C2153.67 821.584 2146.25 823.266 2140.9 817.419C2140.9 817.419 2162.35 822.07 2176.96 818.3C2176.96 818.3 2155.6 817.078 2145.14 812.789C2145.14 812.789 2163.44 809.395 2183.23 815.555C2143.18 795.499 2124.11 802.303 2095.32 782.31C2095.32 782.31 2074.6 735.591 2075.54 731.485C2076.46 727.414 2070.48 724.298 2066.14 735.529Z" fill="#F0582E"/>
<path fill-rule="evenodd" clip-rule="evenodd" d="M2144.73 824.269C2144.56 824.126 2144.45 824.043 2144.45 824.043C2154.44 828.14 2170.29 824.217 2173.59 835.053C2173.59 835.053 2173.69 834.796 2173.76 834.33C2173.63 832.609 2173.07 830.595 2171.46 828.869C2167.84 824.974 2150.7 825.328 2145.95 823.278C2141.2 821.228 2140.01 820.245 2140.01 820.245C2140.01 820.245 2141.59 822.364 2144.73 824.269Z" fill="#F0582E"/>
<path fill-rule="evenodd" clip-rule="evenodd" d="M2066.13 735.52C2066.13 735.52 2063.21 771.053 2086.55 788.747C2109.89 806.441 2146.22 828.813 2154.27 850.301C2154.27 850.301 2154.43 841.202 2147.23 832.803C2147.23 832.803 2159.5 836.206 2162.37 840.692C2161.46 837.266 2158.26 835.733 2152.97 833.447C2147.06 830.877 2142.29 827.138 2142.29 827.138L2143.58 832.262C2143.58 832.262 2140.88 827.193 2135.63 821.005C2130.37 814.835 2115.36 802.196 2098.07 791.022C2080.78 779.848 2080.22 767.021 2079.92 763.73C2079.92 763.73 2080.7 757.777 2081.67 750.183C2078.01 741.016 2075.13 733.072 2075.49 731.479C2076.43 727.415 2070.47 724.302 2066.13 735.52Z" fill="#F0582E"/>
<path fill-rule="evenodd" clip-rule="evenodd" d="M2019.59 724.631C2019.59 724.631 2033.15 720.197 2039.21 728.077C2045.27 735.974 2043.08 761.996 2045.21 770.502C2047.34 779.009 2060.32 812.573 2078.26 829.649C2096.21 846.725 2096.02 862.772 2091.87 873.177C2091.87 873.177 2101.05 866.28 2096.94 849.871C2096.94 849.871 2100.86 853.119 2105.49 863.387C2110.13 873.657 2107.61 885.895 2115.61 889.157C2115.61 889.157 2110.6 881.793 2114.82 872.301C2119.03 862.81 2115.05 834.521 2089.99 812.889C2064.93 791.258 2070.01 743.824 2074.01 732.797C2078 721.77 2083.42 730.571 2083.42 730.571C2083.42 730.571 2089.27 711.471 2081.05 701.592C2072.8 691.749 2032.43 693.518 2019.59 724.631Z" fill="#FFCC00"/>
<path fill-rule="evenodd" clip-rule="evenodd" d="M2019.58 724.63C2019.58 724.63 2033.14 720.196 2039.2 728.075C2045.26 735.973 2043.07 761.993 2045.2 770.499C2047.33 779.005 2060.31 812.568 2078.25 829.644C2096.2 846.719 2096 862.765 2091.86 873.17C2091.86 873.17 2101.03 866.273 2096.93 849.864C2096.93 849.864 2100.85 853.113 2105.47 863.381C2109.86 873.076 2107.85 884.532 2114.35 888.528C2110.52 883.71 2112.14 876.14 2110.71 863.063C2108.64 844.139 2091.63 834.414 2076.18 816.69C2060.72 798.966 2054.09 775.749 2056.33 757.187C2058.57 738.625 2049.71 728.908 2054.32 721.594C2058.92 714.28 2066.39 728.726 2066.39 728.726C2069 712.321 2060.43 707.743 2060.43 707.743C2075.02 707.699 2075.26 724.424 2075.26 724.424L2084.36 726.646C2085.59 720.534 2086.96 708.664 2081.03 701.592C2072.79 691.749 2032.42 693.518 2019.58 724.63Z" fill="#FFAA00"/>
<path fill-rule="evenodd" clip-rule="evenodd" d="M2014 725.108C2014 725.108 2028.62 724.323 2033.86 731.074C2039.11 737.825 2028.07 750.572 2029.8 760.112C2029.8 760.112 2031.36 752.406 2035.76 748.471C2035.76 748.471 2032.78 756.193 2038.74 766.906C2044.7 777.618 2046.56 785.274 2046.26 788.463C2046.26 788.463 2051.12 784.967 2047.31 772.042C2043.49 759.135 2043.15 746.331 2045.32 740.763C2047.47 735.212 2046.27 716.618 2014 725.108Z" fill="#F0582E"/>
<path fill-rule="evenodd" clip-rule="evenodd" d="M2057.31 693.388C2057.31 693.388 2081.5 687.743 2088.17 701.778C2094.83 715.811 2076.84 730.88 2094.67 759.491C2112.51 788.101 2130.16 796.484 2143.03 798.869C2143.03 798.869 2139.08 804.507 2109.74 792.403C2080.39 780.317 2070.85 758.701 2072.83 734.912C2074.79 711.123 2065.63 705.075 2065.63 705.075C2065.63 705.075 2077.56 706.821 2079.38 725.595C2079.38 725.595 2084.94 719.656 2077.76 706.853C2070.58 694.05 2050.13 702.552 2037.58 711.207C2037.57 711.226 2046.07 695.393 2057.31 693.388Z" fill="#F0582E"/>
<path fill-rule="evenodd" clip-rule="evenodd" d="M2142.86 799.06C2141.84 799.923 2135.8 803.151 2109.75 792.419C2080.39 780.331 2070.85 758.711 2072.83 734.918C2074.79 711.124 2065.63 705.076 2065.63 705.076C2065.63 705.076 2077.56 706.822 2079.38 725.599C2079.38 725.599 2084.94 719.659 2077.76 706.854C2070.58 694.049 2050.14 702.552 2037.57 711.209C2037.57 711.209 2039.04 708.477 2041.57 705.127C2046.08 702.617 2049.87 700.598 2049.87 700.598C2049.87 700.598 2059.94 688.778 2073.49 697.446C2087.04 706.114 2087.31 720.543 2080.14 740.172C2080.14 740.172 2079.29 732.966 2076.93 729.885C2076.93 729.885 2073.18 758.215 2092.78 776.298C2107.7 790.104 2129.4 798.776 2142.86 799.06Z" fill="#FFAA00"/>
<path fill-rule="evenodd" clip-rule="evenodd" d="M1986.2 749.213C1986.2 749.213 1990.52 737.15 2006.56 730.602C2022.6 724.053 2031.88 729.684 2052.94 715.72C2052.94 715.72 2038.31 714.277 2021.92 722.331C2021.92 722.331 2021.63 719.796 2034.74 712.605C2047.85 705.413 2061.26 693.119 2061.26 693.119C2061.26 693.119 2021.68 701.431 2007.26 708.553C1992.84 715.676 1984.77 732.537 1984.48 734.717C1984.2 736.877 1986.2 749.213 1986.2 749.213Z" fill="#FFCC00"/>
<path fill-rule="evenodd" clip-rule="evenodd" d="M1986.2 749.208C1986.2 749.208 1990.52 737.145 2006.56 730.596C2022.6 724.048 2031.88 729.678 2052.94 715.715C2052.94 715.715 2052.65 715.696 2052.12 715.66C2038.17 721.287 2010.27 725.814 2010.27 725.814C2010.27 725.814 2014.99 719.683 2030.67 709.906C2039.55 704.37 2047.67 701.484 2053.05 700.017C2056.62 697.182 2059.32 694.81 2060.53 693.735L2059.3 693.523C2052.26 695.065 2027.49 700.621 2012.94 706.114C2006.5 711.608 1996.2 720.255 1987.79 727.685C1985.69 731.178 1984.57 733.916 1984.47 734.71C1984.2 736.872 1986.2 749.208 1986.2 749.208Z" fill="#FFCC00"/>
<path fill-rule="evenodd" clip-rule="evenodd" d="M1992.71 733.298C1992.71 733.298 2006.11 726.817 2018.34 714.896C2030.57 702.976 2054.26 694.942 2074.23 693.512C2094.19 692.082 2098.57 688.322 2098.57 688.322C2098.57 688.322 2076.95 691.191 2069.7 688.223C2069.7 688.223 2099.65 679.784 2114.17 681.875C2114.17 681.875 2087.08 671.829 2073.36 677.784C2059.64 683.74 2059.96 682.697 2059.96 682.697C2059.96 682.697 2078.43 671.493 2081.26 664.006C2081.26 664.006 2070.75 671.353 2058.18 674.192C2045.61 677.032 2038.21 683.28 2027.74 692.422C2017.22 701.617 1990.37 726.269 1992.71 733.298Z" fill="#F0582E"/>
<path fill-rule="evenodd" clip-rule="evenodd" d="M1992.71 733.177C1992.71 733.177 2006.12 726.693 2018.34 714.769C2030.57 702.844 2054.27 694.806 2074.24 693.376C2089.04 692.31 2095.27 689.98 2097.51 688.84C2082.62 692.46 2053.23 691.654 2053.23 691.654C2054.76 688.841 2060.57 685.624 2060.57 685.624C2054.26 687.145 2045.96 692.513 2045.96 692.513L2051.39 684.263C2044.7 688.412 2035.75 699.472 2033.93 696.828C2032.4 694.596 2047.74 680.152 2055.62 674.7C2044.53 677.789 2037.45 683.78 2027.69 692.301C2017.22 701.485 1990.37 726.145 1992.71 733.177Z" fill="#F0582E"/>
<path fill-rule="evenodd" clip-rule="evenodd" d="M1986.8 694.715C1986.8 694.715 1992.44 662.339 2003.6 652.144C2003.6 652.144 1996.02 688.329 1998.33 696.198C2000.64 704.068 1986.06 707.483 1986.06 707.483L1986.8 694.715Z" fill="#F0582E"/>
<path fill-rule="evenodd" clip-rule="evenodd" d="M1986.46 707.633C1989.71 693.558 2003.81 664.854 2022.95 653.384C2022.95 653.384 2014.75 664.133 2012.65 674.19C2012.65 674.19 2030.24 652.308 2044.34 649.36C2044.34 649.36 2021.86 663.882 2014.45 686.463C2014.45 686.463 2030.37 656.578 2051.03 653.752C2051.03 653.752 2033.33 663.736 2030.48 676.106C2030.48 676.106 2055.41 664.353 2062.37 654.248C2062.37 654.248 2053.54 668.657 2041.57 674.763C2041.57 674.763 2060.43 667.834 2067.12 662.25C2062.56 672.535 2036.61 680.405 2023.6 699.263C2019.3 705.489 1992.23 720.803 1987.5 722.218C1982.77 723.633 1977.73 725.437 1977.73 725.437L1986.46 707.633Z" fill="#F0582E"/>
<path fill-rule="evenodd" clip-rule="evenodd" d="M1986.45 707.534C1989.62 693.819 2003.07 666.231 2021.46 654.239C2015.95 660.119 2005.12 674.029 2000.34 685.74C1994.29 700.526 1993.51 707.745 1993.51 707.745C1993.51 707.745 2000.5 693.616 2008.39 687.077C2008.39 687.077 2002.93 698.407 2002.7 701.274C2002.7 701.274 2005.5 700.55 2013.16 692.155C2020.81 683.759 2026.42 679.411 2026.42 679.411C2026.42 679.411 2021.64 684.856 2021.37 687.924C2021.1 690.974 2039.41 676.876 2050.29 676.282C2041.18 682.126 2030.51 689.074 2023.54 699.17C2019.25 705.391 1992.2 720.691 1987.47 722.105C1982.75 723.519 1977.72 725.321 1977.72 725.321L1986.45 707.534Z" fill="#F0A321"/>
<path fill-rule="evenodd" clip-rule="evenodd" d="M1959.17 746.512C1959.03 747.152 1955.19 757.14 1957.74 763.64C1960.29 770.121 1967.95 773.51 1973.34 773.907C1973.34 773.907 1968.21 768.071 1970.7 760.59C1973.19 753.091 1978.84 751.445 1980.67 747.262C1982.51 743.079 1982.56 742.878 1982.56 742.878C1982.56 742.878 1982.99 744.318 1984.82 752.551C1986.65 760.784 1983.51 764.434 1983.51 764.434L1981.05 756.512C1981.05 756.512 1982.62 765.915 1982.24 769.862C1981.88 773.81 1981.28 774.567 1981.28 774.567C1981.28 774.567 1986.64 770.286 1987.65 763.022C1988.66 755.759 1986.3 746.525 1988.6 741.315C1990.89 736.122 1994.8 730.612 1995.97 724.509C1997.16 718.409 1996 723.954 1996 723.954C1996 723.954 1990.27 726.003 1984.15 729.918C1979.13 733.127 1973.94 738.312 1970.73 738.598C1963.58 739.215 1960.24 743.279 1959.17 746.512Z" fill="#FFCC00"/>
<path fill-rule="evenodd" clip-rule="evenodd" d="M1959.18 746.514C1959.12 746.77 1958.44 748.599 1957.84 751.101C1959.15 749.797 1961.06 748.718 1963.62 749.298C1969.05 750.496 1971.43 750.581 1968.76 756.471C1966.34 761.803 1967.17 770.228 1973.21 773.75C1972.41 772.75 1968.46 767.345 1970.72 760.592C1973.21 753.094 1978.86 751.448 1980.69 747.265C1982.53 743.082 1982.58 742.882 1982.58 742.882C1982.58 742.882 1983.01 744.321 1984.84 752.553C1986.67 760.786 1983.53 764.436 1983.53 764.436L1981.07 756.514C1981.07 756.514 1982.64 765.917 1982.26 769.864C1981.9 773.811 1981.3 774.569 1981.3 774.569C1981.3 774.569 1986.66 770.287 1987.67 763.024C1988.68 755.761 1986.32 746.528 1988.62 741.318C1990.91 736.126 1994.82 730.616 1995.99 724.514C1997.18 718.413 1996.02 723.959 1996.02 723.959C1996.02 723.959 1990.29 726.007 1984.17 729.922C1979.15 733.131 1973.96 738.315 1970.75 738.602C1963.58 739.218 1960.24 743.282 1959.18 746.514Z" fill="#FF8F00"/>
<path fill-rule="evenodd" clip-rule="evenodd" d="M1972.05 675.701C1972.05 675.701 1974.69 684.983 1964.97 698.188C1955.26 711.392 1950.46 725.706 1953.6 736.65C1956.73 747.594 1958.94 748.317 1958.94 748.317C1958.94 748.317 1959.16 744.575 1961.83 745.181C1964.5 745.787 1965.44 746.424 1965.44 746.424C1965.44 746.424 1960.66 741.79 1968.43 732.377C1976.2 722.964 1982.78 715.969 1981.43 697.17C1980.1 678.372 1980.32 664.156 1984.37 656.806C1984.37 656.806 1975.29 668.148 1976.46 682.901C1977.65 697.655 1965.91 711.075 1965.91 711.075C1965.91 711.075 1980.09 685.07 1972.05 675.701Z" fill="#F0582E"/>
<path fill-rule="evenodd" clip-rule="evenodd" d="M1952.68 730.87C1952.77 732.875 1953.08 734.82 1953.6 736.65C1956.74 747.594 1958.95 748.317 1958.95 748.317C1958.95 748.317 1959.16 744.575 1961.83 745.181C1964.5 745.786 1965.44 746.423 1965.44 746.423C1965.44 746.423 1964.04 745.07 1963.99 742.329C1963.88 742.802 1963.82 743.076 1963.82 743.076C1963.82 743.076 1959.29 738.274 1960.76 732.803C1960.76 732.803 1957.88 735.939 1958 741.11C1958.12 746.263 1952.21 735.132 1953.18 730.904C1953.17 730.885 1952.99 730.872 1952.68 730.87ZM1965.55 736.623C1966.23 735.337 1967.15 733.919 1968.43 732.395C1976.2 722.983 1982.78 715.988 1981.43 697.189C1980.1 678.392 1980.32 664.176 1984.37 656.826C1984.37 656.826 1983.81 657.528 1983 658.788L1977.25 672.426C1976.55 675.617 1976.17 679.163 1976.48 682.921C1977.66 697.675 1965.93 711.095 1965.93 711.095C1965.93 711.095 1976.75 691.211 1974.13 679.931C1973.93 681.269 1971.66 696.419 1965.55 704.223C1959.15 712.377 1959.41 727.365 1959.41 727.365C1959.41 727.365 1962.02 718.806 1967.84 716.997C1973.66 715.169 1974.63 722.303 1970.93 725.273C1968.84 726.908 1966.88 732.217 1965.55 736.623Z" fill="#F0A321"/>
<path fill-rule="evenodd" clip-rule="evenodd" d="M1971.95 748.788C1972.94 748.334 1977.22 734.5 1988.26 729.545C1999.3 724.59 2016.31 709.97 2025.68 697.927C2035.04 685.885 2042.85 684.471 2042.85 684.471C2042.85 684.471 2027.28 686.185 2019.98 700.69C2019.98 700.69 2021.43 696.751 2020.98 694.414C2020.98 694.414 2017.06 702.839 2010.03 707.113C2010.03 707.113 2015.19 703.775 2017.45 693.527C2017.45 693.527 2011.22 704.366 2002.72 707.853C1994.21 711.359 1973.21 730.903 1970.22 735.744C1967.24 740.568 1969.44 749.346 1969.44 749.346C1969.44 749.346 1971 751.05 1971.95 748.788Z" fill="#F0A321"/>
<path fill-rule="evenodd" clip-rule="evenodd" d="M1971.95 748.788C1972.94 748.334 1977.22 734.5 1988.26 729.545C1999.3 724.59 2016.31 709.97 2025.68 697.927C2035.04 685.885 2042.85 684.471 2042.85 684.471C2042.85 684.471 2027.28 686.185 2019.98 700.69C2019.98 700.69 2021.43 696.751 2020.98 694.414C2020.98 694.414 2017.06 702.839 2010.03 707.113C2010.03 707.113 2015.19 703.775 2017.45 693.527C2017.45 693.527 2014.38 698.866 2009.61 703.254C2010.74 702.864 2011.58 702.641 2011.49 702.858C2011.24 703.474 2007.29 710.112 2007.29 710.112C2007.29 710.112 2008.31 709.547 2010.71 708.628C2013.13 707.711 2017.66 703.326 2017.66 703.326C2017.66 703.326 2017.21 705.249 2010.36 711.116C2003.51 717.002 1986.8 727.978 1984.09 727.258C1982.33 726.806 1983.13 723.789 1983.9 721.72C1977.43 727.501 1971.69 733.35 1970.24 735.708C1967.26 740.532 1969.46 749.31 1969.46 749.31C1969.46 749.31 1971 751.05 1971.95 748.788Z" fill="#F0582E"/>
<path fill-rule="evenodd" clip-rule="evenodd" d="M2029.04 622.046C2024.33 614.08 2005.75 619.095 1997.5 643.607C1989.27 668.101 1991.04 703.085 1985.78 715.533C1980.52 727.982 1969.25 734.395 1969.41 742.242C1969.57 750.089 1970.08 749.753 1970.08 749.753C1970.08 749.753 1964.42 750.726 1964.02 741.937C1963.65 733.149 1978.72 725.342 1980.17 709.599C1982.61 682.845 1986.14 623.745 2018.44 616.278C2028 614.066 2033.63 619.779 2033.19 627.66C2032.57 638.901 2019.08 649.296 2013.54 644.942C2006.65 639.533 2037.05 635.588 2029.04 622.046Z" fill="#F0A321"/>
<path fill-rule="evenodd" clip-rule="evenodd" d="M1976.77 720.481C1978.48 717.317 1979.76 713.755 1980.13 709.686C1982.57 682.938 1986.1 623.85 2018.36 616.384C2022.87 615.335 2026.51 616.061 2029.04 617.953C1989.9 605.991 1987.99 687.136 1982.88 706.407C1980.66 714.686 1978.48 718.632 1976.77 720.481Z" fill="#F0582E"/>
<path fill-rule="evenodd" clip-rule="evenodd" d="M1987.75 706.28C1987.75 706.28 1979.75 723.625 1974.53 730.304C1969.31 737.011 1971.51 749.258 1971.51 749.258C1971.51 749.258 1980.49 735.718 1986.97 727.085C1993.46 718.451 1997.44 716.422 1997.44 716.422L1987.02 722.468C1987.01 722.497 1989.17 712.383 1987.75 706.28Z" fill="black"/>
<path fill-rule="evenodd" clip-rule="evenodd" d="M1979.94 728.687C1979.94 728.687 1973.62 736.669 1973.01 740.025C1972.41 743.381 1972.2 744.273 1972.2 744.273C1972.2 744.273 1980.04 737.043 1979.94 728.687Z" fill="white"/>
<path fill-rule="evenodd" clip-rule="evenodd" d="M2135.01 933.824C2135.01 933.824 2122.93 986.664 2031.7 952.601C2031.7 952.601 2109.25 973.777 2135.01 933.824Z" fill="#F0582E"/>
<path fill-rule="evenodd" clip-rule="evenodd" d="M2115.97 898.38C2118.06 920.5 2106.13 928.929 2078.16 927.489C2050.19 926.068 2033.34 936.801 2029.54 946.221C2029.54 946.221 2035.97 920.281 2063.41 917.726C2090.82 915.151 2109.7 922.126 2115.97 898.38Z" fill="#FFCC00"/>
<path fill-rule="evenodd" clip-rule="evenodd" d="M2101.52 668.996C2100.98 665.014 2092.56 651.978 2087.28 653.376C2082 654.773 2101.52 668.996 2101.52 668.996Z" fill="#F0582E"/>
<path fill-rule="evenodd" clip-rule="evenodd" d="M2218.36 890.642C2218.36 890.642 2247.71 920.488 2222.24 973.625C2222.26 973.626 2258.03 929.029 2218.36 890.642Z" fill="#F0582E"/>
<path fill-rule="evenodd" clip-rule="evenodd" d="M2188.01 809.315C2188.01 809.315 2223.58 825.773 2254.32 810.24C2254.34 810.222 2223.4 817.163 2188.01 809.315Z" fill="#FFAA00"/>
<path fill-rule="evenodd" clip-rule="evenodd" d="M2202.49 825.471C2202.49 825.471 2263.13 844.098 2276.88 892.162C2276.89 892.144 2277.51 843.605 2202.49 825.471Z" fill="#FFAA00"/>
<path fill-rule="evenodd" clip-rule="evenodd" d="M1965.89 694.784C1972.68 669.119 1951.76 628.645 1963.06 614.528C1969.83 606.075 1976.98 614.16 1976.18 624.128C1975.38 634.077 1969.02 636.049 1968.31 633.061C1967.6 630.073 1970.62 627.892 1971.49 624.9C1972.35 621.908 1971.36 617.274 1968.58 617.953C1953.72 621.567 1976.35 673.51 1965.89 694.784Z" fill="#F0A321"/>
</g>
<defs>
<linearGradient id="paint0_linear_738_437" x1="2791.88" y1="1377.19" x2="1763.25" y2="800.837" gradientUnits="userSpaceOnUse">
<stop offset="0.1963"/>
<stop offset="0.2772" stop-color="#060201"/>
<stop offset="0.3801" stop-color="#150803"/>
<stop offset="0.495" stop-color="#2F1207"/>
<stop offset="0.6186" stop-color="#541F0D"/>
<stop offset="0.7492" stop-color="#833114"/>
<stop offset="0.8835" stop-color="#BB461C"/>
<stop offset="0.9963" stop-color="#F05A24"/>
</linearGradient>
<linearGradient id="paint1_linear_738_437" x1="2592.56" y1="1615.3" x2="2398.41" y2="1083.22" gradientUnits="userSpaceOnUse">
<stop offset="0.1963"/>
<stop offset="0.2772" stop-color="#060201"/>
<stop offset="0.3801" stop-color="#150803"/>
<stop offset="0.495" stop-color="#2F1207"/>
<stop offset="0.6186" stop-color="#541F0D"/>
<stop offset="0.7492" stop-color="#833114"/>
<stop offset="0.8835" stop-color="#BB461C"/>
<stop offset="0.9963" stop-color="#F05A24"/>
</linearGradient>
<linearGradient id="paint2_linear_738_437" x1="2426.88" y1="1606.27" x2="2394.51" y2="1681.56" gradientUnits="userSpaceOnUse">
<stop offset="0.00128997" stop-color="#1B005E"/>
<stop offset="1" stop-color="#140045"/>
</linearGradient>
<linearGradient id="paint3_linear_738_437" x1="2485.81" y1="1612.82" x2="2500.97" y2="1742.01" gradientUnits="userSpaceOnUse">
<stop offset="0.00052689" stop-color="#1F0062"/>
<stop offset="1" stop-color="#140045"/>
</linearGradient>
<linearGradient id="paint4_linear_738_437" x1="2807.07" y1="1652.73" x2="2833.15" y2="1736.1" gradientUnits="userSpaceOnUse">
<stop offset="0.00052689" stop-color="#1F0062"/>
<stop offset="1" stop-color="#140045"/>
</linearGradient>
<linearGradient id="paint5_linear_738_437" x1="2710.94" y1="1594.62" x2="2695.07" y2="1700.15" gradientUnits="userSpaceOnUse">
<stop offset="0.00052689" stop-color="#1F0062"/>
<stop offset="1" stop-color="#140045"/>
</linearGradient>
<clipPath id="clip0_738_437">
<rect width="2850" height="1800" fill="white" transform="translate(0.0498047 0.078125)"/>
</clipPath>
</defs>
</svg>
