<svg width="473" height="446" viewBox="0 0 473 446" fill="none" xmlns="http://www.w3.org/2000/svg">
<g clip-path="url(#clip0_196_856)">
<path d="M190.419 50.7028L191.081 52.5765L197.213 49.0322L190.419 50.7028Z" fill="url(#paint0_linear_196_856)"/>
<path d="M191.815 54.7253L191.225 52.8189L197.213 49.0321L199.165 48.187L191.815 54.7253Z" fill="url(#paint1_linear_196_856)"/>
<path d="M194.501 59.5341L192.143 55.0464L194.94 51.8362L199.166 48.187L194.501 59.5341Z" fill="url(#paint2_linear_196_856)"/>
<path d="M216.121 33.4463C215.086 34.9597 214.103 35.6607 213.258 35.9424C212.295 37.9209 210.814 40.1812 208.561 42.3562C210.185 42.068 213.081 41.4456 213.527 40.6725C214.555 40.3843 216.553 32.8174 216.121 33.4463Z" fill="url(#paint3_linear_196_856)"/>
<path d="M207.25 38.2158C208.862 36.0407 210.244 33.5446 211.201 30.7013C211.155 28.7228 210.572 21.9224 210.572 21.9224C210.572 21.9224 204.813 17.4871 199.526 16.3209C203.155 20.4942 208.311 29.64 207.25 38.2158Z" fill="url(#paint4_linear_196_856)"/>
<path d="M193.033 49.4646C193.033 49.4646 193.931 43.0114 197.894 39.4606C201.281 36.65 200.22 34.5863 200.22 34.5863C200.22 34.5863 198.53 37.4689 196.499 37.6851C195.863 37.7506 195.261 38.3403 194.73 39.2902C193.564 41.3539 193.204 45.7237 193.033 49.4646Z" fill="url(#paint5_linear_196_856)"/>
<path d="M194.612 39.4016C195.143 38.4581 195.857 37.9406 196.492 37.8751C198.53 37.6589 200.102 34.6976 200.102 34.6976C200.102 34.6976 198.464 38.2026 193.957 37.9209C193.59 38.0061 192.535 38.3206 192.313 39.8733C192.142 40.1746 194.612 39.4016 194.612 39.4016Z" fill="url(#paint6_linear_196_856)"/>
<path d="M195.982 48.0495L193.027 49.5432C193.027 49.5432 193.806 43.588 197.469 39.8143C197.416 39.6964 201.151 37.3051 200.22 34.5797C200.233 34.2325 202.022 37.9603 197.488 41.9894C195.248 43.981 195.982 48.0495 195.982 48.0495Z" fill="url(#paint7_linear_196_856)"/>
<path d="M195.982 48.0495C195.982 48.0495 195.012 44.1711 197.482 41.9829C197.482 41.9829 197.508 43.9418 197.77 44.8262C198.117 45.9924 198.805 46.2479 198.805 46.2479L195.982 48.0495Z" fill="url(#paint8_linear_196_856)"/>
<path d="M199.487 66.8455L195.208 60.9754L195.752 56.1142L199.166 48.187L199.487 66.8455Z" fill="url(#paint9_linear_196_856)"/>
<path d="M212.767 42.1859C212.76 42.1929 212.76 42.1998 212.753 42.2068C212.76 42.1998 212.767 42.1929 212.767 42.1859Z" fill="url(#paint10_linear_196_856)"/>
<path d="M207.964 42.92C207.184 43.6275 206.32 44.3154 205.357 44.9837C205.566 45.8615 205.219 47.6304 200.613 49.7793C200.613 49.7793 208.567 48.7376 212.753 42.2124C212.543 42.4024 209.897 43.1951 207.964 42.92Z" fill="url(#paint11_linear_196_856)"/>
<path opacity="0.13" d="M210.572 21.929L216.121 33.4464C216.121 33.4464 214.208 46.6802 190.446 50.67C190.289 50.67 210.087 42.3628 210.572 21.929Z" fill="#141413"/>
<path d="M212.576 22.761L215.066 30.0724C215.066 30.0724 213.9 46.6409 190.446 50.6635C190.288 50.6701 212.092 43.2014 212.576 22.761Z" fill="url(#paint12_linear_196_856)"/>
<path opacity="0.8" d="M237.002 36.6609C236.917 38.826 236.382 39.739 234.297 40.2549C230.741 41.1384 227.144 41.8601 223.542 42.5296C221.103 42.9817 218.625 43.235 216.162 43.565C215.923 43.5974 215.676 43.5333 215.132 43.4891C214.515 41.8818 213.695 40.2251 213.241 38.4707C212.595 35.9655 212.224 33.3822 211.717 30.8362C211.493 29.7178 211.721 29.0206 212.891 28.4376C215.507 27.1359 217.99 25.5656 220.572 24.1871C221.106 23.9051 221.856 23.8227 222.459 23.9248C223.354 24.0803 224.278 24.352 225.063 24.8016C228.387 26.7054 231.665 28.6883 234.959 30.6447C236.283 31.4289 237.038 32.5374 236.989 34.1397C236.963 34.9776 237.038 35.8225 237.002 36.6609Z" fill="#FF820F"/>
<path opacity="0.8" d="M234.879 41.5595C234.75 42.4279 234.822 42.9863 234.582 43.3217C234.106 43.9895 233.512 44.5996 232.878 45.1241C227.799 49.3381 222.673 53.4938 217.619 57.7312C215.451 59.544 213.428 61.5286 211.301 63.3847C210.826 63.802 210.196 64.2722 209.623 64.2938C208.14 64.346 206.642 64.1949 205.159 64.0489C204.894 64.0241 204.668 63.64 204.18 63.2069C205.354 60.7558 206.349 58.1722 207.767 55.8443C209.674 52.7058 211.928 49.7766 213.993 46.7319C214.593 45.8521 215.244 45.3301 216.378 45.1934C218.768 44.9012 221.133 44.4356 223.499 43.97C226.425 43.3935 229.338 42.744 232.262 42.1232C232.984 41.9683 233.71 41.8116 234.88 41.5581L234.879 41.5595Z" fill="#F54F00"/>
<path opacity="0.8" d="M228.031 23.0352C229.336 24.182 230.624 25.3452 231.733 26.8006C229.375 25.5111 227.019 24.228 224.63 22.9222C224.453 21.8748 224.266 20.7694 224.035 19.4465C226.02 20.0567 226.733 21.8913 228.03 23.0348L228.031 23.0352Z" fill="#E84200"/>
<path opacity="0.8" d="M219.924 17.8467C221.356 18.2544 222.356 19.2751 222.409 21.3335C219.269 23.0568 216.146 24.8074 212.986 26.4865C212.507 26.7423 211.825 26.8804 211.318 26.7534C205.771 25.3455 200.051 24.5545 194.799 22.0894C193.191 21.3373 192.001 19.6816 191.081 16.6112C193.349 15.3552 195.598 13.9922 197.956 12.8656C198.784 12.4681 199.961 12.3812 200.855 12.6151C207.233 14.2797 213.586 16.0329 219.925 17.8439L219.924 17.8467Z" fill="#FFC24F"/>
<path opacity="0.8" d="M212.492 42.1272C212.557 42.4286 212.411 42.7783 212.34 43.2714C209.786 43.1081 207.377 42.477 205.113 41.5398C200.092 39.4719 195.029 37.5934 189.731 36.333C187.592 35.8242 185.59 34.7506 183.047 33.7458C186.876 30.5186 190.331 27.5462 193.883 24.7022C194.406 24.2835 195.452 24.2421 196.174 24.4036C200.565 25.3935 204.931 26.488 209.287 27.5421C210.428 32.7071 211.474 37.4132 212.491 42.1255L212.492 42.1272Z" fill="#FFA02D"/>
<path opacity="0.8" d="M206.342 66.2937C206.473 66.3385 206.558 66.5237 206.822 66.8123C205.113 69.0247 203.047 70.7919 200.681 72.2154C200.5 72.0769 200.317 71.9407 200.136 71.8022C200.642 70.4796 201.101 69.1326 201.668 67.8366C202.549 65.8307 202.966 65.6369 205.134 65.9881C205.543 66.0566 205.948 66.1632 206.341 66.2933L206.342 66.2937Z" fill="#F54F00"/>
<path opacity="0.8" d="M212.337 45.503C209.707 49.9946 207.141 54.1065 204.847 58.3672C202.594 62.5564 200.611 66.8968 198.249 71.6982C196.953 68.2732 195.843 65.2925 194.706 62.3169C193.567 59.3454 192.514 56.3391 191.23 53.4359C189.907 50.4592 188.301 47.6122 186.916 44.6597C185.581 41.8054 184.368 38.8934 183.105 36.0055C183.204 35.8513 183.299 35.7024 183.397 35.5482C192.963 38.8417 202.531 42.1296 212.336 45.5027L212.337 45.503Z" fill="#FF6500"/>
<path opacity="0.8" d="M195.937 71.4084C195.723 71.5433 195.516 71.6741 195.303 71.8048C193.291 69.068 191.264 66.3364 189.267 63.5888C186.765 60.1575 183.993 56.8825 181.877 53.2196C179.293 48.7609 177.263 43.9771 175.015 39.3213C173.819 36.8506 172.653 34.3669 171.483 31.8805C171.31 31.5134 171.182 31.1194 170.899 30.4021C174.498 31.9832 177.903 33.3905 180.436 35.9646C182.076 37.63 183.116 39.9798 184.136 42.16C185.911 45.9343 187.5 49.7978 189.099 53.6551C190.021 55.886 190.8 58.177 191.668 60.4342C193.079 64.0942 194.511 67.7506 195.936 71.4067L195.937 71.4084Z" fill="#F54F00"/>
<path opacity="0.8" d="M194.575 11.8622C194.63 12.0403 194.691 12.2154 194.748 12.3925C192.941 13.3362 191.13 14.2816 189.171 15.3049C188.38 14.4514 187.705 13.7252 186.692 12.6359C189.714 12.3379 192.145 12.0995 194.576 11.8611L194.575 11.8622Z" fill="#F54F00"/>
<path opacity="0.8" d="M184.376 12.6704C187.411 16.0175 190.777 18.9872 192.748 23.3208C189.908 25.7625 187.224 28.0029 184.623 30.3422C183.689 31.1804 182.989 31.3056 181.767 30.7765C178.026 29.1568 174.172 27.7969 170.384 26.2824C167.973 25.3183 166.133 23.5403 163.998 21.678C170.827 18.4928 177.289 15.0889 184.376 12.6718L184.376 12.6704Z" fill="#FF820F"/>
<path opacity="0.8" d="M180.683 32.8544C178.832 32.7914 176.351 31.5991 173.935 29.7108C176.65 30.3416 178.662 31.6072 180.683 32.8544Z" fill="#FF820F"/>
<path opacity="0.8" d="M177.074 48.3025C174.957 45.9078 171.532 44.6722 170.916 40.9844C168.013 36.4733 167.178 31.1622 165.294 26.2578C165.24 26.1106 165.272 25.9272 165.264 25.762C167.603 27.0424 167.844 27.3983 168.45 29.6183C168.686 30.4759 169.13 31.289 169.545 32.091C172.294 37.3652 175.428 42.4497 177.073 48.3039L177.074 48.3025Z" fill="#E84200"/>
<path d="M212.337 45.503C202.533 42.1299 192.965 38.842 183.399 35.5485C183.3 35.7027 183.205 35.8516 183.107 36.0057C184.368 38.8947 185.582 41.8057 186.917 44.66C188.301 47.6121 189.909 50.4595 191.231 53.4362C192.515 56.3394 193.569 59.3457 194.707 62.3172C195.845 65.2928 196.954 68.2749 198.25 71.6985C200.612 66.8957 202.596 62.5553 204.848 58.3675C207.144 54.1071 209.709 49.9935 212.339 45.5033L212.337 45.503ZM169.855 17.4292C174.151 15.6168 178.348 13.5734 182.653 11.7765C184.001 11.2163 185.539 11.0299 187.011 10.8452C190.78 10.3766 194.56 10.0024 198.333 9.60038C198.792 9.55536 199.363 9.41655 199.709 9.62131C203.308 11.7522 207.426 12.2937 211.329 13.4759C214.603 14.4679 217.885 15.4169 221.149 16.4327C221.592 16.5707 221.95 16.9808 222.356 17.2527C222.628 17.4306 223.034 17.7929 223.178 17.7112C225.198 16.5639 225.737 18.5083 226.741 19.4088C228.663 21.1294 230.59 22.8541 232.442 24.6568C233.57 25.7564 234.564 26.9958 235.61 28.1793C235.775 28.3665 235.857 28.6677 236.059 28.7807C238.46 30.1403 238.312 32.4592 238.298 34.7364C238.297 35.2377 238.152 35.8005 238.327 36.2322C239.226 38.488 238.45 40.502 237.528 42.5039C237.324 42.9428 237.102 43.4344 236.745 43.7331C234.283 45.8069 231.771 47.8163 229.301 49.8853C224.189 54.1656 218.927 58.284 214.034 62.8069C209.95 66.5906 205.689 70.1378 201.38 73.6384C200.732 74.1655 200.03 74.6312 199.322 75.0709C197.404 76.2602 196.417 76.0767 195.096 74.264C191.704 69.6055 188.348 64.925 184.934 60.2859C183.406 58.2116 181.847 56.1458 180.147 54.2123C179.172 53.103 177.808 52.3442 176.761 51.2902C174.126 48.6404 171.33 46.0989 169.084 43.1408C167.785 41.437 167.031 39.0616 166.739 36.8913C166.087 32.0692 163.84 27.8292 162.455 23.2845C162.318 22.8226 162.022 22.3356 161.657 22.0314C160.761 21.2736 161.164 20.5838 161.601 19.8277C164.677 20.1216 167.219 18.5394 169.856 17.4295L169.855 17.4292ZM184.375 12.6701C177.289 15.0873 170.827 18.4911 163.998 21.6763C166.132 23.5386 167.972 25.3167 170.383 26.2807C174.171 27.7952 178.025 29.1551 181.766 30.7748C182.988 31.304 183.689 31.1791 184.623 30.3406C187.223 28.0013 189.907 25.7609 192.747 23.3191C190.777 18.9872 187.409 16.0173 184.376 12.6687L184.375 12.6701ZM194.799 22.0894C200.051 24.5545 205.772 25.3472 211.318 26.7534C211.825 26.8804 212.507 26.7423 212.987 26.4865C216.145 24.8057 219.269 23.0568 222.409 21.3335C222.357 19.2737 221.358 18.2533 219.924 17.8467C213.586 16.0357 207.233 14.2825 200.854 12.6178C199.96 12.384 198.783 12.4709 197.955 12.8683C195.598 13.9935 193.349 15.358 191.08 16.614C192.001 19.6844 193.192 21.3404 194.799 22.0922L194.799 22.0894ZM237.001 36.6592C237.036 35.8191 236.961 34.9756 236.988 34.138C237.037 32.5357 236.281 31.4268 234.958 30.643C231.664 28.6866 228.386 26.7037 225.062 24.7999C224.277 24.3503 223.353 24.0786 222.458 23.9231C221.855 23.821 221.103 23.903 220.571 24.1854C217.989 25.5639 215.506 27.1355 212.89 28.4359C211.722 29.0192 211.492 29.716 211.716 30.8345C212.222 33.3805 212.595 35.9624 213.24 38.469C213.692 40.2231 214.513 41.8797 215.131 43.4874C215.675 43.533 215.921 43.5971 216.161 43.5633C218.623 43.2332 221.102 42.98 223.541 42.5278C227.143 41.8597 230.74 41.1367 234.295 40.2532C236.381 39.7372 236.917 38.8229 237.001 36.6592ZM209.287 27.542C204.933 26.4883 200.565 25.392 196.174 24.4035C195.452 24.242 194.406 24.2834 193.883 24.7022C190.331 27.5462 186.876 30.5185 183.047 33.7458C185.59 34.7505 187.592 35.8241 189.731 36.333C195.029 37.5933 200.091 39.4715 205.113 41.5397C207.375 42.4766 209.786 43.1081 212.34 43.2713C212.411 42.7783 212.557 42.4286 212.492 42.1271C211.474 37.4146 210.429 32.7101 209.288 27.5437L209.287 27.542ZM234.58 43.3214C234.821 42.9859 234.749 42.4276 234.878 41.5591C233.707 41.8123 232.981 41.9707 232.26 42.1242C229.337 42.745 226.424 43.3946 223.498 43.971C221.132 44.4366 218.766 44.9022 216.377 45.1945C215.242 45.3311 214.591 45.8531 213.992 46.733C211.926 49.7777 209.674 52.7072 207.765 55.8453C206.346 58.1716 205.351 60.7565 204.178 63.208C204.667 63.6427 204.892 64.0252 205.157 64.0499C206.64 64.1974 208.138 64.3471 209.621 64.2949C210.195 64.2732 210.824 63.803 211.299 63.3857C213.425 61.5293 215.45 59.5436 217.617 57.7323C222.672 53.4951 227.797 49.3392 232.876 45.1252C233.51 44.5993 234.105 43.9909 234.58 43.3228L234.58 43.3214ZM231.732 26.799C230.622 25.3449 229.335 24.1804 228.03 23.0335C226.733 21.8886 226.021 20.0554 224.035 19.4452C224.266 20.7694 224.453 21.8748 224.63 22.9208C227.019 24.2266 229.375 25.5097 231.734 26.7993L231.732 26.799ZM206.822 66.8105C206.557 66.5219 206.471 66.3364 206.341 66.2919C205.947 66.1614 205.542 66.0548 205.134 65.9867C202.966 65.6354 202.55 65.8278 201.669 67.8352C201.102 69.1298 200.643 70.4767 200.137 71.8007C200.318 71.9393 200.501 72.0754 200.681 72.214C203.047 70.7918 205.112 69.0243 206.823 66.8109L206.822 66.8105ZM195.302 71.803C195.515 71.6723 195.722 71.5416 195.936 71.4067C194.51 67.7519 193.079 64.0942 191.668 60.4341C190.8 58.1769 190.021 55.886 189.099 53.655C187.5 49.7978 185.91 45.9342 184.136 42.16C183.116 39.9784 182.077 37.6286 180.436 35.9645C177.903 33.3918 174.498 31.9831 170.899 30.402C171.182 31.1193 171.309 31.5133 171.483 31.8804C172.653 34.3668 173.819 36.8505 175.015 39.3212C177.264 43.976 179.293 48.7595 181.877 53.2195C183.992 56.8807 186.765 60.1574 189.267 63.5887C191.264 66.335 193.291 69.0665 195.303 71.8048L195.302 71.803ZM194.746 12.3935C194.691 12.2153 194.63 12.0403 194.573 11.8632C192.142 12.1016 189.711 12.3399 186.688 12.6379C187.701 13.7273 188.378 14.4524 189.168 15.307C191.127 14.2836 192.938 13.3382 194.744 12.3946L194.746 12.3935ZM173.935 29.7108C176.35 31.5974 178.832 32.7914 180.683 32.8544C178.662 31.6086 176.651 30.342 173.935 29.7108ZM170.915 40.9827C171.532 44.6722 174.956 45.9078 177.073 48.3009C175.427 42.4467 172.294 37.3608 169.545 32.0879C169.129 31.2859 168.684 30.4725 168.449 29.6153C167.843 27.3952 167.602 27.0394 165.263 25.7589C165.27 25.9255 165.239 26.1075 165.293 26.2548C167.177 31.1592 168.011 36.4716 170.915 40.9813L170.915 40.9827Z" fill="#DB3500"/>
</g>
<path d="M49.5469 288.445L54.1908 296.047L77.7881 274.802L49.5469 288.445Z" fill="url(#paint13_linear_196_856)"/>
<path d="M59.406 304.789L55.0477 296.976L77.7875 274.802L85.5637 269.281L59.406 304.789Z" fill="url(#paint14_linear_196_856)"/>
<path d="M75.6579 323.38L61.1421 305.892L70.4258 289.213L85.5647 269.28L75.6579 323.38Z" fill="url(#paint15_linear_196_856)"/>
<path d="M146.215 188.871C143.082 196.47 139.425 200.458 135.98 202.48C133.596 212.052 129.204 223.341 121.343 234.975C128.2 232.2 140.321 226.778 141.556 222.974C145.799 220.753 147.526 185.711 146.215 188.871Z" fill="url(#paint16_linear_196_856)"/>
<path d="M111.749 218.035C116.794 206.997 120.536 194.765 122.087 181.407C120.046 172.772 111.167 143.491 111.167 143.491C111.167 143.491 81.788 129.394 57.5176 129.196C77.3148 144.123 108.43 179.438 111.749 218.035Z" fill="url(#paint17_linear_196_856)"/>
<path d="M59.8594 280.584C59.8594 280.584 57.7958 251.449 71.8769 232.192C84.1179 216.717 77.5447 208.653 77.5447 208.653C77.5447 208.653 72.8121 222.867 64.1064 225.703C61.3804 226.581 59.2853 229.727 57.8413 234.387C54.6458 244.521 57.1284 264.02 59.8594 280.584Z" fill="url(#paint18_linear_196_856)"/>
<path d="M57.4278 234.985C58.8779 230.354 61.5284 227.42 64.2544 226.542C72.9889 223.7 77.1312 209.251 77.1312 209.251C77.1312 209.251 73.2071 226.145 53.178 229.101C51.6482 229.815 47.3148 232.175 47.7816 239.191C47.3148 240.671 57.4278 234.985 57.4278 234.985Z" fill="url(#paint19_linear_196_856)"/>
<path d="M71.4719 271.638L59.9029 280.935C59.9029 280.935 57.7851 254.094 70.3374 234.14C69.9979 233.671 84.1515 219.712 77.5377 208.625C77.2723 207.09 88.5819 221.775 72.4458 243.66C64.4714 254.478 71.4719 271.638 71.4719 271.638Z" fill="url(#paint20_linear_196_856)"/>
<path d="M71.4742 271.637C71.4742 271.637 63.616 255.53 72.4133 243.637C72.4133 243.637 74.3495 252.203 76.321 255.838C78.928 260.63 82.1824 261.111 82.1824 261.111L71.4742 271.637Z" fill="url(#paint21_linear_196_856)"/>
<path d="M104.321 350.809L80.1014 329.043L77.9664 307.219L85.5652 269.28L104.321 350.809Z" fill="url(#paint22_linear_196_856)"/>
<path d="M139.634 230.316C139.611 230.353 139.617 230.383 139.593 230.419C139.617 230.383 139.641 230.347 139.634 230.316Z" fill="url(#paint23_linear_196_856)"/>
<path d="M119.254 238C116.493 241.828 113.34 245.649 109.737 249.475C111.473 253.13 111.595 261.211 93.3947 274.917C93.3947 274.917 127.306 262.954 139.599 230.445C138.856 231.473 127.985 237.41 119.254 238Z" fill="url(#paint24_linear_196_856)"/>
<path opacity="0.13" d="M111.173 143.52L146.217 188.871C146.217 188.871 150.132 248.687 49.6323 288.277C48.9428 288.423 128.045 233.584 111.173 143.52Z" fill="#141413"/>
<path d="M120.739 145.305L138.454 175.055C138.454 175.055 148.745 248.801 49.6262 288.248C48.9427 288.423 137.617 235.398 120.739 145.305Z" fill="url(#paint25_linear_196_856)"/>
<path opacity="0.7" d="M186.58 387.495C185.974 387.737 185.372 387.974 184.764 388.202C182.613 386.317 180.329 384.561 178.315 382.534C164.849 369.011 151.341 355.516 138.089 341.799C135.955 339.597 134.312 336.451 133.586 333.467C129.747 317.789 126.461 301.974 122.608 286.298C119.224 272.505 115.44 258.822 111.671 245.147C109.02 235.522 108.032 225.943 110.102 216.042C111.097 211.275 110.965 206.29 111.577 201.431C113.133 189.248 114.757 177.085 116.483 164.923C117.129 160.338 117.971 155.767 119.027 151.267C119.648 148.585 120.811 146.194 124.098 145.472C126.981 144.828 129.722 143.593 133.845 142.16C144.567 155.089 154.831 167.697 165.362 180.097C173.49 189.663 181.754 199.119 190.33 208.286C193.953 212.167 195.388 215.891 194.877 221.341C193.188 239.48 192.087 257.685 190.914 275.867C189.537 297.098 188.286 318.335 187.065 339.588C186.894 342.572 187.239 345.59 187.197 348.6C187.02 361.564 186.786 374.531 186.572 387.5L186.58 387.495Z" fill="#FFC24F"/>
<path opacity="0.7" d="M172.661 383.84C173.738 384.961 174.444 386.43 176.164 389.004C166.24 387.419 158.274 385.867 150.223 384.943C138.607 383.61 126.918 382.819 115.277 381.623C101.627 380.221 88.933 376.22 77.1004 366.893C92.9632 356.956 108.353 347.324 124.536 337.194C127.049 340.135 129.037 342.508 131.073 344.82C131.921 345.779 132.909 347.431 133.804 347.418C138.368 347.338 140.506 350.919 143.068 353.468C153.09 363.436 162.854 373.655 172.657 383.841L172.661 383.84Z" fill="#F54F00"/>
<path opacity="0.7" d="M80.3209 357.133C77.0007 359.391 73.9951 363.371 69.4852 361.447C64.5532 359.34 60.0416 356.274 55.3884 353.529C54.7613 353.151 54.2675 352.274 54.0548 351.529C49.7753 336.389 45.5049 321.247 41.2918 306.08C37.6466 292.956 34.5397 279.64 30.3363 266.696C25.2651 251.087 24.6283 235.209 24.727 218.256C31.5474 225.615 37.7174 232.033 43.599 238.709C46.4365 241.944 48.5789 245.455 49.6657 250.006C51.9431 259.538 55.1801 268.867 58.392 278.144C63.1088 291.786 68.1655 305.284 73.0099 318.869C77.1337 330.378 81.1631 341.913 85.3173 353.706C83.347 355.05 81.838 356.105 80.3255 357.132L80.3209 357.133Z" fill="#F54F00"/>
<path opacity="0.7" d="M92.0839 350.818C90.2663 347.267 88.2547 344.139 86.9959 340.752C80.721 323.856 74.7218 306.862 68.487 289.952C65.6516 282.296 62.317 274.808 59.4953 267.15C58.0902 263.367 57.3468 259.34 56.0922 254.67C71.276 248.824 85.1905 243.456 99.9259 237.778C107.82 269.329 115.468 299.904 123.242 330.973C112.677 337.706 102.852 343.963 92.0794 350.819L92.0839 350.818Z" fill="#FF820F"/>
<path opacity="0.7" d="M61.8129 245.293C58.559 246.396 56.1415 245.924 54.1781 242.734C52.4746 239.996 50.1326 237.652 47.6316 234.584C51.5866 229.907 55.2306 225.269 59.2816 220.993C60.3272 219.87 62.9519 219.012 64.2156 219.543C73.6748 223.488 82.9699 227.797 93.7415 232.63C90.4851 234.615 88.6688 236.191 86.5548 236.935C78.3578 239.865 70.0548 242.502 61.8134 245.298L61.8129 245.293Z" fill="#FF820F"/>
<path opacity="0.7" d="M100.743 229.42C96.9682 227.996 94.1718 227.088 91.4902 225.905C84.7718 222.945 78.2026 219.651 71.413 216.904C65.7586 214.625 61.8488 211.318 60.1472 205.134C57.1328 194.11 53.4877 183.243 50.3029 172.267C43.6716 149.476 37.1627 126.661 30.623 103.858C30.334 102.872 30.2498 101.852 29.8628 99.5824C45.0077 102.825 58.5429 107.962 72.2476 112.818C86.0535 117.703 100.389 121.084 115.547 125.416C114.954 134.903 115.008 144.142 113.681 153.181C110.55 174.46 106.783 195.665 103.245 216.888C102.619 220.616 101.767 224.32 100.743 229.42Z" fill="#FFA02D"/>
<path opacity="0.7" d="M46.6426 226.91C43.8963 228.776 41.8788 228.835 39.7067 225.987C35.2976 220.179 30.722 214.488 26.0582 208.874C22.3833 204.461 20.6045 199.419 20.9869 193.789C21.4854 186.205 22.4098 178.646 23.0872 171.081C23.2972 168.645 23.2838 166.204 23.4098 163.764C24.3278 147.541 25.2595 131.316 26.1907 115.087C26.7711 114.973 27.3487 114.874 27.9291 114.761C30.3035 122.144 32.7403 129.506 35.0324 136.899C38.3451 147.557 41.7917 158.17 44.7573 168.912C47.7263 179.681 50.1794 190.598 52.8527 201.456C53.1697 202.782 53.3392 204.154 53.7454 205.451C56.723 215.049 54.5208 221.548 46.6374 226.906L46.6426 226.91Z" fill="#E84200"/>
<path opacity="0.9" d="M17.5055 221.409C17.876 206.206 15.9112 191.082 17.4955 175.779C19.7048 154.367 20.3176 132.776 21.4506 111.26C21.8026 104.52 21.603 97.7507 21.6524 90.4397C23.9545 90.4294 25.9584 89.922 27.5571 90.4955C41.6142 95.6097 55.4204 101.4 69.6337 106.012C81.0169 109.706 92.7854 112.344 104.517 114.838C113.905 116.851 122.121 119.115 128.866 127.515C137.686 138.472 149.112 147.288 158.88 157.533C167.697 166.768 176.165 176.418 184.11 186.42C188.449 191.879 191.396 198.449 194.986 204.507C195.403 205.213 195.743 206.164 196.374 206.5C203.052 210.031 201.2 215.234 200.273 221.111C198.617 231.584 198.155 242.252 197.426 252.856C196.259 269.732 195.212 286.603 194.249 303.482C193.675 313.57 193.28 323.654 192.942 333.74C192.4 350.112 191.913 366.477 191.495 382.843C191.434 385.015 191.922 387.202 192.029 389.381C192.293 394.986 188.348 398.422 182.76 397.473C170.922 395.474 159.154 393.026 147.269 391.517C134 389.849 120.607 389.213 107.303 387.716C102.816 387.221 98.1962 386.059 94.1031 384.163C88.6965 381.673 84.0686 377.327 78.551 375.291C71.2154 372.598 65.952 366.565 58.9541 364.011C50.3957 360.893 47.9539 354.618 46.1094 346.826C41.1692 325.883 35.9986 304.993 30.5157 284.168C27.8135 273.904 24.1945 263.888 21.1177 253.712C20.1814 250.605 19.3716 247.394 19.0724 244.18C18.3326 236.609 17.3357 228.986 17.5135 221.399L17.5055 221.409ZM20.987 193.789C20.6092 199.418 22.3886 204.464 26.0583 208.874C30.7215 214.483 35.2977 220.179 39.7068 225.987C41.8789 228.835 43.8964 228.776 46.6427 226.909C54.5261 221.552 56.7282 215.053 53.7506 205.454C53.3438 204.153 53.1744 202.781 52.858 201.459C50.1795 190.598 47.7316 179.685 44.7625 168.916C41.7969 158.174 38.3503 147.56 35.0376 136.903C32.7455 129.51 30.3087 122.148 27.9343 114.765C27.3539 114.878 26.7764 114.977 26.1959 115.091C25.2642 131.316 24.3325 147.54 23.415 163.768C23.289 166.208 23.3024 168.649 23.0924 171.085C22.415 178.65 21.486 186.209 20.9921 193.793L20.987 193.789ZM184.764 388.202C185.372 387.974 185.974 387.737 186.581 387.495C186.8 374.525 187.028 361.559 187.206 348.594C187.248 345.584 186.903 342.566 187.074 339.583C188.295 318.33 189.546 297.092 190.923 275.862C192.095 257.675 193.196 239.474 194.886 221.335C195.397 215.885 193.962 212.161 190.339 208.281C181.763 199.114 173.5 189.662 165.371 180.091C154.84 167.692 144.576 155.083 133.854 142.154C129.731 143.588 126.99 144.822 124.107 145.466C120.82 146.188 119.652 148.58 119.036 151.261C117.98 155.761 117.137 160.328 116.491 164.917C114.77 177.079 113.142 189.242 111.586 201.425C110.974 206.284 111.106 211.269 110.111 216.036C108.041 225.937 109.029 235.521 111.68 245.141C115.449 258.816 119.233 272.504 122.617 286.292C126.47 301.968 129.755 317.783 133.595 333.461C134.321 336.446 135.963 339.591 138.098 341.794C151.354 355.51 164.858 369 178.323 382.528C180.338 384.555 182.622 386.312 184.772 388.196L184.764 388.202ZM176.165 389.004C174.44 386.435 173.738 384.961 172.662 383.84C162.859 373.654 153.095 363.436 143.073 353.467C140.511 350.918 138.373 347.337 133.809 347.418C132.914 347.43 131.925 345.774 131.078 344.82C129.042 342.508 127.054 340.134 124.541 337.193C108.358 347.323 92.9682 356.955 77.1054 366.892C88.9386 376.224 101.628 380.225 115.282 381.623C126.923 382.819 138.612 383.609 150.228 384.943C158.279 385.867 166.245 387.419 176.169 389.003L176.165 389.004ZM69.4818 361.453C73.9917 363.376 77.0018 359.396 80.3175 357.138C81.8299 356.111 83.339 355.056 85.3093 353.712C81.1505 341.919 77.1211 330.384 73.0018 318.874C68.1529 305.29 63.0957 291.788 58.384 278.15C55.1721 268.873 51.9396 259.543 49.6576 250.012C48.5709 245.461 46.4284 241.95 43.591 238.715C37.7094 232.039 31.5394 225.621 24.719 218.262C24.6197 235.21 25.2571 251.093 30.3283 266.702C34.5317 279.646 37.634 292.962 41.2837 306.086C45.5009 321.248 49.7667 336.39 54.0468 351.535C54.2641 352.279 54.7578 353.156 55.3804 353.534C60.0336 356.28 64.5458 359.35 69.4772 361.453L69.4818 361.453ZM86.9924 340.752C88.2513 344.14 90.2628 347.268 92.0805 350.819C102.853 343.962 112.678 337.706 123.243 330.973C115.464 299.904 107.816 269.33 99.927 237.778C85.1917 243.456 71.2725 248.825 56.0933 254.67C57.3434 259.34 58.0913 263.367 59.4965 267.15C62.3181 274.808 65.6528 282.296 68.4882 289.952C74.7235 306.866 80.7227 323.861 86.997 340.751L86.9924 340.752ZM54.1785 242.734C56.142 245.924 58.5594 246.396 61.8133 245.293C70.0547 242.497 78.3576 239.86 86.5547 236.93C88.6687 236.186 90.485 234.611 93.7413 232.625C82.9744 227.792 73.6747 223.484 64.2155 219.538C62.9518 219.007 60.3271 219.865 59.2815 220.988C55.2351 225.263 51.5911 229.902 47.6315 234.58C50.1325 237.647 52.4745 239.991 54.178 242.73L54.1785 242.734ZM91.4905 225.905C94.1722 227.087 96.9731 227.995 100.743 229.42C101.767 224.32 102.619 220.616 103.246 216.888C106.788 195.669 110.551 174.46 113.682 153.181C115.004 144.143 114.954 134.903 115.548 125.416C100.39 121.088 86.0539 117.703 72.248 112.818C58.5432 107.962 45.0081 102.825 29.8632 99.5822C30.2548 101.851 30.339 102.872 30.6233 103.858C37.1585 126.661 43.672 149.476 50.3033 172.267C53.4926 183.242 57.1332 194.11 60.1475 205.134C61.8492 211.318 65.759 214.625 71.4134 216.904C78.2029 219.65 84.7676 222.945 91.4905 225.905ZM121.165 140.972C124.985 138.777 126.868 137.704 129.197 136.367C127.325 134.035 126.051 132.441 123.394 129.119C122.507 133.789 122.025 136.356 121.165 140.972Z" fill="#DB3500"/>
<path opacity="0.7" d="M129.196 136.367C126.867 137.704 124.989 138.777 121.164 140.972C122.03 136.36 122.511 133.789 123.393 129.119C126.05 132.441 127.32 134.035 129.196 136.367Z" fill="#FF820F"/>
<path d="M188.67 236.137C188.801 237.193 190.443 236.991 190.312 235.934C190.182 234.877 188.54 235.08 188.67 236.137Z" fill="#FFD865"/>
<path d="M231.388 294.385L234.548 303.335L263.84 286.404L231.388 294.385Z" fill="url(#paint26_linear_196_856)"/>
<path d="M238.053 313.6L235.236 304.493L263.84 286.405L273.166 282.368L238.053 313.6Z" fill="url(#paint27_linear_196_856)"/>
<path d="M250.885 336.57L239.619 315.133L252.982 299.799L273.167 282.368L250.885 336.57Z" fill="url(#paint28_linear_196_856)"/>
<path d="M354.156 211.954C349.212 219.183 344.517 222.532 340.48 223.877C335.88 233.328 328.807 244.125 318.042 254.515C325.803 253.138 339.635 250.165 341.763 246.472C346.677 245.095 356.222 208.95 354.156 211.954Z" fill="url(#paint29_linear_196_856)"/>
<path d="M311.784 234.737C319.482 224.347 326.085 212.424 330.654 198.842C330.435 189.391 327.65 156.907 327.65 156.907C327.65 156.907 300.142 135.72 274.887 130.15C292.224 150.085 316.853 193.772 311.784 234.737Z" fill="url(#paint30_linear_196_856)"/>
<path d="M243.875 288.47C243.875 288.47 248.162 257.644 267.095 240.683C283.275 227.257 278.205 217.399 278.205 217.399C278.205 217.399 270.131 231.169 260.429 232.202C257.394 232.515 254.515 235.331 251.98 239.869C246.409 249.727 244.688 270.6 243.875 288.47Z" fill="url(#paint31_linear_196_856)"/>
<path d="M251.416 240.401C253.951 235.895 257.362 233.422 260.398 233.109C270.131 232.077 277.641 217.931 277.641 217.931C277.641 217.931 269.818 234.674 248.287 233.328C246.534 233.735 241.496 235.237 240.432 242.654C239.618 244.094 251.416 240.401 251.416 240.401Z" fill="url(#paint32_linear_196_856)"/>
<path d="M257.956 281.71L243.842 288.846C243.842 288.846 247.566 260.399 265.06 242.373C264.81 241.81 282.648 230.387 278.204 217.368C278.266 215.71 286.81 233.516 265.154 252.763C254.451 262.276 257.956 281.71 257.956 281.71Z" fill="url(#paint33_linear_196_856)"/>
<path d="M257.957 281.71C257.957 281.71 253.326 263.184 265.124 252.731C265.124 252.731 265.249 262.088 266.501 266.313C268.16 271.884 271.446 273.104 271.446 273.104L257.957 281.71Z" fill="url(#paint34_linear_196_856)"/>
<path d="M274.7 371.495L254.265 343.455L256.862 320.234L273.167 282.368L274.7 371.495Z" fill="url(#paint35_linear_196_856)"/>
<path d="M338.137 253.701C338.105 253.734 338.105 253.766 338.072 253.798C338.105 253.766 338.137 253.734 338.137 253.701Z" fill="url(#paint36_linear_196_856)"/>
<path d="M315.195 257.207C311.471 260.586 307.34 263.872 302.739 267.064C303.741 271.258 302.082 279.708 280.082 289.972C280.082 289.972 318.074 284.996 338.071 253.827C337.07 254.734 324.427 258.521 315.195 257.207Z" fill="url(#paint37_linear_196_856)"/>
<path opacity="0.13" d="M327.651 156.938L354.157 211.954C354.157 211.954 345.019 275.17 231.513 294.228C230.762 294.228 325.335 254.547 327.651 156.938Z" fill="#141413"/>
<path d="M337.226 160.913L349.118 195.838C349.118 195.838 343.548 274.982 231.513 294.197C230.762 294.228 334.911 258.552 337.226 160.913Z" fill="url(#paint38_linear_196_856)"/>
<g clip-path="url(#clip1_196_856)">
<path d="M189.898 389.862C190.574 390.24 191.247 390.612 191.927 390.975C194.748 389.089 197.706 387.374 200.389 385.3C218.318 371.464 236.293 357.669 254.002 343.573C256.853 341.311 259.27 337.863 260.585 334.463C267.52 316.609 273.825 298.506 280.776 280.656C286.885 264.949 293.447 249.432 299.991 233.922C304.594 223.007 307.234 211.888 306.325 199.918C305.889 194.156 306.814 188.311 306.843 182.499C306.891 167.925 306.856 153.363 306.701 138.786C306.647 133.293 306.361 127.784 305.813 122.326C305.496 119.074 304.496 116.081 300.74 114.725C297.446 113.523 294.412 111.648 289.781 109.325C275.172 122.884 261.15 136.137 246.847 149.103C235.808 159.105 224.627 168.957 213.122 178.421C208.261 182.429 205.998 186.589 205.759 193.081C204.949 214.684 203.437 236.275 202.013 257.849C200.36 283.042 198.556 308.224 196.716 333.419C196.456 336.956 195.585 340.454 195.17 344.002C193.38 359.284 191.655 374.577 189.908 389.87L189.898 389.862Z" fill="#FFC24F" fill-opacity="0.7"/>
<path opacity="0.7" d="M206.839 387.708C205.4 388.861 204.342 390.48 201.921 393.244C213.843 392.91 223.455 392.312 233.07 392.467C246.944 392.689 260.82 393.561 274.702 393.95C290.979 394.404 306.532 391.654 321.893 382.504C304.761 368.366 288.138 354.659 270.659 340.245C267.249 343.317 264.543 345.803 261.791 348.21C260.646 349.207 259.228 350.998 258.177 350.845C252.819 350.047 249.752 353.931 246.344 356.535C233.014 366.719 219.949 377.236 206.844 387.71L206.839 387.708Z" fill="#F54F00"/>
<path opacity="0.7" d="M319.608 370.524C323.167 373.693 326.09 378.839 331.693 377.271C337.821 375.552 343.602 372.641 349.501 370.128C350.297 369.78 351.013 368.824 351.378 367.981C358.748 350.826 366.108 333.669 373.404 316.472C379.717 301.592 385.426 286.403 392.368 271.821C400.742 254.237 403.94 235.653 406.438 215.69C397.278 223.297 389.029 229.897 381.079 236.845C377.241 240.214 374.179 244.015 372.198 249.203C368.049 260.066 362.801 270.545 357.592 280.965C349.938 296.289 341.906 311.391 334.112 326.628C327.484 339.534 320.964 352.486 314.258 365.722C316.369 367.607 317.982 369.08 319.603 370.522L319.608 370.524Z" fill="#F54F00"/>
<path opacity="0.7" d="M306.74 361.28C309.427 357.382 312.276 354.012 314.28 350.219C324.268 331.307 333.948 312.236 343.892 293.301C348.408 284.73 353.487 276.434 357.988 267.859C360.225 263.624 361.72 259 363.917 253.698C346.952 244.479 331.408 236.017 314.945 227.063C300.791 262.97 287.078 297.766 273.139 333.124C284.532 342.676 295.128 351.552 306.746 361.281L306.74 361.28Z" fill="#FF820F"/>
<path opacity="0.8" d="M358.633 241.783C362.291 243.583 365.209 243.4 368.011 239.95C370.437 236.99 373.554 234.593 376.97 231.37C373.038 225.257 369.466 219.237 365.358 213.581C364.301 212.099 361.345 210.684 359.776 211.114C348.038 214.298 336.437 217.934 323.017 221.959C326.543 224.798 328.437 226.932 330.809 228.133C340.003 232.845 349.365 237.228 358.631 241.789L358.633 241.783Z" fill="#FF820F"/>
<path opacity="0.7" d="M315.274 217.103C319.935 216.01 323.365 215.372 326.703 214.394C335.065 211.947 343.302 209.084 351.715 206.899C358.719 205.09 363.829 201.802 366.785 194.787C372.032 182.281 377.997 170.056 383.437 157.634C394.754 131.84 405.931 105.998 417.142 80.1763C417.634 79.0607 417.891 77.8728 418.696 75.2621C400.376 76.7425 383.658 80.6995 366.784 84.2997C349.786 87.9187 332.397 89.6854 313.893 92.4457C313.128 103.699 311.64 114.563 311.807 125.402C312.21 150.923 313.372 176.455 314.262 201.972C314.424 206.455 314.856 210.945 315.274 217.103Z" fill="#FFA02D"/>
<path opacity="0.7" d="M379.318 222.492C382.261 225.112 384.626 225.492 387.621 222.476C393.705 216.322 399.966 210.332 406.319 204.445C411.324 199.819 414.195 194.16 414.613 187.478C415.196 178.477 415.274 169.441 415.643 160.435C415.772 157.536 416.164 154.666 416.392 151.776C417.814 132.546 419.219 113.311 420.626 94.0714C419.961 93.8484 419.297 93.6426 418.631 93.4196C414.699 101.741 410.696 110.027 406.859 118.373C401.318 130.402 395.626 142.358 390.48 154.541C385.326 166.755 380.756 179.221 375.936 191.584C375.359 193.096 374.948 194.684 374.27 196.147C369.286 206.982 370.875 214.969 379.325 222.488L379.318 222.492Z" fill="#E84200"/>
<path opacity="0.9" d="M414.449 220.514C416.358 202.567 421.002 185.075 421.498 166.825C422.2 141.29 424.809 115.791 426.794 90.2999C427.419 82.3151 428.697 74.3807 429.767 65.7707C427.06 65.4036 424.78 64.4975 422.811 64.9258C405.482 68.7756 388.344 73.4601 370.909 76.6949C356.945 79.2855 342.691 80.575 328.502 81.7005C317.146 82.6211 307.13 84.0182 297.899 92.8612C285.831 104.394 271.027 113.004 257.954 123.554C246.156 133.06 234.703 143.108 223.812 153.651C217.866 159.406 213.385 166.682 208.226 173.257C207.627 174.022 207.08 175.09 206.285 175.387C197.884 178.513 199.26 184.919 199.445 191.978C199.778 204.556 198.676 217.179 197.899 229.769C196.67 249.806 195.3 269.818 193.83 289.827C192.951 301.785 191.86 313.712 190.702 325.632C188.815 344.979 186.865 364.31 184.832 383.631C184.57 386.196 183.658 388.694 183.197 391.241C182.021 397.795 186.133 402.447 192.855 402.191C207.092 401.666 221.316 400.6 235.532 400.657C251.403 400.741 267.259 402.058 283.144 402.348C288.5 402.457 294.115 401.802 299.224 400.203C305.969 398.107 312.085 393.706 318.891 392.162C327.938 390.124 335.061 383.838 343.689 381.912C354.24 379.562 358.08 372.556 361.452 363.672C370.495 339.792 379.8 316.009 389.463 292.351C394.225 280.691 400.028 269.464 405.218 257.965C406.798 254.454 408.246 250.8 409.094 247.065C411.132 238.27 413.481 229.455 414.441 220.5L414.449 220.514ZM414.612 187.478C414.189 194.159 411.317 199.823 406.319 204.444C399.967 210.326 393.704 216.322 387.621 222.476C384.626 225.492 382.261 225.112 379.317 222.492C370.868 214.973 369.279 206.986 374.262 196.151C374.942 194.683 375.353 193.094 375.929 191.588C380.755 179.221 385.319 166.758 390.473 154.544C395.619 142.362 401.311 130.406 406.852 118.377C410.689 110.031 414.692 101.745 418.624 93.4235C419.29 93.6465 419.954 93.8522 420.619 94.0752C419.214 113.31 417.808 132.544 416.385 151.78C416.157 154.67 415.765 157.54 415.636 160.439C415.267 169.444 415.194 178.482 414.606 187.482L414.612 187.478ZM191.926 390.974C191.246 390.612 190.574 390.24 189.898 389.862C191.64 374.568 193.37 359.276 195.16 343.994C195.575 340.446 196.446 336.948 196.706 333.411C198.547 308.216 200.35 283.034 202.003 257.841C203.428 236.261 204.94 214.676 205.749 193.073C205.988 186.581 208.251 182.421 213.112 178.413C224.617 168.949 235.797 159.102 246.838 149.095C261.141 136.129 275.162 122.876 289.771 109.317C294.402 111.639 297.436 113.515 300.73 114.717C304.486 116.073 305.491 119.067 305.803 122.317C306.351 127.775 306.639 133.279 306.691 138.778C306.841 153.353 306.881 167.917 306.833 182.491C306.804 188.303 305.879 194.148 306.315 199.91C307.224 211.879 304.583 223.004 299.981 233.914C293.437 249.424 286.874 264.946 280.766 280.647C273.815 298.498 267.51 316.6 260.575 334.455C259.26 337.855 256.843 341.303 253.992 343.565C236.278 357.66 218.31 371.451 200.379 385.292C197.696 387.366 194.738 389.08 191.917 390.966L191.926 390.974ZM201.921 393.244C204.346 390.487 205.399 388.861 206.838 387.708C219.943 377.235 233.008 366.717 246.338 356.533C249.746 353.929 252.813 350.045 258.171 350.844C259.222 350.997 260.641 349.2 261.785 348.208C264.537 345.802 267.243 343.315 270.653 340.243C288.132 354.657 304.755 368.364 321.887 382.503C306.525 391.658 290.977 394.409 274.696 393.948C260.814 393.56 246.939 392.687 233.064 392.465C223.449 392.311 213.837 392.909 201.915 393.242L201.921 393.244ZM331.696 377.278C326.093 378.845 323.165 373.698 319.612 370.53C317.991 369.088 316.378 367.614 314.267 365.729C320.979 352.495 327.499 339.544 334.12 326.636C341.921 311.4 349.953 296.293 357.6 280.972C362.81 270.552 368.052 260.073 372.207 249.21C374.188 244.022 377.25 240.222 381.088 236.853C389.038 229.905 397.287 223.305 406.447 215.698C403.95 235.655 400.751 254.245 392.377 271.829C385.435 286.411 379.731 301.601 373.413 316.48C366.113 333.67 358.758 350.829 351.387 367.989C351.016 368.831 350.3 369.786 349.509 370.136C343.611 372.649 337.828 375.565 331.701 377.279L331.696 377.278ZM314.285 350.221C312.281 354.013 309.432 357.383 306.745 361.281C295.127 351.552 284.532 342.676 273.139 333.124C287.083 297.767 300.796 262.972 314.945 227.063C331.408 236.017 346.957 244.48 363.916 253.698C361.725 259.001 360.224 263.624 357.988 267.858C353.487 276.434 348.408 284.73 343.891 293.301C333.946 312.241 324.267 331.312 314.279 350.219L314.285 350.221ZM368.01 239.95C365.208 243.4 362.291 243.583 358.632 241.783C349.366 237.222 340.003 232.84 330.81 228.128C328.437 226.927 326.543 224.793 323.018 221.954C336.432 217.928 348.039 214.292 359.777 211.109C361.346 210.679 364.302 212.093 365.359 213.576C369.461 219.23 373.033 225.25 376.971 231.365C373.555 234.588 370.438 236.985 368.011 239.944L368.01 239.95ZM326.703 214.394C323.365 215.372 319.929 216.008 315.273 217.103C314.855 210.944 314.424 206.454 314.262 201.972C313.365 176.458 312.209 150.923 311.807 125.402C311.645 114.564 313.128 103.699 313.893 92.4456C332.396 89.6905 349.786 87.9186 366.783 84.2995C383.658 80.6993 400.376 76.7423 418.696 75.2619C417.885 77.8713 417.629 79.0591 417.142 80.1761C405.936 105.999 394.754 131.839 383.437 157.633C377.991 170.055 372.032 182.281 366.785 194.787C363.829 201.802 358.719 205.09 351.714 206.899C343.302 209.084 335.07 211.948 326.703 214.394ZM304.884 109.883C300.728 106.711 298.677 105.158 296.144 103.226C298.705 100.77 300.45 99.0918 304.09 95.5929C304.413 101.224 304.584 104.319 304.884 109.883Z" fill="#DB3500"/>
<path d="M296.144 103.226C298.678 105.158 300.723 106.71 304.885 109.883C304.578 104.323 304.408 101.223 304.091 95.593C300.451 99.0919 298.711 100.772 296.144 103.226Z" fill="#FF820F"/>
<path d="M210.781 211.447C210.464 212.67 208.563 212.179 208.88 210.955C209.196 209.732 211.097 210.224 210.781 211.447Z" fill="#FFD865"/>
</g>
<g clip-path="url(#clip2_196_856)">
<path d="M402.611 326.507L401.604 329.146L411.511 330.949L402.611 326.507Z" fill="url(#paint39_linear_196_856)"/>
<path d="M400.422 332.15L401.537 329.542L411.512 330.949L414.405 331.83L400.422 332.15Z" fill="url(#paint40_linear_196_856)"/>
<path d="M398.907 339.834L400.481 332.8L406.467 331.895L414.405 331.83L398.907 339.834Z" fill="url(#paint41_linear_196_856)"/>
<path d="M446.346 331.459C443.831 332.147 442.121 332.002 440.946 331.53C438.081 332.787 434.396 333.874 429.952 334.157C431.978 335.34 435.689 337.331 436.883 336.903C438.263 337.537 447.393 331.176 446.346 331.459Z" fill="url(#paint42_linear_196_856)"/>
<path d="M432.344 328.464C436.092 327.59 439.887 326.157 443.541 323.956C445.312 321.77 450.939 313.863 450.939 313.863C450.939 313.863 448.78 303.757 444.124 297.627C444.216 305.49 441.386 320.147 432.344 328.464Z" fill="url(#paint43_linear_196_856)"/>
<path d="M406.584 327.57C406.584 327.57 413.496 321.403 421.059 321.203C427.316 321.274 428.065 318.061 428.065 318.061C428.065 318.061 423.581 319.629 421.181 317.994C420.432 317.481 419.236 317.565 417.787 318.106C414.623 319.269 410.211 323.673 406.584 327.57Z" fill="url(#paint44_linear_196_856)"/>
<path d="M417.556 318.118C419 317.584 420.25 317.68 420.999 318.194C423.406 319.835 427.835 318.073 427.835 318.073C427.835 318.073 422.834 320.364 418.209 315.91C417.733 315.665 416.3 315.035 414.63 316.513C414.168 316.683 417.556 318.118 417.556 318.118Z" fill="url(#paint45_linear_196_856)"/>
<path d="M411.08 328.75L406.504 327.65C406.504 327.65 412.829 321.913 420.271 321.194C420.323 321.018 426.571 321.864 428.071 318.054C428.405 317.69 426.912 323.376 418.291 323.57C414.03 323.666 411.08 328.75 411.08 328.75Z" fill="url(#paint46_linear_196_856)"/>
<path d="M411.081 328.75C411.081 328.75 413.6 323.655 418.29 323.556C418.29 323.556 416.516 325.703 415.986 326.903C415.289 328.486 415.799 329.396 415.799 329.396L411.081 328.75Z" fill="url(#paint47_linear_196_856)"/>
<path d="M397.58 352.346L398.346 342.047L403.41 337.279L414.405 331.83L397.58 352.346Z" fill="url(#paint48_linear_196_856)"/>
<path d="M434.667 337.843C434.654 337.844 434.648 337.851 434.636 337.852C434.648 337.851 434.661 337.85 434.667 337.843Z" fill="url(#paint49_linear_196_856)"/>
<path d="M428.788 334.219C427.292 334.268 425.722 334.218 424.063 334.056C423.482 335.2 421.478 336.798 414.509 334.888C414.509 334.888 424.087 341.079 434.629 337.86C434.227 337.873 430.629 336.296 428.788 334.219Z" fill="url(#paint50_linear_196_856)"/>
<path opacity="0.13" d="M450.933 313.871L446.346 331.459C446.346 331.459 432.093 344.041 402.67 326.495C402.5 326.35 431.601 335.569 450.933 313.871Z" fill="#141413"/>
<path d="M452.339 316.617L448.308 326.832C448.308 326.832 431.795 343.715 402.675 326.488C402.499 326.35 433.001 338.323 452.339 316.617Z" fill="url(#paint51_linear_196_856)"/>
<path opacity="0.7" d="M431.799 354.514C430.059 357.108 427.996 359.49 425.641 361.734C426.334 360.177 426.986 358.602 427.733 357.073C430.328 351.76 433.025 346.499 435.547 341.157C437.799 336.383 439.851 331.516 442.031 326.713C443.297 323.907 445.448 322.059 448.374 321.1C449.306 320.796 450.212 320.406 451.148 320.098C452.038 319.807 452.949 319.572 453.847 319.316C453.962 319.465 454.076 319.612 454.187 319.766C453.638 320.651 453.112 321.545 452.54 322.415C448.009 329.315 443.44 336.187 438.953 343.113C436.512 346.88 434.301 350.791 431.8 354.513L431.799 354.514Z" fill="#E84200"/>
<path opacity="0.7" d="M459.309 299.58C460.656 301.861 461.983 304.153 463.353 306.418C463.908 307.338 463.666 308.212 463.106 308.905C461.952 310.34 460.664 311.669 459.101 313.408C457.973 308.44 459.02 304.018 458.793 299.606C458.965 299.597 459.137 299.588 459.31 299.579L459.309 299.58Z" fill="#E84200"/>
<path opacity="0.7" d="M438.477 328.715C438.77 332.2 426.049 358.774 419.289 368.812C413.633 365.462 408.109 362.196 402.585 358.923C402.335 357.634 402.892 356.883 403.802 355.933C407.645 351.907 412.694 349.583 416.98 346.203C419.653 344.095 422.241 341.867 424.866 339.689C428.933 336.312 433.001 332.93 437.081 329.56C437.481 329.234 437.977 329.014 438.475 328.713L438.477 328.715Z" fill="#FF6500"/>
<path opacity="0.7" d="M454.883 295.08C455.401 298.572 456.118 302.042 456.369 305.545C456.579 308.467 456.283 311.439 456.099 314.376C456.068 314.88 455.582 315.555 455.12 315.799C453.388 316.713 451.578 317.477 449.803 318.305C448.746 318.797 447.729 319.366 446.642 319.775C446.123 319.973 445.356 320.125 444.934 319.881C437.71 315.735 430.391 311.719 423.819 306.252C426.495 303.834 450.627 295.229 454.883 295.08Z" fill="#FFC24F"/>
<path d="M402.585 358.923C408.109 362.196 413.633 365.462 419.289 368.812C426.05 358.774 438.769 332.198 438.477 328.715C437.98 329.016 437.484 329.236 437.083 329.562C433.004 332.931 428.937 336.313 424.868 339.691C422.244 341.869 419.657 344.095 416.982 346.205C412.696 349.585 407.648 351.909 403.804 355.934C402.892 356.885 402.335 357.636 402.588 358.925L402.585 358.923ZM416.239 368.529C411.492 365.931 406.897 363.412 402.294 360.913C401.909 360.703 401.415 360.697 401.017 360.504C400.023 360.033 399.303 360.334 398.701 361.185C397.663 362.643 396.518 364.035 395.583 365.556C394.569 367.203 393.118 368.712 393.374 370.892C397.446 371.846 413.781 370.299 416.239 368.529ZM458.792 299.605C459.019 304.017 457.972 308.439 459.1 313.407C460.661 311.667 461.949 310.339 463.105 308.904C463.666 308.21 463.906 307.337 463.351 306.417C461.983 304.152 460.655 301.861 459.308 299.579C459.136 299.588 458.964 299.596 458.791 299.606L458.792 299.605ZM435.548 341.155C433.025 346.497 430.328 351.759 427.733 357.072C426.987 358.601 426.335 360.176 425.641 361.732C427.998 359.489 430.061 357.108 431.799 354.513C434.302 350.79 436.514 346.88 438.953 343.113C443.44 336.187 448.009 329.316 452.54 322.415C453.11 321.544 453.638 320.651 454.187 319.766C454.076 319.613 453.962 319.465 453.847 319.316C452.949 319.572 452.038 319.809 451.147 320.098C450.212 320.405 449.307 320.795 448.374 321.1C445.448 322.058 443.299 323.907 442.031 326.713C439.852 331.517 437.799 336.383 435.547 341.157L435.548 341.155ZM448.223 291.904C450.36 291.903 452.503 291.6 454.637 291.357C456.46 291.146 457.169 291.406 457.951 292.805C460.698 297.697 463.446 302.583 466.295 307.658C465.675 308.398 464.895 309.244 464.209 310.158C460.488 315.104 456.698 319.999 453.119 325.042C449.794 329.724 446.687 334.557 443.517 339.345C441.839 341.883 440.253 344.486 438.594 347.037C436.094 350.878 433.618 354.735 431.036 358.522C428.96 361.567 426.879 364.629 424.529 367.453C423.243 368.994 422.548 370.581 422.377 372.957C420.897 372.613 419.692 372.366 418.509 372.057C415.866 371.369 413.208 371.472 410.513 371.726C404.715 372.272 398.909 372.748 393.104 373.19C390.425 373.391 390.358 373.337 389.772 370.708C388.836 366.527 387.864 362.349 387.197 358.118C386.982 356.772 387.326 355.063 388.031 353.892C390.499 349.795 392.397 345.482 393.902 340.953C394.802 338.25 396.049 335.656 397.071 332.99C399.082 327.728 400.954 322.415 403.055 317.196C404.699 313.121 406.615 309.159 408.403 305.144C409.887 301.799 411.299 298.422 412.885 295.121C413.212 294.436 414.335 293.466 414.77 293.608C417.289 294.429 419.422 293.188 421.539 292.429C425.071 291.159 428.623 291.749 432.164 291.727C437.516 291.696 442.871 291.921 448.221 291.904L448.223 291.904ZM456.37 305.548C456.12 302.043 455.402 298.574 454.884 295.082C450.626 295.231 426.494 303.836 423.819 306.254C430.392 311.722 437.711 315.737 444.935 319.883C445.358 320.126 446.126 319.975 446.642 319.777C447.728 319.368 448.746 318.799 449.803 318.308C451.578 317.479 453.39 316.716 455.12 315.801C455.583 315.558 456.069 314.882 456.1 314.378C456.282 311.44 456.579 308.469 456.37 305.548ZM440.714 322.803C441.43 322.183 442.142 321.31 441.121 320.576C438.817 318.917 436.389 317.441 433.993 315.91C432.41 314.897 430.77 313.962 429.208 312.919C426.695 311.238 424.226 309.5 421.427 307.57C412.299 321.206 404.764 335.551 394.856 348.332C393.398 350.22 392.319 352.403 390.755 354.96C392.074 354.912 392.773 354.878 393.476 354.863C396.401 354.803 399.147 353.111 402.182 353.938C402.522 354.027 403.032 353.686 403.396 353.443C407.247 350.835 411.193 348.345 414.89 345.537C417.873 343.269 420.569 340.616 423.368 338.11C427.246 334.644 431.085 331.147 434.974 327.696C436.853 326.024 438.812 324.447 440.715 322.803L440.714 322.803ZM391.643 368.093L398.071 359.162C395.778 357.734 393.319 357.614 390.984 357.17C389.864 356.957 389.035 358.072 389.217 359.333C389.497 361.28 389.81 363.228 390.271 365.14C390.507 366.096 391.104 366.964 391.642 368.094L391.643 368.093ZM399.201 357.537C398.982 355.412 398.311 355.246 395.774 356.672C397.026 356.985 398.077 357.255 399.201 357.537ZM447.938 294.02C445.538 293.717 443.177 293.563 440.812 293.473C436.98 293.331 433.148 293.166 429.316 293.133C426.625 293.113 426.287 293.451 425.651 296.042C425.167 298.014 424.749 300.002 424.241 302.252C432.573 300.337 440.171 296.969 447.937 294.021L447.938 294.02ZM395.054 344.316C396.759 342.147 398.618 340.072 400.142 337.778C403.362 332.921 406.499 327.999 409.499 323C411.802 319.156 413.801 315.132 416.01 311.232C417.1 309.302 418.368 307.471 419.702 305.363C418.256 299.147 417.997 298.668 414.917 296.927C413.486 299.376 411.998 301.806 410.626 304.304C406.813 311.246 404.296 318.74 401.391 326.074C400.238 328.984 399.051 331.885 397.955 334.821C396.806 337.911 395.746 341.037 394.642 344.144C394.778 344.203 394.915 344.257 395.05 344.316L395.054 344.316ZM421.94 302.05C423.456 299.396 424.096 296.932 424.251 293.957C422.32 294.695 420.687 295.32 419.034 295.947C420.022 298.026 420.915 299.899 421.94 302.05Z" fill="#DB3500"/>
<path opacity="0.7" d="M416.239 368.529C413.781 370.299 397.446 371.846 393.374 370.892C393.117 368.713 394.569 367.204 395.583 365.556C396.518 364.035 397.663 362.643 398.701 361.185C399.304 360.333 400.024 360.032 401.017 360.504C401.415 360.697 401.908 360.703 402.294 360.913C406.898 363.413 411.492 365.931 416.239 368.529Z" fill="#E84200"/>
<path opacity="0.7" d="M398.072 359.161L391.644 368.092C391.107 366.962 390.508 366.095 390.272 365.137C389.812 363.226 389.499 361.277 389.218 359.33C389.035 358.069 389.865 356.954 390.986 357.167C393.321 357.612 395.781 357.732 398.073 359.159L398.072 359.161Z" fill="#FF6500"/>
<path opacity="0.7" d="M395.775 356.671C398.312 355.245 398.983 355.413 399.202 357.536C398.078 357.253 397.026 356.984 395.775 356.671Z" fill="#FF820F"/>
<path opacity="0.7" d="M440.811 293.474C443.176 293.563 445.538 293.717 447.937 294.021C440.171 296.969 432.572 300.338 424.24 302.252C424.747 300.001 425.165 298.014 425.651 296.042C426.286 293.452 426.625 293.113 429.316 293.133C433.148 293.166 436.98 293.331 440.812 293.473L440.811 293.474Z" fill="#FF820F"/>
<path opacity="0.7" d="M400.143 337.779C398.619 340.073 396.76 342.148 395.055 344.317C394.92 344.259 394.782 344.204 394.647 344.145C395.75 341.038 396.811 337.911 397.961 334.822C399.055 331.887 400.241 328.984 401.396 326.074C404.301 318.741 406.819 311.245 410.631 304.304C412.002 301.805 413.491 299.377 414.922 296.927C418.003 298.668 418.26 299.146 419.708 305.363C418.373 307.472 417.106 309.302 416.015 311.232C413.806 315.133 411.806 319.155 409.504 323.001C406.503 327.999 403.366 332.921 400.147 337.779L400.143 337.779Z" fill="#FF820F"/>
<path opacity="0.7" d="M424.251 293.959C424.096 296.933 423.457 299.398 421.939 302.051C420.914 299.9 420.021 298.027 419.034 295.948C420.686 295.321 422.32 294.695 424.251 293.959Z" fill="#E84200"/>
</g>
<defs>
<linearGradient id="paint0_linear_196_856" x1="190.416" y1="50.8043" x2="197.212" y2="50.8043" gradientUnits="userSpaceOnUse">
<stop stop-color="#FBB040"/>
<stop offset="0.9985" stop-color="#F9ED32"/>
</linearGradient>
<linearGradient id="paint1_linear_196_856" x1="191.383" y1="51.0783" x2="198.842" y2="51.7598" gradientUnits="userSpaceOnUse">
<stop stop-color="#FBB040"/>
<stop offset="0.9985" stop-color="#F9ED32"/>
</linearGradient>
<linearGradient id="paint2_linear_196_856" x1="192.29" y1="53.445" x2="198.635" y2="54.0248" gradientUnits="userSpaceOnUse">
<stop stop-color="#FBB040"/>
<stop offset="0.9985" stop-color="#F9ED32"/>
</linearGradient>
<linearGradient id="paint3_linear_196_856" x1="208.767" y1="37.8832" x2="217.43" y2="37.8832" gradientUnits="userSpaceOnUse">
<stop offset="0.192" stop-color="#FBB040"/>
<stop offset="0.9985" stop-color="#F9ED32"/>
</linearGradient>
<linearGradient id="paint4_linear_196_856" x1="211.692" y1="36.2016" x2="203.152" y2="17.3784" gradientUnits="userSpaceOnUse">
<stop stop-color="#FBB040"/>
<stop offset="0.9985" stop-color="#F9ED32"/>
</linearGradient>
<linearGradient id="paint5_linear_196_856" x1="198.42" y1="42.0212" x2="205.766" y2="42.0212" gradientUnits="userSpaceOnUse">
<stop stop-color="#F0A321"/>
<stop offset="1" stop-color="#F0582E"/>
</linearGradient>
<linearGradient id="paint6_linear_196_856" x1="192.304" y1="37.3185" x2="200.102" y2="37.3185" gradientUnits="userSpaceOnUse">
<stop stop-color="#F0A321"/>
<stop offset="1" stop-color="#F0582E"/>
</linearGradient>
<linearGradient id="paint7_linear_196_856" x1="193.947" y1="40.189" x2="200.783" y2="44.9325" gradientUnits="userSpaceOnUse">
<stop stop-color="#F0A321"/>
<stop offset="1" stop-color="#F0582E"/>
</linearGradient>
<linearGradient id="paint8_linear_196_856" x1="202.096" y1="50.5044" x2="196.955" y2="45.2461" gradientUnits="userSpaceOnUse">
<stop stop-color="#F0A321"/>
<stop offset="1" stop-color="#F0582E"/>
</linearGradient>
<linearGradient id="paint9_linear_196_856" x1="195.556" y1="57.1734" x2="200.331" y2="57.6096" gradientUnits="userSpaceOnUse">
<stop stop-color="#FBB040"/>
<stop offset="0.9985" stop-color="#F9ED32"/>
</linearGradient>
<linearGradient id="paint10_linear_196_856" x1="212.754" y1="42.1999" x2="212.769" y2="42.1999" gradientUnits="userSpaceOnUse">
<stop stop-color="#FBB040"/>
<stop offset="0.9985" stop-color="#F9ED32"/>
</linearGradient>
<linearGradient id="paint11_linear_196_856" x1="200.616" y1="45.9922" x2="212.754" y2="45.9922" gradientUnits="userSpaceOnUse">
<stop offset="0.5015" stop-color="#FBB040"/>
<stop offset="0.9985" stop-color="#F9ED32"/>
</linearGradient>
<linearGradient id="paint12_linear_196_856" x1="193.721" y1="48.2899" x2="213.329" y2="29.9896" gradientUnits="userSpaceOnUse">
<stop offset="0.7201" stop-color="#FBB040"/>
<stop offset="1" stop-color="#F9ED32"/>
</linearGradient>
<linearGradient id="paint13_linear_196_856" x1="49.6271" y1="288.893" x2="79.4299" y2="282.574" gradientUnits="userSpaceOnUse">
<stop stop-color="#FBB040"/>
<stop offset="0.9985" stop-color="#F9ED32"/>
</linearGradient>
<linearGradient id="paint14_linear_196_856" x1="54.1216" y1="289.196" x2="87.4675" y2="285.25" gradientUnits="userSpaceOnUse">
<stop stop-color="#FBB040"/>
<stop offset="0.9985" stop-color="#F9ED32"/>
</linearGradient>
<linearGradient id="paint15_linear_196_856" x1="60.2986" y1="298.732" x2="88.6669" y2="295.375" gradientUnits="userSpaceOnUse">
<stop stop-color="#FBB040"/>
<stop offset="0.9985" stop-color="#F9ED32"/>
</linearGradient>
<linearGradient id="paint16_linear_196_856" x1="118.088" y1="215.167" x2="156.081" y2="207.112" gradientUnits="userSpaceOnUse">
<stop offset="0.192" stop-color="#FBB040"/>
<stop offset="0.9985" stop-color="#F9ED32"/>
</linearGradient>
<linearGradient id="paint17_linear_196_856" x1="129.357" y1="205.072" x2="74.4027" y2="130.462" gradientUnits="userSpaceOnUse">
<stop stop-color="#FBB040"/>
<stop offset="0.9985" stop-color="#F9ED32"/>
</linearGradient>
<linearGradient id="paint18_linear_196_856" x1="76.5638" y1="242.933" x2="108.779" y2="236.103" gradientUnits="userSpaceOnUse">
<stop stop-color="#F0A321"/>
<stop offset="1" stop-color="#F0582E"/>
</linearGradient>
<linearGradient id="paint19_linear_196_856" x1="45.3707" y1="227.995" x2="79.5677" y2="220.745" gradientUnits="userSpaceOnUse">
<stop stop-color="#F0A321"/>
<stop offset="1" stop-color="#F0582E"/>
</linearGradient>
<linearGradient id="paint20_linear_196_856" x1="55.2416" y1="239.057" x2="89.6293" y2="253.504" gradientUnits="userSpaceOnUse">
<stop stop-color="#F0A321"/>
<stop offset="1" stop-color="#F0582E"/>
</linearGradient>
<linearGradient id="paint21_linear_196_856" x1="100.573" y1="276.718" x2="73.1365" y2="258.437" gradientUnits="userSpaceOnUse">
<stop stop-color="#F0A321"/>
<stop offset="1" stop-color="#F0582E"/>
</linearGradient>
<linearGradient id="paint22_linear_196_856" x1="78.0914" y1="312.046" x2="99.4374" y2="309.52" gradientUnits="userSpaceOnUse">
<stop stop-color="#FBB040"/>
<stop offset="0.9985" stop-color="#F9ED32"/>
</linearGradient>
<linearGradient id="paint23_linear_196_856" x1="139.59" y1="230.389" x2="139.655" y2="230.375" gradientUnits="userSpaceOnUse">
<stop stop-color="#FBB040"/>
<stop offset="0.9985" stop-color="#F9ED32"/>
</linearGradient>
<linearGradient id="paint24_linear_196_856" x1="89.8871" y1="258.305" x2="143.116" y2="247.021" gradientUnits="userSpaceOnUse">
<stop offset="0.5015" stop-color="#FBB040"/>
<stop offset="0.9985" stop-color="#F9ED32"/>
</linearGradient>
<linearGradient id="paint25_linear_196_856" x1="61.7847" y1="274.794" x2="130.759" y2="176.307" gradientUnits="userSpaceOnUse">
<stop offset="0.7201" stop-color="#FBB040"/>
<stop offset="1" stop-color="#F9ED32"/>
</linearGradient>
<linearGradient id="paint26_linear_196_856" x1="231.372" y1="294.869" x2="263.834" y2="294.869" gradientUnits="userSpaceOnUse">
<stop stop-color="#FBB040"/>
<stop offset="0.9985" stop-color="#F9ED32"/>
</linearGradient>
<linearGradient id="paint27_linear_196_856" x1="235.99" y1="296.179" x2="271.621" y2="299.434" gradientUnits="userSpaceOnUse">
<stop stop-color="#FBB040"/>
<stop offset="0.9985" stop-color="#F9ED32"/>
</linearGradient>
<linearGradient id="paint28_linear_196_856" x1="240.322" y1="307.484" x2="270.634" y2="310.253" gradientUnits="userSpaceOnUse">
<stop stop-color="#FBB040"/>
<stop offset="0.9985" stop-color="#F9ED32"/>
</linearGradient>
<linearGradient id="paint29_linear_196_856" x1="319.027" y1="233.148" x2="360.409" y2="233.148" gradientUnits="userSpaceOnUse">
<stop offset="0.192" stop-color="#FBB040"/>
<stop offset="0.9985" stop-color="#F9ED32"/>
</linearGradient>
<linearGradient id="paint30_linear_196_856" x1="333.002" y1="225.116" x2="292.208" y2="135.201" gradientUnits="userSpaceOnUse">
<stop stop-color="#FBB040"/>
<stop offset="0.9985" stop-color="#F9ED32"/>
</linearGradient>
<linearGradient id="paint31_linear_196_856" x1="269.607" y1="252.914" x2="304.697" y2="252.914" gradientUnits="userSpaceOnUse">
<stop stop-color="#F0A321"/>
<stop offset="1" stop-color="#F0582E"/>
</linearGradient>
<linearGradient id="paint32_linear_196_856" x1="240.393" y1="230.451" x2="277.641" y2="230.451" gradientUnits="userSpaceOnUse">
<stop stop-color="#F0A321"/>
<stop offset="1" stop-color="#F0582E"/>
</linearGradient>
<linearGradient id="paint33_linear_196_856" x1="248.238" y1="244.163" x2="280.89" y2="266.821" gradientUnits="userSpaceOnUse">
<stop stop-color="#F0A321"/>
<stop offset="1" stop-color="#F0582E"/>
</linearGradient>
<linearGradient id="paint34_linear_196_856" x1="287.167" y1="293.436" x2="262.607" y2="268.319" gradientUnits="userSpaceOnUse">
<stop stop-color="#F0A321"/>
<stop offset="1" stop-color="#F0582E"/>
</linearGradient>
<linearGradient id="paint35_linear_196_856" x1="255.926" y1="325.293" x2="278.734" y2="327.377" gradientUnits="userSpaceOnUse">
<stop stop-color="#FBB040"/>
<stop offset="0.9985" stop-color="#F9ED32"/>
</linearGradient>
<linearGradient id="paint36_linear_196_856" x1="338.076" y1="253.766" x2="338.146" y2="253.766" gradientUnits="userSpaceOnUse">
<stop stop-color="#FBB040"/>
<stop offset="0.9985" stop-color="#F9ED32"/>
</linearGradient>
<linearGradient id="paint37_linear_196_856" x1="280.097" y1="271.882" x2="338.074" y2="271.882" gradientUnits="userSpaceOnUse">
<stop offset="0.5015" stop-color="#FBB040"/>
<stop offset="0.9985" stop-color="#F9ED32"/>
</linearGradient>
<linearGradient id="paint38_linear_196_856" x1="247.16" y1="282.859" x2="340.821" y2="195.442" gradientUnits="userSpaceOnUse">
<stop offset="0.7201" stop-color="#FBB040"/>
<stop offset="1" stop-color="#F9ED32"/>
</linearGradient>
<linearGradient id="paint39_linear_196_856" x1="402.514" y1="326.613" x2="409.879" y2="332.868" gradientUnits="userSpaceOnUse">
<stop stop-color="#FBB040"/>
<stop offset="0.9985" stop-color="#F9ED32"/>
</linearGradient>
<linearGradient id="paint40_linear_196_856" x1="403.31" y1="327.8" x2="410.767" y2="335.404" gradientUnits="userSpaceOnUse">
<stop stop-color="#FBB040"/>
<stop offset="0.9985" stop-color="#F9ED32"/>
</linearGradient>
<linearGradient id="paint41_linear_196_856" x1="402.114" y1="331.2" x2="408.458" y2="337.668" gradientUnits="userSpaceOnUse">
<stop stop-color="#FBB040"/>
<stop offset="0.9985" stop-color="#F9ED32"/>
</linearGradient>
<linearGradient id="paint42_linear_196_856" x1="434.292" y1="329.499" x2="443.681" y2="337.473" gradientUnits="userSpaceOnUse">
<stop offset="0.192" stop-color="#FBB040"/>
<stop offset="0.9985" stop-color="#F9ED32"/>
</linearGradient>
<linearGradient id="paint43_linear_196_856" x1="439.011" y1="330.369" x2="447.08" y2="302.11" gradientUnits="userSpaceOnUse">
<stop stop-color="#FBB040"/>
<stop offset="0.9985" stop-color="#F9ED32"/>
</linearGradient>
<linearGradient id="paint44_linear_196_856" x1="419.272" y1="324.462" x2="427.233" y2="331.223" gradientUnits="userSpaceOnUse">
<stop stop-color="#F0A321"/>
<stop offset="1" stop-color="#F0582E"/>
</linearGradient>
<linearGradient id="paint45_linear_196_856" x1="416.972" y1="313.737" x2="425.423" y2="320.913" gradientUnits="userSpaceOnUse">
<stop stop-color="#F0A321"/>
<stop offset="1" stop-color="#F0582E"/>
</linearGradient>
<linearGradient id="paint46_linear_196_856" x1="416.11" y1="318.359" x2="419.152" y2="329.791" gradientUnits="userSpaceOnUse">
<stop stop-color="#F0A321"/>
<stop offset="1" stop-color="#F0582E"/>
</linearGradient>
<linearGradient id="paint47_linear_196_856" x1="415.448" y1="337.038" x2="414.716" y2="326.608" gradientUnits="userSpaceOnUse">
<stop stop-color="#F0A321"/>
<stop offset="1" stop-color="#F0582E"/>
</linearGradient>
<linearGradient id="paint48_linear_196_856" x1="402.222" y1="338.247" x2="406.996" y2="343.114" gradientUnits="userSpaceOnUse">
<stop stop-color="#FBB040"/>
<stop offset="0.9985" stop-color="#F9ED32"/>
</linearGradient>
<linearGradient id="paint49_linear_196_856" x1="434.642" y1="337.846" x2="434.657" y2="337.859" gradientUnits="userSpaceOnUse">
<stop stop-color="#FBB040"/>
<stop offset="0.9985" stop-color="#F9ED32"/>
</linearGradient>
<linearGradient id="paint50_linear_196_856" x1="417.998" y1="330.786" x2="431.151" y2="341.957" gradientUnits="userSpaceOnUse">
<stop offset="0.5015" stop-color="#FBB040"/>
<stop offset="0.9985" stop-color="#F9ED32"/>
</linearGradient>
<linearGradient id="paint51_linear_196_856" x1="408.41" y1="326.93" x2="446.502" y2="325.144" gradientUnits="userSpaceOnUse">
<stop offset="0.7201" stop-color="#FBB040"/>
<stop offset="1" stop-color="#F9ED32"/>
</linearGradient>
<clipPath id="clip0_196_856">
<rect width="79.6862" height="64.9868" fill="white" transform="translate(166.954 0.57959) rotate(15.1379)"/>
</clipPath>
<clipPath id="clip1_196_856">
<rect width="385.572" height="219.045" fill="white" transform="matrix(-0.250467 0.968125 0.968125 0.250467 242.316 17.2747)"/>
</clipPath>
<clipPath id="clip2_196_856">
<rect width="53.2034" height="104.795" fill="white" transform="translate(429.561 271.899) rotate(35.7443)"/>
</clipPath>
</defs>
</svg>
