<svg width="113" height="64" viewBox="0 0 113 64" fill="none" xmlns="http://www.w3.org/2000/svg">
<path d="M66.1595 30.3165C67.5156 30.3165 68.5752 31.3831 68.5681 32.7535C68.5611 34.1167 67.5015 35.1621 66.1241 35.155C64.7538 35.148 63.6802 34.0885 63.6802 32.7393C63.6802 31.3902 64.8739 30.2035 66.1595 30.3165Z" fill="url(#paint0_linear_406_290)"/>
<path d="M17.2586 54.3607H12.7026V38.1711H17.2586C18.7278 38.1711 19.8509 38.4819 20.6138 39.0894C21.3766 39.7039 21.7581 40.5586 21.7581 41.6534V50.8713C21.7581 51.9874 21.3837 52.842 20.6279 53.4495C19.8721 54.064 18.749 54.3607 17.2586 54.3607ZM19.7732 50.8784V41.6605C19.7732 41.1307 19.5542 40.6646 19.1092 40.2619C18.6642 39.8664 18.0497 39.6615 17.2515 39.6615H14.6734V52.8632H17.2515C18.0426 52.8632 18.6642 52.6655 19.1092 52.277C19.5542 51.8955 19.7732 51.4223 19.7732 50.8784Z" fill="white"/>
<path d="M35.772 54.3608H34.9244L34.1898 52.7644C33.7943 53.3648 33.2716 53.8381 32.6358 54.1983C31.9931 54.5585 31.2867 54.7351 30.5097 54.7351C27.7903 54.7351 26.4341 53.5697 26.4341 51.2458V48.7523C26.4341 46.4284 27.7903 45.263 30.5097 45.263H33.7943V41.1803C33.7943 40.5799 33.5753 40.1207 33.1444 39.7817C32.7065 39.4497 32.0708 39.2802 31.2161 39.2802C29.535 39.2802 28.6944 39.9088 28.6944 41.1732V42.6424H26.7166V41.2721C26.7166 40.156 27.091 39.3014 27.8327 38.6939C28.5814 38.0864 29.7045 37.7827 31.2161 37.7827C32.7277 37.7827 33.8649 38.0864 34.6277 38.6939C35.3906 39.3014 35.772 40.1631 35.772 41.2721V54.3608ZM33.7943 46.7675H30.5097C29.7186 46.7675 29.1677 46.9441 28.8639 47.2902C28.5602 47.6363 28.4119 48.1307 28.4119 48.7594V51.2528C28.4119 51.8815 28.5602 52.3759 28.8639 52.722C29.1677 53.0681 29.7115 53.2447 30.5097 53.2447C31.3008 53.2447 32.0354 52.9763 32.7206 52.4324C33.3987 51.8956 33.7589 51.3588 33.7943 50.829V46.7675Z" fill="white"/>
<path d="M46 54.3607H44.0151V49.7765C41.4511 49.5293 40.1655 48.3779 40.1655 46.3366V38.1711H42.1504V46.3436C42.1504 47.6716 43.0969 48.3355 44.9828 48.3355C46.8688 48.3355 47.8153 47.6716 47.8153 46.3436V38.1711H49.8001V46.3436C49.8001 48.385 48.5358 49.5293 46.007 49.7835V54.3607H46Z" fill="white"/>
<path d="M54.4622 54.3607V38.1711H56.447V52.8703H61.6316V54.3678H54.4622V54.3607Z" fill="white"/>
<path d="M67.0071 54.3607H65.0222V38.1711H67.0071V54.3607Z" fill="white"/>
<path d="M76.4367 47.6363V46.1389H81.5931V51.2458C81.5931 52.3618 81.2046 53.2165 80.4347 53.824C79.6577 54.4314 78.4993 54.7351 76.9524 54.7351C75.4055 54.7351 74.2329 54.4314 73.4418 53.824C72.6507 53.2165 72.2551 52.3618 72.2551 51.2458V41.2792C72.2551 40.1631 72.6436 39.3085 73.4136 38.701C74.1905 38.0935 75.3489 37.7898 76.8958 37.7898C78.4428 37.7898 79.6153 38.0935 80.4064 38.701C81.1975 39.3085 81.5931 40.1702 81.5931 41.2792V42.6495H79.6082V41.2792C79.6082 39.9512 78.7112 39.2873 76.917 39.2873C75.1229 39.2873 74.2259 39.9512 74.2259 41.2792V51.2458C74.2259 52.5737 75.1229 53.2377 76.917 53.2377C78.7112 53.2377 79.6082 52.5737 79.6082 51.2458V47.6363H76.4367Z" fill="white"/>
<path d="M88.812 54.3607H86.8271V38.1711H88.812V45.3971H94.3922V38.1711H96.377V54.3678H94.3922V46.8946H88.812V54.3607Z" fill="white"/>
<path d="M11.8064 36.0521C11.7919 36.0594 11.7773 36.0594 11.7773 36.0666C11.7846 36.0594 11.7919 36.0594 11.8064 36.0521Z" fill="url(#paint1_linear_406_290)"/>
<path d="M76.9805 63.4303H76.2671V57.5887H77.8069C78.3367 57.5887 78.7393 57.7018 79.0148 57.9207C79.2903 58.1397 79.4315 58.4505 79.4315 58.8461V60.3718C79.4315 60.7744 79.2973 61.0852 79.0219 61.3041C78.7464 61.5231 78.3438 61.6291 77.8069 61.6291H76.9805V63.4303ZM78.7181 60.3718V58.8461C78.7181 58.62 78.6404 58.4434 78.485 58.3163C78.3296 58.1891 78.1036 58.1256 77.814 58.1256H76.9876V61.0922H77.814C78.4144 61.0922 78.7181 60.8521 78.7181 60.3718Z" fill="white"/>
<path d="M81.7837 63.4303H81.0703V57.5888H81.374L81.6707 58.2528C81.8897 57.7159 82.2358 57.4546 82.7161 57.4546C83.5284 57.4546 83.931 57.8431 83.931 58.6201V59.2063H83.2459V58.5848C83.2459 58.1892 83.0552 57.9914 82.6808 57.9914C82.4548 57.9914 82.2499 58.1044 82.0592 58.3305C81.8685 58.5565 81.7767 58.8885 81.7767 59.3194V63.4303H81.7837Z" fill="white"/>
<path d="M88.4799 58.7119V62.3072C88.4799 62.7098 88.3316 63.0206 88.049 63.2396C87.7594 63.4586 87.3285 63.5645 86.7493 63.5645C86.1701 63.5645 85.7393 63.4586 85.4497 63.2396C85.16 63.0206 85.0117 62.7098 85.0117 62.3072V58.7119C85.0117 58.3093 85.153 57.9985 85.4426 57.7795C85.7322 57.5605 86.1631 57.4546 86.7423 57.4546C87.3144 57.4546 87.7524 57.5605 88.042 57.7795C88.3316 57.9985 88.4799 58.3093 88.4799 58.7119ZM87.7665 62.3072V58.7119C87.7665 58.2316 87.4274 57.9914 86.7423 57.9914C86.0642 57.9914 85.7181 58.2316 85.7181 58.7119V62.3072C85.7181 62.7875 86.0571 63.0277 86.7423 63.0277C87.4274 63.0277 87.7665 62.7875 87.7665 62.3072Z" fill="white"/>
<path d="M90.2175 57.5887H92.4637V58.1256H90.931V62.4343C90.931 62.6038 90.9804 62.7451 91.0793 62.8581C91.1782 62.9711 91.3194 63.0276 91.496 63.0276C91.6797 63.0276 91.8139 62.9711 91.9128 62.8581C92.0046 62.7451 92.054 62.6038 92.054 62.4343V61.3607H92.7675V62.3919C92.7675 62.7663 92.6544 63.0559 92.4284 63.2607C92.2024 63.4585 91.8916 63.5645 91.5031 63.5645C91.1146 63.5645 90.8038 63.4656 90.5707 63.2607C90.3376 63.0559 90.2175 62.7734 90.2175 62.3919V57.5887Z" fill="white"/>
<path d="M97.5211 58.7119V62.3072C97.5211 62.7098 97.3728 63.0206 97.0903 63.2396C96.8007 63.4586 96.3698 63.5645 95.7906 63.5645C95.2114 63.5645 94.7805 63.4586 94.4909 63.2396C94.2013 63.0206 94.053 62.7098 94.053 62.3072V58.7119C94.053 58.3093 94.1942 57.9985 94.4838 57.7795C94.7734 57.5605 95.2043 57.4546 95.7835 57.4546C96.3557 57.4546 96.7936 57.5605 97.0832 57.7795C97.3799 57.9985 97.5211 58.3093 97.5211 58.7119ZM96.8077 62.3072V58.7119C96.8077 58.2316 96.4687 57.9914 95.7835 57.9914C95.1054 57.9914 94.7593 58.2316 94.7593 58.7119V62.3072C94.7593 62.7875 95.0984 63.0277 95.7835 63.0277C96.4687 63.0277 96.8077 62.7875 96.8077 62.3072Z" fill="white"/>
<path d="M101.922 62.3072V61.8128H102.635V62.3072C102.635 62.7098 102.494 63.0206 102.218 63.2396C101.936 63.4586 101.519 63.5645 100.961 63.5645C100.403 63.5645 99.9793 63.4586 99.6967 63.2396C99.4071 63.0206 99.2659 62.7098 99.2659 62.3072V58.7119C99.2659 58.3093 99.4071 57.9985 99.6826 57.7795C99.9651 57.5605 100.382 57.4546 100.94 57.4546C101.498 57.4546 101.922 57.5605 102.204 57.7795C102.494 57.9985 102.635 58.3093 102.635 58.7119V59.5666H101.922V58.7119C101.922 58.2316 101.597 57.9914 100.954 57.9914C100.304 57.9914 99.9863 58.2316 99.9863 58.7119V62.3072C99.9863 62.7875 100.311 63.0277 100.954 63.0277C101.597 63.0277 101.922 62.7875 101.922 62.3072Z" fill="white"/>
<path d="M107.742 58.7119V62.3072C107.742 62.7098 107.594 63.0206 107.311 63.2396C107.022 63.4586 106.591 63.5645 106.012 63.5645C105.432 63.5645 105.001 63.4586 104.712 63.2396C104.422 63.0206 104.274 62.7098 104.274 62.3072V58.7119C104.274 58.3093 104.415 57.9985 104.705 57.7795C104.994 57.5605 105.425 57.4546 106.004 57.4546C106.577 57.4546 107.015 57.5605 107.304 57.7795C107.594 57.9985 107.742 58.3093 107.742 58.7119ZM107.029 62.3072V58.7119C107.029 58.2316 106.69 57.9914 106.004 57.9914C105.326 57.9914 104.98 58.2316 104.98 58.7119V62.3072C104.98 62.7875 105.319 63.0277 106.004 63.0277C106.69 63.0277 107.029 62.7875 107.029 62.3072Z" fill="white"/>
<path d="M109.635 63.4303V57.5887H110.348V62.8934H112.22V63.4303H109.635Z" fill="white"/>
<path d="M101.611 38.1711V39.6686H105.856V51.5C105.856 52.5454 106.181 53.3506 106.831 53.9016C107.121 54.1488 107.46 54.3466 107.834 54.4808V51.5989V47.1206V39.6615H112.079V38.1641H101.611V38.1711Z" fill="white"/>
<path d="M0.779541 37.0693L1.49295 39.0894L8.10439 35.2681L0.779541 37.0693Z" fill="url(#paint2_linear_406_290)"/>
<path d="M2.28415 41.4063L1.64844 39.3508L8.10448 35.2681L10.2094 34.3569L2.28415 41.4063Z" fill="url(#paint3_linear_406_290)"/>
<path d="M5.18007 46.5909L2.63721 41.7524L5.65333 38.2913L10.2093 34.3569L5.18007 46.5909Z" fill="url(#paint4_linear_406_290)"/>
<path d="M28.4897 18.464C27.3736 20.0956 26.3141 20.8514 25.4029 21.1552C24.3646 23.2883 22.7682 25.7253 20.3384 28.0703C22.0901 27.7595 25.2122 27.0885 25.6925 26.255C26.8015 25.9442 28.9559 17.7859 28.4897 18.464Z" fill="url(#paint5_linear_406_290)"/>
<path d="M18.9258 23.6062C20.6634 21.2612 22.1538 18.57 23.1851 15.5044C23.1356 13.3712 22.507 6.0393 22.507 6.0393C22.507 6.0393 16.2981 1.2573 10.5979 0C14.5111 4.49945 20.0701 14.3601 18.9258 23.6062Z" fill="url(#paint6_linear_406_290)"/>
<path d="M3.5979 35.7342C3.5979 35.7342 4.56561 28.7767 8.83903 24.9482C12.4909 21.918 11.3466 19.693 11.3466 19.693C11.3466 19.693 9.52418 22.8009 7.3345 23.034C6.64934 23.1047 5.99949 23.7404 5.42735 24.7646C4.17005 26.9896 3.78155 31.701 3.5979 35.7342Z" fill="url(#paint7_linear_406_290)"/>
<path d="M5.30014 24.8847C5.87229 23.8676 6.64221 23.3095 7.32737 23.2389C9.52412 23.0058 11.2194 19.8131 11.2194 19.8131C11.2194 19.8131 9.45349 23.5921 4.59379 23.2884C4.19824 23.3802 3.06101 23.7192 2.82085 25.3933C2.6372 25.7182 5.30014 24.8847 5.30014 24.8847Z" fill="url(#paint8_linear_406_290)"/>
<path d="M6.77646 34.2086L3.59082 35.819C3.59082 35.819 4.43138 29.3983 8.37988 25.3297C8.32337 25.2026 12.3496 22.6244 11.3466 19.686C11.3607 19.3116 13.289 23.3308 8.40106 27.6748C5.98535 29.8221 6.77646 34.2086 6.77646 34.2086Z" fill="url(#paint9_linear_406_290)"/>
<path d="M6.77644 34.2085C6.77644 34.2085 5.73105 30.0269 8.39399 27.6677C8.39399 27.6677 8.42224 29.7797 8.70478 30.7333C9.07915 31.9906 9.82082 32.2661 9.82082 32.2661L6.77644 34.2085Z" fill="url(#paint10_linear_406_290)"/>
<path d="M10.5553 54.4738L5.94287 48.1449L6.52914 42.9038L10.2092 34.3569L10.5553 54.4738Z" fill="url(#paint11_linear_406_290)"/>
<path d="M24.8734 27.8867C24.8661 27.894 24.8661 27.9012 24.8589 27.9085C24.8661 27.9012 24.8734 27.894 24.8734 27.8867Z" fill="url(#paint12_linear_406_290)"/>
<path d="M19.6955 28.6779C18.855 29.4408 17.9226 30.1824 16.8842 30.9029C17.1103 31.8494 16.7359 33.7566 11.7703 36.0734C11.7703 36.0734 20.3454 34.9503 24.8589 27.915C24.6329 28.1199 21.7792 28.9746 19.6955 28.6779Z" fill="url(#paint13_linear_406_290)"/>
<path opacity="0.13" d="M22.507 6.04639L28.4898 18.464C28.4898 18.464 26.4272 32.7323 0.807889 37.034C0.638365 37.034 21.9843 28.0775 22.507 6.04639Z" fill="white"/>
<path d="M24.6683 6.94348L27.3524 14.8264C27.3524 14.8264 26.0951 32.69 0.807797 37.0269C0.638273 37.034 24.1456 28.9816 24.6683 6.94348Z" fill="url(#paint14_linear_406_290)"/>
<path d="M58.9333 28.9887C59.562 26.58 62.1119 24.1007 65.5872 24.1784C68.9706 24.2561 71.8031 26.7849 72.2269 30.1259C72.686 33.7918 70.2985 36.4124 68.2642 37.2106C71.5276 35.5012 72.3964 32.0118 71.6971 29.5043C70.9484 26.799 68.6033 24.8283 65.8273 24.5881C62.8607 24.3338 60.0141 26.0644 58.9333 28.9887Z" fill="url(#paint15_linear_406_290)"/>
<path d="M70.0232 27.1593C67.3461 25.7254 64.775 25.5982 62.4158 27.576C60.2473 29.3913 59.7246 31.7576 60.5015 34.4559C59.5762 32.5134 59.7316 29.1512 62.5005 27.0674C64.9586 25.2168 68.1937 25.6265 70.0232 27.1593Z" fill="url(#paint16_linear_406_290)"/>
<defs>
<linearGradient id="paint0_linear_406_290" x1="63.6783" y1="32.7311" x2="68.5677" y2="32.7311" gradientUnits="userSpaceOnUse">
<stop stop-color="#F0A321"/>
<stop offset="1" stop-color="#F0582E"/>
</linearGradient>
<linearGradient id="paint1_linear_406_290" x1="11.7735" y1="36.0602" x2="11.8038" y2="36.0602" gradientUnits="userSpaceOnUse">
<stop stop-color="#F0A321"/>
<stop offset="1" stop-color="#F0582E"/>
</linearGradient>
<linearGradient id="paint2_linear_406_290" x1="0.776059" y1="37.1786" x2="8.10299" y2="37.1786" gradientUnits="userSpaceOnUse">
<stop stop-color="#FBB040"/>
<stop offset="0.9985" stop-color="#F9ED32"/>
</linearGradient>
<linearGradient id="paint3_linear_406_290" x1="1.81861" y1="37.4742" x2="9.86081" y2="38.209" gradientUnits="userSpaceOnUse">
<stop stop-color="#FBB040"/>
<stop offset="0.9985" stop-color="#F9ED32"/>
</linearGradient>
<linearGradient id="paint4_linear_406_290" x1="2.79587" y1="40.0259" x2="9.63758" y2="40.651" gradientUnits="userSpaceOnUse">
<stop stop-color="#FBB040"/>
<stop offset="0.9985" stop-color="#F9ED32"/>
</linearGradient>
<linearGradient id="paint5_linear_406_290" x1="20.5606" y1="23.2477" x2="29.901" y2="23.2477" gradientUnits="userSpaceOnUse">
<stop offset="0.192" stop-color="#FBB040"/>
<stop offset="0.9985" stop-color="#F9ED32"/>
</linearGradient>
<linearGradient id="paint6_linear_406_290" x1="23.715" y1="21.4347" x2="14.5073" y2="1.14012" gradientUnits="userSpaceOnUse">
<stop stop-color="#FBB040"/>
<stop offset="0.9985" stop-color="#F9ED32"/>
</linearGradient>
<linearGradient id="paint7_linear_406_290" x1="9.40598" y1="27.709" x2="17.326" y2="27.709" gradientUnits="userSpaceOnUse">
<stop stop-color="#F0A321"/>
<stop offset="1" stop-color="#F0582E"/>
</linearGradient>
<linearGradient id="paint8_linear_406_290" x1="2.81209" y1="22.6389" x2="11.2193" y2="22.6389" gradientUnits="userSpaceOnUse">
<stop stop-color="#F0A321"/>
<stop offset="1" stop-color="#F0582E"/>
</linearGradient>
<linearGradient id="paint9_linear_406_290" x1="4.58301" y1="25.7337" x2="11.9528" y2="30.848" gradientUnits="userSpaceOnUse">
<stop stop-color="#F0A321"/>
<stop offset="1" stop-color="#F0582E"/>
</linearGradient>
<linearGradient id="paint10_linear_406_290" x1="13.3692" y1="36.8552" x2="7.82591" y2="31.186" gradientUnits="userSpaceOnUse">
<stop stop-color="#F0A321"/>
<stop offset="1" stop-color="#F0582E"/>
</linearGradient>
<linearGradient id="paint11_linear_406_290" x1="6.31777" y1="44.0457" x2="11.4659" y2="44.516" gradientUnits="userSpaceOnUse">
<stop stop-color="#FBB040"/>
<stop offset="0.9985" stop-color="#F9ED32"/>
</linearGradient>
<linearGradient id="paint12_linear_406_290" x1="24.8596" y1="27.9013" x2="24.8754" y2="27.9013" gradientUnits="userSpaceOnUse">
<stop stop-color="#FBB040"/>
<stop offset="0.9985" stop-color="#F9ED32"/>
</linearGradient>
<linearGradient id="paint13_linear_406_290" x1="11.7736" y1="31.9903" x2="24.8597" y2="31.9903" gradientUnits="userSpaceOnUse">
<stop offset="0.5015" stop-color="#FBB040"/>
<stop offset="0.9985" stop-color="#F9ED32"/>
</linearGradient>
<linearGradient id="paint14_linear_406_290" x1="4.33946" y1="34.4679" x2="25.4796" y2="14.7371" gradientUnits="userSpaceOnUse">
<stop offset="0.7201" stop-color="#FBB040"/>
<stop offset="1" stop-color="#F9ED32"/>
</linearGradient>
<linearGradient id="paint15_linear_406_290" x1="58.9327" y1="30.6932" x2="72.2786" y2="30.6932" gradientUnits="userSpaceOnUse">
<stop stop-color="#FBB040"/>
<stop offset="0.9985" stop-color="#F9ED32"/>
</linearGradient>
<linearGradient id="paint16_linear_406_290" x1="59.9995" y1="30.1427" x2="70.0258" y2="30.1427" gradientUnits="userSpaceOnUse">
<stop stop-color="#FBB040"/>
<stop offset="0.9985" stop-color="#F9ED32"/>
</linearGradient>
</defs>
</svg>
