<svg width="279" height="402" viewBox="0 0 279 402" fill="none" xmlns="http://www.w3.org/2000/svg">
<g opacity="0.1" clip-path="url(#clip0_198_934)">
<path d="M100.362 0C115.328 34.7397 104.992 64.4175 83.2667 96.6371C61.5414 128.857 24.9375 164.822 10.7342 201C-9.59741 252.796 0.259134 308.724 36.9762 350.514C73.6933 392.304 134.475 411.226 188.392 397.653C188.392 397.653 115.946 401.189 85.9192 346.865C53.6012 288.398 88.6675 232.91 115.998 201C126.783 188.409 135.598 177.718 142.48 166.282C195.896 77.5103 100.362 0 100.362 0Z" fill="url(#paint0_linear_198_934)"/>
<path d="M171.814 163.078C147.45 203.097 108.651 230.333 97.9405 275.955C89.4298 312.212 104.077 349.973 135.529 369.876C166.98 389.775 223.606 387.756 240.701 361.919C234.987 367.657 207.53 374.899 186.728 361.082C173.6 352.358 166.949 335.86 167.86 319.005C168.774 302.115 177.154 286.48 187.717 273.274C198.279 260.068 209.185 248.27 220.932 234.959C248.176 204.1 253.99 157.867 243.472 118.24C232.953 78.6176 203.597 44.4491 166.03 28.1169C198.91 69.9676 194.877 125.19 171.81 163.082L171.814 163.078Z" fill="url(#paint1_linear_198_934)"/>
<path d="M261.185 184.637C259.565 210.369 250.911 235.434 234.007 254.583C222.447 267.68 211.706 279.312 201.306 292.261C201.458 292.261 201.606 292.253 201.758 292.253C218.283 292.253 231.681 305.664 231.681 322.205C231.681 338.747 218.283 352.158 201.758 352.158C198.975 352.158 196.279 351.774 193.718 351.063H193.709C193.936 351.085 209.812 358.785 233.95 349.053C246.259 344.092 256.194 332.176 261.238 324.459C288.02 283.472 279.67 219.185 261.185 184.642V184.637Z" fill="url(#paint2_linear_198_934)"/>
</g>
<g clip-path="url(#clip1_198_934)">
<path d="M200.888 89.7269L201.347 91.0266L205.601 88.5681L200.888 89.7269Z" fill="url(#paint3_linear_198_934)"/>
<path d="M201.856 92.5171L201.447 91.1947L205.601 88.5681L206.955 87.9819L201.856 92.5171Z" fill="url(#paint4_linear_198_934)"/>
<path d="M203.719 95.8526L202.083 92.7398L204.024 90.5131L206.955 87.9819L203.719 95.8526Z" fill="url(#paint5_linear_198_934)"/>
<path d="M218.715 77.7574C217.997 78.8072 217.316 79.2934 216.729 79.4888C216.061 80.8612 215.034 82.4289 213.471 83.9376C214.598 83.7377 216.607 83.306 216.916 82.7697C217.629 82.5698 219.015 77.3212 218.715 77.7574Z" fill="url(#paint6_linear_198_934)"/>
<path d="M212.562 81.0655C213.68 79.5569 214.639 77.8255 215.302 75.8533C215.271 74.4809 214.866 69.764 214.866 69.764C214.866 69.764 210.872 66.6875 207.205 65.8787C209.722 68.7733 213.298 75.1171 212.562 81.0655Z" fill="url(#paint7_linear_198_934)"/>
<path d="M202.701 88.8681C202.701 88.8681 203.324 84.392 206.073 81.929C208.422 79.9795 207.686 78.5481 207.686 78.5481C207.686 78.5481 206.514 80.5476 205.105 80.6975C204.664 80.743 204.246 81.152 203.878 81.8109C203.069 83.2423 202.819 86.2733 202.701 88.8681Z" fill="url(#paint8_linear_198_934)"/>
<path d="M203.797 81.888C204.165 81.2336 204.66 80.8746 205.101 80.8292C206.514 80.6792 207.605 78.6252 207.605 78.6252C207.605 78.6252 206.469 81.0564 203.342 80.861C203.088 80.9201 202.356 81.1382 202.202 82.2152C202.083 82.4242 203.797 81.888 203.797 81.888Z" fill="url(#paint9_linear_198_934)"/>
<path d="M204.746 87.8864L202.697 88.9225C202.697 88.9225 203.238 84.7918 205.778 82.1743C205.741 82.0925 208.332 80.4338 207.686 78.5434C207.695 78.3026 208.936 80.8883 205.791 83.683C204.237 85.0644 204.746 87.8864 204.746 87.8864Z" fill="url(#paint10_linear_198_934)"/>
<path d="M204.746 87.8864C204.746 87.8864 204.074 85.1962 205.787 83.6785C205.787 83.6785 205.805 85.0372 205.987 85.6507C206.228 86.4595 206.705 86.6368 206.705 86.6368L204.746 87.8864Z" fill="url(#paint11_linear_198_934)"/>
<path d="M207.177 100.924L204.21 96.8523L204.587 93.4805L206.955 87.9819L207.177 100.924Z" fill="url(#paint12_linear_198_934)"/>
<path d="M216.389 83.8193C216.384 83.8243 216.384 83.8293 216.379 83.8343C216.384 83.8293 216.389 83.8243 216.389 83.8193Z" fill="url(#paint13_linear_198_934)"/>
<path d="M213.058 84.3284C212.517 84.8192 211.917 85.2963 211.249 85.7599C211.394 86.3688 211.154 87.5957 207.959 89.0863C207.959 89.0863 213.476 88.3637 216.379 83.8376C216.234 83.9694 214.398 84.5193 213.058 84.3284Z" fill="url(#paint14_linear_198_934)"/>
<path opacity="0.13" d="M214.866 69.7686L218.715 77.7573C218.715 77.7573 217.388 86.9367 200.906 89.7042C200.797 89.7042 214.53 83.9421 214.866 69.7686Z" fill="#141413"/>
<path d="M216.257 70.3457L217.984 75.4171C217.984 75.4171 217.175 86.9095 200.906 89.6997C200.797 89.7042 215.921 84.5238 216.257 70.3457Z" fill="url(#paint15_linear_198_934)"/>
<path opacity="0.8" d="M233.199 79.9869C233.141 81.4887 232.769 82.122 231.323 82.4799C228.857 83.0927 226.362 83.5932 223.863 84.0576C222.171 84.3713 220.452 84.5469 218.744 84.7758C218.578 84.7983 218.407 84.7538 218.03 84.7232C217.602 83.6083 217.033 82.4592 216.718 81.2423C216.27 79.5046 216.012 77.7127 215.661 75.9468C215.506 75.171 215.664 74.6874 216.475 74.2831C218.29 73.3801 220.012 72.2909 221.803 71.3348C222.173 71.1391 222.694 71.082 223.112 71.1529C223.733 71.2607 224.374 71.4492 224.918 71.761C227.224 73.0815 229.497 74.457 231.782 75.8139C232.701 76.3579 233.224 77.1268 233.191 78.2382C233.172 78.8194 233.225 79.4054 233.199 79.9869Z" fill="#FF820F"/>
<path opacity="0.8" d="M231.727 83.3848C231.638 83.9871 231.688 84.3744 231.521 84.6071C231.191 85.0703 230.779 85.4935 230.339 85.8573C226.816 88.7802 223.26 91.6627 219.755 94.6019C218.252 95.8593 216.848 97.2359 215.373 98.5233C215.043 98.8128 214.607 99.1389 214.209 99.154C213.18 99.1902 212.141 99.0854 211.112 98.984C210.928 98.9669 210.772 98.7004 210.433 98.4001C211.248 96.6999 211.938 94.9078 212.922 93.2931C214.244 91.1162 215.808 89.0844 217.24 86.9725C217.656 86.3622 218.108 86.0002 218.895 85.9054C220.552 85.7026 222.193 85.3797 223.834 85.0568C225.863 84.6569 227.884 84.2064 229.912 83.7758C230.412 83.6683 230.916 83.5596 231.728 83.3838L231.727 83.3848Z" fill="#F54F00"/>
<path opacity="0.8" d="M226.977 70.5358C227.882 71.3313 228.775 72.1381 229.545 73.1476C227.909 72.2532 226.275 71.3632 224.618 70.4574C224.495 69.7309 224.365 68.9642 224.205 68.0466C225.582 68.4699 226.076 69.7424 226.976 70.5356L226.977 70.5358Z" fill="#E84200"/>
<path opacity="0.8" d="M221.354 66.9369C222.347 67.2197 223.041 67.9277 223.078 69.3554C220.9 70.5507 218.733 71.765 216.542 72.9297C216.21 73.1071 215.736 73.2029 215.385 73.1148C211.537 72.1382 207.569 71.5896 203.927 69.8798C202.812 69.3581 201.986 68.2096 201.348 66.0799C202.921 65.2087 204.481 64.2633 206.116 63.4818C206.691 63.2062 207.507 63.1459 208.127 63.3081C212.552 64.4627 216.958 65.6788 221.355 66.935L221.354 66.9369Z" fill="#FFC24F"/>
<path opacity="0.8" d="M216.199 83.7785C216.244 83.9875 216.143 84.2301 216.093 84.5721C214.322 84.4589 212.651 84.0211 211.08 83.371C207.598 81.9367 204.086 80.6337 200.411 79.7595C198.928 79.4065 197.539 78.6619 195.775 77.9649C198.431 75.7264 200.828 73.6647 203.291 71.692C203.654 71.4016 204.379 71.3729 204.88 71.4849C207.926 72.1715 210.955 72.9307 213.976 73.6618C214.767 77.2444 215.493 80.5087 216.198 83.7773L216.199 83.7785Z" fill="#FFA02D"/>
<path opacity="0.8" d="M211.933 100.541C212.024 100.572 212.082 100.7 212.266 100.901C211.081 102.435 209.647 103.661 208.006 104.648C207.881 104.552 207.754 104.458 207.628 104.362C207.979 103.444 208.298 102.51 208.691 101.611C209.302 100.22 209.591 100.085 211.095 100.329C211.379 100.376 211.66 100.45 211.932 100.541L211.933 100.541Z" fill="#F54F00"/>
<path opacity="0.8" d="M216.091 86.1202C214.267 89.2356 212.487 92.0878 210.896 95.0431C209.333 97.9488 207.957 100.959 206.319 104.29C205.421 101.914 204.65 99.8467 203.861 97.7827C203.072 95.7216 202.341 93.6363 201.451 91.6226C200.533 89.5579 199.419 87.5831 198.458 85.5352C197.532 83.5554 196.691 81.5355 195.815 79.5324C195.883 79.4255 195.95 79.3222 196.018 79.2152C202.653 81.4997 209.289 83.7803 216.09 86.1199L216.091 86.1202Z" fill="#FF6500"/>
<path opacity="0.8" d="M204.716 104.089C204.567 104.182 204.424 104.273 204.276 104.364C202.88 102.465 201.474 100.571 200.089 98.6647C198.354 96.2846 196.431 94.013 194.963 91.4723C193.171 88.3797 191.763 85.0615 190.203 81.8321C189.374 80.1184 188.566 78.3956 187.754 76.671C187.633 76.4163 187.545 76.143 187.349 75.6455C189.845 76.7422 192.207 77.7183 193.964 79.5038C195.102 80.659 195.823 82.2889 196.53 83.8011C197.761 86.4191 198.863 89.0989 199.973 91.7744C200.612 93.3219 201.153 94.911 201.755 96.4766C202.733 99.0153 203.727 101.551 204.715 104.087L204.716 104.089Z" fill="#F54F00"/>
<path opacity="0.8" d="M203.771 62.7857C203.809 62.9093 203.851 63.0307 203.891 63.1536C202.638 63.8081 201.382 64.4639 200.023 65.1737C199.474 64.5817 199.006 64.078 198.303 63.3224C200.399 63.1157 202.086 62.9504 203.772 62.785L203.771 62.7857Z" fill="#F54F00"/>
<path opacity="0.8" d="M196.697 63.3464C198.802 65.6681 201.137 67.7279 202.504 70.7338C200.534 72.4275 198.673 73.9815 196.869 75.6041C196.22 76.1855 195.735 76.2724 194.887 75.9053C192.293 74.7819 189.619 73.8386 186.992 72.7881C185.319 72.1194 184.043 70.8861 182.563 69.5944C187.299 67.385 191.782 65.024 196.697 63.3474L196.697 63.3464Z" fill="#FF820F"/>
<path opacity="0.8" d="M194.135 77.3467C192.851 77.303 191.131 76.476 189.454 75.1662C191.338 75.6037 192.733 76.4815 194.135 77.3467Z" fill="#FF820F"/>
<path opacity="0.8" d="M191.631 88.062C190.163 86.401 187.787 85.5439 187.36 82.9859C185.346 79.8569 184.767 76.173 183.461 72.7712C183.423 72.6691 183.445 72.5418 183.439 72.4272C185.062 73.3154 185.229 73.5623 185.65 75.1021C185.813 75.697 186.121 76.2609 186.409 76.8172C188.316 80.4756 190.49 84.0023 191.631 88.063L191.631 88.062Z" fill="#E84200"/>
<path d="M216.092 86.1201C209.291 83.7804 202.654 81.4998 196.019 79.2154C195.951 79.3223 195.884 79.4256 195.816 79.5325C196.691 81.5364 197.533 83.5555 198.459 85.5353C199.419 87.583 200.534 89.558 201.452 91.6227C202.342 93.6365 203.073 95.7217 203.863 97.7828C204.652 99.8468 205.421 101.915 206.32 104.29C207.959 100.959 209.334 97.948 210.897 95.0432C212.489 92.0881 214.268 89.2348 216.092 86.1203L216.092 86.1201ZM186.624 66.6473C189.604 65.3902 192.515 63.9728 195.501 62.7264C196.437 62.3378 197.503 62.2086 198.524 62.0805C201.139 61.7554 203.76 61.4958 206.378 61.217C206.696 61.1858 207.092 61.0895 207.332 61.2315C209.829 62.7096 212.685 63.0852 215.392 63.9052C217.663 64.5933 219.94 65.2515 222.204 65.9561C222.511 66.0518 222.759 66.3363 223.041 66.5249C223.229 66.6483 223.511 66.8996 223.611 66.8429C225.012 66.0471 225.386 67.3958 226.082 68.0204C227.415 69.2139 228.752 70.4101 230.037 71.6605C230.819 72.4233 231.508 73.2829 232.234 74.1039C232.349 74.2337 232.406 74.4427 232.545 74.521C234.211 75.4641 234.108 77.0726 234.099 78.652C234.098 78.9998 233.997 79.3901 234.119 79.6896C234.742 81.2543 234.204 82.6512 233.565 84.0398C233.423 84.3442 233.269 84.6852 233.022 84.8924C231.314 86.3309 229.571 87.7246 227.858 89.1598C224.312 92.1287 220.662 94.9853 217.268 98.1225C214.435 100.747 211.48 103.207 208.491 105.636C208.042 106.001 207.555 106.324 207.064 106.629C205.733 107.454 205.049 107.327 204.133 106.07C201.78 102.838 199.452 99.5917 197.084 96.3739C196.024 94.9351 194.942 93.5022 193.763 92.1611C193.087 91.3916 192.141 90.8653 191.414 90.1342C189.587 88.2963 187.647 86.5334 186.09 84.4816C185.189 83.2997 184.666 81.6521 184.463 80.1467C184.011 76.802 182.452 73.861 181.492 70.7087C181.396 70.3883 181.192 70.0505 180.938 69.8395C180.317 69.3139 180.596 68.8354 180.899 68.311C183.033 68.5148 184.796 67.4174 186.625 66.6475L186.624 66.6473ZM196.696 63.3463C191.781 65.0229 187.299 67.3839 182.562 69.5932C184.042 70.885 185.319 72.1183 186.991 72.787C189.618 73.8374 192.292 74.7807 194.886 75.9042C195.734 76.2712 196.221 76.1846 196.868 75.603C198.672 73.9804 200.533 72.4264 202.503 70.7327C201.137 67.728 198.801 65.6679 196.696 63.3453L196.696 63.3463ZM203.927 69.8798C207.569 71.5896 211.538 72.1394 215.384 73.1148C215.736 73.2029 216.209 73.1071 216.542 72.9297C218.733 71.7638 220.9 70.5507 223.077 69.3554C223.041 67.9267 222.348 67.2189 221.354 66.9369C216.957 65.6807 212.551 64.4646 208.127 63.31C207.507 63.1478 206.69 63.2081 206.116 63.4837C204.48 64.2642 202.921 65.2106 201.347 66.0818C201.985 68.2115 202.812 69.3602 203.926 69.8817L203.927 69.8798ZM233.199 79.9857C233.223 79.403 233.171 78.8179 233.19 78.237C233.224 77.1256 232.699 76.3564 231.782 75.8127C229.497 74.4558 227.223 73.0803 224.918 71.7598C224.373 71.448 223.732 71.2595 223.111 71.1517C222.693 71.0808 222.172 71.1377 221.803 71.3336C220.011 72.2897 218.289 73.3799 216.475 74.2819C215.664 74.6865 215.505 75.1698 215.66 75.9456C216.012 77.7115 216.27 79.5024 216.717 81.2411C217.031 82.4578 217.6 83.6069 218.029 84.722C218.406 84.7536 218.577 84.7981 218.744 84.7746C220.452 84.5457 222.171 84.3701 223.863 84.0564C226.361 83.593 228.856 83.0915 231.322 82.4787C232.769 82.1208 233.14 81.4866 233.199 79.9857ZM213.976 73.6618C210.955 72.9309 207.926 72.1705 204.88 71.4849C204.379 71.3729 203.654 71.4016 203.291 71.692C200.828 73.6647 198.431 75.7264 195.775 77.9649C197.539 78.6619 198.927 79.4065 200.411 79.7595C204.086 80.6337 207.597 81.9365 211.08 83.371C212.65 84.0209 214.322 84.4589 216.093 84.5721C216.143 84.2301 216.244 83.9875 216.199 83.7785C215.492 80.5097 214.767 77.2466 213.976 73.663L213.976 73.6618ZM231.52 84.6068C231.687 84.3742 231.637 83.9868 231.726 83.3845C230.914 83.5601 230.411 83.67 229.911 83.7765C227.883 84.207 225.862 84.6576 223.832 85.0574C222.191 85.3804 220.55 85.7033 218.893 85.9061C218.106 86.0009 217.655 86.3629 217.239 86.9732C215.806 89.0851 214.244 91.1171 212.92 93.2938C211.936 94.9073 211.246 96.7003 210.432 98.4007C210.771 98.7023 210.927 98.9676 211.111 98.9847C212.139 99.087 213.179 99.1908 214.208 99.1546C214.605 99.1396 215.042 98.8135 215.371 98.524C216.846 97.2364 218.25 95.859 219.754 94.6026C223.26 91.6636 226.815 88.7809 230.338 85.858C230.778 85.4932 231.19 85.0712 231.52 84.6078L231.52 84.6068ZM229.544 73.1464C228.774 72.1378 227.881 71.3301 226.976 70.5346C226.077 69.7405 225.583 68.4689 224.206 68.0456C224.365 68.9642 224.495 69.7309 224.618 70.4565C226.275 71.3622 227.909 72.2522 229.545 73.1467L229.544 73.1464ZM212.266 100.9C212.082 100.699 212.023 100.571 211.933 100.54C211.659 100.449 211.378 100.375 211.095 100.328C209.591 100.084 209.303 100.218 208.691 101.61C208.298 102.508 207.98 103.443 207.629 104.361C207.754 104.457 207.881 104.551 208.007 104.648C209.647 103.661 211.08 102.435 212.267 100.9L212.266 100.9ZM204.275 104.363C204.423 104.272 204.567 104.181 204.715 104.088C203.726 101.553 202.733 99.0154 201.754 96.4767C201.152 94.9111 200.612 93.322 199.973 91.7745C198.863 89.099 197.761 86.4192 196.53 83.8012C195.823 82.288 195.102 80.6581 193.964 79.5039C192.207 77.7194 189.845 76.7423 187.349 75.6456C187.545 76.1431 187.633 76.4164 187.754 76.6711C188.565 78.3957 189.374 80.1185 190.203 81.8322C191.764 85.0609 193.171 88.3788 194.963 91.4724C196.43 94.012 198.354 96.2848 200.089 98.6648C201.475 100.57 202.88 102.464 204.276 104.364L204.275 104.363ZM203.89 63.1544C203.851 63.0308 203.809 62.9094 203.77 62.7866C202.083 62.9519 200.397 63.1172 198.301 63.3239C199.003 64.0795 199.473 64.5825 200.021 65.1753C201.379 64.4654 202.636 63.8097 203.888 63.1551L203.89 63.1544ZM189.455 75.1662C191.13 76.4748 192.851 77.303 194.135 77.3467C192.733 76.4825 191.339 75.6039 189.455 75.1662ZM187.359 82.9847C187.787 85.5438 190.163 86.4009 191.631 88.0607C190.49 84.0001 188.316 80.4724 186.409 76.815C186.121 76.2587 185.812 75.6945 185.649 75.0999C185.229 73.56 185.062 73.3132 183.439 72.425C183.444 72.5406 183.423 72.6668 183.461 72.769C184.767 76.1708 185.346 79.8556 187.36 82.9837L187.359 82.9847Z" fill="#DB3500"/>
</g>
<circle cx="135.884" cy="209.779" r="98.5465" fill="#D9410E" stroke="#DB3500"/>
<circle cx="135.884" cy="209.779" r="82.7951" fill="#4B2020" fill-opacity="0.7" stroke="#AB2500" stroke-width="3"/>
<path d="M100.132 233.858L101.819 239.016L118.789 229.73L100.132 233.858Z" fill="url(#paint16_linear_198_934)"/>
<path d="M103.685 244.931L102.196 239.688L118.788 229.73L124.173 227.547L103.685 244.931Z" fill="url(#paint17_linear_198_934)"/>
<path d="M110.714 258.232L104.56 245.828L112.403 237.241L124.174 227.547L110.714 258.232Z" fill="url(#paint18_linear_198_934)"/>
<path d="M171.409 188.379C168.486 192.445 165.758 194.297 163.433 195.012C160.677 200.353 156.49 206.43 150.197 212.225C154.652 211.542 162.599 210.027 163.864 207.945C166.691 207.223 172.63 186.689 171.409 188.379Z" fill="url(#paint19_linear_198_934)"/>
<path d="M146.884 200.836C151.423 195 155.357 188.272 158.15 180.57C158.151 175.164 156.993 156.559 156.993 156.559C156.993 156.559 141.552 144.081 127.19 140.559C136.834 152.186 150.329 177.487 146.884 200.836Z" fill="url(#paint20_linear_198_934)"/>
<path d="M107.348 230.644C107.348 230.644 110.211 213.081 121.26 203.638C130.688 196.18 127.921 190.477 127.921 190.477C127.921 190.477 123.122 198.24 117.563 198.701C115.823 198.839 114.14 200.411 112.63 202.971C109.315 208.531 108.052 220.44 107.348 230.644Z" fill="url(#paint21_linear_198_934)"/>
<path d="M112.301 203.268C113.81 200.726 115.793 199.358 117.533 199.22C123.11 198.759 127.592 190.774 127.592 190.774C127.592 190.774 122.896 200.24 110.607 199.183C109.6 199.392 106.699 200.184 105.992 204.409C105.508 205.221 112.301 203.268 112.301 203.268Z" fill="url(#paint22_linear_198_934)"/>
<path d="M115.488 226.968L107.325 230.858C107.325 230.858 109.833 214.647 120.074 204.577C119.938 204.251 130.287 197.96 127.921 190.459C127.979 189.512 132.625 199.805 119.989 210.517C113.744 215.812 115.488 226.968 115.488 226.968Z" fill="url(#paint23_linear_198_934)"/>
<path d="M115.488 226.968C115.488 226.968 113.088 216.316 119.972 210.499C119.972 210.499 119.919 215.849 120.578 218.281C121.451 221.487 123.313 222.228 123.313 222.228L115.488 226.968Z" fill="url(#paint24_linear_198_934)"/>
<path d="M123.86 278.514L112.553 262.213L114.348 248.974L124.173 227.547L123.86 278.514Z" fill="url(#paint25_linear_198_934)"/>
<path d="M161.697 212.028C161.677 212.047 161.676 212.066 161.657 212.085C161.676 212.066 161.696 212.047 161.697 212.028Z" fill="url(#paint26_linear_198_934)"/>
<path d="M148.534 213.726C146.36 215.608 143.955 217.431 141.283 219.194C141.799 221.605 140.738 226.412 128.026 231.986C128.026 231.986 149.809 229.649 161.656 212.099C161.071 212.604 153.794 214.6 148.534 213.726Z" fill="url(#paint27_linear_198_934)"/>
<path opacity="0.13" d="M156.992 156.577L171.409 188.379C171.409 188.379 165.341 224.392 100.205 233.77C99.7756 233.76 154.365 212.34 156.992 156.577Z" fill="#141413"/>
<path d="M162.413 158.976L168.744 179.099C168.744 179.099 164.503 224.265 100.205 233.752C99.7757 233.76 159.785 214.758 162.413 158.976Z" fill="url(#paint28_linear_198_934)"/>
<g clip-path="url(#clip2_198_934)">
<path d="M220.875 328.407L220.177 330.236L227.042 331.485L220.875 328.407Z" fill="url(#paint29_linear_198_934)"/>
<path d="M219.357 332.318L220.13 330.51L227.042 331.485L229.047 332.096L219.357 332.318Z" fill="url(#paint30_linear_198_934)"/>
<path d="M218.307 337.642L219.398 332.768L223.546 332.141L229.046 332.096L218.307 337.642Z" fill="url(#paint31_linear_198_934)"/>
<path d="M251.178 331.839C249.436 332.316 248.251 332.215 247.437 331.888C245.452 332.759 242.899 333.512 239.819 333.709C241.223 334.528 243.794 335.907 244.622 335.611C245.578 336.051 251.904 331.643 251.178 331.839Z" fill="url(#paint32_linear_198_934)"/>
<path d="M241.476 329.764C244.074 329.158 246.703 328.165 249.235 326.64C250.462 325.125 254.361 319.647 254.361 319.647C254.361 319.647 252.865 312.644 249.639 308.397C249.703 313.845 247.742 324.001 241.476 329.764Z" fill="url(#paint33_linear_198_934)"/>
<path d="M223.627 329.145C223.627 329.145 228.416 324.871 233.657 324.732C237.993 324.782 238.512 322.555 238.512 322.555C238.512 322.555 235.404 323.642 233.742 322.509C233.223 322.153 232.394 322.212 231.39 322.587C229.198 323.393 226.141 326.444 223.627 329.145Z" fill="url(#paint34_linear_198_934)"/>
<path d="M231.23 322.595C232.23 322.225 233.096 322.292 233.615 322.648C235.283 323.785 238.352 322.564 238.352 322.564C238.352 322.564 234.887 324.151 231.682 321.065C231.352 320.895 230.36 320.459 229.202 321.483C228.882 321.6 231.23 322.595 231.23 322.595Z" fill="url(#paint35_linear_198_934)"/>
<path d="M226.743 329.962L223.572 329.2C223.572 329.2 227.955 325.225 233.111 324.727C233.147 324.605 237.476 325.19 238.516 322.551C238.747 322.298 237.713 326.238 231.739 326.372C228.786 326.439 226.743 329.962 226.743 329.962Z" fill="url(#paint36_linear_198_934)"/>
<path d="M226.743 329.962C226.743 329.962 228.489 326.431 231.739 326.363C231.739 326.363 230.509 327.851 230.142 328.682C229.659 329.779 230.013 330.41 230.013 330.41L226.743 329.962Z" fill="url(#paint37_linear_198_934)"/>
<path d="M217.388 346.312L217.919 339.176L221.428 335.872L229.046 332.096L217.388 346.312Z" fill="url(#paint38_linear_198_934)"/>
<path d="M243.086 336.263C243.077 336.264 243.073 336.268 243.064 336.269C243.073 336.268 243.082 336.268 243.086 336.263Z" fill="url(#paint39_linear_198_934)"/>
<path d="M239.012 333.752C237.976 333.786 236.888 333.751 235.738 333.639C235.336 334.431 233.947 335.538 229.118 334.215C229.118 334.215 235.755 338.505 243.06 336.274C242.781 336.283 240.288 335.191 239.012 333.752Z" fill="url(#paint40_linear_198_934)"/>
<path opacity="0.13" d="M254.357 319.652L251.179 331.839C251.179 331.839 241.303 340.557 220.915 328.4C220.797 328.299 240.962 334.687 254.357 319.652Z" fill="#141413"/>
<path d="M255.331 321.555L252.538 328.633C252.538 328.633 241.097 340.331 220.919 328.395C220.797 328.299 241.932 336.595 255.331 321.555Z" fill="url(#paint41_linear_198_934)"/>
<path opacity="0.7" d="M241.099 347.814C239.893 349.611 238.464 351.262 236.832 352.817C237.312 351.738 237.764 350.647 238.281 349.587C240.079 345.906 241.949 342.261 243.696 338.559C245.256 335.251 246.678 331.879 248.189 328.551C249.066 326.607 250.556 325.326 252.584 324.661C253.23 324.451 253.857 324.181 254.506 323.967C255.122 323.765 255.754 323.603 256.376 323.425C256.456 323.528 256.535 323.631 256.612 323.737C256.231 324.35 255.867 324.97 255.47 325.572C252.331 330.354 249.165 335.115 246.056 339.914C244.364 342.525 242.833 345.235 241.099 347.814L241.099 347.814Z" fill="#E84200"/>
<path opacity="0.7" d="M260.161 309.75C261.094 311.331 262.013 312.918 262.963 314.488C263.347 315.125 263.18 315.731 262.792 316.211C261.992 317.206 261.1 318.126 260.017 319.331C259.235 315.889 259.961 312.825 259.803 309.768C259.923 309.762 260.042 309.756 260.162 309.749L260.161 309.75Z" fill="#E84200"/>
<path opacity="0.7" d="M245.726 329.938C245.929 332.352 237.115 350.766 232.431 357.721C228.511 355.4 224.684 353.137 220.856 350.869C220.683 349.976 221.069 349.456 221.699 348.797C224.362 346.007 227.861 344.397 230.831 342.055C232.683 340.594 234.476 339.051 236.295 337.542C239.113 335.202 241.932 332.858 244.759 330.523C245.036 330.297 245.38 330.145 245.725 329.936L245.726 329.938Z" fill="#FF6500"/>
<path opacity="0.7" d="M257.094 306.631C257.453 309.051 257.95 311.456 258.124 313.883C258.269 315.907 258.064 317.967 257.937 320.002C257.915 320.351 257.578 320.819 257.258 320.988C256.058 321.621 254.804 322.151 253.574 322.725C252.841 323.066 252.137 323.46 251.384 323.743C251.024 323.88 250.492 323.985 250.2 323.816C245.195 320.943 240.123 318.161 235.569 314.373C237.424 312.697 254.145 306.735 257.094 306.631Z" fill="#FFC24F"/>
<path d="M220.856 350.869C224.684 353.137 228.511 355.4 232.431 357.721C237.115 350.766 245.929 332.351 245.726 329.938C245.381 330.146 245.038 330.298 244.76 330.524C241.934 332.859 239.116 335.202 236.296 337.543C234.478 339.052 232.685 340.595 230.832 342.057C227.862 344.399 224.365 346.009 221.701 348.798C221.069 349.457 220.683 349.978 220.858 350.871L220.856 350.869ZM230.317 357.525C227.028 355.725 223.844 353.979 220.655 352.248C220.387 352.102 220.046 352.098 219.77 351.964C219.081 351.638 218.582 351.847 218.165 352.437C217.446 353.447 216.652 354.411 216.005 355.465C215.302 356.606 214.296 357.652 214.474 359.163C217.295 359.823 228.614 358.752 230.317 357.525ZM259.802 309.767C259.96 312.824 259.235 315.889 260.016 319.33C261.098 318.125 261.99 317.204 262.791 316.21C263.18 315.729 263.346 315.125 262.962 314.487C262.014 312.918 261.093 311.33 260.16 309.749C260.041 309.755 259.922 309.761 259.802 309.768L259.802 309.767ZM243.696 338.558C241.948 342.259 240.08 345.905 238.282 349.586C237.765 350.646 237.312 351.737 236.832 352.816C238.465 351.261 239.894 349.611 241.099 347.813C242.833 345.234 244.366 342.524 246.056 339.914C249.165 335.115 252.331 330.354 255.47 325.572C255.866 324.969 256.231 324.35 256.612 323.737C256.534 323.63 256.456 323.528 256.376 323.425C255.754 323.603 255.122 323.767 254.506 323.967C253.858 324.18 253.23 324.45 252.583 324.661C250.557 325.325 249.067 326.606 248.188 328.551C246.679 331.879 245.256 335.251 243.696 338.559L243.696 338.558ZM252.479 304.431C253.96 304.43 255.445 304.22 256.924 304.052C258.187 303.906 258.678 304.086 259.22 305.055C261.123 308.445 263.027 311.831 265.001 315.347C264.572 315.86 264.031 316.446 263.556 317.079C260.978 320.507 258.352 323.898 255.872 327.393C253.568 330.637 251.415 333.985 249.218 337.303C248.056 339.062 246.957 340.865 245.807 342.633C244.075 345.294 242.359 347.967 240.57 350.592C239.132 352.701 237.69 354.823 236.062 356.78C235.171 357.847 234.689 358.947 234.57 360.593C233.545 360.355 232.71 360.184 231.89 359.97C230.059 359.493 228.217 359.564 226.35 359.74C222.332 360.119 218.309 360.448 214.287 360.755C212.431 360.894 212.384 360.856 211.978 359.035C211.33 356.138 210.656 353.243 210.194 350.311C210.045 349.379 210.283 348.195 210.772 347.383C212.482 344.544 213.797 341.556 214.84 338.418C215.463 336.544 216.328 334.747 217.036 332.9C218.429 329.254 219.726 325.573 221.182 321.956C222.321 319.133 223.648 316.387 224.887 313.605C225.916 311.287 226.894 308.948 227.993 306.66C228.22 306.185 228.998 305.514 229.299 305.612C231.045 306.181 232.523 305.321 233.989 304.795C236.437 303.914 238.898 304.324 241.352 304.309C245.06 304.287 248.771 304.443 252.478 304.431L252.479 304.431ZM258.124 313.885C257.951 311.456 257.453 309.053 257.094 306.633C254.144 306.736 237.423 312.699 235.57 314.374C240.124 318.163 245.195 320.945 250.201 323.818C250.494 323.987 251.026 323.882 251.384 323.745C252.136 323.461 252.842 323.067 253.574 322.726C254.804 322.152 256.059 321.623 257.258 320.99C257.579 320.821 257.915 320.353 257.937 320.004C258.064 317.968 258.269 315.909 258.124 313.885ZM247.276 325.841C247.772 325.412 248.266 324.807 247.558 324.298C245.962 323.149 244.28 322.126 242.619 321.065C241.522 320.363 240.386 319.715 239.303 318.993C237.562 317.827 235.851 316.623 233.912 315.286C227.587 324.734 222.366 334.674 215.5 343.531C214.491 344.839 213.743 346.351 212.659 348.123C213.573 348.09 214.058 348.066 214.544 348.056C216.572 348.014 218.474 346.842 220.577 347.415C220.812 347.477 221.166 347.24 221.418 347.072C224.087 345.265 226.821 343.539 229.382 341.594C231.449 340.022 233.317 338.184 235.257 336.447C237.944 334.046 240.604 331.623 243.299 329.232C244.601 328.073 245.958 326.98 247.277 325.841L247.276 325.841ZM213.274 357.223L217.728 351.035C216.14 350.045 214.436 349.962 212.818 349.654C212.042 349.507 211.467 350.28 211.593 351.153C211.787 352.502 212.004 353.852 212.324 355.177C212.488 355.839 212.901 356.441 213.274 357.224L213.274 357.223ZM218.512 349.909C218.36 348.436 217.895 348.321 216.137 349.309C217.004 349.526 217.733 349.713 218.512 349.909ZM252.282 305.897C250.619 305.687 248.982 305.581 247.344 305.518C244.689 305.419 242.034 305.305 239.378 305.283C237.514 305.269 237.279 305.503 236.839 307.298C236.503 308.665 236.214 310.042 235.862 311.601C241.635 310.274 246.9 307.941 252.281 305.898L252.282 305.897ZM215.638 340.748C216.819 339.245 218.107 337.807 219.163 336.218C221.394 332.852 223.569 329.442 225.647 325.978C227.243 323.314 228.628 320.526 230.158 317.823C230.914 316.486 231.792 315.218 232.717 313.757C231.715 309.45 231.536 309.117 229.401 307.911C228.41 309.609 227.379 311.292 226.428 313.023C223.786 317.833 222.042 323.026 220.029 328.108C219.23 330.124 218.407 332.134 217.648 334.169C216.852 336.31 216.117 338.475 215.353 340.629C215.446 340.669 215.542 340.707 215.635 340.748L215.638 340.748ZM234.267 311.461C235.318 309.623 235.762 307.915 235.869 305.854C234.531 306.365 233.399 306.798 232.254 307.232C232.938 308.673 233.557 309.971 234.267 311.461Z" fill="#DB3500"/>
<path opacity="0.7" d="M230.317 357.525C228.614 358.752 217.295 359.823 214.474 359.163C214.296 357.653 215.302 356.607 216.005 355.465C216.652 354.411 217.446 353.447 218.165 352.437C218.583 351.846 219.082 351.637 219.77 351.964C220.046 352.098 220.388 352.102 220.655 352.248C223.845 353.98 227.028 355.725 230.317 357.525Z" fill="#E84200"/>
<path opacity="0.7" d="M217.729 351.034L213.275 357.222C212.903 356.44 212.488 355.838 212.325 355.175C212.006 353.851 211.789 352.501 211.595 351.151C211.468 350.277 212.043 349.505 212.819 349.652C214.437 349.961 216.142 350.044 217.73 351.033L217.729 351.034Z" fill="#FF6500"/>
<path opacity="0.7" d="M216.138 349.309C217.895 348.32 218.361 348.437 218.512 349.908C217.733 349.712 217.005 349.525 216.138 349.309Z" fill="#FF820F"/>
<path opacity="0.7" d="M247.343 305.519C248.982 305.581 250.619 305.688 252.281 305.898C246.9 307.941 241.635 310.275 235.861 311.601C236.213 310.042 236.502 308.665 236.838 307.298C237.279 305.504 237.513 305.269 239.378 305.283C242.034 305.305 244.689 305.42 247.344 305.518L247.343 305.519Z" fill="#FF820F"/>
<path opacity="0.7" d="M219.164 336.218C218.108 337.808 216.82 339.245 215.639 340.748C215.545 340.708 215.45 340.67 215.357 340.629C216.12 338.476 216.856 336.31 217.652 334.169C218.411 332.135 219.233 330.124 220.033 328.108C222.046 323.026 223.791 317.832 226.432 313.023C227.382 311.292 228.414 309.609 229.405 307.911C231.54 309.118 231.718 309.449 232.721 313.757C231.796 315.218 230.918 316.486 230.162 317.823C228.632 320.526 227.246 323.314 225.651 325.978C223.572 329.441 221.397 332.852 219.167 336.218L219.164 336.218Z" fill="#FF820F"/>
<path opacity="0.7" d="M235.868 305.855C235.761 307.916 235.318 309.624 234.266 311.462C233.556 309.972 232.937 308.674 232.253 307.233C233.398 306.799 234.531 306.365 235.868 305.855Z" fill="#E84200"/>
</g>
<g clip-path="url(#clip3_198_934)">
<path d="M25.224 333.968L26.1046 334.145L26.1462 330.944L25.224 333.968Z" fill="url(#paint42_linear_198_934)"/>
<path d="M27.1086 334.357L26.2318 334.145L26.146 330.944L26.2693 329.99L27.1086 334.357Z" fill="url(#paint43_linear_198_934)"/>
<path d="M29.5974 334.426L27.3093 334.304L26.7095 332.475L26.2696 329.99L29.5974 334.426Z" fill="url(#paint44_linear_198_934)"/>
<path d="M24.4658 319.997C24.8142 320.749 24.8591 321.293 24.7731 321.686C25.3188 322.518 25.8541 323.615 26.1776 324.994C26.4414 324.296 26.8693 323.027 26.6721 322.676C26.798 322.21 24.3216 319.684 24.4658 319.997Z" fill="url(#paint45_linear_198_934)"/>
<path d="M24.2669 324.545C23.7949 323.416 23.1452 322.302 22.2622 321.273C21.4833 320.833 18.7076 319.487 18.7076 319.487C18.7076 319.487 15.6535 320.698 13.978 322.481C16.438 322.037 21.1819 322.15 24.2669 324.545Z" fill="url(#paint46_linear_198_934)"/>
<path d="M25.3477 332.667C25.3477 332.667 23.0492 330.826 22.5868 328.466C22.2786 326.501 21.2318 326.436 21.2318 326.436C21.2318 326.436 21.9603 327.759 21.5746 328.597C21.4531 328.859 21.5427 329.23 21.7889 329.655C22.3207 330.585 23.9343 331.736 25.3477 332.667Z" fill="url(#paint47_linear_198_934)"/>
<path d="M21.8048 329.727C21.5611 329.303 21.5253 328.906 21.6468 328.644C22.034 327.802 21.2476 326.507 21.2476 326.507C21.2476 326.507 22.23 327.954 21.0783 329.639C21.0265 329.801 20.9047 330.283 21.4562 330.729C21.5338 330.865 21.8048 329.727 21.8048 329.727Z" fill="url(#paint48_linear_198_934)"/>
<path d="M25.48 331.195L25.3768 332.688C25.3768 332.688 23.2444 331.008 22.6258 328.713C22.5679 328.706 22.5028 326.703 21.2293 326.434C21.0975 326.348 22.9587 326.516 23.475 329.208C23.7303 330.539 25.48 331.195 25.48 331.195Z" fill="url(#paint49_linear_198_934)"/>
<path d="M25.4799 331.195C25.4799 331.195 23.7495 330.674 23.4709 329.209C23.4709 329.209 24.2376 329.652 24.6417 329.755C25.1749 329.89 25.4332 329.682 25.4332 329.682L25.4799 331.195Z" fill="url(#paint50_linear_198_934)"/>
<path d="M33.5896 334.18L30.3207 334.484L28.5587 333.149L26.2695 329.99L33.5896 334.18Z" fill="url(#paint51_linear_198_934)"/>
<path d="M27.0845 323.32C27.0857 323.325 27.0886 323.326 27.0898 323.331C27.0886 323.326 27.0875 323.322 27.0845 323.32Z" fill="url(#paint52_linear_198_934)"/>
<path d="M26.2588 325.355C26.3532 325.822 26.4204 326.317 26.4572 326.845C26.8466 326.967 27.4533 327.511 27.2227 329.796C27.2227 329.796 28.6574 326.467 27.0914 323.332C27.1167 323.457 26.8125 324.669 26.2588 325.355Z" fill="url(#paint53_linear_198_934)"/>
<path opacity="0.13" d="M18.7099 319.489L24.4658 319.997C24.4658 319.997 29.1626 323.8 25.2172 333.951C25.1809 334.012 26.5331 324.402 18.7099 319.489Z" fill="#141413"/>
<path d="M19.4967 318.903L22.9117 319.627C22.9117 319.627 29.0763 323.911 25.2148 333.949C25.181 334.012 27.3225 323.818 19.4967 318.903Z" fill="url(#paint54_linear_198_934)"/>
<path opacity="0.8" d="M30.5435 312.631C31.3647 313.165 31.5954 313.584 31.3135 314.513C30.8345 316.098 30.2829 317.662 29.71 319.215C29.3215 320.267 28.8467 321.288 28.4056 322.321C28.3627 322.421 28.2808 322.502 28.1378 322.703C27.371 322.571 26.5379 322.507 25.7517 322.277C24.6295 321.949 23.5403 321.496 22.4344 321.104C21.9484 320.932 21.7304 320.682 21.7746 320.093C21.874 318.776 21.8382 317.449 21.9001 316.127C21.9139 315.855 22.0554 315.544 22.2345 315.334C22.5019 315.022 22.8211 314.726 23.1773 314.525C24.6853 313.675 26.2132 312.86 27.7346 312.034C28.3454 311.701 28.9504 311.664 29.5614 312.053C29.8808 312.257 30.2263 312.423 30.5435 312.631Z" fill="#FF820F"/>
<path opacity="0.8" d="M31.9546 314.588C32.262 314.839 32.4955 314.94 32.5701 315.111C32.7194 315.451 32.8189 315.822 32.876 316.19C33.3381 319.137 33.7664 322.088 34.2433 325.031C34.4461 326.292 34.7489 327.537 34.9778 328.792C35.0301 329.073 35.0671 329.426 34.9429 329.654C34.6202 330.242 34.2151 330.788 33.8154 331.331C33.7445 331.428 33.5431 331.427 33.2621 331.516C32.5818 330.493 31.8085 329.509 31.2324 328.42C30.4547 326.954 29.8382 325.402 29.1335 323.895C28.9305 323.459 28.8783 323.085 29.0876 322.613C29.5265 321.618 29.8928 320.592 30.2591 319.565C30.7119 318.295 31.1333 317.014 31.5683 315.735C31.6749 315.419 31.782 315.101 31.9541 314.588L31.9546 314.588Z" fill="#F54F00"/>
<path opacity="0.8" d="M23.1775 312.964C23.9246 312.723 24.6741 312.492 25.4959 312.397C24.4498 313.015 23.4068 313.633 22.3472 314.259C21.8995 314.085 21.4269 313.902 20.8599 313.686C21.5559 313.056 22.4331 313.204 23.177 312.965L23.1775 312.964Z" fill="#E84200"/>
<path opacity="0.8" d="M19.2879 314.913C19.7773 314.451 20.4051 314.298 21.2166 314.754C21.1597 316.372 21.1173 317.989 21.0388 319.605C21.0273 319.85 20.9231 320.147 20.7566 320.314C18.9272 322.143 17.2972 324.181 15.1255 325.651C14.4617 326.101 13.5435 326.181 12.1383 325.828C12.1752 324.656 12.1658 323.468 12.2735 322.292C12.3106 321.879 12.5491 321.401 12.8466 321.108C14.9681 319.016 17.1179 316.954 19.287 314.912L19.2879 314.913Z" fill="#FFC24F"/>
<path opacity="0.8" d="M26.9981 323.413C27.1302 323.458 27.2323 323.595 27.4072 323.737C26.7532 324.691 25.951 325.481 25.0635 326.143C23.0996 327.615 21.1992 329.147 19.4846 330.913C18.7924 331.626 17.9125 332.155 16.9342 332.91C16.5665 330.677 16.2112 328.648 15.928 326.611C15.8863 326.311 16.1122 325.895 16.3417 325.652C17.7417 324.176 19.1764 322.733 20.5929 321.286C22.8625 322.037 24.9321 322.719 26.9972 323.413L26.9981 323.413Z" fill="#FFA02D"/>
<path opacity="0.8" d="M34.9612 331.39C35.009 331.35 35.1003 331.36 35.2737 331.324C35.7376 332.499 35.946 333.71 35.9518 334.958C35.8561 334.996 35.7609 335.036 35.6653 335.074C35.2686 334.572 34.8517 334.082 34.4796 333.562C33.9043 332.756 33.9254 332.55 34.5631 331.789C34.6844 331.646 34.8194 331.513 34.9608 331.391L34.9612 331.39Z" fill="#F54F00"/>
<path opacity="0.8" d="M28.2734 324.254C29.4095 326.314 30.413 328.262 31.5369 330.138C32.6429 331.981 33.8697 333.755 35.1882 335.783C33.5585 335.494 32.1443 335.236 30.7257 334.989C29.3085 334.744 27.8974 334.458 26.4731 334.286C25.0112 334.111 23.5342 334.076 22.0673 333.931C20.6502 333.79 19.239 333.587 17.8254 333.41C17.7882 333.336 17.7525 333.265 17.7153 333.191C21.2064 330.238 24.6957 327.282 28.273 324.255L28.2734 324.254Z" fill="#FF6500"/>
<path opacity="0.8" d="M34.541 336.614C34.5439 336.728 34.5469 336.838 34.5484 336.951C33.0202 337.1 31.4907 337.255 29.9619 337.396C28.0508 337.574 26.138 337.893 24.2262 337.868C21.8972 337.84 19.57 337.522 17.2421 337.319C16.0061 337.212 14.7721 337.09 13.5358 336.97C13.3532 336.952 13.1706 336.911 12.8267 336.854C14.273 335.822 15.6069 334.825 17.1923 334.437C18.2183 334.185 19.3712 334.325 20.4537 334.433C22.3298 334.617 24.1977 334.893 26.0654 335.164C27.145 335.322 28.2148 335.549 29.2921 335.734C31.0397 336.032 32.7908 336.322 34.5401 336.614L34.541 336.614Z" fill="#F54F00"/>
<path opacity="0.8" d="M11.1016 323.373C11.1836 323.393 11.2656 323.41 11.3476 323.428C11.2963 324.348 11.2447 325.27 11.1891 326.267C10.6745 326.377 10.2365 326.472 9.5792 326.613C10.1624 325.37 10.632 324.371 11.1016 323.372L11.1016 323.373Z" fill="#F54F00"/>
<path opacity="0.8" d="M9.05734 327.52C11.0588 327.116 12.9904 326.495 15.1291 326.732C15.4207 328.399 15.6701 329.96 15.9772 331.511C16.0866 332.067 15.9734 332.368 15.4852 332.72C13.9912 333.799 12.5719 334.981 11.1078 336.102C10.1759 336.815 9.05983 337.118 7.84306 337.517C8.18532 334.128 8.35773 330.832 9.05779 327.521L9.05734 327.52Z" fill="#FF820F"/>
<path opacity="0.8" d="M16.0417 333.622C15.5892 334.326 14.5525 335.014 13.2605 335.516C14.1332 334.607 15.09 334.118 16.0417 333.622Z" fill="#FF820F"/>
<path opacity="0.8" d="M21.2061 338.596C19.7866 338.864 18.5147 339.909 16.9402 339.295C14.517 339.379 12.2615 338.475 9.92135 338.073C9.85163 338.06 9.78765 338.005 9.72168 337.97C10.7598 337.358 10.9538 337.346 11.9561 337.624C12.3436 337.731 12.762 337.747 13.1696 337.771C15.8535 337.923 18.5527 337.882 21.2066 338.596L21.2061 338.596Z" fill="#E84200"/>
<path d="M28.2735 324.254C24.6963 327.282 21.207 330.237 17.7159 333.19C17.753 333.264 17.7888 333.336 17.8259 333.409C19.2395 333.588 20.6507 333.789 22.0679 333.931C23.5343 334.076 25.0118 334.11 26.4736 334.285C27.898 334.458 29.309 334.744 30.7262 334.989C32.1448 335.235 33.5595 335.494 35.1887 335.782C33.8698 333.754 32.6429 331.98 31.5375 330.137C30.414 328.261 29.4095 326.313 28.274 324.254L28.2735 324.254ZM7.54749 334.26C7.83707 332.173 8.014 330.07 8.31171 327.983C8.40597 327.33 8.68916 326.69 8.95781 326.075C9.64745 324.503 10.3762 322.949 11.0926 321.39C11.1812 321.202 11.2594 320.948 11.4189 320.861C13.0788 319.956 14.2412 318.482 15.6029 317.24C16.7452 316.198 17.8728 315.142 19.022 314.11C19.1781 313.97 19.4199 313.926 19.6195 313.831C19.7514 313.767 19.9861 313.692 19.9877 313.617C20.0092 312.568 20.889 312.808 21.4707 312.627C22.5835 312.278 23.6989 311.928 24.8271 311.626C25.515 311.443 26.2261 311.343 26.9278 311.21C27.0386 311.19 27.1745 311.227 27.265 311.175C28.3482 310.557 29.2145 311.151 30.0957 311.683C30.2901 311.799 30.4751 311.986 30.6833 312.017C31.7672 312.19 32.3699 312.957 32.9341 313.778C33.0572 313.959 33.1968 314.159 33.2304 314.366C33.4663 315.802 33.6658 317.242 33.8981 318.68C34.3782 321.655 34.7606 324.651 35.3857 327.597C35.9105 330.058 36.3028 332.533 36.6658 335.016C36.7207 335.389 36.7391 335.769 36.7462 336.146C36.7646 337.166 36.465 337.507 35.4557 337.6C32.8622 337.84 30.2685 338.061 27.6774 338.315C26.5185 338.428 25.3558 338.556 24.2118 338.769C23.5556 338.891 22.9456 339.245 22.294 339.408C20.6557 339.819 19.0221 340.317 17.354 340.505C16.392 340.616 15.2952 340.359 14.3849 339.971C12.3616 339.108 10.1954 339.001 8.11015 338.488C7.89898 338.434 7.64162 338.436 7.43897 338.508C6.93746 338.681 6.7628 338.364 6.57014 338.02C7.39561 336.894 7.36899 335.541 7.54794 334.26L7.54749 334.26ZM9.05707 327.521C8.357 330.832 8.18459 334.128 7.84233 337.517C9.0591 337.119 10.1751 336.815 11.1071 336.102C12.5711 334.981 13.9905 333.799 15.4845 332.721C15.9727 332.368 16.0863 332.067 15.9765 331.511C15.6694 329.96 15.42 328.4 15.1284 326.732C12.9906 326.495 11.0585 327.116 9.05661 327.52L9.05707 327.521ZM15.1255 325.651C17.2972 324.181 18.9281 322.143 20.7565 320.314C20.9231 320.147 21.0273 319.85 21.0388 319.605C21.1164 317.989 21.1597 316.372 21.2165 314.754C20.4046 314.298 19.7772 314.45 19.2879 314.912C17.1188 316.955 14.9689 319.017 12.8475 321.109C12.55 321.402 12.3114 321.879 12.2743 322.293C12.1662 323.468 12.176 324.657 12.1391 325.829C13.5443 326.181 14.463 326.102 15.1264 325.652L15.1255 325.651ZM30.5424 312.631C30.2243 312.423 29.8793 312.257 29.5603 312.053C28.9494 311.664 28.3439 311.701 27.7336 312.033C26.2121 312.86 24.6842 313.675 23.1762 314.525C22.82 314.726 22.5008 315.022 22.2334 315.334C22.0543 315.544 21.9124 315.855 21.899 316.127C21.8372 317.449 21.8734 318.776 21.7735 320.093C21.7298 320.682 21.9473 320.932 22.4333 321.104C23.5393 321.496 24.628 321.948 25.7506 322.277C26.5363 322.507 27.3695 322.572 28.1367 322.703C28.2802 322.503 28.3621 322.422 28.4045 322.321C28.8457 321.288 29.3204 320.267 29.7089 319.215C30.2823 317.662 30.8334 316.098 31.3125 314.513C31.5943 313.584 31.3631 313.164 30.5424 312.631ZM20.5931 321.285C19.177 322.733 17.7414 324.175 16.3419 325.652C16.1123 325.895 15.8865 326.311 15.9282 326.611C16.2114 328.648 16.5667 330.677 16.9344 332.91C17.9127 332.155 18.7926 331.626 19.4848 330.913C21.1994 329.147 23.0993 327.615 25.0637 326.143C25.9508 325.481 26.7534 324.691 27.4074 323.737C27.2325 323.595 27.1304 323.458 26.9983 323.413C24.9327 322.719 22.8641 322.037 20.594 321.285L20.5931 321.285ZM32.5698 315.112C32.4952 314.941 32.2617 314.84 31.9543 314.589C31.7818 315.102 31.6756 315.42 31.5685 315.736C31.1335 317.015 30.712 318.296 30.2593 319.566C29.893 320.592 29.5267 321.619 29.0877 322.614C28.8785 323.086 28.9307 323.46 29.1337 323.896C29.8384 325.402 30.4553 326.954 31.2326 328.421C31.8078 329.51 32.5815 330.495 33.2623 331.517C33.5442 331.428 33.7447 331.429 33.8156 331.332C34.2157 330.79 34.6203 330.243 34.9431 329.654C35.0672 329.427 35.0302 329.074 34.978 328.793C34.7486 327.538 34.4458 326.292 34.2435 325.032C33.767 322.089 33.3383 319.138 32.8762 316.191C32.8187 315.823 32.72 315.451 32.5703 315.112L32.5698 315.112ZM25.4949 312.397C24.6735 312.492 23.9236 312.723 23.1765 312.964C22.432 313.203 21.5553 313.056 20.8593 313.686C21.4267 313.903 21.8994 314.085 22.3466 314.258C23.4062 313.632 24.4492 313.014 25.4953 312.397L25.4949 312.397ZM35.2726 331.323C35.0993 331.36 35.0075 331.35 34.9602 331.39C34.8183 331.513 34.6833 331.645 34.5625 331.788C33.9247 332.549 33.9032 332.755 34.4789 333.561C34.8506 334.081 35.2675 334.571 35.6647 335.073C35.7603 335.035 35.8555 334.996 35.9511 334.957C35.9458 333.71 35.737 332.499 35.273 331.323L35.2726 331.323ZM34.5476 336.951C34.546 336.839 34.5431 336.728 34.5402 336.614C32.7913 336.322 31.0398 336.032 29.2922 335.734C28.2149 335.549 27.1451 335.322 26.0655 335.164C24.1977 334.893 22.3299 334.617 20.4538 334.433C19.3709 334.324 18.2179 334.185 17.1924 334.437C15.6074 334.826 14.2731 335.822 12.8267 336.855C13.1707 336.911 13.3533 336.952 13.5359 336.97C14.7722 337.09 16.0061 337.212 17.2422 337.319C19.57 337.521 21.8968 337.84 24.2263 337.868C26.1371 337.893 28.0509 337.574 29.962 337.396C31.4904 337.255 33.0198 337.1 34.5485 336.951L34.5476 336.951ZM11.3479 323.429C11.2658 323.41 11.1839 323.393 11.1019 323.374C10.6323 324.373 10.1626 325.372 9.57947 326.615C10.2368 326.473 10.6748 326.378 11.1894 326.269C11.245 325.272 11.2966 324.35 11.3479 323.43L11.3479 323.429ZM13.2605 335.516C14.5516 335.014 15.5892 334.326 16.0417 333.622C15.0905 334.119 14.1337 334.607 13.2605 335.516ZM16.9393 339.295C18.5148 339.909 19.7866 338.864 21.2052 338.596C18.5514 337.881 15.8517 337.922 13.1683 337.77C12.7607 337.746 12.3419 337.731 11.9547 337.624C10.9525 337.346 10.7585 337.357 9.72034 337.969C9.78677 338.005 9.85029 338.059 9.92001 338.072C12.2602 338.475 14.5161 339.379 16.9388 339.295L16.9393 339.295Z" fill="#DB3500"/>
</g>
<g clip-path="url(#clip4_198_934)">
<path d="M37.6694 94.1114L36.7799 95.3668L41.7605 97.6622L37.6694 94.1114Z" fill="url(#paint55_linear_198_934)"/>
<path d="M35.7486 96.7905L36.691 95.5661L41.7606 97.6621L43.1671 98.5194L35.7486 96.7905Z" fill="url(#paint56_linear_198_934)"/>
<path d="M33.9068 100.637L35.6918 97.1411L38.9717 97.4766L43.1671 98.5194L33.9068 100.637Z" fill="url(#paint57_linear_198_934)"/>
<path d="M60.0633 102.659C58.6437 102.681 57.7614 102.372 57.2058 101.964C55.5243 102.238 53.4334 102.311 51.0511 101.857C51.9591 102.756 53.6461 104.31 54.334 104.246C54.9758 104.768 60.6542 102.652 60.0633 102.659Z" fill="url(#paint58_linear_198_934)"/>
<path d="M53.0847 99.1792C55.1802 99.2271 57.3764 98.9866 59.602 98.3216C60.8329 97.4089 64.8736 94.0027 64.8736 94.0027C64.8736 94.0027 65.1067 88.3794 63.4829 84.5146C62.4645 88.6742 58.9828 96.0202 53.0847 99.1792Z" fill="url(#paint59_linear_198_934)"/>
<path d="M39.62 95.2117C39.62 95.2117 44.1024 92.8971 48.1186 93.8181C51.409 94.705 52.2403 93.112 52.2403 93.112C52.2403 93.112 49.6621 93.3305 48.6183 92.1425C48.293 91.7698 47.6508 91.6519 46.813 91.7406C44.9869 91.9248 42.0621 93.6486 39.62 95.2117Z" fill="url(#paint60_linear_198_934)"/>
<path d="M46.69 91.7155C47.5237 91.6298 48.17 91.8503 48.4952 92.223C49.542 93.4151 52.1172 93.0869 52.1172 93.0869C52.1172 93.0869 49.1688 93.6165 47.3338 90.6398C47.1161 90.4458 46.4461 89.9192 45.3645 90.4718C45.0978 90.4986 46.69 91.7155 46.69 91.7155Z" fill="url(#paint61_linear_198_934)"/>
<path d="M41.832 96.4443L39.5675 95.2427C39.5675 95.2427 43.6823 93.0759 47.7048 93.7068C47.756 93.621 50.9363 94.9148 52.2446 93.1091C52.4701 92.9623 50.9111 95.7585 46.3379 94.6907C44.0775 94.1631 41.832 96.4443 41.832 96.4443Z" fill="url(#paint62_linear_198_934)"/>
<path d="M41.8322 96.4442C41.8322 96.4442 43.8522 94.0987 46.3393 94.6835C46.3393 94.6835 45.1121 95.575 44.6697 96.1358C44.0872 96.8762 44.2329 97.4254 44.2329 97.4254L41.8322 96.4442Z" fill="url(#paint63_linear_198_934)"/>
<path d="M31.509 107.056L33.311 101.728L36.6284 99.9012L43.1668 98.5194L31.509 107.056Z" fill="url(#paint64_linear_198_934)"/>
<path d="M53.0378 104.442C53.0305 104.44 53.0262 104.443 53.0189 104.442C53.0262 104.443 53.0335 104.445 53.0378 104.442Z" fill="url(#paint65_linear_198_934)"/>
<path d="M50.4284 101.732C49.6327 101.555 48.8113 101.315 47.9585 101.004C47.4969 101.529 46.223 102.1 42.8068 100.146C42.8068 100.146 47.018 104.711 53.0149 104.445C52.8011 104.397 51.1176 103.077 50.4284 101.732Z" fill="url(#paint66_linear_198_934)"/>
<path opacity="0.13" d="M64.8694 94.0056L60.0633 102.659C60.0633 102.659 50.8387 107.36 37.702 94.1133C37.6318 94.0138 51.7288 102.826 64.8694 94.0056Z" fill="#141413"/>
<path d="M65.2384 95.6451L61.726 100.485C61.726 100.485 50.7258 107.148 37.706 94.1102C37.6316 94.0137 52.0937 104.468 65.2384 95.6451Z" fill="url(#paint67_linear_198_934)"/>
<path opacity="0.7" d="M49.2618 112.844C47.9922 113.976 46.5809 114.952 45.0341 115.816C45.6111 115.089 46.1689 114.347 46.7702 113.642C48.8598 111.192 50.9966 108.784 53.0518 106.308C54.8873 104.096 56.6302 101.808 58.4317 99.5707C59.4803 98.2628 60.8653 97.58 62.5388 97.4711C63.0718 97.4377 63.6022 97.3548 64.1377 97.3193C64.6466 97.2866 65.159 97.2864 65.6679 97.273C65.7079 97.3674 65.748 97.4606 65.7861 97.5565C65.3761 97.9488 64.9771 98.3491 64.5577 98.73C61.2316 101.755 57.8893 104.758 54.5825 107.802C52.7837 109.458 51.087 111.22 49.2625 112.844L49.2618 112.844Z" fill="#E84200"/>
<path opacity="0.7" d="M71.2272 87.6056C71.6277 88.9917 72.0163 90.3803 72.4314 91.7607C72.5992 92.3215 72.3535 92.7496 71.964 93.0389C71.1603 93.6393 70.3008 94.1651 69.2405 94.8701C69.3196 92.0968 70.4721 89.9071 70.9513 87.5491C71.0433 87.5679 71.1352 87.5867 71.2278 87.605L71.2272 87.6056Z" fill="#E84200"/>
<path opacity="0.7" d="M56.2859 100.144C55.967 102.022 45.6515 114.311 40.7236 118.687C38.1951 116.152 35.7254 113.68 33.256 111.205C33.2989 110.491 33.6947 110.17 34.3036 109.792C36.8768 108.191 39.855 107.651 42.5744 106.45C44.2706 105.701 45.9378 104.877 47.6174 104.085C50.2211 102.856 52.8255 101.624 55.4346 100.4C55.6901 100.283 55.9814 100.234 56.2848 100.143L56.2859 100.144Z" fill="#FF6500"/>
<path opacity="0.7" d="M69.5036 84.6315C69.3027 86.5438 69.21 88.4711 68.8668 90.3529C68.5807 91.9221 68.0215 93.4496 67.5259 94.9736C67.4411 95.2353 67.0932 95.5254 66.8161 95.5912C65.7788 95.8381 64.7204 95.9953 63.6719 96.1914C63.0477 96.3074 62.4339 96.4694 61.8053 96.5375C61.5047 96.5714 61.0795 96.5472 60.8903 96.3616C57.6432 93.1943 54.3277 90.0828 51.6039 86.3074C53.3436 85.3954 67.2385 84.1327 69.5036 84.6315Z" fill="#FFC24F"/>
<path d="M33.2562 111.205C35.7256 113.68 38.1953 116.152 40.7237 118.687C45.6517 114.311 55.9673 102.021 56.2861 100.144C55.9827 100.235 55.6913 100.284 55.4358 100.401C52.8274 101.625 50.2229 102.856 47.6187 104.086C45.9391 104.878 44.2724 105.701 42.5756 106.451C39.8563 107.652 36.8786 108.193 34.3048 109.794C33.6948 110.172 33.299 110.492 33.2573 111.206L33.2562 111.205ZM39.1538 118.124C37.0024 116.11 34.9209 114.157 32.8326 112.215C32.6578 112.051 32.3984 111.981 32.2147 111.825C31.7543 111.442 31.3336 111.503 30.9007 111.87C30.1554 112.498 29.3625 113.077 28.6632 113.752C27.905 114.483 26.9345 115.082 26.7737 116.267C28.7918 117.322 37.617 118.724 39.1538 118.124ZM70.9509 87.5486C70.4717 89.9065 69.3197 92.0968 69.2401 94.8695C70.2999 94.1639 71.1594 93.6381 71.9637 93.0383C72.3537 92.7485 72.5989 92.3209 72.431 91.7601C72.0171 90.3798 71.6274 88.9911 71.2268 87.605C71.1349 87.5862 71.0429 87.5674 70.9503 87.5491L70.9509 87.5486ZM53.0524 106.308C50.9968 108.783 48.8605 111.192 46.7708 113.641C46.1695 114.347 45.6117 115.089 45.0348 115.816C46.5821 114.952 47.9934 113.976 49.2625 112.844C51.0877 111.22 52.7849 109.458 54.5825 107.802C57.8893 104.758 61.2316 101.755 64.5577 98.73C64.9767 98.3485 65.3762 97.9488 65.7861 97.5565C65.748 97.4606 65.7079 97.3674 65.6679 97.2731C65.159 97.2864 64.6466 97.2878 64.1378 97.3193C63.6029 97.3543 63.0725 97.4372 62.5389 97.4712C60.866 97.5795 59.4815 98.2629 58.4317 99.5707C56.6307 101.809 54.8873 104.096 53.0518 106.308L53.0524 106.308ZM66.4219 82.0528C67.5496 82.3422 68.7205 82.4733 69.8792 82.6348C70.8692 82.7707 71.208 83.0044 71.4303 83.8481C72.2154 86.801 73.0014 89.7511 73.8151 92.8143C73.3879 93.1202 72.8614 93.4604 72.3757 93.8494C69.742 95.9533 67.0788 98.0206 64.5067 100.194C62.1174 102.213 59.823 104.339 57.501 106.434C56.2719 107.545 55.0818 108.703 53.8606 109.823C52.021 111.509 50.1913 113.208 48.3155 114.855C46.8075 116.179 45.2947 117.511 43.6719 118.682C42.7845 119.32 42.2027 120.063 41.7895 121.292C41.0561 120.91 40.4541 120.616 39.8717 120.293C38.5714 119.571 37.1554 119.264 35.6998 119.033C32.5676 118.534 29.4412 117.997 26.3193 117.442C24.8795 117.184 24.8513 117.147 24.899 115.681C24.973 113.349 25.0274 111.013 25.2498 108.691C25.319 107.952 25.7325 107.098 26.2632 106.576C28.1208 104.75 29.7073 102.733 31.1157 100.549C31.9572 99.2448 32.9671 98.0464 33.868 96.7791C35.6428 94.2765 37.3508 91.7287 39.1675 89.261C40.5875 87.3354 42.1357 85.5057 43.6237 83.6307C44.8606 82.0681 46.0637 80.479 47.3483 78.9528C47.6138 78.6359 48.3375 78.2771 48.5478 78.4108C49.7647 79.1859 51.0581 78.821 52.2776 78.7076C54.3127 78.5171 56.1059 79.3107 57.9767 79.7799C60.8033 80.4896 63.5971 81.3351 66.4214 82.0522L66.4219 82.0528ZM68.8669 90.3541C69.2108 88.4717 69.3028 86.5449 69.5037 84.6327C67.2381 84.1333 53.3425 85.3964 51.604 86.3086C54.3283 90.0846 57.6432 93.1954 60.8904 96.3627C61.0807 96.5484 61.5059 96.5726 61.8053 96.5387C62.4335 96.4699 63.0478 96.3085 63.672 96.1925C64.7205 95.9964 65.7794 95.8399 66.8161 95.5924C67.0932 95.5265 67.4412 95.2364 67.526 94.9747C68.0211 93.4502 68.5808 91.9232 68.8669 90.3541ZM58.2679 97.3294C58.7298 97.0999 59.2238 96.7362 58.7852 96.2103C57.795 95.0229 56.7151 93.9146 55.659 92.7822C54.9615 92.0333 54.2235 91.317 53.5411 90.5554C52.444 89.3273 51.3777 88.0757 50.1638 86.6779C43.4987 92.6306 37.5774 99.1735 30.6171 104.57C29.5922 105.368 28.727 106.372 27.5547 107.509C28.2568 107.663 28.6304 107.739 29.003 107.827C30.5541 108.192 32.2317 107.672 33.7201 108.52C33.8873 108.614 34.203 108.503 34.4275 108.424C36.8129 107.571 39.2319 106.794 41.5627 105.815C43.4437 105.023 45.2255 103.99 47.0423 103.048C49.5577 101.747 52.0569 100.424 54.5767 99.1315C55.7945 98.5045 57.0418 97.9387 58.2684 97.3301L58.2679 97.3294ZM26.2407 114.556L30.8431 110.718C29.8277 109.653 28.547 109.257 27.3758 108.705C26.8138 108.441 26.2253 108.917 26.1501 109.606C26.0336 110.671 25.9342 111.741 25.9179 112.812C25.9129 113.348 26.1096 113.887 26.24 114.556L26.2407 114.556ZM31.6597 110.014C31.8326 108.864 31.5011 108.685 29.9696 109.093C30.5872 109.428 31.1052 109.713 31.6597 110.014ZM65.9846 83.13C64.76 82.6446 63.5354 82.2429 62.3007 81.8742C60.2992 81.2791 58.3005 80.672 56.2837 80.1346C54.867 79.759 54.6429 79.891 53.9558 81.1712C53.433 82.1458 52.9426 83.1374 52.3693 84.2551C57.0238 84.3762 61.4881 83.6314 65.984 83.1305L65.9846 83.13ZM31.267 102.478C32.4604 101.566 33.7224 100.724 34.8374 99.721C37.1949 97.5964 39.5178 95.4265 41.7782 93.1972C43.5145 91.4821 45.1151 89.6313 46.8095 87.8739C47.6466 87.0042 48.5634 86.2108 49.5535 85.2799C49.6346 81.8054 49.5631 81.5173 48.1749 80.1811C47.0875 81.2789 45.9731 82.3584 44.9101 83.4894C41.9573 86.6331 39.6124 90.2442 37.085 93.7177C36.0821 95.0959 35.0619 96.4649 34.0857 97.8648C33.0601 99.3381 32.0767 100.843 31.073 102.332C31.1365 102.381 31.2018 102.429 31.2646 102.478L31.267 102.478ZM51.1831 83.8363C52.3431 82.6426 53.0153 81.4297 53.5008 79.882C52.3819 80.0091 51.4358 80.1167 50.4793 80.2233C50.7177 81.4537 50.9345 82.5628 51.1831 83.8363Z" fill="#DB3500"/>
<path opacity="0.7" d="M39.1537 118.124C37.6169 118.724 28.7917 117.322 26.7737 116.267C26.9338 115.083 27.9042 114.484 28.6631 113.752C29.3624 113.077 30.1553 112.498 30.9006 111.87C31.3341 111.502 31.7548 111.441 32.2146 111.825C32.3983 111.981 32.6577 112.051 32.8326 112.214C34.9213 114.158 37.0023 116.109 39.1537 118.124Z" fill="#E84200"/>
<path opacity="0.7" d="M30.8437 110.717L26.2413 114.555C26.1114 113.886 25.9135 113.348 25.9191 112.811C25.9354 111.74 26.0348 110.67 26.1513 109.605C26.226 108.915 26.8151 108.44 27.3771 108.704C28.5482 109.255 29.8294 109.653 30.8443 110.717L30.8437 110.717Z" fill="#FF6500"/>
<path opacity="0.7" d="M29.97 109.092C31.5015 108.685 31.8329 108.864 31.6601 110.014C31.1056 109.712 30.5876 109.427 29.97 109.092Z" fill="#FF820F"/>
<path opacity="0.7" d="M62.3001 81.8747C63.5354 82.2428 64.76 82.6445 65.984 83.1305C61.4881 83.6313 57.0232 84.3767 52.3693 84.255C52.9421 83.1367 53.4319 82.1456 53.9559 81.1711C54.6423 79.8915 54.867 79.7589 56.2837 80.1346C58.3005 80.6719 60.2992 81.2791 62.3008 81.8742L62.3001 81.8747Z" fill="#FF820F"/>
<path opacity="0.7" d="M34.8377 99.7216C33.7227 100.724 32.4607 101.566 31.2672 102.479C31.2038 102.43 31.1384 102.382 31.0756 102.333C32.0786 100.844 33.0627 99.3389 34.0883 97.8656C35.0639 96.4662 36.0836 95.0965 37.0876 93.7185C39.615 90.2449 41.9606 86.6333 44.9127 83.4901C45.9751 82.3585 47.0901 81.2796 48.1775 80.1819C49.5657 81.5181 49.6367 81.8055 49.5561 85.2807C48.566 86.2115 47.6492 87.005 46.8121 87.8747C45.1177 89.6321 43.5166 91.4823 41.7808 93.1979C39.5199 95.4267 37.1969 97.5966 34.84 99.7218L34.8377 99.7216Z" fill="#FF820F"/>
<path opacity="0.7" d="M53.5001 79.8825C53.0146 81.4302 52.3429 82.6438 51.1824 83.8369C50.9338 82.5633 50.7171 81.4543 50.4786 80.2238C51.4352 80.1172 52.3819 80.0091 53.5001 79.8825Z" fill="#E84200"/>
</g>
<defs>
<linearGradient id="paint0_linear_198_934" x1="220.74" y1="63.4322" x2="31.3658" y2="398.528" gradientUnits="userSpaceOnUse">
<stop stop-color="#FE7F09"/>
<stop offset="1" stop-color="#FE350C"/>
</linearGradient>
<linearGradient id="paint1_linear_198_934" x1="263.842" y1="87.7909" x2="74.468" y2="422.887" gradientUnits="userSpaceOnUse">
<stop stop-color="#FE7F09"/>
<stop offset="1" stop-color="#FE350C"/>
</linearGradient>
<linearGradient id="paint2_linear_198_934" x1="333.247" y1="127.012" x2="143.873" y2="462.113" gradientUnits="userSpaceOnUse">
<stop stop-color="#FE7F09"/>
<stop offset="1" stop-color="#FE350C"/>
</linearGradient>
<linearGradient id="paint3_linear_198_934" x1="200.886" y1="89.7973" x2="205.6" y2="89.7973" gradientUnits="userSpaceOnUse">
<stop stop-color="#FBB040"/>
<stop offset="0.9985" stop-color="#F9ED32"/>
</linearGradient>
<linearGradient id="paint4_linear_198_934" x1="201.557" y1="89.9874" x2="206.731" y2="90.4601" gradientUnits="userSpaceOnUse">
<stop stop-color="#FBB040"/>
<stop offset="0.9985" stop-color="#F9ED32"/>
</linearGradient>
<linearGradient id="paint5_linear_198_934" x1="202.186" y1="91.629" x2="206.587" y2="92.0312" gradientUnits="userSpaceOnUse">
<stop stop-color="#FBB040"/>
<stop offset="0.9985" stop-color="#F9ED32"/>
</linearGradient>
<linearGradient id="paint6_linear_198_934" x1="213.614" y1="80.835" x2="219.623" y2="80.835" gradientUnits="userSpaceOnUse">
<stop offset="0.192" stop-color="#FBB040"/>
<stop offset="0.9985" stop-color="#F9ED32"/>
</linearGradient>
<linearGradient id="paint7_linear_198_934" x1="215.643" y1="79.6685" x2="209.72" y2="66.6122" gradientUnits="userSpaceOnUse">
<stop stop-color="#FBB040"/>
<stop offset="0.9985" stop-color="#F9ED32"/>
</linearGradient>
<linearGradient id="paint8_linear_198_934" x1="206.438" y1="83.7052" x2="211.533" y2="83.7052" gradientUnits="userSpaceOnUse">
<stop stop-color="#F0A321"/>
<stop offset="1" stop-color="#F0582E"/>
</linearGradient>
<linearGradient id="paint9_linear_198_934" x1="202.196" y1="80.4432" x2="207.605" y2="80.4432" gradientUnits="userSpaceOnUse">
<stop stop-color="#F0A321"/>
<stop offset="1" stop-color="#F0582E"/>
</linearGradient>
<linearGradient id="paint10_linear_198_934" x1="203.335" y1="82.4342" x2="208.076" y2="85.7244" gradientUnits="userSpaceOnUse">
<stop stop-color="#F0A321"/>
<stop offset="1" stop-color="#F0582E"/>
</linearGradient>
<linearGradient id="paint11_linear_198_934" x1="208.988" y1="89.5892" x2="205.421" y2="85.9419" gradientUnits="userSpaceOnUse">
<stop stop-color="#F0A321"/>
<stop offset="1" stop-color="#F0582E"/>
</linearGradient>
<linearGradient id="paint12_linear_198_934" x1="204.451" y1="94.2151" x2="207.763" y2="94.5177" gradientUnits="userSpaceOnUse">
<stop stop-color="#FBB040"/>
<stop offset="0.9985" stop-color="#F9ED32"/>
</linearGradient>
<linearGradient id="paint13_linear_198_934" x1="216.38" y1="83.8294" x2="216.391" y2="83.8294" gradientUnits="userSpaceOnUse">
<stop stop-color="#FBB040"/>
<stop offset="0.9985" stop-color="#F9ED32"/>
</linearGradient>
<linearGradient id="paint14_linear_198_934" x1="207.961" y1="86.4594" x2="216.38" y2="86.4594" gradientUnits="userSpaceOnUse">
<stop offset="0.5015" stop-color="#FBB040"/>
<stop offset="0.9985" stop-color="#F9ED32"/>
</linearGradient>
<linearGradient id="paint15_linear_198_934" x1="203.178" y1="88.0533" x2="216.779" y2="75.3596" gradientUnits="userSpaceOnUse">
<stop offset="0.7201" stop-color="#FBB040"/>
<stop offset="1" stop-color="#F9ED32"/>
</linearGradient>
<linearGradient id="paint16_linear_198_934" x1="100.116" y1="234.135" x2="118.672" y2="234.568" gradientUnits="userSpaceOnUse">
<stop stop-color="#FBB040"/>
<stop offset="0.9985" stop-color="#F9ED32"/>
</linearGradient>
<linearGradient id="paint17_linear_198_934" x1="102.738" y1="234.945" x2="123.062" y2="237.282" gradientUnits="userSpaceOnUse">
<stop stop-color="#FBB040"/>
<stop offset="0.9985" stop-color="#F9ED32"/>
</linearGradient>
<linearGradient id="paint18_linear_198_934" x1="105.064" y1="241.465" x2="122.354" y2="243.453" gradientUnits="userSpaceOnUse">
<stop stop-color="#FBB040"/>
<stop offset="0.9985" stop-color="#F9ED32"/>
</linearGradient>
<linearGradient id="paint19_linear_198_934" x1="151.046" y1="200.025" x2="174.7" y2="200.578" gradientUnits="userSpaceOnUse">
<stop offset="0.192" stop-color="#FBB040"/>
<stop offset="0.9985" stop-color="#F9ED32"/>
</linearGradient>
<linearGradient id="paint20_linear_198_934" x1="159.141" y1="195.62" x2="137.023" y2="143.678" gradientUnits="userSpaceOnUse">
<stop stop-color="#FBB040"/>
<stop offset="0.9985" stop-color="#F9ED32"/>
</linearGradient>
<linearGradient id="paint21_linear_198_934" x1="122.532" y1="210.663" x2="142.59" y2="211.132" gradientUnits="userSpaceOnUse">
<stop stop-color="#F0A321"/>
<stop offset="1" stop-color="#F0582E"/>
</linearGradient>
<linearGradient id="paint22_linear_198_934" x1="106.133" y1="197.433" x2="127.425" y2="197.93" gradientUnits="userSpaceOnUse">
<stop stop-color="#F0A321"/>
<stop offset="1" stop-color="#F0582E"/>
</linearGradient>
<linearGradient id="paint23_linear_198_934" x1="110.434" y1="205.375" x2="128.796" y2="218.763" gradientUnits="userSpaceOnUse">
<stop stop-color="#F0A321"/>
<stop offset="1" stop-color="#F0582E"/>
</linearGradient>
<linearGradient id="paint24_linear_198_934" x1="132.028" y1="234.061" x2="118.325" y2="219.375" gradientUnits="userSpaceOnUse">
<stop stop-color="#F0A321"/>
<stop offset="1" stop-color="#F0582E"/>
</linearGradient>
<linearGradient id="paint25_linear_198_934" x1="113.745" y1="251.854" x2="126.755" y2="253.35" gradientUnits="userSpaceOnUse">
<stop stop-color="#FBB040"/>
<stop offset="0.9985" stop-color="#F9ED32"/>
</linearGradient>
<linearGradient id="paint26_linear_198_934" x1="161.659" y1="212.066" x2="161.701" y2="212.067" gradientUnits="userSpaceOnUse">
<stop stop-color="#FBB040"/>
<stop offset="0.9985" stop-color="#F9ED32"/>
</linearGradient>
<linearGradient id="paint27_linear_198_934" x1="128.276" y1="221.646" x2="161.417" y2="222.42" gradientUnits="userSpaceOnUse">
<stop offset="0.5015" stop-color="#FBB040"/>
<stop offset="0.9985" stop-color="#F9ED32"/>
</linearGradient>
<linearGradient id="paint28_linear_198_934" x1="109.301" y1="227.48" x2="164.007" y2="178.762" gradientUnits="userSpaceOnUse">
<stop offset="0.7201" stop-color="#FBB040"/>
<stop offset="1" stop-color="#F9ED32"/>
</linearGradient>
<linearGradient id="paint29_linear_198_934" x1="220.807" y1="328.481" x2="225.911" y2="332.815" gradientUnits="userSpaceOnUse">
<stop stop-color="#FBB040"/>
<stop offset="0.9985" stop-color="#F9ED32"/>
</linearGradient>
<linearGradient id="paint30_linear_198_934" x1="221.359" y1="329.304" x2="226.525" y2="334.573" gradientUnits="userSpaceOnUse">
<stop stop-color="#FBB040"/>
<stop offset="0.9985" stop-color="#F9ED32"/>
</linearGradient>
<linearGradient id="paint31_linear_198_934" x1="220.53" y1="331.659" x2="224.925" y2="336.141" gradientUnits="userSpaceOnUse">
<stop stop-color="#FBB040"/>
<stop offset="0.9985" stop-color="#F9ED32"/>
</linearGradient>
<linearGradient id="paint32_linear_198_934" x1="242.827" y1="330.481" x2="249.332" y2="336.006" gradientUnits="userSpaceOnUse">
<stop offset="0.192" stop-color="#FBB040"/>
<stop offset="0.9985" stop-color="#F9ED32"/>
</linearGradient>
<linearGradient id="paint33_linear_198_934" x1="246.096" y1="331.084" x2="251.687" y2="311.503" gradientUnits="userSpaceOnUse">
<stop stop-color="#FBB040"/>
<stop offset="0.9985" stop-color="#F9ED32"/>
</linearGradient>
<linearGradient id="paint34_linear_198_934" x1="232.419" y1="326.991" x2="237.935" y2="331.675" gradientUnits="userSpaceOnUse">
<stop stop-color="#F0A321"/>
<stop offset="1" stop-color="#F0582E"/>
</linearGradient>
<linearGradient id="paint35_linear_198_934" x1="230.825" y1="319.559" x2="236.681" y2="324.532" gradientUnits="userSpaceOnUse">
<stop stop-color="#F0A321"/>
<stop offset="1" stop-color="#F0582E"/>
</linearGradient>
<linearGradient id="paint36_linear_198_934" x1="230.228" y1="322.762" x2="232.336" y2="330.683" gradientUnits="userSpaceOnUse">
<stop stop-color="#F0A321"/>
<stop offset="1" stop-color="#F0582E"/>
</linearGradient>
<linearGradient id="paint37_linear_198_934" x1="229.77" y1="335.705" x2="229.262" y2="328.478" gradientUnits="userSpaceOnUse">
<stop stop-color="#F0A321"/>
<stop offset="1" stop-color="#F0582E"/>
</linearGradient>
<linearGradient id="paint38_linear_198_934" x1="220.605" y1="336.542" x2="223.912" y2="339.915" gradientUnits="userSpaceOnUse">
<stop stop-color="#FBB040"/>
<stop offset="0.9985" stop-color="#F9ED32"/>
</linearGradient>
<linearGradient id="paint39_linear_198_934" x1="243.069" y1="336.265" x2="243.079" y2="336.274" gradientUnits="userSpaceOnUse">
<stop stop-color="#FBB040"/>
<stop offset="0.9985" stop-color="#F9ED32"/>
</linearGradient>
<linearGradient id="paint40_linear_198_934" x1="231.536" y1="331.373" x2="240.65" y2="339.113" gradientUnits="userSpaceOnUse">
<stop offset="0.5015" stop-color="#FBB040"/>
<stop offset="0.9985" stop-color="#F9ED32"/>
</linearGradient>
<linearGradient id="paint41_linear_198_934" x1="224.893" y1="328.701" x2="251.287" y2="327.463" gradientUnits="userSpaceOnUse">
<stop offset="0.7201" stop-color="#FBB040"/>
<stop offset="1" stop-color="#F9ED32"/>
</linearGradient>
<linearGradient id="paint42_linear_198_934" x1="25.2626" y1="333.993" x2="26.8341" y2="331.354" gradientUnits="userSpaceOnUse">
<stop stop-color="#FBB040"/>
<stop offset="0.9985" stop-color="#F9ED32"/>
</linearGradient>
<linearGradient id="paint43_linear_198_934" x1="25.5924" y1="333.681" x2="27.582" y2="330.942" gradientUnits="userSpaceOnUse">
<stop stop-color="#FBB040"/>
<stop offset="0.9985" stop-color="#F9ED32"/>
</linearGradient>
<linearGradient id="paint44_linear_198_934" x1="26.7214" y1="333.876" x2="28.414" y2="331.546" gradientUnits="userSpaceOnUse">
<stop stop-color="#FBB040"/>
<stop offset="0.9985" stop-color="#F9ED32"/>
</linearGradient>
<linearGradient id="paint45_linear_198_934" x1="24.4883" y1="323.879" x2="26.4916" y2="320.515" gradientUnits="userSpaceOnUse">
<stop offset="0.192" stop-color="#FBB040"/>
<stop offset="0.9985" stop-color="#F9ED32"/>
</linearGradient>
<linearGradient id="paint46_linear_198_934" x1="24.5119" y1="322.354" x2="15.2272" y2="321.318" gradientUnits="userSpaceOnUse">
<stop stop-color="#FBB040"/>
<stop offset="0.9985" stop-color="#F9ED32"/>
</linearGradient>
<linearGradient id="paint47_linear_198_934" x1="23.7028" y1="328.854" x2="25.4015" y2="326.001" gradientUnits="userSpaceOnUse">
<stop stop-color="#F0A321"/>
<stop offset="1" stop-color="#F0582E"/>
</linearGradient>
<linearGradient id="paint48_linear_198_934" x1="20.4622" y1="330.141" x2="22.2654" y2="327.113" gradientUnits="userSpaceOnUse">
<stop stop-color="#F0A321"/>
<stop offset="1" stop-color="#F0582E"/>
</linearGradient>
<linearGradient id="paint49_linear_198_934" x1="21.957" y1="330.167" x2="25.3798" y2="328.61" gradientUnits="userSpaceOnUse">
<stop stop-color="#F0A321"/>
<stop offset="1" stop-color="#F0582E"/>
</linearGradient>
<linearGradient id="paint50_linear_198_934" x1="27.8472" y1="329.388" x2="24.6163" y2="330.168" gradientUnits="userSpaceOnUse">
<stop stop-color="#F0A321"/>
<stop offset="1" stop-color="#F0582E"/>
</linearGradient>
<linearGradient id="paint51_linear_198_934" x1="28.9247" y1="333.47" x2="30.1982" y2="331.716" gradientUnits="userSpaceOnUse">
<stop stop-color="#FBB040"/>
<stop offset="0.9985" stop-color="#F9ED32"/>
</linearGradient>
<linearGradient id="paint52_linear_198_934" x1="27.0871" y1="323.329" x2="27.0909" y2="323.323" gradientUnits="userSpaceOnUse">
<stop stop-color="#FBB040"/>
<stop offset="0.9985" stop-color="#F9ED32"/>
</linearGradient>
<linearGradient id="paint53_linear_198_934" x1="25.7527" y1="328.919" x2="28.5594" y2="324.206" gradientUnits="userSpaceOnUse">
<stop offset="0.5015" stop-color="#FBB040"/>
<stop offset="0.9985" stop-color="#F9ED32"/>
</linearGradient>
<linearGradient id="paint54_linear_198_934" x1="25.0505" y1="332.128" x2="22.4779" y2="320.282" gradientUnits="userSpaceOnUse">
<stop offset="0.7201" stop-color="#FBB040"/>
<stop offset="1" stop-color="#F9ED32"/>
</linearGradient>
<linearGradient id="paint55_linear_198_934" x1="37.6038" y1="94.1547" x2="40.6391" y2="98.4529" gradientUnits="userSpaceOnUse">
<stop stop-color="#FBB040"/>
<stop offset="0.9985" stop-color="#F9ED32"/>
</linearGradient>
<linearGradient id="paint56_linear_198_934" x1="37.8624" y1="94.8885" x2="40.763" y2="99.9107" gradientUnits="userSpaceOnUse">
<stop stop-color="#FBB040"/>
<stop offset="0.9985" stop-color="#F9ED32"/>
</linearGradient>
<linearGradient id="paint57_linear_198_934" x1="36.7704" y1="96.5189" x2="39.238" y2="100.791" gradientUnits="userSpaceOnUse">
<stop stop-color="#FBB040"/>
<stop offset="0.9985" stop-color="#F9ED32"/>
</linearGradient>
<linearGradient id="paint58_linear_198_934" x1="53.9723" y1="99.9898" x2="57.8416" y2="105.469" gradientUnits="userSpaceOnUse">
<stop offset="0.192" stop-color="#FBB040"/>
<stop offset="0.9985" stop-color="#F9ED32"/>
</linearGradient>
<linearGradient id="paint59_linear_198_934" x1="56.3426" y1="101.089" x2="64.4336" y2="87.2804" gradientUnits="userSpaceOnUse">
<stop stop-color="#FBB040"/>
<stop offset="0.9985" stop-color="#F9ED32"/>
</linearGradient>
<linearGradient id="paint60_linear_198_934" x1="46.7339" y1="95.2944" x2="50.0149" y2="99.9405" gradientUnits="userSpaceOnUse">
<stop stop-color="#F0A321"/>
<stop offset="1" stop-color="#F0582E"/>
</linearGradient>
<linearGradient id="paint61_linear_198_934" x1="46.9767" y1="89.3256" x2="50.4595" y2="94.2575" gradientUnits="userSpaceOnUse">
<stop stop-color="#F0A321"/>
<stop offset="1" stop-color="#F0582E"/>
</linearGradient>
<linearGradient id="paint62_linear_198_934" x1="45.8949" y1="91.6467" x2="45.9478" y2="98.0888" gradientUnits="userSpaceOnUse">
<stop stop-color="#F0A321"/>
<stop offset="1" stop-color="#F0582E"/>
</linearGradient>
<linearGradient id="paint63_linear_198_934" x1="43.0107" y1="101.408" x2="44.0401" y2="95.8077" gradientUnits="userSpaceOnUse">
<stop stop-color="#F0A321"/>
<stop offset="1" stop-color="#F0582E"/>
</linearGradient>
<linearGradient id="paint64_linear_198_934" x1="35.871" y1="100.25" x2="37.7278" y2="103.465" gradientUnits="userSpaceOnUse">
<stop stop-color="#FBB040"/>
<stop offset="0.9985" stop-color="#F9ED32"/>
</linearGradient>
<linearGradient id="paint65_linear_198_934" x1="53.0235" y1="104.44" x2="53.03" y2="104.449" gradientUnits="userSpaceOnUse">
<stop stop-color="#FBB040"/>
<stop offset="0.9985" stop-color="#F9ED32"/>
</linearGradient>
<linearGradient id="paint66_linear_198_934" x1="45.2035" y1="98.4568" x2="50.6246" y2="106.133" gradientUnits="userSpaceOnUse">
<stop offset="0.5015" stop-color="#FBB040"/>
<stop offset="0.9985" stop-color="#F9ED32"/>
</linearGradient>
<linearGradient id="paint67_linear_198_934" x1="40.6703" y1="95.1219" x2="61.0026" y2="99.3496" gradientUnits="userSpaceOnUse">
<stop offset="0.7201" stop-color="#FBB040"/>
<stop offset="1" stop-color="#F9ED32"/>
</linearGradient>
<clipPath id="clip0_198_934">
<rect width="278" height="402" fill="white" transform="translate(0.333008)"/>
</clipPath>
<clipPath id="clip1_198_934">
<rect width="55.2726" height="45.0766" fill="white" transform="translate(184.612 54.96) rotate(15.1379)"/>
</clipPath>
<clipPath id="clip2_198_934">
<rect width="36.8651" height="72.613" fill="white" transform="translate(239.548 290.57) rotate(35.7443)"/>
</clipPath>
<clipPath id="clip3_198_934">
<rect width="36.0163" height="29.3725" fill="white" transform="translate(0.333008 331.49) rotate(-44.0897)"/>
</clipPath>
<clipPath id="clip4_198_934">
<rect width="28.974" height="57.0699" fill="white" transform="translate(59.2949 68.9692) rotate(50.1762)"/>
</clipPath>
</defs>
</svg>
